    0
SECTION
    2
HEADER
    9
$ACADVER
    1
AC1015
    9
$DWGCODEPAGE
    3
ANSI_1251
    9
$HANDSEED
    5
296
    9
$TILEMODE
    70
1
    9
$CECOLOR
    62
256
    9
$CELTSCALE
    40
1
    9
$CELTYPE
    6
ByLayer
    9
$CELWEIGHT
    370
-1
    9
$CLAYER
    8
0
    9
$CMLSTYLE
    2
Standard
    9
$DIMSTYLE
    2
ISO-25
    9
$INSBASE
    10
0
    20
0
    30
0
    9
$PDMODE
    70
0
    9
$PDSIZE
    40
0
    9
$TEXTSTYLE
    7
Standard
    9
$LWDISPLAY
    290
0
    9
$LTSCALE
    40
1
    9
$PSLTSCALE
    70
0
    9
$LIMMIN
    10
-0.217854394344968
    20
-5
    9
$LIMMAX
    10
157.916664123535
    20
100.925622999278
    9
$MEASUREMENT
    70
1
    0
ENDSEC
    0
SECTION
    2
CLASSES
    0
CLASS
    1
RASTERVARIABLES
    2
AcDbRasterVariables
    3
ISM
    90
0
    280
0
    281
0
    0
CLASS
    1
IMAGEDEF
    2
AcDbRasterImageDef
    3
ISM
    90
0
    280
0
    281
0
    0
CLASS
    1
IMAGEDEF_REACTOR
    2
AcDbRasterImageDefReactor
    3
ISM
    90
1
    280
0
    281
0
    0
CLASS
    1
IMAGE
    2
AcDbRasterImage
    3
ISM
    90
2175
    280
0
    281
1
    0
CLASS
    1
WIPEOUT
    2
AcDbWipeout
    3
"WipeOut|Product Desc: Object Enabler for WipeOut entity^I^I^I^I^I^I|Company: Autodesk, Inc.^I^I^I^I^I^I|WEB Address: www.autodesk.com"
    90
2175
    280
0
    281
1
    0
CLASS
    1
WIPEOUTVARIABLES
    2
AcDbWipeoutVariables
    3
"WipeOut|Product Desc:     WipeOut Dbx Application|Company:          Autodesk, Inc.|WEB Address:      www.autodesk.com"
    90
0
    280
0
    281
0
    0
CLASS
    1
ARC_DIMENSION
    2
AcDbArcDimension
    3
ObjectDBX Classes
    90
1025
    280
0
    281
1
    0
CLASS
    1
LARGE_RADIAL_DIMENSION
    2
AcDbRadialDimensionLarge
    3
ObjectDBX Classes
    90
1025
    280
0
    281
1
    0
CLASS
    1
LAYOUT
    2
AcDbLayout
    3
ObjectDBX Classes
    90
0
    280
0
    281
0
    0
CLASS
    1
FIELD
    2
AcDbField
    3
ObjectDBX Classes
    90
1152
    280
0
    281
0
    0
CLASS
    1
FIELDLIST
    2
AcDbFieldList
    3
ObjectDBX Classes
    90
1152
    280
0
    281
0
    0
ENDSEC
    0
SECTION
    2
TABLES
    0
TABLE
    2
VPORT
    5
1
    100
AcDbSymbolTable
    0
ENDTAB
    0
TABLE
    2
LTYPE
    5
2
    100
AcDbSymbolTable
    0
LTYPE
    5
203
    100
AcDbSymbolTableRecord
    100
AcDbLinetypeTableRecord
    2
ByLayer
    3
По слою
    70
0
    72
65
    73
0
    40
0
    0
LTYPE
    5
204
    100
AcDbSymbolTableRecord
    100
AcDbLinetypeTableRecord
    2
ByBlock
    3
По блоку
    70
0
    72
65
    73
0
    40
0
    0
LTYPE
    5
205
    100
AcDbSymbolTableRecord
    100
AcDbLinetypeTableRecord
    2
Continuous
    3
Сплошная
    70
0
    72
65
    73
0
    40
0
    0
LTYPE
    5
206
    100
AcDbSymbolTableRecord
    100
AcDbLinetypeTableRecord
    2
осевая2
    3
Осевая (.5x) ___ _ ___ _ ___ _ ___ _ ___ _ ___
    70
0
    72
65
    73
4
    40
1.125
    49
0.75
    74
0
    49
-0.125
    74
0
    49
0.125
    74
0
    49
-0.125
    74
0
    0
LTYPE
    5
207
    100
AcDbSymbolTableRecord
    100
AcDbLinetypeTableRecord
    2
штриховая
    3
Штриховая __ __ __ __ __ __ __ __ __ __ __ __ __ _
    70
0
    72
65
    73
2
    40
0.75
    49
0.5
    74
0
    49
-0.25
    74
0
    0
ENDTAB
    0
TABLE
    2
LAYER
    5
1A
    102
{ACAD_XDICTIONARY
    360
1B
    102
}
    330
0
    100
AcDbSymbolTable
    0
LAYER
    5
10
    100
AcDbSymbolTableRecord
    100
AcDbLayerTableRecord
    2
0
    70
0
    62
7
    6
Continuous
    370
-3
    390
19
    0
LAYER
    5
20A
    100
AcDbSymbolTableRecord
    100
AcDbLayerTableRecord
    2
Линейка абсолютных высот
    70
0
    62
7
    6
Continuous
    370
-3
    390
19
    0
LAYER
    5
20B
    100
AcDbSymbolTableRecord
    100
AcDbLayerTableRecord
    2
Таблица
    70
0
    62
7
    6
Continuous
    370
-3
    390
19
    0
LAYER
    5
20C
    100
AcDbSymbolTableRecord
    100
AcDbLayerTableRecord
    2
Код_514
    70
0
    62
1
    6
Continuous
    370
-3
    390
19
    0
LAYER
    5
20D
    100
AcDbSymbolTableRecord
    100
AcDbLayerTableRecord
    2
Код_510
    70
0
    62
7
    6
Continuous
    370
-3
    390
19
    0
LAYER
    5
20E
    100
AcDbSymbolTableRecord
    100
AcDbLayerTableRecord
    2
Красный поперечник
    70
0
    62
1
    6
Continuous
    370
-3
    390
19
    0
LAYER
    5
20F
    100
AcDbSymbolTableRecord
    100
AcDbLayerTableRecord
    2
Черный поперечник
    70
0
    62
3
    6
Continuous
    370
-3
    390
19
    0
LAYER
    5
210
    100
AcDbSymbolTableRecord
    100
AcDbLayerTableRecord
    2
Геология_список_ИГЭ
    70
0
    62
7
    6
Continuous
    370
-3
    390
19
    0
LAYER
    5
211
    100
AcDbSymbolTableRecord
    100
AcDbLayerTableRecord
    2
Геология_подписи
    70
0
    62
7
    6
Continuous
    370
-3
    390
19
    0
LAYER
    5
212
    100
AcDbSymbolTableRecord
    100
AcDbLayerTableRecord
    2
Геология_вода
    70
0
    62
7
    6
Continuous
    370
-3
    390
19
    0
LAYER
    5
213
    100
AcDbSymbolTableRecord
    100
AcDbLayerTableRecord
    2
Геология_мерзлота
    70
0
    62
7
    6
Continuous
    370
-3
    390
19
    0
LAYER
    5
214
    100
AcDbSymbolTableRecord
    100
AcDbLayerTableRecord
    2
Геология_опробование
    70
0
    62
7
    6
Continuous
    370
-3
    390
19
    0
LAYER
    5
215
    100
AcDbSymbolTableRecord
    100
AcDbLayerTableRecord
    2
Геология_точки_статического_зондирования
    70
0
    62
7
    6
Continuous
    370
-3
    390
19
    0
LAYER
    5
216
    100
AcDbSymbolTableRecord
    100
AcDbLayerTableRecord
    2
Геология_испытания_крыльчаткой
    70
0
    62
7
    6
Continuous
    370
-3
    390
19
    0
LAYER
    5
217
    100
AcDbSymbolTableRecord
    100
AcDbLayerTableRecord
    2
Геология_выработки
    70
0
    62
7
    6
Continuous
    370
-3
    390
19
    0
LAYER
    5
218
    100
AcDbSymbolTableRecord
    100
AcDbLayerTableRecord
    2
Геология_контуры
    70
0
    62
7
    6
Continuous
    370
-3
    390
19
    0
LAYER
    5
219
    100
AcDbSymbolTableRecord
    100
AcDbLayerTableRecord
    2
Геология_штриховки
    70
0
    62
8
    6
Continuous
    370
-3
    390
19
    0
LAYER
    5
21A
    100
AcDbSymbolTableRecord
    100
AcDbLayerTableRecord
    2
Коммуникации
    70
0
    62
7
    6
Continuous
    370
-3
    390
19
    0
LAYER
    5
21B
    100
AcDbSymbolTableRecord
    100
AcDbLayerTableRecord
    2
Ось
    70
0
    62
1
    6
осевая2
    370
-3
    390
19
    0
LAYER
    5
21C
    100
AcDbSymbolTableRecord
    100
AcDbLayerTableRecord
    2
Рабочие отметки
    70
0
    62
7
    6
Continuous
    370
-3
    390
19
    0
LAYER
    5
21D
    100
AcDbSymbolTableRecord
    100
AcDbLayerTableRecord
    2
Отметки покрытия
    70
0
    62
7
    6
Continuous
    370
-3
    390
19
    0
LAYER
    5
21E
    100
AcDbSymbolTableRecord
    100
AcDbLayerTableRecord
    2
Откосы
    70
0
    62
7
    6
Continuous
    370
-3
    390
19
    0
LAYER
    5
21F
    100
AcDbSymbolTableRecord
    100
AcDbLayerTableRecord
    2
Подписи поперечников
    70
0
    62
7
    6
Continuous
    370
-3
    390
19
    0
LAYER
    5
220
    100
AcDbSymbolTableRecord
    100
AcDbLayerTableRecord
    2
Интерполированный поперечник
    70
0
    62
2
    6
Continuous
    370
-3
    390
19
    0
LAYER
    5
221
    100
AcDbSymbolTableRecord
    100
AcDbLayerTableRecord
    2
Слои выравнивания
    70
0
    62
7
    6
Continuous
    370
-3
    390
19
    0
LAYER
    5
222
    100
AcDbSymbolTableRecord
    100
AcDbLayerTableRecord
    2
Векторная подложка
    70
0
    62
7
    6
Continuous
    370
-3
    390
19
    0
LAYER
    5
223
    100
AcDbSymbolTableRecord
    100
AcDbLayerTableRecord
    2
Существующий отвод земель
    70
0
    62
3
    6
Continuous
    370
-3
    390
19
    0
LAYER
    5
224
    100
AcDbSymbolTableRecord
    100
AcDbLayerTableRecord
    2
Проектный отвод земель
    70
0
    62
1
    6
Continuous
    370
-3
    390
19
    0
LAYER
    5
225
    100
AcDbSymbolTableRecord
    100
AcDbLayerTableRecord
    2
Временный отвод земель
    70
0
    62
2
    6
Continuous
    370
-3
    390
19
    0
LAYER
    5
226
    100
AcDbSymbolTableRecord
    100
AcDbLayerTableRecord
    2
Объем насыпи
    70
0
    62
7
    6
Continuous
    370
-3
    390
19
    0
LAYER
    5
227
    100
AcDbSymbolTableRecord
    100
AcDbLayerTableRecord
    2
Объем выемки
    70
0
    62
7
    6
Continuous
    370
-3
    390
19
    0
LAYER
    5
228
    100
AcDbSymbolTableRecord
    100
AcDbLayerTableRecord
    2
Объем срезки растительного слоя
    70
0
    62
7
    6
Continuous
    370
-3
    390
19
    0
LAYER
    5
229
    100
AcDbSymbolTableRecord
    100
AcDbLayerTableRecord
    2
Объем присыпных обочин
    70
0
    62
7
    6
Continuous
    370
-3
    390
19
    0
LAYER
    5
22A
    100
AcDbSymbolTableRecord
    100
AcDbLayerTableRecord
    2
Таблица объемов
    70
0
    62
-7
    6
Continuous
    370
-3
    390
19
    0
LAYER
    5
22B
    100
AcDbSymbolTableRecord
    100
AcDbLayerTableRecord
    2
Объем кюветов
    70
0
    62
7
    6
Continuous
    370
-3
    390
19
    0
LAYER
    5
22C
    100
AcDbSymbolTableRecord
    100
AcDbLayerTableRecord
    2
УВВ
    70
0
    62
7
    6
Continuous
    370
-3
    390
19
    0
LAYER
    5
22D
    100
AcDbSymbolTableRecord
    100
AcDbLayerTableRecord
    2
Уклоны проезжей части
    70
0
    62
7
    6
Continuous
    370
-3
    390
19
    0
ENDTAB
    0
TABLE
    2
STYLE
    5
5
    100
AcDbSymbolTable
    0
STYLE
    5
201
    100
AcDbSymbolTableRecord
    100
AcDbTextStyleTableRecord
    2
Standard
    70
0
    40
2.5
    41
1
    50
0
    71
0
    42
2.5
    3
txt
    4

    0
ENDTAB
    0
TABLE
    2
VIEW
    5
7
    100
AcDbSymbolTable
    0
ENDTAB
    0
TABLE
    2
UCS
    5
8
    100
AcDbSymbolTable
    0
ENDTAB
    0
TABLE
    2
APPID
    5
9
    100
AcDbSymbolTable
    0
APPID
    5
A
    100
AcDbSymbolTableRecord
    100
AcDbRegAppTableRecord
    2
ACAD
    70
0
    0
APPID
    5
108
    330
9
    100
AcDbSymbolTableRecord
    100
AcDbRegAppTableRecord
    2
AcAecLayerStandard
    70
0
    0
APPID
    5
107
    330
9
    100
AcDbSymbolTableRecord
    100
AcDbRegAppTableRecord
    2
ACAD_MLEADERVER
    70
0
  0
APPID
  5
DF
330
9
100
AcDbSymbolTableRecord
100
AcDbRegAppTableRecord
  2
ACAD_DSTYLE_DIMJAG
 70
     0
  0
APPID
  5
E0
330
9
100
AcDbSymbolTableRecord
100
AcDbRegAppTableRecord
  2
ACAD_DSTYLE_DIMTALN
 70
     0
    0
ENDTAB
    0
TABLE
    2
DIMSTYLE
    5
B
    330
0
    100
AcDbSymbolTable
    70
2
    100
AcDbDimStyleTable
    71
2
    0
DIMSTYLE
    105
234
    330
B
    100
AcDbSymbolTableRecord
    100
AcDbDimStyleTableRecord
    2
Standard
    70
0
    340
201
    0
DIMSTYLE
    105
235
    330
B
    100
AcDbSymbolTableRecord
    100
AcDbDimStyleTableRecord
    2
ISO-25
    70
0
    43
3.75
    42
0.625
    44
1.25
    41
2.5
    141
2.5
    140
2.5
    147
0.625
    77
1
    73
0
    74
0
    172
1
    271
2
    278
44
    78
8
    171
3
    143
0.0393700003623962
    272
2
    283
0
    284
8
    274
3
    340
201
    0
ENDTAB
    0
TABLE
    2
BLOCK_RECORD
    5
C
    100
AcDbSymbolTable
    0
BLOCK_RECORD
    5
241
    100
AcDbSymbolTableRecord
    100
AcDbBlockTableRecord
    2
*MODEL_SPACE
    0
BLOCK_RECORD
    5
E
    100
AcDbSymbolTableRecord
    100
AcDbBlockTableRecord
    2
*PAPER_SPACE
    0
ENDTAB
    0
ENDSEC
    0
SECTION
    2
BLOCKS
    0
BLOCK
    5
242
    330
241
    100
AcDbEntity
    8
0
    100
AcDbBlockBegin
    2
*MODEL_SPACE
    70
0
    10
0
    20
0
    30
0
    3
*MODEL_SPACE
    1

    4

    0
ENDBLK
    5
243
    100
AcDbEntity
    8
0
    100
AcDbBlockEnd
    0
BLOCK
    5
11
    330
E
    100
AcDbEntity
    8
0
    100
AcDbBlockBegin
    2
*PAPER_SPACE
    70
0
    10
0
    20
0
    30
0
    3
*PAPER_SPACE
    1

    4

    0
ENDBLK
    5
12
    100
AcDbEntity
    8
0
    100
AcDbBlockEnd
    0
ENDSEC
    0
SECTION
    2
ENTITIES
    0
TEXT
    5
244
    330
241
    100
AcDbEntity
    8
Линейка абсолютных высот
    100
AcDbText
    10
80
    20
50
    30
0
    11
80
    21
50
    31
0
    40
2.5
    1
&ABS_ELEVATIONS_RANGE_LINE
    50
0
    41
1
    51
0
    100
AcDbText
    73
0
    0
TEXT
    5
245
    330
241
    100
AcDbEntity
    8
Таблица
    100
AcDbText
    10
80
    20
50
    30
0
    11
80
    21
50
    31
0
    40
2.5
    1
&L
    50
0
    41
1
    51
0
    100
AcDbText
    73
0
    0
TEXT
    5
246
    330
241
    100
AcDbEntity
    8
Код_514
    100
AcDbText
    10
80
    20
40
    30
0
    11
80
    21
40
    31
0
    40
2.5
    1
&G 514
    50
0
    41
1
    51
0
    100
AcDbText
    73
0
    0
TEXT
    5
247
    330
241
    100
AcDbEntity
    8
Код_514
    100
AcDbText
    10
81.25
    20
26.0000000546392
    30
0
    11
80
    21
26
    31
0
    40
2.5
    1
&E 514
    50
90.0000025044782
    41
1
    51
0
    100
AcDbText
    73
2
    0
TEXT
    5
248
    330
241
    100
AcDbEntity
    8
Код_510
    100
AcDbText
    10
81.25
    20
11.0000000546392
    30
0
    11
80
    21
11
    31
0
    40
2.5
    1
&E 510
    50
90.0000025044782
    41
1
    51
0
    100
AcDbText
    73
2
    0
TEXT
    5
249
    330
241
    100
AcDbEntity
    8
Код_510
    100
AcDbText
    10
70.4166669845581
    20
3.75
    30
0
    11
80
    21
5
    31
0
    40
2.5
    1
&D 510 10
    50
0
    41
1
    51
0
    72
1
    100
AcDbText
    73
2
    0
TEXT
    5
24A
    330
241
    100
AcDbEntity
    8
Таблица
    100
AcDbText
    10
0.669912110296288
    20
58.1318176844633
    30
0
    11
0.669912110296288
    21
58.1318176844633
    31
0
    40
2.5
    1
&SV 200
    50
0
    41
1
    51
0
    100
AcDbText
    73
0
    0
TEXT
    5
24B
    330
241
    100
AcDbEntity
    8
Таблица
    100
AcDbText
    10
0.669912110296288
    20
53.1318176844633
    30
0
    11
0.669912110296288
    21
53.1318176844633
    31
0
    40
2.5
    1
&SH 200
    50
0
    41
1
    51
0
    100
AcDbText
    73
0
    0
TEXT
    5
24C
    330
241
    100
AcDbEntity
    8
Таблица
    100
AcDbText
    10
24.3153847731654
    20
43.416
    30
0
    11
24.3153847731654
    21
43.416
    31
0
    40
2.5
    1
Уклон, o/oo; длина, м
    50
0
    41
0.800000011920929
    51
0
    100
AcDbText
    73
0
    0
TEXT
    5
24D
    330
241
    100
AcDbEntity
    8
Таблица
    100
AcDbText
    10
22.7385580524295
    20
31.456
    30
0
    11
22.7385580524295
    21
31.456
    31
0
    40
2.5
    1
Отметка покрытия, м
    50
0
    41
0.800000011920929
    51
0
    100
AcDbText
    73
0
    0
TEXT
    5
24E
    330
241
    100
AcDbEntity
    8
Таблица
    100
AcDbText
    10
23.1327647326135
    20
14.968
    30
0
    11
23.1327647326135
    21
14.968
    31
0
    40
2.5
    1
Отметка рельефа, м
    50
0
    41
0.800000011920929
    51
0
    100
AcDbText
    73
0
    0
TEXT
    5
24F
    330
241
    100
AcDbEntity
    8
Таблица
    100
AcDbText
    10
28.783060481917
    20
3.191
    30
0
    11
28.783060481917
    21
3.191
    31
0
    40
2.5
    1
Расстояние, м
    50
0
    41
0.800000011920929
    51
0
    100
AcDbText
    73
0
    0
TEXT
    5
250
    330
241
    100
AcDbEntity
    8
Таблица
    100
AcDbText
    10
4.453
    20
2.133
    30
0
    11
4.453
    21
2.133
    31
0
    40
2.5
    1
Фактические
    50
90.0000025044782
    41
0.800000011920929
    51
0
    100
AcDbText
    73
0
    0
TEXT
    5
251
    330
241
    100
AcDbEntity
    8
Таблица
    100
AcDbText
    10
7.959
    20
4.838
    30
0
    11
7.959
    21
4.838
    31
0
    40
2.5
    1
данные
    50
90.0000025044782
    41
0.800000011920929
    51
0
    100
AcDbText
    73
0
    0
TEXT
    5
252
    330
241
    100
AcDbEntity
    8
Таблица
    100
AcDbText
    10
4.453
    20
28.393
    30
0
    11
4.453
    21
28.393
    31
0
    40
2.5
    1
Проектные
    50
90.0000025044782
    41
0.800000011920929
    51
0
    100
AcDbText
    73
0
    0
TEXT
    5
253
    330
241
    100
AcDbEntity
    8
Таблица
    100
AcDbText
    10
7.959
    20
30.78
    30
0
    11
7.959
    21
30.78
    31
0
    40
2.5
    1
данные
    50
90.0000025044782
    41
0.800000011920929
    51
0
    100
AcDbText
    73
0
    0
TEXT
    5
254
    330
241
    100
AcDbEntity
    8
Таблица
    100
AcDbText
    10
80.0000000158809
    20
0
    30
0
    11
80.0000000158809
    21
0
    31
0
    40
2.5
    1
&L
    50
0
    41
1
    51
0
    100
AcDbText
    73
0
    0
TEXT
    5
255
    330
241
    100
AcDbEntity
    8
Таблица
    100
AcDbText
    10
80.0000000476427
    20
10
    30
0
    11
80.0000000476427
    21
10
    31
0
    40
2.5
    1
&L
    50
0
    41
1
    51
0
    100
AcDbText
    73
0
    0
TEXT
    5
256
    330
241
    100
AcDbEntity
    8
Таблица
    100
AcDbText
    10
80.0000000635236
    20
25.0000000415255
    30
0
    11
80.0000000635236
    21
25.0000000415255
    31
0
    40
2.5
    1
&L
    50
0
    41
1
    51
0
    100
AcDbText
    73
0
    0
TEXT
    5
257
    330
241
    100
AcDbEntity
    8
Таблица
    100
AcDbText
    10
80
    20
40
    30
0
    11
80
    21
40
    31
0
    40
2.5
    1
&L
    50
0
    41
1
    51
0
    100
AcDbText
    73
0
    0
TEXT
    5
258
    330
241
    100
AcDbEntity
    8
Красный поперечник
    100
AcDbText
    10
80.0002358236819
    20
50
    30
0
    11
80.0002358236819
    21
50
    31
0
    40
2.5
    1
&PG
    50
0
    41
1
    51
0
    100
AcDbText
    73
0
    0
TEXT
    5
259
    330
241
    100
AcDbEntity
    8
Черный поперечник
    100
AcDbText
    10
80
    20
50
    30
0
    11
80
    21
50
    31
0
    40
2.5
    1
&EG
    50
0
    41
1
    51
0
    100
AcDbText
    73
0
    0
TEXT
    5
25A
    330
241
    100
AcDbEntity
    8
Геология_список_ИГЭ
    100
AcDbText
    10
80.0002358236819
    20
50
    30
0
    11
80.0002358236819
    21
50
    31
0
    40
2.5
    1
&GEOLOGY_LEGEND
    50
0
    41
1
    51
0
    100
AcDbText
    73
0
    0
TEXT
    5
25B
    330
241
    100
AcDbEntity
    8
Геология_подписи
    100
AcDbText
    10
80.0002358236819
    20
50
    30
0
    11
80.0002358236819
    21
50
    31
0
    40
2.5
    1
&GEOLOGY_NOTES
    50
0
    41
1
    51
0
    100
AcDbText
    73
0
    0
TEXT
    5
25C
    330
241
    100
AcDbEntity
    8
Геология_вода
    100
AcDbText
    10
80.0002358236819
    20
50
    30
0
    11
80.0002358236819
    21
50
    31
0
    40
2.5
    1
&GEOLOGY_WATER
    50
0
    41
1
    51
0
    100
AcDbText
    73
0
    0
TEXT
    5
25D
    330
241
    100
AcDbEntity
    8
Геология_мерзлота
    100
AcDbText
    10
80.0002358236819
    20
50
    30
0
    11
80.0002358236819
    21
50
    31
0
    40
2.5
    1
&GEOLOGY_FROST
    50
0
    41
1
    51
0
    100
AcDbText
    73
0
    0
TEXT
    5
25E
    330
241
    100
AcDbEntity
    8
Геология_опробование
    100
AcDbText
    10
80.0002358236819
    20
50
    30
0
    11
80.0002358236819
    21
50
    31
0
    40
1.25
    1
&GEOLOGY_ASSAYS 2.0
    50
0
    41
1
    51
0
    100
AcDbText
    73
0
    0
TEXT
    5
25F
    330
241
    100
AcDbEntity
    8
Геология_точки_статического_зондирования
    100
AcDbText
    10
80
    20
50
    30
0
    11
80
    21
50
    31
0
    40
2.5
    1
&GEOLOGY_CONEPENETRATIONTESTS 1.0
    50
0
    41
1
    51
0
    100
AcDbText
    73
0
    0
TEXT
    5
260
    330
241
    100
AcDbEntity
    8
Геология_испытания_крыльчаткой
    100
AcDbText
    10
80.0002358236819
    20
50
    30
0
    11
80.0002358236819
    21
50
    31
0
    40
2.5
    1
&GEOLOGY_IMPELLERTESTS 1.0
    50
0
    41
1
    51
0
    100
AcDbText
    73
0
    0
TEXT
    5
261
    330
241
    100
AcDbEntity
    8
Геология_выработки
    100
AcDbText
    10
80.0002358236819
    20
50
    30
0
    11
80.0002358236819
    21
50
    31
0
    40
2.5
    1
&GEOLOGY_BOREHOLES 1.0
    50
0
    41
1
    51
0
    100
AcDbText
    73
0
    0
TEXT
    5
262
    330
241
    100
AcDbEntity
    8
Геология_контуры
    100
AcDbText
    10
80.0002358236819
    20
50
    30
0
    11
80.0002358236819
    21
50
    31
0
    40
2.5
    1
&GEOLOGY_CONTOURS
    50
0
    41
1
    51
0
    100
AcDbText
    73
0
    0
TEXT
    5
263
    330
241
    100
AcDbEntity
    8
Геология_штриховки
    100
AcDbText
    10
80.0002358236819
    20
50
    30
0
    11
80.0002358236819
    21
50
    31
0
    40
2.5
    1
&GEOLOGY_GROUNDS_HATCHES
    50
0
    41
1
    51
0
    100
AcDbText
    73
0
    0
TEXT
    5
264
    330
241
    100
AcDbEntity
    8
Коммуникации
    100
AcDbText
    10
80.0002358236819
    20
50
    30
0
    11
80.0002358236819
    21
50
    31
0
    40
2.5
    1
&COM
    50
0
    41
1
    51
0
    100
AcDbText
    73
0
    0
LWPOLYLINE
    5
265
    330
241
    100
AcDbEntity
    8
Таблица
    6
Continuous
    100
AcDbPolyline
    90
2
    70
128
    10
75
    20
0
    10
75
    20
50
    0
LWPOLYLINE
    5
266
    330
241
    100
AcDbEntity
    8
Таблица
    6
Continuous
    100
AcDbPolyline
    90
2
    70
128
    10
75
    20
50
    10
0
    20
50
    0
LWPOLYLINE
    5
267
    330
241
    100
AcDbEntity
    8
Таблица
    6
Continuous
    100
AcDbPolyline
    90
2
    70
128
    10
10
    20
40
    10
75
    20
40
    0
LWPOLYLINE
    5
268
    330
241
    100
AcDbEntity
    8
Таблица
    6
Continuous
    100
AcDbPolyline
    90
2
    70
128
    10
0
    20
25
    10
75
    20
25
    0
LWPOLYLINE
    5
269
    330
241
    100
AcDbEntity
    8
Таблица
    6
Continuous
    100
AcDbPolyline
    90
2
    70
128
    10
10
    20
10
    10
75
    20
10
    0
LWPOLYLINE
    5
26A
    330
241
    100
AcDbEntity
    8
Таблица
    6
Continuous
    100
AcDbPolyline
    90
2
    70
128
    10
0
    20
0
    10
75
    20
0
    0
LWPOLYLINE
    5
26B
    330
241
    100
AcDbEntity
    8
Таблица
    6
Continuous
    100
AcDbPolyline
    90
2
    70
128
    10
10
    20
50
    10
10
    20
0
    0
LWPOLYLINE
    5
26C
    330
241
    100
AcDbEntity
    8
Таблица
    6
Continuous
    100
AcDbPolyline
    90
2
    70
128
    10
0
    20
50
    10
0
    20
0
    0
TEXT
    5
26D
    330
241
    100
AcDbEntity
    8
Ось
    48
15
    100
AcDbText
    10
80.0002358236819
    20
50
    30
0
    11
80.0002358236819
    21
50
    31
0
    40
2.5
    1
&A
    50
0
    41
1
    51
0
    100
AcDbText
    73
0
    0
TEXT
    5
26E
    330
241
    100
AcDbEntity
    8
Рабочие отметки
    100
AcDbText
    10
80.0002358236819
    20
50
    30
0
    11
80.0002358236819
    21
50
    31
0
    40
2.5
    1
&EW
    50
90.0000025044782
    41
1
    51
0
    100
AcDbText
    73
0
    0
TEXT
    5
26F
    330
241
    100
AcDbEntity
    8
Отметки покрытия
    100
AcDbText
    10
80.0002358236819
    20
50
    30
0
    11
80.0002358236819
    21
50
    31
0
    40
2.5
    1
&EC 400
    50
0
    41
1
    51
0
    100
AcDbText
    73
0
    0
TEXT
    5
270
    330
241
    100
AcDbEntity
    8
Откосы
    100
AcDbText
    10
80.0002358236819
    20
50
    30
0
    11
80.0002358236819
    21
50
    31
0
    40
2.5
    1
&I 514 1 1
    50
0
    41
0.699999988079071
    51
0
    100
AcDbText
    73
0
    0
TEXT
    5
271
    330
241
    100
AcDbEntity
    8
Подписи поперечников
    100
AcDbText
    10
75.4166665077209
    20
-5
    30
0
    11
80
    21
-5
    31
0
    40
2.5
    1
&PKT
    50
0
    41
1
    51
0
    72
1
    100
AcDbText
    73
1
    0
TEXT
    5
272
    330
241
    100
AcDbEntity
    8
Интерполированный поперечник
    100
AcDbText
    10
80
    20
50
    30
0
    11
80
    21
50
    31
0
    40
2.5
    1
&AG
    50
0
    41
1
    51
0
    100
AcDbText
    73
0
    0
TEXT
    5
273
    330
241
    100
AcDbEntity
    8
Слои выравнивания
    100
AcDbText
    10
80.0002358236819
    20
50
    30
0
    11
80.0002358236819
    21
50
    31
0
    40
2.5
    1
&RENEW
    50
0
    41
1
    51
0
    100
AcDbText
    73
0
    0
TEXT
    5
274
    330
241
    100
AcDbEntity
    8
Отметки покрытия
    100
AcDbText
    10
80.0002358236819
    20
50
    30
0
    11
80.0002358236819
    21
50
    31
0
    40
2.5
    1
&EC 819
    50
0
    41
1
    51
0
    100
AcDbText
    73
0
    0
TEXT
    5
275
    330
241
    100
AcDbEntity
    8
0
    100
AcDbText
    10
4.42345765238999E-15
    20
90.1749457970418
    30
0
    11
4.42345765238999E-15
    21
90.1749457970418
    31
0
    40
2.5
    1
&TITLE Поперечники (отметки по покрытию)
    50
0
    41
0.800000011920929
    51
0
    100
AcDbText
    73
0
    0
TEXT
    5
276
    330
241
    100
AcDbEntity
    8
Отметки покрытия
    100
AcDbText
    10
80.0002358236819
    20
50
    30
0
    11
80.0002358236819
    21
50
    31
0
    40
2.5
    1
&EC 2560 1
    50
0
    41
1
    51
0
    100
AcDbText
    73
0
    0
TEXT
    5
277
    330
241
    100
AcDbEntity
    8
Векторная подложка
    100
AcDbText
    10
80.0002358236819
    20
50
    30
0
    11
80.0002358236819
    21
50
    31
0
    40
2.5
    1
&UNDERLAY
    50
0
    41
1
    51
0
    100
AcDbText
    73
0
    0
TEXT
    5
278
    330
241
    100
AcDbEntity
    8
Существующий отвод земель
    100
AcDbText
    10
80.0002358236819
    20
50
    30
0
    11
80.0002358236819
    21
50
    31
0
    40
2.5
    1
&EXISTENT_LAND_ALLOTMENT
    50
0
    41
1
    51
0
    100
AcDbText
    73
0
    0
TEXT
    5
279
    330
241
    100
AcDbEntity
    8
Проектный отвод земель
    100
AcDbText
    10
80.0002358236819
    20
50
    30
0
    11
80.0002358236819
    21
50
    31
0
    40
2.5
    1
&DESIGN_LAND_ALLOTMENT
    50
0
    41
1
    51
0
    100
AcDbText
    73
0
    0
TEXT
    5
27A
    330
241
    100
AcDbEntity
    8
Временный отвод земель
    100
AcDbText
    10
80
    20
50
    30
0
    11
80
    21
50
    31
0
    40
2.5
    1
&TEMP_LAND_ALLOTMENT
    50
0
    41
1
    51
0
    100
AcDbText
    73
0
    0
TEXT
    5
27B
    330
241
    100
AcDbEntity
    8
Объем насыпи
    100
AcDbText
    10
12.4819967446856
    20
83.5594509149461
    30
0
    11
12.4819967446856
    21
83.5594509149461
    31
0
    40
2.5
    1
&VOLUME 2600
    50
0
    41
0.800000011920929
    51
0
    100
AcDbText
    73
0
    0
TEXT
    5
27C
    330
241
    100
AcDbEntity
    8
Объем выемки
    100
AcDbText
    10
12.4819967446856
    20
79.3545796596501
    30
0
    11
12.4819967446856
    21
79.3545796596501
    31
0
    40
2.5
    1
&VOLUME 2650
    50
0
    41
0.800000011920929
    51
0
    100
AcDbText
    73
0
    0
TEXT
    5
27D
    330
241
    100
AcDbEntity
    8
Объем срезки растительного слоя
    100
AcDbText
    10
12.4819967446856
    20
74.8869039508991
    30
0
    11
12.4819967446856
    21
74.8869039508991
    31
0
    40
2.5
    1
&VOLUME 2570
    50
0
    41
0.800000011920929
    51
0
    100
AcDbText
    73
0
    0
TEXT
    5
27E
    330
241
    100
AcDbEntity
    8
Объем насыпи
    100
AcDbText
    10
-0.217854394344968
    20
83.5594509149461
    30
0
    11
-0.217854394344968
    21
83.5594509149461
    31
0
    40
2.5
    1
Fн
    50
0
    41
0.800000011920929
    51
0
    100
AcDbText
    73
0
    0
TEXT
    5
27F
    330
241
    100
AcDbEntity
    8
Объем выемки
    100
AcDbText
    10
-0.217854394344968
    20
79.3545796596501
    30
0
    11
-0.217854394344968
    21
79.3545796596501
    31
0
    40
2.5
    1
Fв
    50
0
    41
0.800000011920929
    51
0
    100
AcDbText
    73
0
    0
TEXT
    5
280
    330
241
    100
AcDbEntity
    8
Объем срезки растительного слоя
    100
AcDbText
    10
-0.217854394344968
    20
74.8869039508991
    30
0
    11
-0.217854394344968
    21
74.8869039508991
    31
0
    40
2.5
    1
Fср
    50
0
    41
0.800000011920929
    51
0
    100
AcDbText
    73
0
    0
TEXT
    5
281
    330
241
    100
AcDbEntity
    8
Объем присыпных обочин
    100
AcDbText
    10
12.4819967446856
    20
69.7082266102561
    30
0
    11
12.4819967446856
    21
69.7082266102561
    31
0
    40
2.5
    1
&VOLUME 2563
    50
0
    41
0.800000011920929
    51
0
    100
AcDbText
    73
0
    0
TEXT
    5
282
    330
241
    100
AcDbEntity
    8
Объем присыпных обочин
    100
AcDbText
    10
-0.217854394344968
    20
69.7082266102561
    30
0
    11
-0.217854394344968
    21
69.7082266102561
    31
0
    40
2.5
    1
Fпр.об
    50
0
    41
0.800000011920929
    51
0
    100
AcDbText
    73
0
    0
TEXT
    5
283
    330
241
    100
AcDbEntity
    8
Таблица объемов
    100
AcDbText
    10
-0.217854394344966
    20
98.4256229992776
    30
0
    11
-0.217854394344966
    21
98.4256229992776
    31
0
    40
2.5
    1
&V
    50
0
    41
0.800000011920929
    51
0
    100
AcDbText
    73
0
    0
TEXT
    5
284
    330
241
    100
AcDbEntity
    8
Объем насыпи
    100
AcDbText
    10
29.0047019097883
    20
83.593013329071
    30
0
    11
29.0047019097883
    21
83.593013329071
    31
0
    40
2.5
    1
м2
    50
0
    41
0.800000011920929
    51
0
    100
AcDbText
    73
0
    0
TEXT
    5
285
    330
241
    100
AcDbEntity
    8
Объем выемки
    100
AcDbText
    10
29.0047019097883
    20
79.388142073775
    30
0
    11
29.0047019097883
    21
79.388142073775
    31
0
    40
2.5
    1
м2
    50
0
    41
0.800000011920929
    51
0
    100
AcDbText
    73
0
    0
TEXT
    5
286
    330
241
    100
AcDbEntity
    8
Объем срезки растительного слоя
    100
AcDbText
    10
29.0047019097883
    20
74.920466365024
    30
0
    11
29.0047019097883
    21
74.920466365024
    31
0
    40
2.5
    1
м2
    50
0
    41
0.800000011920929
    51
0
    100
AcDbText
    73
0
    0
TEXT
    5
287
    330
241
    100
AcDbEntity
    8
Объем присыпных обочин
    100
AcDbText
    10
29.0047019097883
    20
69.741789024381
    30
0
    11
29.0047019097883
    21
69.741789024381
    31
0
    40
2.5
    1
м2
    50
0
    41
0.800000011920929
    51
0
    100
AcDbText
    73
0
    0
TEXT
    5
288
    330
241
    100
AcDbEntity
    8
Красный поперечник
    100
AcDbText
    10
80.0002358236819
    20
50
    30
0
    11
80.0002358236819
    21
50
    31
0
    40
2.5
    1
&ORD 514
    50
0
    41
1
    51
0
    100
AcDbText
    73
0
    0
TEXT
    5
289
    330
241
    100
AcDbEntity
    8
Объем кюветов
    100
AcDbText
    10
12.4819967446856
    20
64.5295492696131
    30
0
    11
12.4819967446856
    21
64.5295492696131
    31
0
    40
2.5
    1
&VOLUME 2620
    50
0
    41
0.800000011920929
    51
0
    100
AcDbText
    73
0
    0
TEXT
    5
28A
    330
241
    100
AcDbEntity
    8
Объем кюветов
    100
AcDbText
    10
-0.217854394344968
    20
64.5295492696131
    30
0
    11
-0.217854394344968
    21
64.5295492696131
    31
0
    40
2.5
    1
Fк
    50
0
    41
0.800000011920929
    51
0
    100
AcDbText
    73
0
    0
TEXT
    5
28B
    330
241
    100
AcDbEntity
    8
Объем кюветов
    100
AcDbText
    10
29.0047019097883
    20
64.563111683738
    30
0
    11
29.0047019097883
    21
64.563111683738
    31
0
    40
2.5
    1
м2
    50
0
    41
0.800000011920929
    51
0
    100
AcDbText
    73
0
    0
TEXT
    5
28C
    330
241
    100
AcDbEntity
    8
УВВ
    100
AcDbText
    10
80.0002358236819
    20
50
    30
0
    11
80.0002358236819
    21
50
    31
0
    40
2.5
    1
&UVV 0
    50
0
    41
1
    51
0
    100
AcDbText
    73
0
    0
TEXT
    5
28D
    330
241
    100
AcDbEntity
    8
УВВ
    6
штриховая
    100
AcDbText
    10
80.0002358236819
    20
50
    30
0
    11
80.0002358236819
    21
50
    31
0
    40
2.5
    1
&UVV 1
    50
0
    41
1
    51
0
    100
AcDbText
    73
0
    0
TEXT
    5
28E
    330
241
    100
AcDbEntity
    8
Уклоны проезжей части
    100
AcDbText
    10
80
    20
50
    30
0
    11
80
    21
50
    31
0
    40
2.5
    1
&I 514 2 2
    50
0
    41
0.699999988079071
    51
0
    100
AcDbText
    73
0
    0
TEXT
    5
28F
    330
241
    100
AcDbEntity
    8
0
    100
AcDbText
    10
0
    20
0
    30
0
    11
0
    21
0
    31
0
    40
2.5
    1
&SG 200
    50
0
    41
1
    51
0
    100
AcDbText
    73
0
    0
TEXT
    5
290
    330
241
    100
AcDbEntity
    8
0
    100
AcDbText
    10
0
    20
0
    30
0
    11
0
    21
0
    31
0
    40
2.5
    1
&HO 20
    50
0
    41
1
    51
0
    100
AcDbText
    73
0
    0
TEXT
    5
291
    330
241
    100
AcDbEntity
    8
0
    100
AcDbText
    10
0
    20
0
    30
0
    11
0
    21
0
    31
0
    40
2.5
    1
&HOTYPE 0
    50
0
    41
1
    51
0
    100
AcDbText
    73
0
    0
TEXT
    5
292
    330
241
    100
AcDbEntity
    8
0
    100
AcDbText
    10
0
    20
0
    30
0
    11
0
    21
0
    31
0
    40
2.5
    1
&TEXT_HEIGHT_SCALE 1
    50
0
    41
1
    51
0
    100
AcDbText
    73
0
    0
TEXT
    5
293
    330
241
    100
AcDbEntity
    8
0
    100
AcDbText
    10
0
    20
0
    30
0
    11
0
    21
0
    31
0
    40
2.5
    1
&AlignElevations True
    50
0
    41
1
    51
0
    100
AcDbText
    73
0
    0
TEXT
    5
294
    330
241
    100
AcDbEntity
    8
0
    100
AcDbText
    10
0
    20
0
    30
0
    11
0
    21
0
    31
0
    40
2.5
    1
&CUT True
    50
0
    41
1
    51
0
    100
AcDbText
    73
0
    0
TEXT
    5
295
    330
241
    100
AcDbEntity
    8
0
    100
AcDbText
    10
0
    20
0
    30
0
    11
0
    21
0
    31
0
    40
2.5
    1
&CUT_OFFSET 1
    50
0
    41
1
    51
0
    100
AcDbText
    73
0
    0
ENDSEC
    0
SECTION
    2
OBJECTS
    0
DICTIONARY
    5
13
    330
0
    100
AcDbDictionary
    281
1
    3
ACAD_GROUP
    350
14
    3
ACAD_MLINESTYLE
    350
16
    3
ACAD_PLOTSETTINGS
    350
17
    3
ACAD_IMAGE_DICT
    350
14D
    3
ACAD_IMAGE_VARS
    350
14E
    3
ACAD_WIPEOUT_VARS
    350
E7
    3
ACAD_PLOTSTYLENAME
    350
18
    3
ACAD_LAYOUT
    350
231
    0
DICTIONARY
    5
14
    330
13
    100
AcDbDictionary
    281
1
    0
DICTIONARY
    5
17
    102
{ACAD_REACTORS
    330
13
    102
}
    330
13
    100
AcDbDictionary
    281
1
    0
ACDBDICTIONARYWDFLT
    5
18
    102
{ACAD_REACTORS
    330
13
    102
}
    330
13
    100
AcDbDictionary
    281
1
    3
Normal
    350
19
    100
AcDbDictionaryWithDefault
    340
19
    0
ACDBPLACEHOLDER
    5
19
    102
{ACAD_REACTORS
    330
18
    102
}
    330
18
    0
DICTIONARY
    5
7E
    102
{ACAD_REACTORS
    330
C
    102
}
    330
C
    100
AcDbDictionary
    281
1
    3
Standard
    350
7F
    0
WIPEOUTVARIABLES
    5
E7
    102
{ACAD_REACTORS
    330
C
    102
}
    330
C
    100
AcDbWipeoutVariables
    70
0
    0
DICTIONARY
    5
1B
    330
1A
    100
AcDbDictionary
    280
1
    281
1
    3
ACLYDICTIONARY
    360
239
    3
ACAD_LAYERSTATES
    360
237
    0
DICTIONARY
    5
237
    102
{ACAD_REACTORS
    330
1B
    102
}
    330
1B
    100
AcDbDictionary
    281
1
    0
DICTIONARY
    5
239
    102
{ACAD_REACTORS
    330
1B
    102
}
    330
1B
    100
AcDbDictionary
    281
1
    3
*A1
    350
23B
    3
*A2
    350
23E
    0
XRECORD
    5
23B
    102
{ACAD_REACTORS
    330
239
    102
}
    330
239
    100
AcDbXrecord
    280
1
    1
AcLyLayerFilter
    90
1
    300
Все используемые слои
    301
USED=="TRUE" AND VPOVERRIDES=="FALSE"
    0
XRECORD
    5
23E
    102
{ACAD_REACTORS
    330
239
    102
}
    330
239
    100
AcDbXrecord
    280
1
    1
AcLyLayerFilter
    90
1
    300
Все видимые слои
    301
OFF=="FALSE"
    0
DICTIONARY
    5
231
    102
{ACAD_REACTORS
    330
C
    102
}
    330
C
    100
AcDbDictionary
    281
1
    3
Model
    350
232
    0
LAYOUT
    5
232
    100
AcDbPlotSettings
    1

    2
none_device
    4

    6

    40
0
    41
0
    42
0
    43
0
    44
297
    45
210
    46
0
    47
0
    48
0
    49
0
    140
0
    141
0
    142
1
    143
1
    70
4784
    72
1
    73
0
    74
5
    7

    75
0
    147
1
    148
0
    149
0
    100
AcDbLayout
    1
Model
    70
1
    71
0
    330
241
    0
DICTIONARY
    5
E6
    330
10
    100
AcDbDictionary
    280
1
    281
1
    3
ADSK_XREC_LAYER_RECONCILED
    360
155
    0
DICTIONARY
    5
16
    102
{ACAD_REACTORS
    330
C
    102
}
    330
C
    100
AcDbDictionary
    281
1
    3
Standard
    350
22F
    0
MLINESTYLE
    5
22F
    102
{ACAD_REACTORS
    330
16
    102
}
    330
16
    100
AcDbMlineStyle
    2
Standard
    70
0
    3

    62
256
    51
90.0000025044782
    52
90.0000025044782
    71
2
    49
0.5
    62
256
    49
-0.5
    62
256
    0
DICTIONARY
    5
14D
    102
{ACAD_REACTORS
    330
C
    102
}
    330
C
    100
AcDbDictionary
    281
1
    0
RASTERVARIABLES
    5
14E
    102
{ACAD_REACTORS
    330
C
    102
}
    330
C
    100
AcDbRasterVariables
    90
0
    70
1
    71
1
    72
5
    0
XRECORD
    5
155
    102
{ACAD_REACTORS
    330
E6
    102
}
    330
E6
    100
AcDbXrecord
    280
1
    290
1
    0
ENDSEC
    0
EOF
