    0
SECTION
    2
HEADER
    9
$ACADVER
    1
AC1015
    9
$DWGCODEPAGE
    3
ANSI_1251
    9
$HANDSEED
    5
2C4
    9
$TILEMODE
    70
1
    9
$CECOLOR
    62
256
    9
$CELTSCALE
    40
1
    9
$CELTYPE
    6
Continuous
    9
$CELWEIGHT
    370
-1
    9
$CLAYER
    8
0
    9
$CMLSTYLE
    2
Standard
    9
$DIMSTYLE
    2
Standard
    9
$INSBASE
    10
0
    20
0
    30
0
    9
$PDMODE
    70
0
    9
$PDSIZE
    40
0
    9
$TEXTSTYLE
    7
Standard
    9
$LWDISPLAY
    290
0
    9
$LTSCALE
    40
1
    9
$PSLTSCALE
    70
0
    9
$LIMMIN
    10
0
    20
0
    9
$LIMMAX
    10
150
    20
187.688795393719
    9
$MEASUREMENT
    70
1
    0
ENDSEC
    0
SECTION
    2
CLASSES
    0
CLASS
    1
RASTERVARIABLES
    2
AcDbRasterVariables
    3
ISM
    90
0
    280
0
    281
0
    0
CLASS
    1
IMAGEDEF
    2
AcDbRasterImageDef
    3
ISM
    90
0
    280
0
    281
0
    0
CLASS
    1
IMAGEDEF_REACTOR
    2
AcDbRasterImageDefReactor
    3
ISM
    90
1
    280
0
    281
0
    0
CLASS
    1
IMAGE
    2
AcDbRasterImage
    3
ISM
    90
2175
    280
0
    281
1
    0
CLASS
    1
WIPEOUT
    2
AcDbWipeout
    3
"WipeOut|Product Desc: Object Enabler for WipeOut entity^I^I^I^I^I^I|Company: Autodesk, Inc.^I^I^I^I^I^I|WEB Address: www.autodesk.com"
    90
2175
    280
0
    281
1
    0
CLASS
    1
WIPEOUTVARIABLES
    2
AcDbWipeoutVariables
    3
"WipeOut|Product Desc:     WipeOut Dbx Application|Company:          Autodesk, Inc.|WEB Address:      www.autodesk.com"
    90
0
    280
0
    281
0
    0
CLASS
    1
ARC_DIMENSION
    2
AcDbArcDimension
    3
ObjectDBX Classes
    90
1025
    280
0
    281
1
    0
CLASS
    1
LARGE_RADIAL_DIMENSION
    2
AcDbRadialDimensionLarge
    3
ObjectDBX Classes
    90
1025
    280
0
    281
1
    0
CLASS
    1
LAYOUT
    2
AcDbLayout
    3
ObjectDBX Classes
    90
0
    280
0
    281
0
    0
ENDSEC
    0
SECTION
    2
TABLES
    0
TABLE
    2
VPORT
    5
1
    100
AcDbSymbolTable
    0
ENDTAB
    0
TABLE
    2
LTYPE
    5
2
    100
AcDbSymbolTable
    0
LTYPE
    5
205
    100
AcDbSymbolTableRecord
    100
AcDbLinetypeTableRecord
    2
ByLayer
    3
По слою
    70
0
    72
65
    73
0
    40
0
    0
LTYPE
    5
206
    100
AcDbSymbolTableRecord
    100
AcDbLinetypeTableRecord
    2
ByBlock
    3
По блоку
    70
0
    72
65
    73
0
    40
0
    0
LTYPE
    5
207
    100
AcDbSymbolTableRecord
    100
AcDbLinetypeTableRecord
    2
Continuous
    3
Сплошная
    70
0
    72
65
    73
0
    40
0
    0
ENDTAB
    0
TABLE
    2
LAYER
    5
1A
    102
{ACAD_XDICTIONARY
    360
1B
    102
}
    330
0
    100
AcDbSymbolTable
    0
LAYER
    5
10
    100
AcDbSymbolTableRecord
    100
AcDbLayerTableRecord
    2
0
    70
0
    62
7
    6
Continuous
    370
-3
    390
19
    0
LAYER
    5
20A
    100
AcDbSymbolTableRecord
    100
AcDbLayerTableRecord
    2
Черный профиль
    70
0
    62
3
    6
Continuous
    370
-3
    390
19
    0
LAYER
    5
20B
    100
AcDbSymbolTableRecord
    100
AcDbLayerTableRecord
    2
Красный профиль
    70
0
    62
1
    6
Continuous
    370
-3
    390
19
    0
LAYER
    5
20C
    100
AcDbSymbolTableRecord
    100
AcDbLayerTableRecord
    2
Таблица
    70
0
    62
7
    6
Continuous
    370
-3
    390
19
    0
LAYER
    5
20D
    100
AcDbSymbolTableRecord
    100
AcDbLayerTableRecord
    2
Красные отметки
    70
0
    62
1
    6
Continuous
    370
-3
    390
19
    0
LAYER
    5
20E
    100
AcDbSymbolTableRecord
    100
AcDbLayerTableRecord
    2
Пикеты
    70
0
    62
7
    6
Continuous
    370
-3
    390
19
    0
LAYER
    5
20F
    100
AcDbSymbolTableRecord
    100
AcDbLayerTableRecord
    2
Километры
    70
0
    62
7
    6
Continuous
    370
-3
    390
19
    0
LAYER
    5
210
    100
AcDbSymbolTableRecord
    100
AcDbLayerTableRecord
    2
Прямые и кривые в плане
    70
0
    62
7
    6
Continuous
    370
-3
    390
19
    0
LAYER
    5
211
    100
AcDbSymbolTableRecord
    100
AcDbLayerTableRecord
    2
Развернутый план
    70
0
    62
7
    6
Continuous
    370
-3
    390
19
    0
LAYER
    5
212
    100
AcDbSymbolTableRecord
    100
AcDbLayerTableRecord
    2
Рабочие отметки
    70
0
    62
7
    6
Continuous
    370
-3
    390
19
    0
LAYER
    5
213
    100
AcDbSymbolTableRecord
    100
AcDbLayerTableRecord
    2
Коэффициенты
    70
0
    62
7
    6
Continuous
    370
-3
    390
19
    0
LAYER
    5
214
    100
AcDbSymbolTableRecord
    100
AcDbLayerTableRecord
    2
Параметры
    70
0
    62
7
    6
Continuous
    370
-3
    390
19
    0
ENDTAB
    0
TABLE
    2
STYLE
    5
5
    100
AcDbSymbolTable
    0
STYLE
    5
201
    100
AcDbSymbolTableRecord
    100
AcDbTextStyleTableRecord
    2
Standard
    70
0
    40
0
    41
1
    50
0
    71
0
    42
2.5
    3
txt.shx
    4

    0
STYLE
    5
202
    100
AcDbSymbolTableRecord
    100
AcDbTextStyleTableRecord
    2
ANNOTATIVE
    70
0
    40
0
    41
1
    50
0
    71
0
    42
0.200000002980232
    3
txt
    4

    0
STYLE
    5
203
    100
AcDbSymbolTableRecord
    100
AcDbTextStyleTableRecord
    2
Legend
    70
0
    40
0
    41
1
    50
0
    71
0
    42
0.200000002980232
    3
CALIBRI.TTF
    4

    0
ENDTAB
    0
TABLE
    2
VIEW
    5
7
    100
AcDbSymbolTable
    0
ENDTAB
    0
TABLE
    2
UCS
    5
8
    100
AcDbSymbolTable
    0
ENDTAB
    0
TABLE
    2
APPID
    2
9
    100
AcDbSymbolTable
    0
APPID
    5
A
    100
AcDbSymbolTableRecord
    100
AcDbRegAppTableRecord
    2
ACAD
    70
0
    0
APPID
    5
108
    330
9
    100
AcDbSymbolTableRecord
    100
AcDbRegAppTableRecord
    2
AcAecLayerStandard
    70
0
    0
APPID
    5
107
    330
9
    100
AcDbSymbolTableRecord
    100
AcDbRegAppTableRecord
    2
ACAD_MLEADERVER
    70
0
  0
APPID
  5
DF
330
9
100
AcDbSymbolTableRecord
100
AcDbRegAppTableRecord
  2
ACAD_DSTYLE_DIMJAG
 70
     0
  0
APPID
  5
E0
330
9
100
AcDbSymbolTableRecord
100
AcDbRegAppTableRecord
  2
ACAD_DSTYLE_DIMTALN
 70
     0
    0
ENDTAB
    0
TABLE
    2
DIMSTYLE
    5
B
    330
0
    100
AcDbSymbolTable
    70
2
    100
AcDbDimStyleTable
    71
2
    0
DIMSTYLE
    105
21B
    330
B
    100
AcDbSymbolTableRecord
    100
AcDbDimStyleTableRecord
    2
Standard
    70
0
    279
2
    340
201
    0
DIMSTYLE
    105
21C
    330
B
    100
AcDbSymbolTableRecord
    100
AcDbDimStyleTableRecord
    2
ISO-25
    70
0
    43
3.75
    42
0.625
    44
1.25
    41
2.5
    141
2.5
    140
2.5
    147
0.625
    77
1
    73
0
    74
0
    172
1
    78
8
    171
3
    143
0.0393700003623962
    279
2
    340
201
    0
DIMSTYLE
    105
21D
    330
B
    100
AcDbSymbolTableRecord
    100
AcDbDimStyleTableRecord
    2
ANNOTATIVE
    70
0
    279
2
    340
201
    0
ENDTAB
    0
TABLE
    2
BLOCK_RECORD
    5
C
    100
AcDbSymbolTable
    0
BLOCK_RECORD
    5
229
    100
AcDbSymbolTableRecord
    100
AcDbBlockTableRecord
    2
*MODEL_SPACE
    0
BLOCK_RECORD
    5
E
    100
AcDbSymbolTableRecord
    100
AcDbBlockTableRecord
    2
*PAPER_SPACE
    0
BLOCK_RECORD
    5
2C0
    100
AcDbSymbolTableRecord
    100
AcDbBlockTableRecord
    2
A$C774138AF
    0
ENDTAB
    0
ENDSEC
    0
SECTION
    2
BLOCKS
    0
BLOCK
    5
22A
    330
229
    100
AcDbEntity
    8
0
    100
AcDbBlockBegin
    2
*MODEL_SPACE
    70
0
    10
0
    20
0
    30
0
    3
*MODEL_SPACE
    1

    4

    0
ENDBLK
    5
22B
    100
AcDbEntity
    8
0
    100
AcDbBlockEnd
    0
BLOCK
    5
11
    330
E
    100
AcDbEntity
    8
0
    100
AcDbBlockBegin
    2
*PAPER_SPACE
    70
0
    10
0
    20
0
    30
0
    3
*PAPER_SPACE
    1

    4

    0
ENDBLK
    5
12
    100
AcDbEntity
    8
0
    100
AcDbBlockEnd
    0
BLOCK
    5
2C1
    330
2C0
    100
AcDbEntity
    8
0
    100
AcDbBlockBegin
    2
A$C774138AF
    70
0
    10
0
    20
0
    30
0
    3
A$C774138AF
    1

    4

    0
TEXT
    5
2C3
    330
2C0
    100
AcDbEntity
    8
Километры
    6
Continuous
    100
AcDbText
    10
-1.178028128E-07
    20
7.94961598771238E-08
    30
0
    11
-1.178028128E-07
    21
2.50000007949616
    31
0
    40
2.5
    1
&K
    50
0
    41
0.800000011920929
    51
0
    100
AcDbText
    73
3
    0
ENDBLK
    5
2C2
    100
AcDbEntity
    8
0
    100
AcDbBlockEnd
    0
ENDSEC
    0
SECTION
    2
ENTITIES
    0
TEXT
    5
22C
    330
229
    100
AcDbEntity
    8
Таблица
    6
Continuous
    100
AcDbText
    10
5
    20
51.25
    30
0
    11
5
    21
51.25
    31
0
    40
2.5
    1
Интенсивность движения, авт. / сут.
    50
0
    41
0.800000011920929
    51
0
    100
AcDbText
    73
0
    0
TEXT
    5
22D
    330
229
    100
AcDbEntity
    8
Таблица
    6
Continuous
    100
AcDbText
    10
5
    20
23.75
    30
0
    11
5
    21
23.75
    31
0
    40
2.5
    1
Продольный уклон, o/oo
    50
0
    41
0.800000011920929
    51
0
    100
AcDbText
    73
0
    0
TEXT
    5
22E
    330
229
    100
AcDbEntity
    8
Таблица
    6
Continuous
    100
AcDbText
    10
5
    20
15
    30
0
    11
5
    21
15
    31
0
    40
2.5
    1
Пикет
    50
0
    41
0.800000011920929
    51
0
    100
AcDbText
    73
0
    0
TEXT
    5
22F
    330
229
    100
AcDbEntity
    8
Таблица
    6
Continuous
    100
AcDbText
    10
5
    20
8.75
    30
0
    11
5
    21
8.75
    31
0
    40
2.5
    1
Элементы плана
    50
0
    41
0.800000011920929
    51
0
    100
AcDbText
    73
0
    0
TEXT
    5
230
    330
229
    100
AcDbEntity
    8
Таблица
    6
Continuous
    100
AcDbText
    10
5
    20
2.5
    30
0
    11
5
    21
2.5
    31
0
    40
2.5
    1
Километры
    50
0
    41
0.800000011920929
    51
0
    100
AcDbText
    73
0
    0
TEXT
    5
231
    330
229
    100
AcDbEntity
    8
Таблица
    6
Continuous
    100
AcDbText
    10
3.75
    20
67.5
    30
0
    11
3.75
    21
67.5
    31
0
    40
2.5
    1
Частные коэффициенты аварийности
    50
90.0002074101533
    41
0.800000011920929
    51
0
    100
AcDbText
    73
0
    0
TEXT
    5
232
    330
229
    100
AcDbEntity
    8
Таблица
    6
Continuous
    100
AcDbText
    10
5
    20
165.82507815141
    30
0
    11
5
    21
165.82507815141
    31
0
    40
2.5
    1
&SH 1000
    50
0
    41
0.800000011920929
    51
0
    100
AcDbText
    73
0
    0
TEXT
    5
233
    330
229
    100
AcDbEntity
    8
Таблица
    6
Continuous
    100
AcDbText
    10
5
    20
160.82507815141
    30
0
    11
5
    21
160.82507815141
    31
0
    40
2.5
    1
&SV 100
    50
0
    41
0.800000011920929
    51
0
    100
AcDbText
    73
0
    0
TEXT
    5
234
    330
229
    100
AcDbEntity
    8
Таблица
    6
Continuous
    100
AcDbText
    10
100
    20
155
    30
0
    11
100
    21
155
    31
0
    40
2.5
    1
&L
    50
0
    41
0.800000011920929
    51
0
    100
AcDbText
    73
0
    0
TEXT
    5
235
    330
229
    100
AcDbEntity
    8
Таблица
    6
Continuous
    100
AcDbText
    10
100
    20
125
    30
0
    11
100
    21
125
    31
0
    40
2.5
    1
&L
    50
0
    41
0.800000011920929
    51
0
    100
AcDbText
    73
0
    0
TEXT
    5
236
    330
229
    100
AcDbEntity
    8
Красные отметки
    6
Continuous
    100
AcDbText
    10
100
    20
23.75
    30
0
    11
100
    21
25
    31
0
    40
2.5
    1
&G PRF
    50
0
    41
0.800000011920929
    51
0
    100
AcDbText
    73
2
    0
TEXT
    5
237
    330
229
    100
AcDbEntity
    8
Пикеты
    6
Continuous
    100
AcDbText
    10
96.3333332538605
    20
15.5347667081238
    30
0
    11
100
    21
15.5347667081238
    31
0
    40
2.5
    1
&PKT
    50
0
    41
0.800000011920929
    51
0
    72
1
    100
AcDbText
    73
1
    0
TEXT
    5
238
    330
229
    100
AcDbEntity
    8
Прямые и кривые в плане
    6
Continuous
    100
AcDbText
    10
100
    20
10
    30
0
    11
100
    21
10
    31
0
    40
2.5
    1
&PLN-ROAD 0 0
    50
0
    41
0.800000011920929
    51
0
    100
AcDbText
    73
0
    0
TEXT
    5
239
    330
229
    100
AcDbEntity
    8
Таблица
    6
Continuous
    100
AcDbText
    10
100
    20
0
    30
0
    11
100
    21
0
    31
0
    40
2.5
    1
&L
    50
0
    41
0.800000011920929
    51
0
    100
AcDbText
    73
0
    0
TEXT
    5
23A
    330
229
    100
AcDbEntity
    8
Километры
    6
Continuous
    100
AcDbText
    10
98.3333332538605
    20
5.5
    30
0
    11
100
    21
5.5
    31
0
    40
2.5
    1
&K
    50
0
    41
0.800000011920929
    51
0
    72
1
    100
AcDbText
    73
1
    0
TEXT
    5
23B
    330
229
    100
AcDbEntity
    8
Развернутый план
    6
Continuous
    100
AcDbText
    10
100
    20
10
    30
0
    11
100
    21
10
    31
0
    40
2.5
    1
&UP
    50
0
    41
0.800000011920929
    51
0
    100
AcDbText
    73
0
    0
TEXT
    5
23C
    330
229
    100
AcDbEntity
    8
Таблица
    6
Continuous
    100
AcDbText
    10
100
    20
150
    30
0
    11
100
    21
150
    31
0
    40
2.5
    1
&L
    50
0
    41
0.800000011920929
    51
0
    100
AcDbText
    73
0
    0
TEXT
    5
23D
    330
229
    100
AcDbEntity
    8
Таблица
    6
Continuous
    100
AcDbText
    10
100
    20
115
    30
0
    11
100
    21
115
    31
0
    40
2.5
    1
&L
    50
0
    41
0.800000011920929
    51
0
    100
AcDbText
    73
0
    0
TEXT
    5
23E
    330
229
    100
AcDbEntity
    8
Таблица
    6
Continuous
    100
AcDbText
    10
100
    20
95
    30
0
    11
100
    21
95
    31
0
    40
2.5
    1
&L
    50
0
    41
0.800000011920929
    51
0
    100
AcDbText
    73
0
    0
TEXT
    5
23F
    330
229
    100
AcDbEntity
    8
Таблица
    6
Continuous
    100
AcDbText
    10
100
    20
90
    30
0
    11
100
    21
90
    31
0
    40
2.5
    1
&L
    50
0
    41
0.800000011920929
    51
0
    100
AcDbText
    73
0
    0
TEXT
    5
240
    330
229
    100
AcDbEntity
    8
Таблица
    6
Continuous
    100
AcDbText
    10
100
    20
20
    30
0
    11
100
    21
20
    31
0
    40
2.5
    1
&L
    50
0
    41
0.800000011920929
    51
0
    100
AcDbText
    73
0
    0
TEXT
    5
241
    330
229
    100
AcDbEntity
    8
Таблица
    6
Continuous
    100
AcDbText
    10
100
    20
75
    30
0
    11
100
    21
75
    31
0
    40
2.5
    1
&L
    50
0
    41
0.800000011920929
    51
0
    100
AcDbText
    73
0
    0
TEXT
    5
242
    330
229
    100
AcDbEntity
    8
Таблица
    6
Continuous
    100
AcDbText
    10
100
    20
130
    30
0
    11
100
    21
130
    31
0
    40
2.5
    1
&L
    50
0
    41
0.800000011920929
    51
0
    100
AcDbText
    73
0
    0
LWPOLYLINE
    5
243
    330
229
    100
AcDbEntity
    8
Таблица
    6
Continuous
    100
AcDbPolyline
    90
2
    70
128
    10
100
    20
0
    10
100
    20
155
    0
LWPOLYLINE
    5
244
    330
229
    100
AcDbEntity
    8
Таблица
    6
Continuous
    100
AcDbPolyline
    90
2
    70
128
    10
5
    20
145
    10
5
    20
55
    0
LWPOLYLINE
    5
245
    330
229
    100
AcDbEntity
    8
Таблица
    6
Continuous
    100
AcDbPolyline
    90
2
    70
128
    10
0
    20
155
    10
0
    20
0
    0
LWPOLYLINE
    5
246
    330
229
    100
AcDbEntity
    8
Таблица
    6
Continuous
    100
AcDbPolyline
    90
2
    70
128
    10
0
    20
0
    10
100
    20
0
    0
LWPOLYLINE
    5
247
    330
229
    100
AcDbEntity
    8
Таблица
    6
Continuous
    100
AcDbPolyline
    90
2
    70
128
    10
0
    20
20
    10
100
    20
20
    0
LWPOLYLINE
    5
248
    330
229
    100
AcDbEntity
    8
Таблица
    6
Continuous
    100
AcDbPolyline
    90
2
    70
128
    10
0
    20
40
    10
100
    20
40
    0
LWPOLYLINE
    5
249
    330
229
    100
AcDbEntity
    8
Таблица
    6
Continuous
    100
AcDbPolyline
    90
2
    70
128
    10
5
    20
75
    10
100
    20
75
    0
TEXT
    5
24A
    330
229
    100
AcDbEntity
    8
Таблица
    6
Continuous
    100
AcDbText
    10
100
    20
40
    30
0
    11
100
    21
40
    31
0
    40
2.5
    1
&L
    50
0
    41
0.800000011920929
    51
0
    100
AcDbText
    73
0
    0
TEXT
    5
24B
    330
229
    100
AcDbEntity
    8
Таблица
    6
Continuous
    100
AcDbText
    10
100
    20
45
    30
0
    11
100
    21
45
    31
0
    40
2.5
    1
&L
    50
0
    41
0.800000011920929
    51
0
    100
AcDbText
    73
0
    0
TEXT
    5
24C
    330
229
    100
AcDbEntity
    8
Таблица
    6
Continuous
    100
AcDbText
    10
100
    20
50
    30
0
    11
100
    21
50
    31
0
    40
2.5
    1
&L
    50
0
    41
0.800000011920929
    51
0
    100
AcDbText
    73
0
    0
LWPOLYLINE
    5
24D
    330
229
    100
AcDbEntity
    8
Таблица
    6
Continuous
    100
AcDbPolyline
    90
2
    70
128
    10
0
    20
45
    10
100
    20
45
    0
TEXT
    5
24E
    330
229
    100
AcDbEntity
    8
Таблица
    6
Continuous
    100
AcDbText
    10
5
    20
41.25
    30
0
    11
5
    21
41.25
    31
0
    40
2.5
    1
Освещенность, люкс
    50
0
    41
0.800000011920929
    51
0
    100
AcDbText
    73
0
    0
LWPOLYLINE
    5
24F
    330
229
    100
AcDbEntity
    8
Таблица
    6
Continuous
    100
AcDbPolyline
    90
2
    70
128
    10
0
    20
50
    10
100
    20
50
    0
LWPOLYLINE
    5
250
    330
229
    100
AcDbEntity
    8
Таблица
    6
Continuous
    100
AcDbPolyline
    90
2
    70
128
    10
5
    20
70
    10
100
    20
70
    0
TEXT
    5
251
    330
229
    100
AcDbEntity
    8
Таблица
    6
Continuous
    100
AcDbText
    10
100
    20
100
    30
0
    11
100
    21
100
    31
0
    40
2.5
    1
&L
    50
0
    41
0.800000011920929
    51
0
    100
AcDbText
    73
0
    0
TEXT
    5
252
    330
229
    100
AcDbEntity
    8
Таблица
    6
Continuous
    100
AcDbText
    10
100
    20
85
    30
0
    11
100
    21
85
    31
0
    40
2.5
    1
&L
    50
0
    41
0.800000011920929
    51
0
    100
AcDbText
    73
0
    0
TEXT
    5
253
    330
229
    100
AcDbEntity
    8
Таблица
    6
Continuous
    100
AcDbText
    10
100
    20
80
    30
0
    11
100
    21
80
    31
0
    40
2.5
    1
&L
    50
0
    41
0.800000011920929
    51
0
    100
AcDbText
    73
0
    0
TEXT
    5
254
    330
229
    100
AcDbEntity
    8
Таблица
    6
Continuous
    100
AcDbText
    10
100
    20
70
    30
0
    11
100
    21
70
    31
0
    40
2.5
    1
&L
    50
0
    41
0.800000011920929
    51
0
    100
AcDbText
    73
0
    0
TEXT
    5
255
    330
229
    100
AcDbEntity
    8
Таблица
    6
Continuous
    100
AcDbText
    10
5
    20
46.25
    30
0
    11
5
    21
46.25
    31
0
    40
2.5
    1
Ширина проезжей части, м
    50
0
    41
0.800000011920929
    51
0
    100
AcDbText
    73
0
    0
TEXT
    5
256
    330
229
    100
AcDbEntity
    8
0
    6
Continuous
    100
AcDbText
    10
5
    20
176.711348643214
    30
0
    11
5
    21
176.711348643214
    31
0
    40
2.5
    1
коэффициентов
    50
0
    41
0.800000011920929
    51
0
    100
AcDbText
    73
0
    0
TEXT
    5
257
    330
229
    100
AcDbEntity
    8
0
    6
Continuous
    100
AcDbText
    10
5
    20
172.391932659607
    30
0
    11
5
    21
172.391932659607
    31
0
    40
2.5
    1
аварийности
    50
0
    41
0.800000011920929
    51
0
    100
AcDbText
    73
0
    0
LWPOLYLINE
    5
258
    330
229
    100
AcDbEntity
    8
Таблица
    6
Continuous
    100
AcDbPolyline
    90
2
    70
128
    10
5
    20
80
    10
100
    20
80
    0
LWPOLYLINE
    5
259
    330
229
    100
AcDbEntity
    8
Таблица
    6
Continuous
    100
AcDbPolyline
    90
2
    70
128
    10
5
    20
85
    10
100
    20
85
    0
LWPOLYLINE
    5
25A
    330
229
    100
AcDbEntity
    8
Таблица
    6
Continuous
    100
AcDbPolyline
    90
2
    70
128
    10
5
    20
90
    10
100
    20
90
    0
LWPOLYLINE
    5
25B
    330
229
    100
AcDbEntity
    8
Таблица
    6
Continuous
    100
AcDbPolyline
    90
2
    70
128
    10
5
    20
95
    10
100
    20
95
    0
LWPOLYLINE
    5
25C
    330
229
    100
AcDbEntity
    8
Таблица
    6
Continuous
    100
AcDbPolyline
    90
2
    70
128
    10
5
    20
100
    10
100
    20
100
    0
LWPOLYLINE
    5
25D
    330
229
    100
AcDbEntity
    8
Таблица
    6
Continuous
    100
AcDbPolyline
    90
2
    70
128
    10
5
    20
105
    10
100
    20
105
    0
LWPOLYLINE
    5
25E
    330
229
    100
AcDbEntity
    8
Таблица
    6
Continuous
    100
AcDbPolyline
    90
2
    70
128
    10
5
    20
110
    10
100
    20
110
    0
LWPOLYLINE
    5
25F
    330
229
    100
AcDbEntity
    8
Таблица
    6
Continuous
    100
AcDbPolyline
    90
2
    70
128
    10
5
    20
115
    10
100
    20
115
    0
LWPOLYLINE
    5
260
    330
229
    100
AcDbEntity
    8
Таблица
    6
Continuous
    100
AcDbPolyline
    90
2
    70
128
    10
5
    20
120
    10
100
    20
120
    0
LWPOLYLINE
    5
261
    330
229
    100
AcDbEntity
    8
Таблица
    6
Continuous
    100
AcDbPolyline
    90
2
    70
128
    10
5
    20
125
    10
100
    20
125
    0
LWPOLYLINE
    5
262
    330
229
    100
AcDbEntity
    8
Таблица
    6
Continuous
    100
AcDbPolyline
    90
2
    70
128
    10
5
    20
130
    10
100
    20
130
    0
LWPOLYLINE
    5
263
    330
229
    100
AcDbEntity
    8
Таблица
    6
Continuous
    100
AcDbPolyline
    90
2
    70
128
    10
0
    20
150
    10
100
    20
150
    0
TEXT
    5
264
    330
229
    100
AcDbEntity
    8
Таблица
    6
Continuous
    100
AcDbText
    10
25
    20
71.25
    30
0
    11
25
    21
71.25
    31
0
    40
2.5
    1
продольный уклон
    50
0
    41
0.800000011920929
    51
0
    100
AcDbText
    73
0
    0
TEXT
    5
265
    330
229
    100
AcDbEntity
    8
Таблица
    6
Continuous
    100
AcDbText
    10
25
    20
76.25
    30
0
    11
25
    21
76.25
    31
0
    40
2.5
    1
расположение тротуаров
    50
0
    41
0.800000011920929
    51
0
    100
AcDbText
    73
0
    0
TEXT
    5
266
    330
229
    100
AcDbEntity
    8
Таблица
    6
Continuous
    100
AcDbText
    10
25
    20
81.25
    30
0
    11
25
    21
81.25
    31
0
    40
2.5
    1
инт. движения пеш. вне перекрестка
    50
0
    41
0.800000011920929
    51
0
    100
AcDbText
    73
0
    0
TEXT
    5
267
    330
229
    100
AcDbEntity
    8
Таблица
    6
Continuous
    100
AcDbText
    10
25
    20
86.25
    30
0
    11
25
    21
86.25
    31
0
    40
2.5
    1
расположение переходов
    50
0
    41
0.800000011920929
    51
0
    100
AcDbText
    73
0
    0
TEXT
    5
268
    330
229
    100
AcDbEntity
    8
Таблица
    6
Continuous
    100
AcDbText
    10
25
    20
91.25
    30
0
    11
25
    21
91.25
    31
0
    40
2.5
    1
расположение остан. пунктов
    50
0
    41
0.800000011920929
    51
0
    100
AcDbText
    73
0
    0
TEXT
    5
269
    330
229
    100
AcDbEntity
    8
Таблица
    6
Continuous
    100
AcDbText
    10
25
    20
96.25
    30
0
    11
25
    21
96.25
    31
0
    40
2.5
    1
видимость пересечения
    50
0
    41
0.800000011920929
    51
0
    100
AcDbText
    73
0
    0
TEXT
    5
26A
    330
229
    100
AcDbEntity
    8
Таблица
    6
Continuous
    100
AcDbText
    10
25
    20
101.25
    30
0
    11
25
    21
101.25
    31
0
    40
2.5
    1
инт. движ. пеш. на перекрестках
    50
0
    41
0.800000011920929
    51
0
    100
AcDbText
    73
0
    0
TEXT
    5
26B
    330
229
    100
AcDbEntity
    8
Таблица
    6
Continuous
    100
AcDbText
    10
25
    20
106.25
    30
0
    11
25
    21
106.25
    31
0
    40
2.5
    1
инт. движ. авто на перекрестках
    50
0
    41
0.800000011920929
    51
0
    100
AcDbText
    73
0
    0
TEXT
    5
26C
    330
229
    100
AcDbEntity
    8
Таблица
    6
Continuous
    100
AcDbText
    10
25
    20
111.25
    30
0
    11
25
    21
111.25
    31
0
    40
2.5
    1
тип пересечения
    50
0
    41
0.800000011920929
    51
0
    100
AcDbText
    73
0
    0
TEXT
    5
26D
    330
229
    100
AcDbEntity
    8
Таблица
    6
Continuous
    100
AcDbText
    10
25
    20
116.25
    30
0
    11
25
    21
116.25
    31
0
    40
2.5
    1
освещение пр. части и тротуаров
    50
0
    41
0.800000011920929
    51
0
    100
AcDbText
    73
0
    0
TEXT
    5
26E
    330
229
    100
AcDbEntity
    8
Таблица
    6
Continuous
    100
AcDbText
    10
25
    20
121.25
    30
0
    11
25
    21
121.25
    31
0
    40
2.5
    1
количество полос движения
    50
0
    41
0.800000011920929
    51
0
    100
AcDbText
    73
0
    0
TEXT
    5
26F
    330
229
    100
AcDbEntity
    8
Таблица
    6
Continuous
    100
AcDbText
    10
25
    20
126.25
    30
0
    11
25
    21
126.25
    31
0
    40
2.5
    1
безопасная скорость
    50
0
    41
0.800000011920929
    51
0
    100
AcDbText
    73
0
    0
LWPOLYLINE
    5
270
    330
229
    100
AcDbEntity
    8
Таблица
    6
Continuous
    100
AcDbPolyline
    90
2
    70
128
    10
5
    20
135
    10
100
    20
135
    0
LWPOLYLINE
    5
271
    330
229
    100
AcDbEntity
    8
Таблица
    6
Continuous
    100
AcDbPolyline
    90
2
    70
128
    10
5
    20
140
    10
100
    20
140
    0
LWPOLYLINE
    5
272
    330
229
    100
AcDbEntity
    8
Таблица
    6
Continuous
    100
AcDbPolyline
    90
2
    70
128
    10
0
    20
155
    10
100
    20
155
    0
TEXT
    5
273
    330
229
    100
AcDbEntity
    8
Таблица
    6
Continuous
    100
AcDbText
    10
11
    20
151.25
    30
0
    11
11
    21
151.25
    31
0
    40
2.5
    1
Номер участка
    50
0
    41
0.800000011920929
    51
0
    100
AcDbText
    73
0
    0
TEXT
    5
274
    330
229
    100
AcDbEntity
    8
Таблица
    6
Continuous
    100
AcDbText
    10
100
    20
110
    30
0
    11
100
    21
110
    31
0
    40
2.5
    1
&L
    50
0
    41
0.800000011920929
    51
0
    100
AcDbText
    73
0
    0
TEXT
    5
275
    330
229
    100
AcDbEntity
    8
Таблица
    6
Continuous
    100
AcDbText
    10
100
    20
120
    30
0
    11
100
    21
120
    31
0
    40
2.5
    1
&L
    50
0
    41
0.800000011920929
    51
0
    100
AcDbText
    73
0
    0
TEXT
    5
276
    330
229
    100
AcDbEntity
    8
Таблица
    6
Continuous
    100
AcDbText
    10
100
    20
135
    30
0
    11
100
    21
135
    31
0
    40
2.5
    1
&L
    50
0
    41
0.800000011920929
    51
0
    100
AcDbText
    73
0
    0
TEXT
    5
277
    330
229
    100
AcDbEntity
    8
Таблица
    6
Continuous
    100
AcDbText
    10
100
    20
140
    30
0
    11
100
    21
140
    31
0
    40
2.5
    1
&L
    50
0
    41
0.800000011920929
    51
0
    100
AcDbText
    73
0
    0
TEXT
    5
278
    330
229
    100
AcDbEntity
    8
Таблица
    6
Continuous
    100
AcDbText
    10
100
    20
105
    30
0
    11
100
    21
105
    31
0
    40
2.5
    1
&L
    50
0
    41
0.800000011920929
    51
0
    100
AcDbText
    73
0
    0
TEXT
    5
279
    330
229
    100
AcDbEntity
    8
Таблица
    6
Continuous
    100
AcDbText
    10
25
    20
131.25
    30
0
    11
25
    21
131.25
    31
0
    40
2.5
    1
ширина проезжей части
    50
0
    41
0.800000011920929
    51
0
    100
AcDbText
    73
0
    0
TEXT
    5
27A
    330
229
    100
AcDbEntity
    8
Таблица
    6
Continuous
    100
AcDbText
    10
25
    20
136.25
    30
0
    11
25
    21
136.25
    31
0
    40
2.5
    1
количество легковых автомобилей
    50
0
    41
0.800000011920929
    51
0
    100
AcDbText
    73
0
    0
TEXT
    5
27B
    330
229
    100
AcDbEntity
    8
Таблица
    6
Continuous
    100
AcDbText
    10
25
    20
141.25
    30
0
    11
25
    21
141.25
    31
0
    40
2.5
    1
интенсивность движения
    50
0
    41
0.800000011920929
    51
0
    100
AcDbText
    73
0
    0
TEXT
    5
27C
    330
229
    100
AcDbEntity
    8
Таблица
    6
Continuous
    100
AcDbText
    10
100
    20
71.25
    30
0
    11
100
    21
72.5
    31
0
    40
2.5
    1
&OPR_CITY K15
    50
0
    41
0.800000011920929
    51
0
    100
AcDbText
    73
2
    0
TEXT
    5
27D
    330
229
    100
AcDbEntity
    8
Таблица
    6
Continuous
    100
AcDbText
    10
100
    20
76.25
    30
0
    11
100
    21
77.5
    31
0
    40
2.5
    1
&OPR_CITY K14
    50
0
    41
0.800000011920929
    51
0
    100
AcDbText
    73
2
    0
TEXT
    5
27E
    330
229
    100
AcDbEntity
    8
Таблица
    6
Continuous
    100
AcDbText
    10
100
    20
81.25
    30
0
    11
100
    21
82.5
    31
0
    40
2.5
    1
&OPR_CITY K13
    50
0
    41
0.800000011920929
    51
0
    100
AcDbText
    73
2
    0
TEXT
    5
27F
    330
229
    100
AcDbEntity
    8
Таблица
    6
Continuous
    100
AcDbText
    10
100
    20
86.25
    30
0
    11
100
    21
87.5
    31
0
    40
2.5
    1
&OPR_CITY K12
    50
0
    41
0.800000011920929
    51
0
    100
AcDbText
    73
2
    0
TEXT
    5
280
    330
229
    100
AcDbEntity
    8
Таблица
    6
Continuous
    100
AcDbText
    10
100
    20
91.25
    30
0
    11
100
    21
92.5
    31
0
    40
2.5
    1
&OPR_CITY K11
    50
0
    41
0.800000011920929
    51
0
    100
AcDbText
    73
2
    0
TEXT
    5
281
    330
229
    100
AcDbEntity
    8
Таблица
    6
Continuous
    100
AcDbText
    10
100
    20
96.25
    30
0
    11
100
    21
97.5
    31
0
    40
2.5
    1
&OPR_CITY K10
    50
0
    41
0.800000011920929
    51
0
    100
AcDbText
    73
2
    0
TEXT
    5
282
    330
229
    100
AcDbEntity
    8
Таблица
    6
Continuous
    100
AcDbText
    10
100
    20
101.25
    30
0
    11
100
    21
102.5
    31
0
    40
2.5
    1
&OPR_CITY K9
    50
0
    41
0.800000011920929
    51
0
    100
AcDbText
    73
2
    0
TEXT
    5
283
    330
229
    100
AcDbEntity
    8
Таблица
    6
Continuous
    100
AcDbText
    10
100
    20
106.25
    30
0
    11
100
    21
107.5
    31
0
    40
2.5
    1
&OPR_CITY K8
    50
0
    41
0.800000011920929
    51
0
    100
AcDbText
    73
2
    0
TEXT
    5
284
    330
229
    100
AcDbEntity
    8
Таблица
    6
Continuous
    100
AcDbText
    10
100
    20
111.25
    30
0
    11
100
    21
112.5
    31
0
    40
2.5
    1
&OPR_CITY K7
    50
0
    41
0.800000011920929
    51
0
    100
AcDbText
    73
2
    0
TEXT
    5
285
    330
229
    100
AcDbEntity
    8
Таблица
    6
Continuous
    100
AcDbText
    10
100
    20
116.25
    30
0
    11
100
    21
117.5
    31
0
    40
2.5
    1
&OPR_CITY K6
    50
0
    41
0.800000011920929
    51
0
    100
AcDbText
    73
2
    0
TEXT
    5
286
    330
229
    100
AcDbEntity
    8
Таблица
    6
Continuous
    100
AcDbText
    10
100
    20
121.25
    30
0
    11
100
    21
122.5
    31
0
    40
2.5
    1
&OPR_CITY K5
    50
0
    41
0.800000011920929
    51
0
    100
AcDbText
    73
2
    0
TEXT
    5
287
    330
229
    100
AcDbEntity
    8
Таблица
    6
Continuous
    100
AcDbText
    10
100
    20
126.25
    30
0
    11
100
    21
127.5
    31
0
    40
2.5
    1
&OPR_CITY K4
    50
0
    41
0.800000011920929
    51
0
    100
AcDbText
    73
2
    0
TEXT
    5
288
    330
229
    100
AcDbEntity
    8
Таблица
    6
Continuous
    100
AcDbText
    10
100
    20
131.25
    30
0
    11
100
    21
132.5
    31
0
    40
2.5
    1
&OPR_CITY K3
    50
0
    41
0.800000011920929
    51
0
    100
AcDbText
    73
2
    0
TEXT
    5
289
    330
229
    100
AcDbEntity
    8
Таблица
    6
Continuous
    100
AcDbText
    10
100
    20
136.25
    30
0
    11
100
    21
137.5
    31
0
    40
2.5
    1
&OPR_CITY K2
    50
0
    41
0.800000011920929
    51
0
    100
AcDbText
    73
2
    0
TEXT
    5
28A
    330
229
    100
AcDbEntity
    8
Таблица
    6
Continuous
    100
AcDbText
    10
100
    20
141.25
    30
0
    11
100
    21
142.5
    31
0
    40
2.5
    1
&OPR_CITY K1
    50
0
    41
0.800000011920929
    51
0
    100
AcDbText
    73
2
    0
TEXT
    5
28B
    330
229
    100
AcDbEntity
    8
Таблица
    6
Continuous
    100
AcDbText
    10
100
    20
151.25
    30
0
    11
100
    21
152.5
    31
0
    40
2.5
    1
&OPR_CITY SEGNUM
    50
0
    41
0.800000011920929
    51
0
    100
AcDbText
    73
2
    0
TEXT
    5
28C
    330
229
    100
AcDbEntity
    8
Таблица
    6
Continuous
    100
AcDbText
    10
100
    20
51.25
    30
0
    11
100
    21
52.5
    31
0
    40
2.5
    1
&OPR_CITY INTENS
    50
0
    41
0.800000011920929
    51
0
    100
AcDbText
    73
2
    0
TEXT
    5
28D
    330
229
    100
AcDbEntity
    8
Таблица
    6
Continuous
    100
AcDbText
    10
100
    20
46.25
    30
0
    11
100
    21
47.5
    31
0
    40
2.5
    1
&OPR_CITY WIDTH
    50
0
    41
0.800000011920929
    51
0
    100
AcDbText
    73
2
    0
TEXT
    5
28E
    330
229
    100
AcDbEntity
    8
Таблица
    6
Continuous
    100
AcDbText
    10
100
    20
41.25
    30
0
    11
100
    21
42.5
    31
0
    40
2.5
    1
&OPR_CITY LIGHT
    50
0
    41
0.800000011920929
    51
0
    100
AcDbText
    73
2
    0
TEXT
    5
28F
    330
229
    100
AcDbEntity
    8
0
    6
Continuous
    100
AcDbText
    10
0
    20
185.188795393719
    30
0
    11
0
    21
185.188795393719
    31
0
    40
2.5
    1
&TITLE Коэф-ты аварийности (городские дороги)
    50
0
    41
0.800000011920929
    51
0
    100
AcDbText
    73
0
    0
TEXT
    5
290
    330
229
    100
AcDbEntity
    8
Таблица
    6
Continuous
    100
AcDbText
    10
5
    20
180.985841176661
    30
0
    11
5
    21
180.985841176661
    31
0
    40
2.5
    1
Эпюра итоговых
    50
0
    41
0.800000011920929
    51
0
    100
AcDbText
    73
0
    0
TEXT
    5
291
    330
229
    100
AcDbEntity
    8
Коэффициенты
    6
Continuous
    100
AcDbText
    10
100
    20
155
    30
0
    11
100
    21
155
    31
0
    40
2.5
    1
&OPR_CITY NETSTEP
    50
0
    41
0.800000011920929
    51
0
    100
AcDbText
    73
1
    0
TEXT
    5
292
    330
229
    100
AcDbEntity
    8
Коэффициенты
    6
Continuous
    100
AcDbText
    10
61.7707427957574
    20
160.911107263355
    30
0
    11
61.7707427957574
    21
160.911107263355
    31
0
    40
2.5
    1
&OPR_NETSTEP 5
    50
0
    41
0.800000011920929
    51
0
    100
AcDbText
    73
1
    0
LINE
    5
293
    330
229
    100
AcDbEntity
    8
0
    6
Continuous
    100
AcDbLine
    10
0
    20
20
    30
0
    11
2.84413081245313
    21
20
    31
0
    0
LWPOLYLINE
    5
294
    330
229
    100
AcDbEntity
    8
Таблица
    6
Continuous
    100
AcDbPolyline
    90
2
    70
128
    10
0
    20
30
    10
100
    20
30
    0
TEXT
    5
295
    330
229
    100
AcDbEntity
    8
Таблица
    6
Continuous
    100
AcDbText
    10
5
    20
36.25
    30
0
    11
5
    21
36.25
    31
0
    40
2.5
    1
Пересечения, видимость, интенсивность
    50
0
    41
0.800000011920929
    51
0
    100
AcDbText
    73
0
    0
TEXT
    5
296
    330
229
    100
AcDbEntity
    8
Таблица
    6
Continuous
    100
AcDbText
    10
5
    20
31.25
    30
0
    11
5
    21
31.25
    31
0
    40
2.5
    1
по пересекаемой дороге
    50
0
    41
0.800000011920929
    51
0
    100
AcDbText
    73
0
    0
TEXT
    5
297
    330
229
    100
AcDbEntity
    8
Таблица
    6
Continuous
    100
AcDbText
    10
100
    20
30
    30
0
    11
100
    21
30
    31
0
    40
2.5
    1
&L
    50
0
    41
0.800000011920929
    51
0
    100
AcDbText
    73
0
    0
TEXT
    5
298
    330
229
    100
AcDbEntity
    8
Таблица
    6
Continuous
    100
AcDbText
    10
100
    20
33.75
    30
0
    11
100
    21
35
    31
0
    40
2.5
    1
&OPR_CITY CROSS_VIS_INTENS
    50
0
    41
0.800000011920929
    51
0
    100
AcDbText
    73
2
    0
LWPOLYLINE
    5
299
    330
229
    100
AcDbEntity
    8
Таблица
    6
Continuous
    100
AcDbPolyline
    90
2
    70
128
    10
0
    20
55
    10
100
    20
55
    0
LWPOLYLINE
    5
29A
    330
229
    100
AcDbEntity
    8
Таблица
    6
Continuous
    100
AcDbPolyline
    90
2
    70
128
    10
5
    20
60
    10
100
    20
60
    0
LWPOLYLINE
    5
29B
    330
229
    100
AcDbEntity
    8
Таблица
    6
Continuous
    100
AcDbPolyline
    90
2
    70
128
    10
5
    20
65
    10
100
    20
65
    0
LWPOLYLINE
    5
29C
    330
229
    100
AcDbEntity
    8
Таблица
    6
Continuous
    100
AcDbPolyline
    90
2
    70
128
    10
0
    20
145
    10
100
    20
145
    0
TEXT
    5
29D
    330
229
    100
AcDbEntity
    8
Таблица
    6
Continuous
    100
AcDbText
    10
11
    20
146.25
    30
0
    11
11
    21
146.25
    31
0
    40
2.5
    1
Итоговый коэффициент
    50
0
    41
0.800000011920929
    51
0
    100
AcDbText
    73
0
    0
TEXT
    5
29E
    330
229
    100
AcDbEntity
    8
Таблица
    6
Continuous
    100
AcDbText
    10
100
    20
145
    30
0
    11
100
    21
145
    31
0
    40
2.5
    1
&L
    50
0
    41
0.800000011920929
    51
0
    100
AcDbText
    73
0
    0
TEXT
    5
29F
    330
229
    100
AcDbEntity
    8
Таблица
    6
Continuous
    100
AcDbText
    10
100
    20
146.25
    30
0
    11
100
    21
147.5
    31
0
    40
2.5
    1
&OPR_CITY KALL
    50
0
    41
0.800000011920929
    51
0
    100
AcDbText
    73
2
    0
LWPOLYLINE
    5
2A0
    330
229
    100
AcDbEntity
    8
Таблица
    6
Continuous
    100
AcDbPolyline
    90
2
    70
128
    10
15
    20
145
    10
15
    20
55
    0
TEXT
    5
2A1
    330
229
    100
AcDbEntity
    8
Таблица
    6
Continuous
    100
AcDbText
    10
7.5
    20
141.25
    30
0
    11
7.5
    21
141.25
    31
0
    40
2.5
    1
K1
    50
0
    41
0.800000011920929
    51
0
    100
AcDbText
    73
0
    0
TEXT
    5
2A2
    330
229
    100
AcDbEntity
    8
Таблица
    6
Continuous
    100
AcDbText
    10
7.5
    20
136.25
    30
0
    11
7.5
    21
136.25
    31
0
    40
2.5
    1
K2
    50
0
    41
0.800000011920929
    51
0
    100
AcDbText
    73
0
    0
TEXT
    5
2A3
    330
229
    100
AcDbEntity
    8
Таблица
    6
Continuous
    100
AcDbText
    10
7.5
    20
131.25
    30
0
    11
7.5
    21
131.25
    31
0
    40
2.5
    1
K3
    50
0
    41
0.800000011920929
    51
0
    100
AcDbText
    73
0
    0
TEXT
    5
2A4
    330
229
    100
AcDbEntity
    8
Таблица
    6
Continuous
    100
AcDbText
    10
7.5
    20
126.25
    30
0
    11
7.5
    21
126.25
    31
0
    40
2.5
    1
K4
    50
0
    41
0.800000011920929
    51
0
    100
AcDbText
    73
0
    0
TEXT
    5
2A5
    330
229
    100
AcDbEntity
    8
Таблица
    6
Continuous
    100
AcDbText
    10
7.5
    20
121.25
    30
0
    11
7.5
    21
121.25
    31
0
    40
2.5
    1
K5
    50
0
    41
0.800000011920929
    51
0
    100
AcDbText
    73
0
    0
TEXT
    5
2A6
    330
229
    100
AcDbEntity
    8
Таблица
    6
Continuous
    100
AcDbText
    10
7.5
    20
116.25
    30
0
    11
7.5
    21
116.25
    31
0
    40
2.5
    1
K6
    50
0
    41
0.800000011920929
    51
0
    100
AcDbText
    73
0
    0
TEXT
    5
2A7
    330
229
    100
AcDbEntity
    8
Таблица
    6
Continuous
    100
AcDbText
    10
7.5
    20
111.25
    30
0
    11
7.5
    21
111.25
    31
0
    40
2.5
    1
K7
    50
0
    41
0.800000011920929
    51
0
    100
AcDbText
    73
0
    0
TEXT
    5
2A8
    330
229
    100
AcDbEntity
    8
Таблица
    6
Continuous
    100
AcDbText
    10
7.5
    20
106.25
    30
0
    11
7.5
    21
106.25
    31
0
    40
2.5
    1
K8
    50
0
    41
0.800000011920929
    51
0
    100
AcDbText
    73
0
    0
TEXT
    5
2A9
    330
229
    100
AcDbEntity
    8
Таблица
    6
Continuous
    100
AcDbText
    10
7.5
    20
101.25
    30
0
    11
7.5
    21
101.25
    31
0
    40
2.5
    1
K9
    50
0
    41
0.800000011920929
    51
0
    100
AcDbText
    73
0
    0
TEXT
    5
2AA
    330
229
    100
AcDbEntity
    8
Таблица
    6
Continuous
    100
AcDbText
    10
7.5
    20
96.25
    30
0
    11
7.5
    21
96.25
    31
0
    40
2.5
    1
K10
    50
0
    41
0.800000011920929
    51
0
    100
AcDbText
    73
0
    0
TEXT
    5
2AB
    330
229
    100
AcDbEntity
    8
Таблица
    6
Continuous
    100
AcDbText
    10
7.5
    20
91.25
    30
0
    11
7.5
    21
91.25
    31
0
    40
2.5
    1
K11
    50
0
    41
0.800000011920929
    51
0
    100
AcDbText
    73
0
    0
TEXT
    5
2AC
    330
229
    100
AcDbEntity
    8
Таблица
    6
Continuous
    100
AcDbText
    10
7.5
    20
86.25
    30
0
    11
7.5
    21
86.25
    31
0
    40
2.5
    1
K12
    50
0
    41
0.800000011920929
    51
0
    100
AcDbText
    73
0
    0
TEXT
    5
2AD
    330
229
    100
AcDbEntity
    8
Таблица
    6
Continuous
    100
AcDbText
    10
7.5
    20
81.25
    30
0
    11
7.5
    21
81.25
    31
0
    40
2.5
    1
K13
    50
0
    41
0.800000011920929
    51
0
    100
AcDbText
    73
0
    0
TEXT
    5
2AE
    330
229
    100
AcDbEntity
    8
Таблица
    6
Continuous
    100
AcDbText
    10
7.5
    20
76.25
    30
0
    11
7.5
    21
76.25
    31
0
    40
2.5
    1
K14
    50
0
    41
0.800000011920929
    51
0
    100
AcDbText
    73
0
    0
TEXT
    5
2AF
    330
229
    100
AcDbEntity
    8
Таблица
    6
Continuous
    100
AcDbText
    10
7.5
    20
71.25
    30
0
    11
7.5
    21
71.25
    31
0
    40
2.5
    1
K15
    50
0
    41
0.800000011920929
    51
0
    100
AcDbText
    73
0
    0
TEXT
    5
2B0
    330
229
    100
AcDbEntity
    8
Таблица
    6
Continuous
    100
AcDbText
    10
7.5
    20
66.25
    30
0
    11
7.5
    21
66.25
    31
0
    40
2.5
    1
K16
    50
0
    41
0.800000011920929
    51
0
    100
AcDbText
    73
0
    0
TEXT
    5
2B1
    330
229
    100
AcDbEntity
    8
Таблица
    6
Continuous
    100
AcDbText
    10
7.5
    20
61.25
    30
0
    11
7.5
    21
61.25
    31
0
    40
2.5
    1
K17
    50
0
    41
0.800000011920929
    51
0
    100
AcDbText
    73
0
    0
TEXT
    5
2B2
    330
229
    100
AcDbEntity
    8
Таблица
    6
Continuous
    100
AcDbText
    10
7.5
    20
56.25
    30
0
    11
7.5
    21
56.25
    31
0
    40
2.5
    1
K18
    50
0
    41
0.800000011920929
    51
0
    100
AcDbText
    73
0
    0
TEXT
    5
2B3
    330
229
    100
AcDbEntity
    8
Таблица
    6
Continuous
    100
AcDbText
    10
100
    20
65
    30
0
    11
100
    21
65
    31
0
    40
2.5
    1
&L
    50
0
    41
0.800000011920929
    51
0
    100
AcDbText
    73
0
    0
TEXT
    5
2B4
    330
229
    100
AcDbEntity
    8
Таблица
    6
Continuous
    100
AcDbText
    10
100
    20
60
    30
0
    11
100
    21
60
    31
0
    40
2.5
    1
&L
    50
0
    41
0.800000011920929
    51
0
    100
AcDbText
    73
0
    0
TEXT
    5
2B5
    330
229
    100
AcDbEntity
    8
Таблица
    6
Continuous
    100
AcDbText
    10
100
    20
55
    30
0
    11
100
    21
55
    31
0
    40
2.5
    1
&L
    50
0
    41
0.800000011920929
    51
0
    100
AcDbText
    73
0
    0
LINE
    5
2B6
    330
229
    100
AcDbEntity
    8
0
    6
Continuous
    100
AcDbLine
    10
100
    20
70
    30
0
    11
100
    21
65
    31
0
    0
LINE
    5
2B7
    330
229
    100
AcDbEntity
    8
0
    6
Continuous
    100
AcDbLine
    10
100
    20
65
    30
0
    11
100
    21
60
    31
0
    0
LINE
    5
2B8
    330
229
    100
AcDbEntity
    8
0
    6
Continuous
    100
AcDbLine
    10
100
    20
60
    30
0
    11
100
    21
55
    31
0
    0
TEXT
    5
2B9
    330
229
    100
AcDbEntity
    8
Таблица
    6
Continuous
    100
AcDbText
    10
100
    20
66.25
    30
0
    11
100
    21
67.5
    31
0
    40
2.5
    1
&OPR_CITY K16
    50
0
    41
0.800000011920929
    51
0
    100
AcDbText
    73
2
    0
TEXT
    5
2BA
    330
229
    100
AcDbEntity
    8
Таблица
    6
Continuous
    100
AcDbText
    10
100
    20
61.25
    30
0
    11
100
    21
62.5
    31
0
    40
2.5
    1
&OPR_CITY K17
    50
0
    41
0.800000011920929
    51
0
    100
AcDbText
    73
2
    0
TEXT
    5
2BB
    330
229
    100
AcDbEntity
    8
Таблица
    6
Continuous
    100
AcDbText
    10
100
    20
56.25
    30
0
    11
100
    21
57.5
    31
0
    40
2.5
    1
&OPR_CITY K18
    50
0
    41
0.800000011920929
    51
0
    100
AcDbText
    73
2
    0
TEXT
    5
2BC
    330
229
    100
AcDbEntity
    8
Таблица
    6
Continuous
    100
AcDbText
    10
25
    20
66.25
    30
0
    11
25
    21
66.25
    31
0
    40
2.5
    1
радиус кривой в плане
    50
0
    41
0.800000011920929
    51
0
    100
AcDbText
    73
0
    0
TEXT
    5
2BD
    330
229
    100
AcDbEntity
    8
Таблица
    6
Continuous
    100
AcDbText
    10
25
    20
61.25
    30
0
    11
25
    21
61.25
    31
0
    40
2.5
    1
расположение трамв. пути
    50
0
    41
0.800000011920929
    51
0
    100
AcDbText
    73
0
    0
TEXT
    5
2BE
    330
229
    100
AcDbEntity
    8
Таблица
    6
Continuous
    100
AcDbText
    10
25
    20
56.25
    30
0
    11
25
    21
56.25
    31
0
    40
2.5
    1
характеристика покрытия
    50
0
    41
0.800000011920929
    51
0
    100
AcDbText
    73
0
    0
TEXT
    5
2BF
    330
229
    100
AcDbEntity
    8
Коэффициенты
    6
Continuous
    100
AcDbText
    10
100
    20
155
    30
0
    11
100
    21
155
    31
0
    40
2.5
    1
&OPR_CITY GRAPH
    50
0
    41
0.800000011920929
    51
0
    100
AcDbText
    73
1
    0
ENDSEC
    0
SECTION
    2
OBJECTS
    0
DICTIONARY
    5
13
    330
0
    100
AcDbDictionary
    281
1
    3
ACAD_GROUP
    350
14
    3
ACAD_MLINESTYLE
    350
16
    3
ACAD_PLOTSETTINGS
    350
17
    3
ACAD_IMAGE_DICT
    350
14D
    3
ACAD_IMAGE_VARS
    350
14E
    3
ACAD_WIPEOUT_VARS
    350
E7
    3
ACAD_PLOTSTYLENAME
    350
18
    3
ACAD_LAYOUT
    350
218
    0
DICTIONARY
    5
14
    330
13
    100
AcDbDictionary
    281
1
    0
DICTIONARY
    5
17
    102
{ACAD_REACTORS
    330
13
    102
}
    330
13
    100
AcDbDictionary
    281
1
    0
ACDBDICTIONARYWDFLT
    5
18
    102
{ACAD_REACTORS
    330
13
    102
}
    330
13
    100
AcDbDictionary
    281
1
    3
Normal
    350
19
    100
AcDbDictionaryWithDefault
    340
19
    0
ACDBPLACEHOLDER
    5
19
    102
{ACAD_REACTORS
    330
18
    102
}
    330
18
    0
DICTIONARY
    5
7E
    102
{ACAD_REACTORS
    330
C
    102
}
    330
C
    100
AcDbDictionary
    281
1
    3
Standard
    350
7F
    0
WIPEOUTVARIABLES
    5
E7
    102
{ACAD_REACTORS
    330
C
    102
}
    330
C
    100
AcDbWipeoutVariables
    70
0
    0
DICTIONARY
    5
1B
    330
1A
    100
AcDbDictionary
    280
1
    281
1
    3
ACLYDICTIONARY
    360
221
    3
ACAD_LAYERSTATES
    360
21F
    0
DICTIONARY
    5
21F
    102
{ACAD_REACTORS
    330
1B
    102
}
    330
1B
    100
AcDbDictionary
    281
1
    0
DICTIONARY
    5
221
    102
{ACAD_REACTORS
    330
1B
    102
}
    330
1B
    100
AcDbDictionary
    281
1
    3
*A1
    350
223
    3
*A2
    350
226
    0
XRECORD
    5
223
    102
{ACAD_REACTORS
    330
221
    102
}
    330
221
    100
AcDbXrecord
    280
1
    1
AcLyLayerFilter
    90
1
    300
Все используемые слои
    301
USED=="TRUE" AND VPOVERRIDES=="FALSE"
    0
XRECORD
    5
226
    102
{ACAD_REACTORS
    330
221
    102
}
    330
221
    100
AcDbXrecord
    280
1
    1
AcLyLayerFilter
    90
1
    300
Все видимые слои
    301
OFF=="FALSE"
    0
DICTIONARY
    5
218
    102
{ACAD_REACTORS
    330
C
    102
}
    330
C
    100
AcDbDictionary
    281
1
    3
Model
    350
219
    0
LAYOUT
    5
219
    100
AcDbPlotSettings
    1

    2
none_device
    4

    6

    40
0
    41
0
    42
0
    43
0
    44
297
    45
210
    46
0
    47
0
    48
0
    49
0
    140
0
    141
0
    142
1
    143
1
    70
4784
    72
1
    73
0
    74
5
    7

    75
0
    147
1
    148
0
    149
0
    100
AcDbLayout
    1
Model
    70
1
    71
0
    330
229
    0
DICTIONARY
    5
E6
    330
10
    100
AcDbDictionary
    280
1
    281
1
    3
ADSK_XREC_LAYER_RECONCILED
    360
155
    0
DICTIONARY
    5
16
    102
{ACAD_REACTORS
    330
C
    102
}
    330
C
    100
AcDbDictionary
    281
1
    3
Standard
    350
216
    0
MLINESTYLE
    5
216
    102
{ACAD_REACTORS
    330
16
    102
}
    330
16
    100
AcDbMlineStyle
    2
Standard
    70
0
    3

    62
256
    51
90.0000025044782
    52
90.0000025044782
    71
2
    49
0.5
    62
256
    6
Continuous
    49
-0.5
    62
256
    6
Continuous
    0
DICTIONARY
    5
14D
    102
{ACAD_REACTORS
    330
C
    102
}
    330
C
    100
AcDbDictionary
    281
1
    0
RASTERVARIABLES
    5
14E
    102
{ACAD_REACTORS
    330
C
    102
}
    330
C
    100
AcDbRasterVariables
    90
0
    70
1
    71
1
    72
5
    0
XRECORD
    5
155
    102
{ACAD_REACTORS
    330
E6
    102
}
    330
E6
    100
AcDbXrecord
    280
1
    290
1
    0
ENDSEC
    0
EOF
