    0
SECTION
    2
HEADER
    9
$ACADVER
    1
AC1015
    9
$DWGCODEPAGE
    3
ANSI_1251
    9
$HANDSEED
    5
2AD
    9
$TILEMODE
    70
1
    9
$CECOLOR
    62
256
    9
$CELTSCALE
    40
1
    9
$CELTYPE
    6
Continuous
    9
$CELWEIGHT
    370
-1
    9
$CLAYER
    8
0
    9
$CMLSTYLE
    2
Standard
    9
$DIMSTYLE
    2
Standard
    9
$INSBASE
    10
0
    20
0
    30
0
    9
$PDMODE
    70
0
    9
$PDSIZE
    40
0
    9
$TEXTSTYLE
    7
Standard
    9
$LWDISPLAY
    290
0
    9
$LTSCALE
    40
1
    9
$PSLTSCALE
    70
0
    9
$LIMMIN
    10
0
    20
0
    9
$LIMMAX
    10
150.833335876465
    20
217.5
    9
$MEASUREMENT
    70
1
    0
ENDSEC
    0
SECTION
    2
CLASSES
    0
CLASS
    1
RASTERVARIABLES
    2
AcDbRasterVariables
    3
ISM
    90
0
    280
0
    281
0
    0
CLASS
    1
IMAGEDEF
    2
AcDbRasterImageDef
    3
ISM
    90
0
    280
0
    281
0
    0
CLASS
    1
IMAGEDEF_REACTOR
    2
AcDbRasterImageDefReactor
    3
ISM
    90
1
    280
0
    281
0
    0
CLASS
    1
IMAGE
    2
AcDbRasterImage
    3
ISM
    90
2175
    280
0
    281
1
    0
CLASS
    1
WIPEOUT
    2
AcDbWipeout
    3
"WipeOut|Product Desc: Object Enabler for WipeOut entity^I^I^I^I^I^I|Company: Autodesk, Inc.^I^I^I^I^I^I|WEB Address: www.autodesk.com"
    90
2175
    280
0
    281
1
    0
CLASS
    1
WIPEOUTVARIABLES
    2
AcDbWipeoutVariables
    3
"WipeOut|Product Desc:     WipeOut Dbx Application|Company:          Autodesk, Inc.|WEB Address:      www.autodesk.com"
    90
0
    280
0
    281
0
    0
CLASS
    1
ARC_DIMENSION
    2
AcDbArcDimension
    3
ObjectDBX Classes
    90
1025
    280
0
    281
1
    0
CLASS
    1
LARGE_RADIAL_DIMENSION
    2
AcDbRadialDimensionLarge
    3
ObjectDBX Classes
    90
1025
    280
0
    281
1
    0
CLASS
    1
LAYOUT
    2
AcDbLayout
    3
ObjectDBX Classes
    90
0
    280
0
    281
0
    0
CLASS
    1
FIELD
    2
AcDbField
    3
ObjectDBX Classes
    90
1152
    280
0
    281
0
    0
CLASS
    1
FIELDLIST
    2
AcDbFieldList
    3
ObjectDBX Classes
    90
1152
    280
0
    281
0
    0
ENDSEC
    0
SECTION
    2
TABLES
    0
TABLE
    2
VPORT
    5
1
    100
AcDbSymbolTable
    0
ENDTAB
    0
TABLE
    2
LTYPE
    5
2
    100
AcDbSymbolTable
    0
LTYPE
    5
205
    100
AcDbSymbolTableRecord
    100
AcDbLinetypeTableRecord
    2
ByLayer
    3
По слою
    70
0
    72
65
    73
0
    40
0
    0
LTYPE
    5
206
    100
AcDbSymbolTableRecord
    100
AcDbLinetypeTableRecord
    2
ByBlock
    3
По блоку
    70
0
    72
65
    73
0
    40
0
    0
LTYPE
    5
207
    100
AcDbSymbolTableRecord
    100
AcDbLinetypeTableRecord
    2
Continuous
    3
Сплошная
    70
0
    72
65
    73
0
    40
0
    0
LTYPE
    5
208
    100
AcDbSymbolTableRecord
    100
AcDbLinetypeTableRecord
    2
GeologyDash
    3
Штриховая линия элементов геологии
    70
0
    72
65
    73
2
    40
3.33333325386047
    49
1.66666662693024
    74
0
    49
-1.66666662693024
    74
0
    0
ENDTAB
    0
TABLE
    2
LAYER
    5
1A
    102
{ACAD_XDICTIONARY
    360
1B
    102
}
    330
0
    100
AcDbSymbolTable
    0
LAYER
    5
10
    100
AcDbSymbolTableRecord
    100
AcDbLayerTableRecord
    2
0
    70
0
    62
7
    6
Continuous
    370
-3
    390
19
    0
LAYER
    5
20B
    100
AcDbSymbolTableRecord
    100
AcDbLayerTableRecord
    2
Черный профиль
    70
0
    62
3
    6
Continuous
    370
-3
    390
19
    0
LAYER
    5
20C
    100
AcDbSymbolTableRecord
    100
AcDbLayerTableRecord
    2
Красный профиль
    70
0
    62
1
    6
Continuous
    370
-3
    390
19
    0
LAYER
    5
20D
    100
AcDbSymbolTableRecord
    100
AcDbLayerTableRecord
    2
Коммуникации
    70
0
    62
7
    6
Continuous
    370
-3
    390
19
    0
LAYER
    5
20E
    100
AcDbSymbolTableRecord
    100
AcDbLayerTableRecord
    2
Таблица
    70
0
    62
7
    6
Continuous
    370
-3
    390
19
    0
LAYER
    5
20F
    100
AcDbSymbolTableRecord
    100
AcDbLayerTableRecord
    2
Красные отметки
    70
0
    62
1
    6
Continuous
    370
-3
    390
19
    0
LAYER
    5
210
    100
AcDbSymbolTableRecord
    100
AcDbLayerTableRecord
    2
Черные отметки
    70
0
    62
3
    6
Continuous
    370
-3
    390
19
    0
LAYER
    5
211
    100
AcDbSymbolTableRecord
    100
AcDbLayerTableRecord
    2
Пикеты
    70
0
    62
7
    6
Continuous
    370
-3
    390
19
    0
LAYER
    5
212
    100
AcDbSymbolTableRecord
    100
AcDbLayerTableRecord
    2
Километры
    70
0
    62
7
    6
Continuous
    370
-3
    390
19
    0
LAYER
    5
213
    100
AcDbSymbolTableRecord
    100
AcDbLayerTableRecord
    2
Прямые и кривые в плане
    70
0
    62
7
    6
Continuous
    370
-3
    390
19
    0
LAYER
    5
214
    100
AcDbSymbolTableRecord
    100
AcDbLayerTableRecord
    2
Отметки кюветов
    70
0
    62
7
    6
Continuous
    370
-3
    390
19
    0
LAYER
    5
215
    100
AcDbSymbolTableRecord
    100
AcDbLayerTableRecord
    2
Развернутый план
    70
0
    62
7
    6
Continuous
    370
-3
    390
19
    0
LAYER
    5
216
    100
AcDbSymbolTableRecord
    100
AcDbLayerTableRecord
    2
Рабочие отметки
    70
0
    62
7
    6
Continuous
    370
-3
    390
19
    0
LAYER
    5
217
    100
AcDbSymbolTableRecord
    100
AcDbLayerTableRecord
    2
Таблица отметок
    70
0
    62
7
    6
Continuous
    370
-3
    390
19
    0
LAYER
    5
218
    100
AcDbSymbolTableRecord
    100
AcDbLayerTableRecord
    2
Геология_штриховки
    70
0
    62
8
    6
Continuous
    370
-3
    390
19
    0
LAYER
    5
219
    100
AcDbSymbolTableRecord
    100
AcDbLayerTableRecord
    2
Геология_контуры
    70
0
    62
7
    6
Continuous
    370
-3
    390
19
    0
LAYER
    5
21A
    100
AcDbSymbolTableRecord
    100
AcDbLayerTableRecord
    2
Геология_выработки
    70
0
    62
7
    6
Continuous
    370
-3
    390
19
    0
LAYER
    5
21B
    100
AcDbSymbolTableRecord
    100
AcDbLayerTableRecord
    2
Геология_подписи
    70
0
    62
7
    6
Continuous
    370
-3
    390
19
    0
LAYER
    5
21C
    100
AcDbSymbolTableRecord
    100
AcDbLayerTableRecord
    2
Геология_мерзлота
    70
0
    62
7
    6
Continuous
    370
-3
    390
19
    0
LAYER
    5
21D
    100
AcDbSymbolTableRecord
    100
AcDbLayerTableRecord
    2
Геология_вода
    70
0
    62
7
    6
Continuous
    370
-3
    390
19
    0
LAYER
    5
21E
    100
AcDbSymbolTableRecord
    100
AcDbLayerTableRecord
    2
Геология_опробование
    70
0
    62
7
    6
Continuous
    370
-3
    390
19
    0
LAYER
    5
21F
    100
AcDbSymbolTableRecord
    100
AcDbLayerTableRecord
    2
Геология_список_ИГЭ
    70
0
    62
7
    6
Continuous
    370
-3
    390
19
    0
LAYER
    5
220
    100
AcDbSymbolTableRecord
    100
AcDbLayerTableRecord
    2
Линейка абсолютных высот
    70
0
    62
7
    6
Continuous
    370
-3
    390
19
    0
LAYER
    5
221
    100
AcDbSymbolTableRecord
    100
AcDbLayerTableRecord
    2
Геология_испытания_крыльчаткой
    70
0
    62
7
    6
Continuous
    370
-3
    390
19
    0
LAYER
    5
222
    100
AcDbSymbolTableRecord
    100
AcDbLayerTableRecord
    2
Ссылочные профили
    70
0
    62
144
    6
Continuous
    370
-3
    390
19
    0
LAYER
    5
223
    100
AcDbSymbolTableRecord
    100
AcDbLayerTableRecord
    2
УВВ
    70
0
    62
7
    6
Continuous
    370
-3
    390
19
    0
LAYER
    5
224
    100
AcDbSymbolTableRecord
    100
AcDbLayerTableRecord
    2
Геология_точки_статического_зондирования
    70
0
    62
7
    6
Continuous
    370
-3
    390
19
    0
ENDTAB
    0
TABLE
    2
STYLE
    5
5
    100
AcDbSymbolTable
    0
STYLE
    5
201
    100
AcDbSymbolTableRecord
    100
AcDbTextStyleTableRecord
    2
Standard
    70
0
    40
0
    41
1
    50
0
    71
0
    42
2.5
    3
txt.shx
    4

    0
STYLE
    5
202
    100
AcDbSymbolTableRecord
    100
AcDbTextStyleTableRecord
    2
ANNOTATIVE
    70
0
    40
0
    41
1
    50
0
    71
0
    42
0.200000002980232
    3
txt
    4

    0
STYLE
    5
203
    100
AcDbSymbolTableRecord
    100
AcDbTextStyleTableRecord
    2
Legend
    70
0
    40
0
    41
1
    50
0
    71
0
    42
0.200000002980232
    3
CALIBRI.TTF
    4

    0
ENDTAB
    0
TABLE
    2
VIEW
    5
7
    100
AcDbSymbolTable
    0
ENDTAB
    0
TABLE
    2
UCS
    5
8
    100
AcDbSymbolTable
    0
ENDTAB
    0
TABLE
    2
APPID
    5
9
    100
AcDbSymbolTable
    0
APPID
    5
A
    100
AcDbSymbolTableRecord
    100
AcDbRegAppTableRecord
    2
ACAD
    70
0
    0
APPID
    5
108
    330
9
    100
AcDbSymbolTableRecord
    100
AcDbRegAppTableRecord
    2
AcAecLayerStandard
    70
0
    0
APPID
    5
107
    330
9
    100
AcDbSymbolTableRecord
    100
AcDbRegAppTableRecord
    2
ACAD_MLEADERVER
    70
0
  0
APPID
  5
DF
330
9
100
AcDbSymbolTableRecord
100
AcDbRegAppTableRecord
  2
ACAD_DSTYLE_DIMJAG
 70
     0
  0
APPID
  5
E0
330
9
100
AcDbSymbolTableRecord
100
AcDbRegAppTableRecord
  2
ACAD_DSTYLE_DIMTALN
 70
     0
    0
ENDTAB
    0
TABLE
    2
DIMSTYLE
    5
B
    330
0
    100
AcDbSymbolTable
    70
2
    100
AcDbDimStyleTable
    71
2
    0
DIMSTYLE
    105
22B
    330
B
    100
AcDbSymbolTableRecord
    100
AcDbDimStyleTableRecord
    2
Standard
    70
0
    279
2
    340
201
    0
DIMSTYLE
    105
22C
    330
B
    100
AcDbSymbolTableRecord
    100
AcDbDimStyleTableRecord
    2
ISO-25
    70
0
    43
3.75
    42
0.625
    44
1.25
    41
2.5
    141
2.5
    140
2.5
    147
0.625
    77
1
    73
0
    74
0
    172
1
    78
8
    171
3
    143
0.0393700003623962
    279
2
    340
201
    0
DIMSTYLE
    105
22D
    330
B
    100
AcDbSymbolTableRecord
    100
AcDbDimStyleTableRecord
    2
ANNOTATIVE
    70
0
    279
2
    340
201
    0
ENDTAB
    0
TABLE
    2
BLOCK_RECORD
    5
C
    100
AcDbSymbolTable
    0
BLOCK_RECORD
    5
23B
    100
AcDbSymbolTableRecord
    100
AcDbBlockTableRecord
    2
*MODEL_SPACE
    0
BLOCK_RECORD
    5
E
    100
AcDbSymbolTableRecord
    100
AcDbBlockTableRecord
    2
*PAPER_SPACE
    0
BLOCK_RECORD
    5
2A9
    100
AcDbSymbolTableRecord
    100
AcDbBlockTableRecord
    2
A$C774138AF
    0
ENDTAB
    0
ENDSEC
    0
SECTION
    2
BLOCKS
    0
BLOCK
    5
23C
    330
23B
    100
AcDbEntity
    8
0
    100
AcDbBlockBegin
    2
*MODEL_SPACE
    70
0
    10
0
    20
0
    30
0
    3
*MODEL_SPACE
    1

    4

    0
ENDBLK
    5
23D
    100
AcDbEntity
    8
0
    100
AcDbBlockEnd
    0
BLOCK
    5
11
    330
E
    100
AcDbEntity
    8
0
    100
AcDbBlockBegin
    2
*PAPER_SPACE
    70
0
    10
0
    20
0
    30
0
    3
*PAPER_SPACE
    1

    4

    0
ENDBLK
    5
12
    100
AcDbEntity
    8
0
    100
AcDbBlockEnd
    0
BLOCK
    5
2AA
    330
2A9
    100
AcDbEntity
    8
0
    100
AcDbBlockBegin
    2
A$C774138AF
    70
0
    10
0
    20
0
    30
0
    3
A$C774138AF
    1

    4

    0
TEXT
    5
2AC
    330
2A9
    100
AcDbEntity
    8
Километры
    6
Continuous
    100
AcDbText
    10
-1.178028128E-07
    20
7.94961598771238E-08
    30
0
    11
-1.178028128E-07
    21
2.50000007949616
    31
0
    40
2.5
    1
&K
    50
0
    41
0.800000011920929
    51
0
    100
AcDbText
    73
3
    0
ENDBLK
    5
2AB
    100
AcDbEntity
    8
0
    100
AcDbBlockEnd
    0
ENDSEC
    0
SECTION
    2
ENTITIES
    0
TEXT
    5
23E
    330
23B
    100
AcDbEntity
    8
Геология_точки_статического_зондирования
    6
Continuous
    100
AcDbText
    10
80
    20
180
    30
0
    11
80
    21
180
    31
0
    40
2.5
    1
&GEOLOGY_CONEPENETRATIONTESTS
    50
0
    41
1
    51
0
    100
AcDbText
    73
0
    0
TEXT
    5
23F
    330
23B
    100
AcDbEntity
    8
0
    6
Continuous
    100
AcDbText
    10
1.64745368452595E-15
    20
215
    30
0
    11
1.64745368452595E-15
    21
215
    31
0
    40
2.5
    1
&TITLE Стандартный профиль
    50
0
    41
0.800000011920929
    51
0
    100
AcDbText
    73
0
    0
TEXT
    5
240
    330
23B
    100
AcDbEntity
    8
Развернутый план
    6
Continuous
    100
AcDbText
    10
80
    20
170
    30
0
    11
80
    21
170
    31
0
    40
2.5
    1
&PLAN_IMPELLERTESTS
    50
0
    41
0.800000011920929
    51
0
    100
AcDbText
    73
0
    0
TEXT
    5
241
    330
23B
    100
AcDbEntity
    8
Развернутый план
    6
Continuous
    100
AcDbText
    10
80
    20
170
    30
0
    11
80
    21
170
    31
0
    40
2.5
    1
&PLAN_BOREHOLES
    50
0
    41
0.800000011920929
    51
0
    100
AcDbText
    73
0
    0
TEXT
    5
242
    330
23B
    100
AcDbEntity
    8
Коммуникации
    6
Continuous
    100
AcDbText
    10
80
    20
180.001498764738
    30
0
    11
80
    21
180.001498764738
    31
0
    40
2.5
    1
&COMMUNICATIONS
    50
0
    41
1
    51
0
    100
AcDbText
    73
0
    0
TEXT
    5
243
    330
23B
    100
AcDbEntity
    8
Таблица
    6
Continuous
    100
AcDbText
    10
11.9079400154012
    20
154.932831296058
    30
0
    11
11.9079400154012
    21
154.932831296058
    31
0
    40
2.5
    1
Тип местности по увлажнению
    50
0
    41
0.800000011920929
    51
0
    100
AcDbText
    73
0
    0
TEXT
    5
244
    330
23B
    100
AcDbEntity
    8
Таблица
    6
Continuous
    100
AcDbText
    10
19.5933693536628
    20
145.207851273635
    30
0
    11
46.6521366723884
    21
145.207851273635
    31
0
    40
2.5
    1
Тип поперечного
    50
0
    41
0.755128383636475
    51
0
    72
5
    100
AcDbText
    73
0
    0
TEXT
    5
245
    330
23B
    100
AcDbEntity
    8
Таблица
    6
Continuous
    100
AcDbText
    10
59.6912111262874
    20
146.974128614374
    30
0
    11
59.6912111262874
    21
146.974128614374
    31
0
    40
2.5
    1
слева
    50
0
    41
0.800000011920929
    51
0
    100
AcDbText
    73
0
    0
TEXT
    5
246
    330
23B
    100
AcDbEntity
    8
Таблица
    6
Continuous
    100
AcDbText
    10
58.9322762798679
    20
138.974128614374
    30
0
    11
58.9322762798679
    21
138.974128614374
    31
0
    40
2.5
    1
справа
    50
0
    41
0.800000011920929
    51
0
    100
AcDbText
    73
0
    0
TEXT
    5
247
    330
23B
    100
AcDbEntity
    8
Таблица
    6
Continuous
    100
AcDbText
    10
44.3099940245157
    20
130.520132518417
    30
0
    11
44.3099940245157
    21
130.520132518417
    31
0
    40
2.5
    1
Укрепление
    50
0
    41
0.800000011920929
    51
0
    100
AcDbText
    73
0
    0
TEXT
    5
248
    330
23B
    100
AcDbEntity
    8
Таблица
    6
Continuous
    100
AcDbText
    10
36.25
    20
121.75
    30
0
    11
36.25
    21
121.75
    31
0
    40
2.5
    1
Уклон, o/oo; длина, м
    50
0
    41
0.800000011920929
    51
0
    100
AcDbText
    73
0
    0
TEXT
    5
249
    330
23B
    100
AcDbEntity
    8
Таблица
    6
Continuous
    100
AcDbText
    10
41.124410098777
    20
109.76858591557
    30
0
    11
41.124410098777
    21
109.76858591557
    31
0
    40
2.5
    1
Отметка дна, м
    50
0
    41
0.800000011920929
    51
0
    100
AcDbText
    73
0
    0
TEXT
    5
24A
    330
23B
    100
AcDbEntity
    8
Таблица
    6
Continuous
    100
AcDbText
    10
15
    20
119.25
    30
0
    11
15
    21
119.25
    31
0
    40
2.5
    1
Левый
    50
0
    41
0.800000011920929
    51
0
    100
AcDbText
    73
0
    0
TEXT
    5
24B
    330
23B
    100
AcDbEntity
    8
Таблица
    6
Continuous
    100
AcDbText
    10
15
    20
114.25
    30
0
    11
15
    21
114.25
    31
0
    40
2.5
    1
кювет
    50
0
    41
0.800000011920929
    51
0
    100
AcDbText
    73
0
    0
TEXT
    5
24C
    330
23B
    100
AcDbEntity
    8
Таблица
    6
Continuous
    100
AcDbText
    10
41.124410098777
    20
76.25
    30
0
    11
41.124410098777
    21
76.25
    31
0
    40
2.5
    1
Отметка дна, м
    50
0
    41
0.800000011920929
    51
0
    100
AcDbText
    73
0
    0
TEXT
    5
24D
    330
23B
    100
AcDbEntity
    8
Таблица
    6
Continuous
    100
AcDbText
    10
15
    20
90.7027084903506
    30
0
    11
15
    21
90.7027084903506
    31
0
    40
2.5
    1
Правый
    50
0
    41
0.800000011920929
    51
0
    100
AcDbText
    73
0
    0
TEXT
    5
24E
    330
23B
    100
AcDbEntity
    8
Таблица
    6
Continuous
    100
AcDbText
    10
15
    20
85.7027084903506
    30
0
    11
15
    21
85.7027084903506
    31
0
    40
2.5
    1
кювет
    50
0
    41
0.800000011920929
    51
0
    100
AcDbText
    73
0
    0
TEXT
    5
24F
    330
23B
    100
AcDbEntity
    8
Таблица
    6
Continuous
    100
AcDbText
    10
36.25
    20
88.75
    30
0
    11
36.25
    21
88.75
    31
0
    40
2.5
    1
Уклон, o/oo; длина, м
    50
0
    41
0.800000011920929
    51
0
    100
AcDbText
    73
0
    0
TEXT
    5
250
    330
23B
    100
AcDbEntity
    8
Таблица
    6
Continuous
    100
AcDbText
    10
44.3099940245157
    20
97.6109734380957
    30
0
    11
44.3099940245157
    21
97.6109734380957
    31
0
    40
2.5
    1
Укрепление
    50
0
    41
0.800000011920929
    51
0
    100
AcDbText
    73
0
    0
TEXT
    5
251
    330
23B
    100
AcDbEntity
    8
Таблица
    6
Continuous
    100
AcDbText
    10
11.25
    20
63.75
    30
0
    11
72.7643966674805
    21
63.75
    31
0
    40
2.5
    1
Уклон, o/oo; вертикальная кривая, м
    50
0
    41
0.745629072189331
    51
0
    72
5
    100
AcDbText
    73
0
    0
TEXT
    5
252
    330
23B
    100
AcDbEntity
    8
Таблица
    6
Continuous
    100
AcDbText
    10
24.5388394331492
    20
51.25
    30
0
    11
24.5388394331492
    21
51.25
    31
0
    40
2.5
    1
Отметка оси дороги, м
    50
0
    41
0.800000011920929
    51
0
    100
AcDbText
    73
0
    0
TEXT
    5
253
    330
23B
    100
AcDbEntity
    8
Таблица
    6
Continuous
    100
AcDbText
    10
27.913116483409
    20
36.25
    30
0
    11
27.913116483409
    21
36.25
    31
0
    40
2.5
    1
Отметка рельефа, м
    50
0
    41
0.800000011920929
    51
0
    100
AcDbText
    73
0
    0
TEXT
    5
254
    330
23B
    100
AcDbEntity
    8
Таблица
    6
Continuous
    100
AcDbText
    10
30.0442388309416
    20
23.75
    30
0
    11
30.0442388309416
    21
23.75
    31
0
    40
2.5
    1
Расстояние, м
    50
0
    41
0.800000011920929
    51
0
    100
AcDbText
    73
0
    0
TEXT
    5
255
    330
23B
    100
AcDbEntity
    8
Таблица
    6
Continuous
    100
AcDbText
    10
24.5388394331492
    20
15
    30
0
    11
24.5388394331492
    21
15
    31
0
    40
2.5
    1
Пикет,
    50
0
    41
0.800000011920929
    51
0
    100
AcDbText
    73
0
    0
TEXT
    5
256
    330
23B
    100
AcDbEntity
    8
Таблица
    6
Continuous
    100
AcDbText
    10
24.5388394331492
    20
8.75
    30
0
    11
24.5388394331492
    21
8.75
    31
0
    40
2.5
    1
элементы плана,
    50
0
    41
0.800000011920929
    51
0
    100
AcDbText
    73
0
    0
TEXT
    5
257
    330
23B
    100
AcDbEntity
    8
Таблица
    6
Continuous
    100
AcDbText
    10
24.5388394331492
    20
2.5
    30
0
    11
24.5388394331492
    21
2.5
    31
0
    40
2.5
    1
километры
    50
0
    41
0.800000011920929
    51
0
    100
AcDbText
    73
0
    0
TEXT
    5
258
    330
23B
    100
AcDbEntity
    8
Таблица
    6
Continuous
    100
AcDbText
    10
3.75
    20
22.5
    30
0
    11
3.75
    21
22.5
    31
0
    40
2.5
    1
Фактические
    50
90.0002074101533
    41
0.800000011920929
    51
0
    100
AcDbText
    73
0
    0
TEXT
    5
259
    330
23B
    100
AcDbEntity
    8
Таблица
    6
Continuous
    100
AcDbText
    10
7.5
    20
25.7207050695304
    30
0
    11
7.5
    21
25.7207050695304
    31
0
    40
2.5
    1
данные
    50
90.0002074101533
    41
0.800000011920929
    51
0
    100
AcDbText
    73
0
    0
TEXT
    5
25A
    330
23B
    100
AcDbEntity
    8
Таблица
    6
Continuous
    100
AcDbText
    10
5.47713399133013
    20
74.5349142687195
    30
0
    11
5.47713399133013
    21
74.5349142687195
    31
0
    40
2.5
    1
Проектные данные
    50
90.0002074101533
    41
0.800000011920929
    51
0
    100
AcDbText
    73
0
    0
TEXT
    5
25B
    330
23B
    100
AcDbEntity
    8
Таблица
    6
Continuous
    100
AcDbText
    10
7.03764113594571E-16
    20
200
    30
0
    11
7.03764113594571E-16
    21
200
    31
0
    40
2.5
    1
&SH 5000
    50
0
    41
0.800000011920929
    51
0
    100
AcDbText
    73
0
    0
TEXT
    5
25C
    330
23B
    100
AcDbEntity
    8
Таблица
    6
Continuous
    100
AcDbText
    10
7.03764113594571E-16
    20
195
    30
0
    11
7.03764113594571E-16
    21
195
    31
0
    40
2.5
    1
&SV 500
    50
0
    41
0.800000011920929
    51
0
    100
AcDbText
    73
0
    0
TEXT
    5
25D
    330
23B
    100
AcDbEntity
    8
Таблица
    6
Continuous
    100
AcDbText
    10
7.03764113594571E-16
    20
190
    30
0
    11
7.03764113594571E-16
    21
190
    31
0
    40
2.5
    1
&SG 100
    50
0
    41
0.800000011920929
    51
0
    100
AcDbText
    73
0
    0
TEXT
    5
25E
    330
23B
    100
AcDbEntity
    8
Таблица
    6
Continuous
    100
AcDbText
    10
80
    20
180
    30
0
    11
80
    21
180
    31
0
    40
2.5
    1
&L
    50
0
    41
0.800000011920929
    51
0
    100
AcDbText
    73
0
    0
TEXT
    5
25F
    330
23B
    100
AcDbEntity
    8
Таблица
    6
Continuous
    100
AcDbText
    10
80
    20
152
    30
0
    11
80
    21
152
    31
0
    40
2.5
    1
&L
    50
0
    41
0.800000011920929
    51
0
    100
AcDbText
    73
0
    0
TEXT
    5
260
    330
23B
    100
AcDbEntity
    8
Таблица
    6
Continuous
    100
AcDbText
    10
80
    20
144
    30
0
    11
80
    21
144
    31
0
    40
2.5
    1
&L
    50
0
    41
0.800000011920929
    51
0
    100
AcDbText
    73
0
    0
TEXT
    5
261
    330
23B
    100
AcDbEntity
    8
Таблица
    6
Continuous
    100
AcDbText
    10
80
    20
136
    30
0
    11
80
    21
136
    31
0
    40
2.5
    1
&L
    50
0
    41
0.800000011920929
    51
0
    100
AcDbText
    73
0
    0
TEXT
    5
262
    330
23B
    100
AcDbEntity
    8
Таблица
    6
Continuous
    100
AcDbText
    10
80
    20
128
    30
0
    11
80
    21
128
    31
0
    40
2.5
    1
&L
    50
0
    41
0.800000011920929
    51
0
    100
AcDbText
    73
0
    0
TEXT
    5
263
    330
23B
    100
AcDbEntity
    8
Отметки кюветов
    6
Continuous
    100
AcDbText
    10
81.250000407973
    20
100.435252954767
    30
0
    11
80
    21
109.76858591557
    31
0
    40
2.5
    1
&DE PRF 17
    50
90.0000025044782
    41
0.800000011920929
    51
0
    72
1
    100
AcDbText
    73
2
    0
TEXT
    5
264
    330
23B
    100
AcDbEntity
    8
Таблица
    6
Continuous
    100
AcDbText
    10
80
    20
95
    30
0
    11
80
    21
95
    31
0
    40
2.5
    1
&L
    50
0
    41
0.800000011920929
    51
0
    100
AcDbText
    73
0
    0
TEXT
    5
265
    330
23B
    100
AcDbEntity
    8
Отметки кюветов
    6
Continuous
    100
AcDbText
    10
80
    20
88.75
    30
0
    11
80
    21
90
    31
0
    40
2.5
    1
&GAPS 18
    50
0
    41
0.800000011920929
    51
0
    100
AcDbText
    73
2
    0
TEXT
    5
266
    330
23B
    100
AcDbEntity
    8
Отметки кюветов
    6
Continuous
    100
AcDbText
    10
80
    20
88.75
    30
0
    11
80
    21
90
    31
0
    40
2.5
    1
&DG PRF 18
    50
0
    41
0.800000011920929
    51
0
    100
AcDbText
    73
2
    0
TEXT
    5
267
    330
23B
    100
AcDbEntity
    8
Отметки кюветов
    6
Continuous
    100
AcDbText
    10
81.250000407973
    20
68.1666670391974
    30
0
    11
80
    21
77.5
    31
0
    40
2.5
    1
&DE PRF 18
    50
90.0000025044782
    41
0.800000011920929
    51
0
    72
1
    100
AcDbText
    73
2
    0
TEXT
    5
268
    330
23B
    100
AcDbEntity
    8
Красные отметки
    6
Continuous
    100
AcDbText
    10
80
    20
63.75
    30
0
    11
80
    21
65
    31
0
    40
2.5
    1
&G PRF
    50
0
    41
0.800000011920929
    51
0
    100
AcDbText
    73
2
    0
TEXT
    5
269
    330
23B
    100
AcDbEntity
    8
Красные отметки
    6
Continuous
    100
AcDbText
    10
81.2500002476979
    20
46.8333330700811
    30
0
    11
80
    21
52.5
    31
0
    40
2.5
    1
&E PRF
    50
90.0000025044782
    41
0.800000011920929
    51
0
    72
1
    100
AcDbText
    73
2
    0
TEXT
    5
26A
    330
23B
    100
AcDbEntity
    8
Черные отметки
    6
Continuous
    100
AcDbText
    10
81.2500002476979
    20
31.8333330700811
    30
0
    11
80
    21
37.5
    31
0
    40
2.5
    1
&E CHZ
    50
90.0000025044782
    41
0.800000011920929
    51
0
    72
1
    100
AcDbText
    73
2
    0
TEXT
    5
26B
    330
23B
    100
AcDbEntity
    8
Черные отметки
    6
Continuous
    100
AcDbText
    10
74.3333330154419
    20
23.75
    30
0
    11
80
    21
25
    31
0
    40
2.5
    1
&D CHZ
    50
0
    41
0.800000011920929
    51
0
    72
1
    100
AcDbText
    73
2
    0
TEXT
    5
26C
    330
23B
    100
AcDbEntity
    8
Пикеты
    6
Continuous
    100
AcDbText
    10
76.3333332538605
    20
15.5347667081238
    30
0
    11
80
    21
15.5347667081238
    31
0
    40
2.5
    1
&PKT
    50
0
    41
0.800000011920929
    51
0
    72
1
    100
AcDbText
    73
1
    0
TEXT
    5
26D
    330
23B
    100
AcDbEntity
    8
Прямые и кривые в плане
    6
Continuous
    100
AcDbText
    10
80
    20
10
    30
0
    11
80
    21
10
    31
0
    40
2.5
    1
&PLN-ROAD 0 0
    50
0
    41
0.800000011920929
    51
0
    100
AcDbText
    73
0
    0
TEXT
    5
26E
    330
23B
    100
AcDbEntity
    8
Таблица
    6
Continuous
    100
AcDbText
    10
80
    20
0
    30
0
    11
80
    21
0
    31
0
    40
2.5
    1
&L
    50
0
    41
0.800000011920929
    51
0
    100
AcDbText
    73
0
    0
TEXT
    5
26F
    330
23B
    100
AcDbEntity
    8
Километры
    6
Continuous
    100
AcDbText
    10
78.3333332538605
    20
5.5
    30
0
    11
80
    21
5.5
    31
0
    40
2.5
    1
&K
    50
0
    41
0.800000011920929
    51
0
    72
1
    100
AcDbText
    73
1
    0
TEXT
    5
270
    330
23B
    100
AcDbEntity
    8
Развернутый план
    6
Continuous
    100
AcDbText
    10
80
    20
170
    30
0
    11
80
    21
170
    31
0
    40
2.5
    1
&UP
    50
0
    41
0.800000011920929
    51
0
    100
AcDbText
    73
0
    0
TEXT
    5
271
    330
23B
    100
AcDbEntity
    8
0
    6
Continuous
    100
AcDbText
    10
1.30376411359457E-15
    20
209.608842982224
    30
0
    11
1.30376411359457E-15
    21
209.608842982224
    31
0
    40
2.5
    1
&LV 420 &LH 297
    50
0
    41
0.800000011920929
    51
0
    100
AcDbText
    73
0
    0
TEXT
    5
272
    330
23B
    100
AcDbEntity
    8
Таблица
    6
Continuous
    100
AcDbText
    10
80
    20
118
    30
0
    11
80
    21
118
    31
0
    40
2.5
    1
&L
    50
0
    41
0.800000011920929
    51
0
    100
AcDbText
    73
0
    0
TEXT
    5
273
    330
23B
    100
AcDbEntity
    8
Таблица
    6
Continuous
    100
AcDbText
    10
80
    20
85
    30
0
    11
80
    21
85
    31
0
    40
2.5
    1
&L
    50
0
    41
0.800000011920929
    51
0
    100
AcDbText
    73
0
    0
TEXT
    5
274
    330
23B
    100
AcDbEntity
    8
Таблица
    6
Continuous
    100
AcDbText
    10
80
    20
70
    30
0
    11
80
    21
70
    31
0
    40
2.5
    1
&L
    50
0
    41
0.800000011920929
    51
0
    100
AcDbText
    73
0
    0
TEXT
    5
275
    330
23B
    100
AcDbEntity
    8
Таблица
    6
Continuous
    100
AcDbText
    10
80
    20
60
    30
0
    11
80
    21
60
    31
0
    40
2.5
    1
&L
    50
0
    41
0.800000011920929
    51
0
    100
AcDbText
    73
0
    0
TEXT
    5
276
    330
23B
    100
AcDbEntity
    8
Красный профиль
    6
Continuous
    100
AcDbText
    10
80
    20
180.001498764738
    30
0
    11
80
    21
180.001498764738
    31
0
    40
2.5
    1
&PP
    50
0
    41
1
    51
0
    100
AcDbText
    73
0
    0
TEXT
    5
277
    330
23B
    100
AcDbEntity
    8
Черный профиль
    6
Continuous
    100
AcDbText
    10
80
    20
180.001498764738
    30
0
    11
80
    21
180.001498764738
    31
0
    40
2.5
    1
&EP
    50
0
    41
1
    51
0
    100
AcDbText
    73
0
    0
TEXT
    5
278
    330
23B
    100
AcDbEntity
    8
Геология_список_ИГЭ
    6
Continuous
    100
AcDbText
    10
80
    20
180
    30
0
    11
80
    21
180
    31
0
    40
2.5
    1
&GEOLOGY_LEGEND
    50
0
    41
1
    51
0
    100
AcDbText
    73
0
    0
TEXT
    5
279
    330
23B
    100
AcDbEntity
    8
Геология_подписи
    6
Continuous
    100
AcDbText
    10
80
    20
180
    30
0
    11
80
    21
180
    31
0
    40
2.5
    1
&GEOLOGY_NOTES
    50
0
    41
1
    51
0
    100
AcDbText
    73
0
    0
TEXT
    5
27A
    330
23B
    100
AcDbEntity
    8
Геология_вода
    6
Continuous
    100
AcDbText
    10
80
    20
180
    30
0
    11
80
    21
180
    31
0
    40
2.5
    1
&GEOLOGY_WATER
    50
0
    41
1
    51
0
    100
AcDbText
    73
0
    0
TEXT
    5
27B
    330
23B
    100
AcDbEntity
    8
Геология_мерзлота
    6
Continuous
    100
AcDbText
    10
80
    20
180.001498764738
    30
0
    11
80
    21
180.001498764738
    31
0
    40
2.5
    1
&GEOLOGY_FROST
    50
0
    41
1
    51
0
    100
AcDbText
    73
0
    0
TEXT
    5
27C
    330
23B
    100
AcDbEntity
    8
Геология_опробование
    6
Continuous
    100
AcDbText
    10
80
    20
180.001498764738
    30
0
    11
80
    21
180.001498764738
    31
0
    40
1.25
    1
&GEOLOGY_ASSAYS 2.0
    50
0
    41
1
    51
0
    100
AcDbText
    73
0
    0
TEXT
    5
27D
    330
23B
    100
AcDbEntity
    8
Геология_испытания_крыльчаткой
    6
Continuous
    100
AcDbText
    10
80
    20
180
    30
0
    11
80
    21
180
    31
0
    40
2.5
    1
&GEOLOGY_IMPELLERTESTS 1.0
    50
0
    41
1
    51
0
    100
AcDbText
    73
0
    0
TEXT
    5
27E
    330
23B
    100
AcDbEntity
    8
Геология_выработки
    6
Continuous
    100
AcDbText
    10
80
    20
180.001498764738
    30
0
    11
80
    21
180.001498764738
    31
0
    40
2.5
    1
&GEOLOGY_BOREHOLES 1.0
    50
0
    41
1
    51
0
    100
AcDbText
    73
0
    0
TEXT
    5
27F
    330
23B
    100
AcDbEntity
    8
Геология_контуры
    6
Continuous
    100
AcDbText
    10
80
    20
180
    30
0
    11
80
    21
180
    31
0
    40
2.5
    1
&GEOLOGY_CONTOURS
    50
0
    41
1
    51
0
    100
AcDbText
    73
0
    0
TEXT
    5
280
    330
23B
    100
AcDbEntity
    8
Геология_штриховки
    6
Continuous
    100
AcDbText
    10
80
    20
180.001498764738
    30
0
    11
80
    21
180.001498764738
    31
0
    40
2.5
    1
&GEOLOGY_GROUNDS_HATCHES
    50
0
    41
1
    51
0
    100
AcDbText
    73
0
    0
TEXT
    5
281
    330
23B
    100
AcDbEntity
    8
Таблица
    6
Continuous
    100
AcDbText
    10
80
    20
20
    30
0
    11
80
    21
20
    31
0
    40
2.5
    1
&L
    50
0
    41
0.800000011920929
    51
0
    100
AcDbText
    73
0
    0
TEXT
    5
282
    330
23B
    100
AcDbEntity
    8
Таблица
    6
Continuous
    100
AcDbText
    10
80
    20
30
    30
0
    11
80
    21
30
    31
0
    40
2.5
    1
&L
    50
0
    41
0.800000011920929
    51
0
    100
AcDbText
    73
0
    0
TEXT
    5
283
    330
23B
    100
AcDbEntity
    8
Таблица
    6
Continuous
    100
AcDbText
    10
80
    20
45
    30
0
    11
80
    21
45
    31
0
    40
2.5
    1
&L
    50
0
    41
0.800000011920929
    51
0
    100
AcDbText
    73
0
    0
TEXT
    5
284
    330
23B
    100
AcDbEntity
    8
Таблица
    6
Continuous
    100
AcDbText
    10
80
    20
103
    30
0
    11
80
    21
103
    31
0
    40
2.5
    1
&L
    50
0
    41
0.800000011920929
    51
0
    100
AcDbText
    73
0
    0
LWPOLYLINE
    5
285
    330
23B
    100
AcDbEntity
    8
Таблица
    6
Continuous
    100
AcDbPolyline
    90
2
    70
128
    10
75
    20
0
    10
75
    20
180
    0
LWPOLYLINE
    5
286
    330
23B
    100
AcDbEntity
    8
Таблица
    6
Continuous
    100
AcDbPolyline
    90
2
    70
128
    10
55
    20
152
    10
55
    20
136
    0
LWPOLYLINE
    5
287
    330
23B
    100
AcDbEntity
    8
Таблица
    6
Continuous
    100
AcDbPolyline
    90
2
    70
128
    10
10
    20
152
    10
10
    20
20
    0
LWPOLYLINE
    5
288
    330
23B
    100
AcDbEntity
    8
Таблица
    6
Continuous
    100
AcDbPolyline
    90
2
    70
128
    10
0
    20
180
    10
0
    20
0
    0
LWPOLYLINE
    5
289
    330
23B
    100
AcDbEntity
    8
Таблица
    6
Continuous
    100
AcDbPolyline
    90
2
    70
128
    10
35
    20
136
    10
35
    20
70
    0
LWPOLYLINE
    5
28A
    330
23B
    100
AcDbEntity
    8
Таблица
    6
Continuous
    100
AcDbPolyline
    90
2
    70
128
    10
0
    20
0
    10
75
    20
0
    0
LWPOLYLINE
    5
28B
    330
23B
    100
AcDbEntity
    8
Таблица
    6
Continuous
    100
AcDbPolyline
    90
2
    70
128
    10
0
    20
20
    10
75
    20
20
    0
LWPOLYLINE
    5
28C
    330
23B
    100
AcDbEntity
    8
Таблица
    6
Continuous
    100
AcDbPolyline
    90
2
    70
128
    10
10
    20
30
    10
75
    20
30
    0
LWPOLYLINE
    5
28D
    330
23B
    100
AcDbEntity
    8
Таблица
    6
Continuous
    100
AcDbPolyline
    90
2
    70
128
    10
0
    20
45
    10
75
    20
45
    0
LWPOLYLINE
    5
28E
    330
23B
    100
AcDbEntity
    8
Таблица
    6
Continuous
    100
AcDbPolyline
    90
2
    70
128
    10
10
    20
60
    10
75
    20
60
    0
LWPOLYLINE
    5
28F
    330
23B
    100
AcDbEntity
    8
Таблица
    6
Continuous
    100
AcDbPolyline
    90
2
    70
128
    10
10
    20
70
    10
75
    20
70
    0
LWPOLYLINE
    5
290
    330
23B
    100
AcDbEntity
    8
Таблица
    6
Continuous
    100
AcDbPolyline
    90
2
    70
128
    10
35
    20
85
    10
75
    20
85
    0
LWPOLYLINE
    5
291
    330
23B
    100
AcDbEntity
    8
Таблица
    6
Continuous
    100
AcDbPolyline
    90
2
    70
128
    10
35
    20
95
    10
75
    20
95
    0
LWPOLYLINE
    5
292
    330
23B
    100
AcDbEntity
    8
Таблица
    6
Continuous
    100
AcDbPolyline
    90
2
    70
128
    10
10
    20
103
    10
75
    20
103
    0
LWPOLYLINE
    5
293
    330
23B
    100
AcDbEntity
    8
Таблица
    6
Continuous
    100
AcDbPolyline
    90
2
    70
128
    10
35
    20
118
    10
75
    20
118
    0
LWPOLYLINE
    5
294
    330
23B
    100
AcDbEntity
    8
Таблица
    6
Continuous
    100
AcDbPolyline
    90
2
    70
128
    10
35
    20
128
    10
75
    20
128
    0
LWPOLYLINE
    5
295
    330
23B
    100
AcDbEntity
    8
Таблица
    6
Continuous
    100
AcDbPolyline
    90
2
    70
128
    10
10
    20
136
    10
75
    20
136
    0
LWPOLYLINE
    5
296
    330
23B
    100
AcDbEntity
    8
Таблица
    6
Continuous
    100
AcDbPolyline
    90
2
    70
128
    10
55
    20
144
    10
75
    20
144
    0
LWPOLYLINE
    5
297
    330
23B
    100
AcDbEntity
    8
Таблица
    6
Continuous
    100
AcDbPolyline
    90
2
    70
128
    10
0
    20
152
    10
75
    20
152
    0
LWPOLYLINE
    5
298
    330
23B
    100
AcDbEntity
    8
Таблица
    6
Continuous
    100
AcDbPolyline
    90
2
    70
128
    10
75
    20
160
    10
0
    20
160
    0
TEXT
    5
299
    330
23B
    100
AcDbEntity
    8
Рабочие отметки
    6
Continuous
    100
AcDbText
    10
80
    20
180.001498764738
    30
0
    11
80
    21
180.001498764738
    31
0
    40
2.5
    1
&EW
    50
90.0000025044782
    41
1
    51
0
    100
AcDbText
    73
0
    0
TEXT
    5
29A
    330
23B
    100
AcDbEntity
    8
Таблица отметок
    6
Continuous
    100
AcDbText
    10
80
    20
180
    30
0
    11
80
    21
180
    31
0
    40
2.5
    1
&ET
    50
0
    41
1
    51
0
    100
AcDbText
    73
0
    0
TEXT
    5
29B
    330
23B
    100
AcDbEntity
    8
Линейка абсолютных высот
    6
Continuous
    100
AcDbText
    10
80
    20
180.001498764738
    30
0
    11
80
    21
180.001498764738
    31
0
    40
2.5
    1
&ABS_ELEVATIONS_RANGE_LINE
    50
0
    41
1
    51
0
    100
AcDbText
    73
0
    0
TEXT
    5
29C
    330
23B
    100
AcDbEntity
    8
Таблица
    6
Continuous
    100
AcDbText
    10
80
    20
128
    30
0
    11
80
    21
128
    31
0
    40
2.5
    1
&DITCH_BANK_CORRECTION L 8
    50
0
    41
0.800000011920929
    51
0
    100
AcDbText
    73
0
    0
TEXT
    5
29D
    330
23B
    100
AcDbEntity
    8
Таблица
    6
Continuous
    100
AcDbText
    10
80
    20
95
    30
0
    11
80
    21
95
    31
0
    40
2.5
    1
&DITCH_BANK_CORRECTION R 8
    50
0
    41
0.800000011920929
    51
0
    100
AcDbText
    73
0
    0
TEXT
    5
29E
    330
23B
    100
AcDbEntity
    8
Таблица
    6
Continuous
    100
AcDbText
    10
80
    20
144
    30
0
    11
80
    21
144
    31
0
    40
2.5
    1
&SLOPE_NUMBER L 8
    50
0
    41
0.800000011920929
    51
0
    100
AcDbText
    73
0
    0
TEXT
    5
29F
    330
23B
    100
AcDbEntity
    8
Таблица
    6
Continuous
    100
AcDbText
    10
80
    20
136
    30
0
    11
80
    21
136
    31
0
    40
2.5
    1
&SLOPE_NUMBER R 8
    50
0
    41
0.800000011920929
    51
0
    100
AcDbText
    73
0
    0
TEXT
    5
2A0
    330
23B
    100
AcDbEntity
    8
Таблица
    6
Continuous
    100
AcDbText
    10
24.9888133829383
    20
140.411785404603
    30
0
    11
37.5742864435462
    21
140.411785404603
    31
0
    40
2.5
    1
профиля
    50
0
    41
0.755128383636475
    51
0
    72
5
    100
AcDbText
    73
0
    0
TEXT
    5
2A1
    330
23B
    100
AcDbEntity
    8
Таблица
    6
Continuous
    100
AcDbText
    10
24.9869977083558
    20
169.235071271334
    30
0
    11
24.9869977083558
    21
169.235071271334
    31
0
    40
2.5
    1
Ситуационный план
    50
0
    41
0.800000011920929
    51
0
    100
AcDbText
    73
0
    0
TEXT
    5
2A2
    330
23B
    100
AcDbEntity
    8
Таблица
    6
Continuous
    100
AcDbText
    10
80
    20
160
    30
0
    11
80
    21
160
    31
0
    40
2.5
    1
&L
    50
0
    41
0.800000011920929
    51
0
    100
AcDbText
    73
0
    0
LWPOLYLINE
    5
2A3
    330
23B
    100
AcDbEntity
    8
0
    6
Continuous
    100
AcDbPolyline
    90
2
    70
128
    10
0
    20
180
    10
75
    20
180
    0
TEXT
    5
2A4
    330
23B
    100
AcDbEntity
    8
Ссылочные профили
    6
Continuous
    100
AcDbText
    10
80
    20
180
    30
0
    11
80
    21
180
    31
0
    40
2.5
    1
&REFP 1
    50
0
    41
0.800000011920929
    51
0
    100
AcDbText
    73
0
    0
TEXT
    5
2A5
    330
23B
    100
AcDbEntity
    8
Ссылочные профили
    6
Continuous
    100
AcDbText
    10
80
    20
180
    30
0
    11
80
    21
180
    31
0
    40
2.5
    1
&REFP 0
    50
0
    41
0.800000011920929
    51
0
    100
AcDbText
    73
0
    0
TEXT
    5
2A6
    330
23B
    100
AcDbEntity
    8
Отметки кюветов
    6
Continuous
    100
AcDbText
    10
80
    20
121.75
    30
0
    11
80
    21
123
    31
0
    40
2.5
    1
&GAPS 17
    50
0
    41
0.800000011920929
    51
0
    100
AcDbText
    73
2
    0
TEXT
    5
2A7
    330
23B
    100
AcDbEntity
    8
Отметки кюветов
    6
Continuous
    100
AcDbText
    10
80
    20
121.75
    30
0
    11
80
    21
123
    31
0
    40
2.5
    1
&DG PRF 17
    50
0
    41
0.800000011920929
    51
0
    100
AcDbText
    73
2
    0
TEXT
    5
2A8
    330
23B
    100
AcDbEntity
    8
УВВ
    6
Continuous
    100
AcDbText
    10
80
    20
180.001498764738
    30
0
    11
80
    21
180.001498764738
    31
0
    40
2.5
    1
&UVV
    50
0
    41
1
    51
0
    100
AcDbText
    73
0
    0
ENDSEC
    0
SECTION
    2
OBJECTS
    0
DICTIONARY
    5
13
    330
0
    100
AcDbDictionary
    281
1
    3
ACAD_GROUP
    350
14
    3
ACAD_MLINESTYLE
    350
16
    3
ACAD_PLOTSETTINGS
    350
17
    3
ACAD_IMAGE_DICT
    350
14D
    3
ACAD_IMAGE_VARS
    350
14E
    3
ACAD_WIPEOUT_VARS
    350
E7
    3
ACAD_PLOTSTYLENAME
    350
18
    3
ACAD_LAYOUT
    350
228
    0
DICTIONARY
    5
14
    330
13
    100
AcDbDictionary
    281
1
    0
DICTIONARY
    5
17
    102
{ACAD_REACTORS
    330
13
    102
}
    330
13
    100
AcDbDictionary
    281
1
    0
ACDBDICTIONARYWDFLT
    5
18
    102
{ACAD_REACTORS
    330
13
    102
}
    330
13
    100
AcDbDictionary
    281
1
    3
Normal
    350
19
    100
AcDbDictionaryWithDefault
    340
19
    0
ACDBPLACEHOLDER
    5
19
    102
{ACAD_REACTORS
    330
18
    102
}
    330
18
    0
DICTIONARY
    5
7E
    102
{ACAD_REACTORS
    330
C
    102
}
    330
C
    100
AcDbDictionary
    281
1
    3
Standard
    350
7F
    0
WIPEOUTVARIABLES
    5
E7
    102
{ACAD_REACTORS
    330
C
    102
}
    330
C
    100
AcDbWipeoutVariables
    70
0
    0
DICTIONARY
    5
1B
    330
1A
    100
AcDbDictionary
    280
1
    281
1
    3
ACLYDICTIONARY
    360
233
    3
ACAD_LAYERSTATES
    360
231
    0
DICTIONARY
    5
231
    102
{ACAD_REACTORS
    330
1B
    102
}
    330
1B
    100
AcDbDictionary
    281
1
    0
DICTIONARY
    5
233
    102
{ACAD_REACTORS
    330
1B
    102
}
    330
1B
    100
AcDbDictionary
    281
1
    3
*A1
    350
235
    3
*A2
    350
238
    0
XRECORD
    5
235
    102
{ACAD_REACTORS
    330
233
    102
}
    330
233
    100
AcDbXrecord
    280
1
    1
AcLyLayerFilter
    90
1
    300
Все используемые слои
    301
USED=="TRUE" AND VPOVERRIDES=="FALSE"
    0
XRECORD
    5
238
    102
{ACAD_REACTORS
    330
233
    102
}
    330
233
    100
AcDbXrecord
    280
1
    1
AcLyLayerFilter
    90
1
    300
Все видимые слои
    301
OFF=="FALSE"
    0
DICTIONARY
    5
228
    102
{ACAD_REACTORS
    330
C
    102
}
    330
C
    100
AcDbDictionary
    281
1
    3
Model
    350
229
    0
LAYOUT
    5
229
    100
AcDbPlotSettings
    1

    2
none_device
    4

    6

    40
0
    41
0
    42
0
    43
0
    44
297
    45
210
    46
0
    47
0
    48
0
    49
0
    140
0
    141
0
    142
1
    143
1
    70
4784
    72
1
    73
0
    74
5
    7

    75
0
    147
1
    148
0
    149
0
    100
AcDbLayout
    1
Model
    70
1
    71
0
    330
23B
    0
DICTIONARY
    5
E6
    330
10
    100
AcDbDictionary
    280
1
    281
1
    3
ADSK_XREC_LAYER_RECONCILED
    360
155
    0
DICTIONARY
    5
16
    102
{ACAD_REACTORS
    330
C
    102
}
    330
C
    100
AcDbDictionary
    281
1
    3
Standard
    350
226
    0
MLINESTYLE
    5
226
    102
{ACAD_REACTORS
    330
16
    102
}
    330
16
    100
AcDbMlineStyle
    2
Standard
    70
0
    3

    62
256
    51
90.0000025044782
    52
90.0000025044782
    71
2
    49
0.5
    62
256
    6
Continuous
    49
-0.5
    62
256
    6
Continuous
    0
IMAGEDEF_REACTOR
    5
230
    100
AcDbRasterImageDefReactor
    90
2
    0
DICTIONARY
    5
14D
    102
{ACAD_REACTORS
    330
C
    102
}
    330
C
    100
AcDbDictionary
    281
1
    3
Шапка профиля
    350
22F
    0
RASTERVARIABLES
    5
14E
    102
{ACAD_REACTORS
    330
C
    102
}
    330
C
    100
AcDbRasterVariables
    90
0
    70
1
    71
1
    72
5
    0
XRECORD
    5
155
    102
{ACAD_REACTORS
    330
E6
    102
}
    330
E6
    100
AcDbXrecord
    280
1
    290
1
    0
IMAGEDEF
    5
22F
    102
{ACAD_REACTORS
    330
14D
    330
230
    102
}
    330
14D
    100
AcDbRasterImageDef
    90
0
    1
..\..\..\\Шапка профиля.png
    10
386
    20
769
    11
0.0846666666666667
    21
0.0846666666666667
    280
1
    281
5
    0
ENDSEC
    0
EOF
