    0
SECTION
    2
HEADER
    9
$ACADVER
    1
AC1015
    9
$DWGCODEPAGE
    3
ANSI_1251
    9
$HANDSEED
    5
244
    9
$TILEMODE
    70
1
    9
$CECOLOR
    62
256
    9
$CELTSCALE
    40
1
    9
$CELTYPE
    6
ByLayer
    9
$CELWEIGHT
    370
-1
    9
$CLAYER
    8
0
    9
$CMLSTYLE
    2
Standard
    9
$DIMSTYLE
    2
ISO-25
    9
$INSBASE
    10
0
    20
0
    30
0
    9
$PDMODE
    70
0
    9
$PDSIZE
    40
0
    9
$TEXTSTYLE
    7
Standard
    9
$LWDISPLAY
    290
0
    9
$LTSCALE
    40
1
    9
$PSLTSCALE
    70
0
    9
$LIMMIN
    10
0
    20
0
    9
$LIMMAX
    10
97.0833340167589
    20
76.3608532873332
    9
$MEASUREMENT
    70
1
    0
ENDSEC
    0
SECTION
    2
CLASSES
    0
CLASS
    1
RASTERVARIABLES
    2
AcDbRasterVariables
    3
ISM
    90
0
    280
0
    281
0
    0
CLASS
    1
IMAGEDEF
    2
AcDbRasterImageDef
    3
ISM
    90
0
    280
0
    281
0
    0
CLASS
    1
IMAGEDEF_REACTOR
    2
AcDbRasterImageDefReactor
    3
ISM
    90
1
    280
0
    281
0
    0
CLASS
    1
IMAGE
    2
AcDbRasterImage
    3
ISM
    90
2175
    280
0
    281
1
    0
CLASS
    1
WIPEOUT
    2
AcDbWipeout
    3
"WipeOut|Product Desc: Object Enabler for WipeOut entity^I^I^I^I^I^I|Company: Autodesk, Inc.^I^I^I^I^I^I|WEB Address: www.autodesk.com"
    90
2175
    280
0
    281
1
    0
CLASS
    1
WIPEOUTVARIABLES
    2
AcDbWipeoutVariables
    3
"WipeOut|Product Desc:     WipeOut Dbx Application|Company:          Autodesk, Inc.|WEB Address:      www.autodesk.com"
    90
0
    280
0
    281
0
    0
CLASS
    1
ARC_DIMENSION
    2
AcDbArcDimension
    3
ObjectDBX Classes
    90
1025
    280
0
    281
1
    0
CLASS
    1
LARGE_RADIAL_DIMENSION
    2
AcDbRadialDimensionLarge
    3
ObjectDBX Classes
    90
1025
    280
0
    281
1
    0
CLASS
    1
LAYOUT
    2
AcDbLayout
    3
ObjectDBX Classes
    90
0
    280
0
    281
0
    0
CLASS
    1
FIELD
    2
AcDbField
    3
ObjectDBX Classes
    90
1152
    280
0
    281
0
    0
CLASS
    1
FIELDLIST
    2
AcDbFieldList
    3
ObjectDBX Classes
    90
1152
    280
0
    281
0
    0
ENDSEC
    0
SECTION
    2
TABLES
    0
TABLE
    2
VPORT
    5
1
    100
AcDbSymbolTable
    0
ENDTAB
    0
TABLE
    2
LTYPE
    5
2
    100
AcDbSymbolTable
    0
LTYPE
    5
203
    100
AcDbSymbolTableRecord
    100
AcDbLinetypeTableRecord
    2
ByLayer
    3
По слою
    70
0
    72
65
    73
0
    40
0
    0
LTYPE
    5
204
    100
AcDbSymbolTableRecord
    100
AcDbLinetypeTableRecord
    2
ByBlock
    3
По блоку
    70
0
    72
65
    73
0
    40
0
    0
LTYPE
    5
205
    100
AcDbSymbolTableRecord
    100
AcDbLinetypeTableRecord
    2
Continuous
    3
Сплошная
    70
0
    72
65
    73
0
    40
0
    0
ENDTAB
    0
TABLE
    2
LAYER
    5
1A
    102
{ACAD_XDICTIONARY
    360
1B
    102
}
    330
0
    100
AcDbSymbolTable
    0
LAYER
    5
10
    100
AcDbSymbolTableRecord
    100
AcDbLayerTableRecord
    2
0
    70
0
    62
7
    6
Continuous
    370
-3
    390
19
    0
LAYER
    5
208
    100
AcDbSymbolTableRecord
    100
AcDbLayerTableRecord
    2
Таблица
    70
0
    62
7
    6
Continuous
    370
-3
    390
19
    0
LAYER
    5
209
    100
AcDbSymbolTableRecord
    100
AcDbLayerTableRecord
    2
Сечение
    70
0
    62
3
    6
Continuous
    370
-3
    390
19
    0
LAYER
    5
20A
    100
AcDbSymbolTableRecord
    100
AcDbLayerTableRecord
    2
Коммуникации
    70
0
    62
7
    6
Continuous
    370
-3
    390
19
    0
ENDTAB
    0
TABLE
    2
STYLE
    5
5
    100
AcDbSymbolTable
    0
STYLE
    5
201
    100
AcDbSymbolTableRecord
    100
AcDbTextStyleTableRecord
    2
Standard
    70
0
    40
2.5
    41
1
    50
0
    71
0
    42
2.5
    3
txt
    4

    0
ENDTAB
    0
TABLE
    2
VIEW
    5
7
    100
AcDbSymbolTable
    0
ENDTAB
    0
TABLE
    2
UCS
    5
8
    100
AcDbSymbolTable
    0
ENDTAB
    0
TABLE
    2
APPID
    5
9
    100
AcDbSymbolTable
    0
APPID
    5
A
    100
AcDbSymbolTableRecord
    100
AcDbRegAppTableRecord
    2
ACAD
    70
0
    0
APPID
    5
108
    330
9
    100
AcDbSymbolTableRecord
    100
AcDbRegAppTableRecord
    2
AcAecLayerStandard
    70
0
    0
APPID
    5
107
    330
9
    100
AcDbSymbolTableRecord
    100
AcDbRegAppTableRecord
    2
ACAD_MLEADERVER
    70
0
  0
APPID
  5
DF
330
9
100
AcDbSymbolTableRecord
100
AcDbRegAppTableRecord
  2
ACAD_DSTYLE_DIMJAG
 70
     0
  0
APPID
  5
E0
330
9
100
AcDbSymbolTableRecord
100
AcDbRegAppTableRecord
  2
ACAD_DSTYLE_DIMTALN
 70
     0
    0
ENDTAB
    0
TABLE
    2
DIMSTYLE
    5
B
    330
0
    100
AcDbSymbolTable
    70
2
    100
AcDbDimStyleTable
    71
2
    0
DIMSTYLE
    105
211
    330
B
    100
AcDbSymbolTableRecord
    100
AcDbDimStyleTableRecord
    2
Standard
    70
0
    340
201
    0
DIMSTYLE
    105
212
    330
B
    100
AcDbSymbolTableRecord
    100
AcDbDimStyleTableRecord
    2
ISO-25
    70
0
    43
3.75
    42
0.625
    44
1.25
    41
2.5
    141
2.5
    140
2.5
    147
0.625
    77
1
    73
0
    74
0
    172
1
    271
2
    278
44
    78
8
    171
3
    143
0.0393700003623962
    272
2
    283
0
    284
8
    274
3
    340
201
    0
ENDTAB
    0
TABLE
    2
BLOCK_RECORD
    5
C
    100
AcDbSymbolTable
    0
BLOCK_RECORD
    5
21E
    100
AcDbSymbolTableRecord
    100
AcDbBlockTableRecord
    2
*MODEL_SPACE
    0
BLOCK_RECORD
    5
E
    100
AcDbSymbolTableRecord
    100
AcDbBlockTableRecord
    2
*PAPER_SPACE
    0
ENDTAB
    0
ENDSEC
    0
SECTION
    2
BLOCKS
    0
BLOCK
    5
21F
    330
21E
    100
AcDbEntity
    8
0
    100
AcDbBlockBegin
    2
*MODEL_SPACE
    70
0
    10
0
    20
0
    30
0
    3
*MODEL_SPACE
    1

    4

    0
ENDBLK
    5
220
    100
AcDbEntity
    8
0
    100
AcDbBlockEnd
    0
BLOCK
    5
11
    330
E
    100
AcDbEntity
    8
0
    100
AcDbBlockBegin
    2
*PAPER_SPACE
    70
0
    10
0
    20
0
    30
0
    3
*PAPER_SPACE
    1

    4

    0
ENDBLK
    5
12
    100
AcDbEntity
    8
0
    100
AcDbBlockEnd
    0
ENDSEC
    0
SECTION
    2
ENTITIES
    0
TEXT
    5
221
    330
21E
    100
AcDbEntity
    8
Таблица
    100
AcDbText
    10
79.9997642398417
    20
50
    30
0
    11
79.9997642398417
    21
50
    31
0
    40
2.5
    1
&L
    50
0
    41
1
    51
0
    100
AcDbText
    73
0
    0
TEXT
    5
222
    330
21E
    100
AcDbEntity
    8
0
    100
AcDbText
    10
81.25000023677
    20
12.0833335469183
    30
0
    11
80
    21
17.5
    31
0
    40
2.5
    1
&E -1
    50
90.0000025044782
    41
1
    51
0
    72
1
    100
AcDbText
    73
2
    0
TEXT
    5
223
    330
21E
    100
AcDbEntity
    8
0
    100
AcDbText
    10
71.4583330313228
    20
3.75
    30
0
    11
80.0000000158809
    21
5
    31
0
    40
2.5
    1
&D -1 10
    50
0
    41
1
    51
0
    72
1
    100
AcDbText
    73
2
    0
TEXT
    5
224
    330
21E
    100
AcDbEntity
    8
Таблица
    100
AcDbText
    10
19.9997642398417
    20
61.3947555826009
    30
0
    11
19.9997642398417
    21
61.3947555826009
    31
0
    40
2.5
    1
&SV 200
    50
0
    41
1
    51
0
    100
AcDbText
    73
0
    0
TEXT
    5
225
    330
21E
    100
AcDbEntity
    8
Таблица
    100
AcDbText
    10
19.9997642398417
    20
56.3947555826009
    30
0
    11
19.9997642398417
    21
56.3947555826009
    31
0
    40
2.5
    1
&SH 200
    50
0
    41
1
    51
0
    100
AcDbText
    73
0
    0
TEXT
    5
226
    330
21E
    100
AcDbEntity
    8
Таблица
    100
AcDbText
    10
80.0000000158809
    20
0
    30
0
    11
80.0000000158809
    21
0
    31
0
    40
2.5
    1
&L
    50
0
    41
1
    51
0
    100
AcDbText
    73
0
    0
TEXT
    5
227
    330
21E
    100
AcDbEntity
    8
Таблица
    100
AcDbText
    10
79.9997642398417
    20
50
    30
0
    11
79.9997642398417
    21
50
    31
0
    40
2.5
    1
&EW 0 1 0 2
    50
90.0000025044782
    41
1
    51
0
    100
AcDbText
    73
0
    0
TEXT
    5
228
    330
21E
    100
AcDbEntity
    8
Сечение
    100
AcDbText
    10
79.9997642398417
    20
50
    30
0
    11
79.9997642398417
    21
50
    31
0
    40
2.5
    1
&EG
    50
0
    41
1
    51
0
    100
AcDbText
    73
0
    0
TEXT
    5
229
    330
21E
    100
AcDbEntity
    8
Коммуникации
    100
AcDbText
    10
79.9997642398417
    20
50
    30
0
    11
79.9997642398417
    21
50
    31
0
    40
2.5
    1
&COM
    50
0
    41
1
    51
0
    100
AcDbText
    73
0
    0
TEXT
    5
22A
    330
21E
    100
AcDbEntity
    8
Таблица
    100
AcDbText
    10
14.811
    20
43.416
    30
0
    11
14.811
    21
43.416
    31
0
    40
2.5
    1
Уклон, o/oo, длина, м
    50
0
    41
0.800000011920929
    51
0
    100
AcDbText
    73
0
    0
TEXT
    5
22B
    330
21E
    100
AcDbEntity
    8
Таблица
    100
AcDbText
    10
14.516
    20
31.456
    30
0
    11
14.516
    21
31.456
    31
0
    40
2.5
    1
Отметка покрытия, м
    50
0
    41
0.800000011920929
    51
0
    100
AcDbText
    73
0
    0
TEXT
    5
22C
    330
21E
    100
AcDbEntity
    8
Таблица
    100
AcDbText
    10
14.222
    20
14.968
    30
0
    11
14.222
    21
14.968
    31
0
    40
2.5
    1
Отметка земли, м
    50
0
    41
0.800000011920929
    51
0
    100
AcDbText
    73
0
    0
TEXT
    5
22D
    330
21E
    100
AcDbEntity
    8
Таблица
    100
AcDbText
    10
14.222
    20
3.191
    30
0
    11
14.222
    21
3.191
    31
0
    40
2.5
    1
Расстояние, м
    50
0
    41
0.800000011920929
    51
0
    100
AcDbText
    73
0
    0
TEXT
    5
22E
    330
21E
    100
AcDbEntity
    8
Таблица
    100
AcDbText
    10
4.453
    20
2.133
    30
0
    11
4.453
    21
2.133
    31
0
    40
2.5
    1
Фактические
    50
90.0000025044782
    41
0.800000011920929
    51
0
    100
AcDbText
    73
0
    0
TEXT
    5
22F
    330
21E
    100
AcDbEntity
    8
Таблица
    100
AcDbText
    10
7.959
    20
4.838
    30
0
    11
7.959
    21
4.838
    31
0
    40
2.5
    1
данные
    50
90.0000025044782
    41
0.800000011920929
    51
0
    100
AcDbText
    73
0
    0
TEXT
    5
230
    330
21E
    100
AcDbEntity
    8
Таблица
    100
AcDbText
    10
4.453
    20
28.393
    30
0
    11
4.453
    21
28.393
    31
0
    40
2.5
    1
Проектные
    50
90.0000025044782
    41
0.800000011920929
    51
0
    100
AcDbText
    73
0
    0
TEXT
    5
231
    330
21E
    100
AcDbEntity
    8
Таблица
    100
AcDbText
    10
7.959
    20
30.78
    30
0
    11
7.959
    21
30.78
    31
0
    40
2.5
    1
данные
    50
90.0000025044782
    41
0.800000011920929
    51
0
    100
AcDbText
    73
0
    0
LWPOLYLINE
    5
232
    330
21E
    100
AcDbEntity
    8
Таблица
    6
Continuous
    100
AcDbPolyline
    90
2
    70
128
    10
75
    20
0
    10
75
    20
50
    0
LWPOLYLINE
    5
233
    330
21E
    100
AcDbEntity
    8
Таблица
    6
Continuous
    100
AcDbPolyline
    90
2
    70
128
    10
75
    20
50
    10
0
    20
50
    0
LWPOLYLINE
    5
234
    330
21E
    100
AcDbEntity
    8
Таблица
    6
Continuous
    100
AcDbPolyline
    90
2
    70
128
    10
10
    20
40
    10
75
    20
40
    0
LWPOLYLINE
    5
235
    330
21E
    100
AcDbEntity
    8
Таблица
    6
Continuous
    100
AcDbPolyline
    90
2
    70
128
    10
0
    20
25
    10
75
    20
25
    0
LWPOLYLINE
    5
236
    330
21E
    100
AcDbEntity
    8
Таблица
    6
Continuous
    100
AcDbPolyline
    90
2
    70
128
    10
10
    20
10
    10
75
    20
10
    0
LWPOLYLINE
    5
237
    330
21E
    100
AcDbEntity
    8
Таблица
    6
Continuous
    100
AcDbPolyline
    90
2
    70
128
    10
0
    20
0
    10
75
    20
0
    0
LWPOLYLINE
    5
238
    330
21E
    100
AcDbEntity
    8
Таблица
    6
Continuous
    100
AcDbPolyline
    90
2
    70
128
    10
10
    20
50
    10
10
    20
0
    0
LWPOLYLINE
    5
239
    330
21E
    100
AcDbEntity
    8
Таблица
    6
Continuous
    100
AcDbPolyline
    90
2
    70
128
    10
0
    20
50
    10
0
    20
0
    0
TEXT
    5
23A
    330
21E
    100
AcDbEntity
    8
Таблица
    100
AcDbText
    10
80.0000000476427
    20
40
    30
0
    11
80.0000000476427
    21
40
    31
0
    40
2.5
    1
&L
    50
0
    41
1
    51
0
    100
AcDbText
    73
0
    0
TEXT
    5
23B
    330
21E
    100
AcDbEntity
    8
0
    100
AcDbText
    10
80.0000000476427
    20
40
    30
0
    11
80.0000000476427
    21
40
    31
0
    40
2.5
    1
&G -1 10
    50
0
    41
1
    51
0
    100
AcDbText
    73
0
    0
TEXT
    5
23C
    330
21E
    100
AcDbEntity
    8
Таблица
    100
AcDbText
    10
80.0000000476427
    20
40
    30
0
    11
80.0000000476427
    21
40
    31
0
    40
2.5
    1
&L
    50
0
    41
1
    51
0
    100
AcDbText
    73
0
    0
TEXT
    5
23D
    330
21E
    100
AcDbEntity
    8
Таблица
    100
AcDbText
    10
80.0000000476427
    20
25
    30
0
    11
80.0000000476427
    21
25
    31
0
    40
2.5
    1
&L
    50
0
    41
1
    51
0
    100
AcDbText
    73
0
    0
TEXT
    5
23E
    330
21E
    100
AcDbEntity
    8
0
    100
AcDbText
    10
81.25000023677
    20
27.0833335469183
    30
0
    11
80
    21
32.5
    31
0
    40
2.5
    1
&E -1
    50
90.0000025044782
    41
1
    51
0
    72
1
    100
AcDbText
    73
2
    0
TEXT
    5
23F
    330
21E
    100
AcDbEntity
    8
0
    100
AcDbText
    10
0
    20
73.8608532873332
    30
0
    11
0
    21
73.8608532873332
    31
0
    40
2.5
    1
&TITLE Сечение (отметки по покрытию)
    50
0
    41
0.800000011920929
    51
0
    100
AcDbText
    73
0
    0
TEXT
    5
240
    330
21E
    100
AcDbEntity
    8
Таблица
    100
AcDbText
    10
80.0000000476427
    20
10
    30
0
    11
80.0000000476427
    21
10
    31
0
    40
2.5
    1
&L
    50
0
    41
1
    51
0
    100
AcDbText
    73
0
    0
TEXT
    5
241
    330
21E
    100
AcDbEntity
    8
0
    100
AcDbText
    10
0
    20
0
    30
0
    11
0
    21
0
    31
0
    40
2.5
    1
&HO 20
    50
0
    41
1
    51
0
    100
AcDbText
    73
0
    0
TEXT
    5
242
    330
21E
    100
AcDbEntity
    8
0
    100
AcDbText
    10
0
    20
0
    30
0
    11
0
    21
0
    31
0
    40
2.5
    1
&TEXT_HEIGHT_SCALE 1
    50
0
    41
1
    51
0
    100
AcDbText
    73
0
    0
TEXT
    5
243
    330
21E
    100
AcDbEntity
    8
0
    100
AcDbText
    10
0
    20
0
    30
0
    11
0
    21
0
    31
0
    40
2.5
    1
&Reverse False
    50
0
    41
1
    51
0
    100
AcDbText
    73
0
    0
ENDSEC
    0
SECTION
    2
OBJECTS
    0
DICTIONARY
    5
13
    330
0
    100
AcDbDictionary
    281
1
    3
ACAD_GROUP
    350
14
    3
ACAD_MLINESTYLE
    350
16
    3
ACAD_PLOTSETTINGS
    350
17
    3
ACAD_IMAGE_DICT
    350
14D
    3
ACAD_IMAGE_VARS
    350
14E
    3
ACAD_WIPEOUT_VARS
    350
E7
    3
ACAD_PLOTSTYLENAME
    350
18
    3
ACAD_LAYOUT
    350
20E
    0
DICTIONARY
    5
14
    330
13
    100
AcDbDictionary
    281
1
    0
DICTIONARY
    5
17
    102
{ACAD_REACTORS
    330
13
    102
}
    330
13
    100
AcDbDictionary
    281
1
    0
ACDBDICTIONARYWDFLT
    5
18
    102
{ACAD_REACTORS
    330
13
    102
}
    330
13
    100
AcDbDictionary
    281
1
    3
Normal
    350
19
    100
AcDbDictionaryWithDefault
    340
19
    0
ACDBPLACEHOLDER
    5
19
    102
{ACAD_REACTORS
    330
18
    102
}
    330
18
    0
DICTIONARY
    5
7E
    102
{ACAD_REACTORS
    330
C
    102
}
    330
C
    100
AcDbDictionary
    281
1
    3
Standard
    350
7F
    0
WIPEOUTVARIABLES
    5
E7
    102
{ACAD_REACTORS
    330
C
    102
}
    330
C
    100
AcDbWipeoutVariables
    70
0
    0
DICTIONARY
    5
1B
    330
1A
    100
AcDbDictionary
    280
1
    281
1
    3
ACLYDICTIONARY
    360
216
    3
ACAD_LAYERSTATES
    360
214
    0
DICTIONARY
    5
214
    102
{ACAD_REACTORS
    330
1B
    102
}
    330
1B
    100
AcDbDictionary
    281
1
    0
DICTIONARY
    5
216
    102
{ACAD_REACTORS
    330
1B
    102
}
    330
1B
    100
AcDbDictionary
    281
1
    3
*A1
    350
218
    3
*A2
    350
21B
    0
XRECORD
    5
218
    102
{ACAD_REACTORS
    330
216
    102
}
    330
216
    100
AcDbXrecord
    280
1
    1
AcLyLayerFilter
    90
1
    300
Все используемые слои
    301
USED=="TRUE" AND VPOVERRIDES=="FALSE"
    0
XRECORD
    5
21B
    102
{ACAD_REACTORS
    330
216
    102
}
    330
216
    100
AcDbXrecord
    280
1
    1
AcLyLayerFilter
    90
1
    300
Все видимые слои
    301
OFF=="FALSE"
    0
DICTIONARY
    5
20E
    102
{ACAD_REACTORS
    330
C
    102
}
    330
C
    100
AcDbDictionary
    281
1
    3
Model
    350
20F
    0
LAYOUT
    5
20F
    100
AcDbPlotSettings
    1

    2
none_device
    4

    6

    40
0
    41
0
    42
0
    43
0
    44
297
    45
210
    46
0
    47
0
    48
0
    49
0
    140
0
    141
0
    142
1
    143
1
    70
4784
    72
1
    73
0
    74
5
    7

    75
0
    147
1
    148
0
    149
0
    100
AcDbLayout
    1
Model
    70
1
    71
0
    330
21E
    0
DICTIONARY
    5
E6
    330
10
    100
AcDbDictionary
    280
1
    281
1
    3
ADSK_XREC_LAYER_RECONCILED
    360
155
    0
DICTIONARY
    5
16
    102
{ACAD_REACTORS
    330
C
    102
}
    330
C
    100
AcDbDictionary
    281
1
    3
Standard
    350
20C
    0
MLINESTYLE
    5
20C
    102
{ACAD_REACTORS
    330
16
    102
}
    330
16
    100
AcDbMlineStyle
    2
Standard
    70
0
    3

    62
256
    51
90.0000025044782
    52
90.0000025044782
    71
2
    49
0.5
    62
256
    6
Continuous
    49
256
    62
256
    6
Continuous
    0
DICTIONARY
    5
14D
    102
{ACAD_REACTORS
    330
C
    102
}
    330
C
    100
AcDbDictionary
    281
1
    0
RASTERVARIABLES
    5
14E
    102
{ACAD_REACTORS
    330
C
    102
}
    330
C
    100
AcDbRasterVariables
    90
0
    70
1
    71
1
    72
5
    0
XRECORD
    5
155
    102
{ACAD_REACTORS
    330
E6
    102
}
    330
E6
    100
AcDbXrecord
    280
1
    290
1
    0
ENDSEC
    0
EOF
