    0
SECTION
    2
HEADER
    9
$ACADVER
    1
AC1015
    9
$DWGCODEPAGE
    3
ANSI_1251
    9
$HANDSEED
    5
24A
    9
$TILEMODE
    70
1
    9
$CECOLOR
    62
256
    9
$CELTSCALE
    40
1
    9
$CELTYPE
    6
ByLayer
    9
$CELWEIGHT
    370
-1
    9
$CLAYER
    8
0
    9
$CMLSTYLE
    2
Standard
    9
$DIMSTYLE
    2
Standard
    9
$INSBASE
    10
0
    20
0
    30
0
    9
$PDMODE
    70
0
    9
$PDSIZE
    40
0
    9
$TEXTSTYLE
    7
Standard
    9
$LWDISPLAY
    290
0
    9
$LTSCALE
    40
1
    9
$PSLTSCALE
    70
0
    9
$LIMMIN
    10
7.363715337938E-06
    20
-0.00141879384036044
    9
$LIMMAX
    10
97.9166734422418
    20
76.3594344934928
    9
$MEASUREMENT
    70
1
    0
ENDSEC
    0
SECTION
    2
CLASSES
    0
CLASS
    1
RASTERVARIABLES
    2
AcDbRasterVariables
    3
ISM
    90
0
    280
0
    281
0
    0
CLASS
    1
IMAGEDEF
    2
AcDbRasterImageDef
    3
ISM
    90
0
    280
0
    281
0
    0
CLASS
    1
IMAGEDEF_REACTOR
    2
AcDbRasterImageDefReactor
    3
ISM
    90
1
    280
0
    281
0
    0
CLASS
    1
IMAGE
    2
AcDbRasterImage
    3
ISM
    90
2175
    280
0
    281
1
    0
CLASS
    1
WIPEOUT
    2
AcDbWipeout
    3
"WipeOut|Product Desc: Object Enabler for WipeOut entity^I^I^I^I^I^I|Company: Autodesk, Inc.^I^I^I^I^I^I|WEB Address: www.autodesk.com"
    90
2175
    280
0
    281
1
    0
CLASS
    1
WIPEOUTVARIABLES
    2
AcDbWipeoutVariables
    3
"WipeOut|Product Desc:     WipeOut Dbx Application|Company:          Autodesk, Inc.|WEB Address:      www.autodesk.com"
    90
0
    280
0
    281
0
    0
CLASS
    1
ARC_DIMENSION
    2
AcDbArcDimension
    3
ObjectDBX Classes
    90
1025
    280
0
    281
1
    0
CLASS
    1
LARGE_RADIAL_DIMENSION
    2
AcDbRadialDimensionLarge
    3
ObjectDBX Classes
    90
1025
    280
0
    281
1
    0
CLASS
    1
LAYOUT
    2
AcDbLayout
    3
ObjectDBX Classes
    90
0
    280
0
    281
0
    0
ENDSEC
    0
SECTION
    2
TABLES
    0
TABLE
    2
VPORT
    5
1
    100
AcDbSymbolTable
    0
ENDTAB
    0
TABLE
    2
LTYPE
    5
2
    100
AcDbSymbolTable
    0
LTYPE
    5
205
    100
AcDbSymbolTableRecord
    100
AcDbLinetypeTableRecord
    2
ByLayer
    3
По слою
    70
0
    72
65
    73
0
    40
0
    0
LTYPE
    5
206
    100
AcDbSymbolTableRecord
    100
AcDbLinetypeTableRecord
    2
ByBlock
    3
По блоку
    70
0
    72
65
    73
0
    40
0
    0
LTYPE
    5
207
    100
AcDbSymbolTableRecord
    100
AcDbLinetypeTableRecord
    2
Continuous
    3
Сплошная
    70
0
    72
65
    73
0
    40
0
    0
LTYPE
    5
208
    100
AcDbSymbolTableRecord
    100
AcDbLinetypeTableRecord
    2
осевая2
    3
Осевая (.5x) ___ _ ___ _ ___ _ ___ _ ___ _ ___
    70
0
    72
65
    73
4
    40
1.125
    49
0.75
    74
0
    49
-0.125
    74
0
    49
0.125
    74
0
    49
-0.125
    74
0
    0
ENDTAB
    0
TABLE
    2
LAYER
    5
1A
    102
{ACAD_XDICTIONARY
    360
1B
    102
}
    330
0
    100
AcDbSymbolTable
    0
LAYER
    5
10
    100
AcDbSymbolTableRecord
    100
AcDbLayerTableRecord
    2
0
    70
0
    62
7
    6
Continuous
    370
-3
    390
19
    0
LAYER
    5
20B
    100
AcDbSymbolTableRecord
    100
AcDbLayerTableRecord
    2
Сечение
    70
0
    62
3
    6
Continuous
    370
-3
    390
19
    0
LAYER
    5
20C
    100
AcDbSymbolTableRecord
    100
AcDbLayerTableRecord
    2
Коммуникации
    70
0
    62
7
    6
Continuous
    370
-3
    390
19
    0
LAYER
    5
20D
    100
AcDbSymbolTableRecord
    100
AcDbLayerTableRecord
    2
Таблица
    70
0
    62
7
    6
Continuous
    370
-3
    390
19
    0
LAYER
    5
20E
    100
AcDbSymbolTableRecord
    100
AcDbLayerTableRecord
    2
Подписи поперечников
    70
0
    62
7
    6
Continuous
    370
-3
    390
19
    0
ENDTAB
    0
TABLE
    2
STYLE
    5
5
    100
AcDbSymbolTable
    0
STYLE
    5
201
    100
AcDbSymbolTableRecord
    100
AcDbTextStyleTableRecord
    2
Standard
    70
0
    40
0
    41
1
    50
0
    71
0
    42
2.5
    3
txt
    4

    0
STYLE
    5
202
    100
AcDbSymbolTableRecord
    100
AcDbTextStyleTableRecord
    2
ANNOTATIVE
    70
0
    40
0
    41
1
    50
0
    71
0
    42
0.200000002980232
    3
txt
    4

    0
STYLE
    5
203
    100
AcDbSymbolTableRecord
    100
AcDbTextStyleTableRecord
    2
LEGEND
    70
0
    40
0
    41
1
    50
0
    71
0
    42
0.200000002980232
    3
txt
    4

    0
ENDTAB
    0
TABLE
    2
VIEW
    5
7
    100
AcDbSymbolTable
    0
ENDTAB
    0
TABLE
    2
UCS
    5
8
    100
AcDbSymbolTable
    0
ENDTAB
    0
TABLE
    2
APPID
    5
9
    100
AcDbSymbolTable
    0
APPID
    5
A
    100
AcDbSymbolTableRecord
    100
AcDbRegAppTableRecord
    2
ACAD
    70
0
    0
APPID
    5
108
    330
9
    100
AcDbSymbolTableRecord
    100
AcDbRegAppTableRecord
    2
AcAecLayerStandard
    70
0
    0
APPID
    5
107
    330
9
    100
AcDbSymbolTableRecord
    100
AcDbRegAppTableRecord
    2
ACAD_MLEADERVER
    70
0
  0
APPID
  5
DF
330
9
100
AcDbSymbolTableRecord
100
AcDbRegAppTableRecord
  2
ACAD_DSTYLE_DIMJAG
 70
     0
  0
APPID
  5
E0
330
9
100
AcDbSymbolTableRecord
100
AcDbRegAppTableRecord
  2
ACAD_DSTYLE_DIMTALN
 70
     0
    0
ENDTAB
    0
TABLE
    2
DIMSTYLE
    5
B
    330
0
    100
AcDbSymbolTable
    70
2
    100
AcDbDimStyleTable
    71
2
    0
DIMSTYLE
    105
215
    330
B
    100
AcDbSymbolTableRecord
    100
AcDbDimStyleTableRecord
    2
Standard
    70
0
    340
201
    0
DIMSTYLE
    105
216
    330
B
    100
AcDbSymbolTableRecord
    100
AcDbDimStyleTableRecord
    2
ISO-25
    70
0
    43
3.75
    42
0.625
    44
1.25
    41
2.5
    141
2.5
    140
2.5
    147
0.625
    77
1
    73
0
    74
0
    172
1
    78
8
    171
3
    143
0.0393700003623962
    340
201
    0
DIMSTYLE
    105
217
    330
B
    100
AcDbSymbolTableRecord
    100
AcDbDimStyleTableRecord
    2
ANNOTATIVE
    70
0
    340
201
    0
ENDTAB
    0
TABLE
    2
BLOCK_RECORD
    5
C
    100
AcDbSymbolTable
    0
BLOCK_RECORD
    5
228
    100
AcDbSymbolTableRecord
    100
AcDbBlockTableRecord
    2
*MODEL_SPACE
    0
BLOCK_RECORD
    5
E
    100
AcDbSymbolTableRecord
    100
AcDbBlockTableRecord
    2
*PAPER_SPACE
    0
ENDTAB
    0
ENDSEC
    0
SECTION
    2
BLOCKS
    0
BLOCK
    5
229
    330
228
    100
AcDbEntity
    8
0
    100
AcDbBlockBegin
    2
*MODEL_SPACE
    70
0
    10
0
    20
0
    30
0
    3
*MODEL_SPACE
    1

    4

    0
ENDBLK
    5
22A
    100
AcDbEntity
    8
0
    100
AcDbBlockEnd
    0
BLOCK
    5
11
    330
E
    100
AcDbEntity
    8
0
    100
AcDbBlockBegin
    2
*PAPER_SPACE
    70
0
    10
0
    20
0
    30
0
    3
*PAPER_SPACE
    1

    4

    0
ENDBLK
    5
12
    100
AcDbEntity
    8
0
    100
AcDbBlockEnd
    0
ENDSEC
    0
SECTION
    2
ENTITIES
    0
TEXT
    5
22B
    330
228
    100
AcDbEntity
    8
Таблица
    100
AcDbText
    10
79.999771603557
    20
49.9985812061596
    30
0
    11
79.999771603557
    21
49.9985812061596
    31
0
    40
2.5
    1
&L
    50
0
    41
1
    51
0
    100
AcDbText
    73
0
    0
TEXT
    5
22C
    330
228
    100
AcDbEntity
    8
0
    100
AcDbText
    10
81.2500076004853
    20
12.0833335469183
    30
0
    11
80.0000073637153
    21
17.5
    31
0
    40
2.5
    1
&E -1
    50
90.0000025044782
    41
1
    51
0
    72
1
    100
AcDbText
    73
2
    0
TEXT
    5
22D
    330
228
    100
AcDbEntity
    8
Таблица
    100
AcDbText
    10
19.999771603557
    20
61.3933367887605
    30
0
    11
19.999771603557
    21
61.3933367887605
    31
0
    40
2.5
    1
&SV 200
    50
0
    41
1
    51
0
    100
AcDbText
    73
0
    0
TEXT
    5
22E
    330
228
    100
AcDbEntity
    8
Таблица
    100
AcDbText
    10
19.999771603557
    20
56.3933367887605
    30
0
    11
19.999771603557
    21
56.3933367887605
    31
0
    40
2.5
    1
&SH 200
    50
0
    41
1
    51
0
    100
AcDbText
    73
0
    0
TEXT
    5
22F
    330
228
    100
AcDbEntity
    8
Таблица
    100
AcDbText
    10
80.0000073795962
    20
-0.00141879384036044
    30
0
    11
80.0000073795962
    21
-0.00141879384036044
    31
0
    40
2.5
    1
&L
    50
0
    41
1
    51
0
    100
AcDbText
    73
0
    0
TEXT
    5
230
    330
228
    100
AcDbEntity
    8
Таблица
    100
AcDbText
    10
80.000007411358
    20
9.9985812061596
    30
0
    11
80.000007411358
    21
9.9985812061596
    31
0
    40
2.5
    1
&L
    50
0
    41
1
    51
0
    100
AcDbText
    73
0
    0
TEXT
    5
231
    330
228
    100
AcDbEntity
    8
Сечение
    100
AcDbText
    10
79.999771603557
    20
49.9985812061596
    30
0
    11
79.999771603557
    21
49.9985812061596
    31
0
    40
2.5
    1
&EG
    50
0
    41
1
    51
0
    100
AcDbText
    73
0
    0
TEXT
    5
232
    330
228
    100
AcDbEntity
    8
Коммуникации
    100
AcDbText
    10
79.999771603557
    20
49.9985812061596
    30
0
    11
79.999771603557
    21
49.9985812061596
    31
0
    40
2.5
    1
&COM
    50
0
    41
1
    51
0
    100
AcDbText
    73
0
    0
TEXT
    5
233
    330
228
    100
AcDbEntity
    8
Таблица
    100
AcDbText
    10
14.8110073637153
    20
43.4145812061596
    30
0
    11
14.8110073637153
    21
43.4145812061596
    31
0
    40
2.5
    1
Уклон, o/oo, длина, м
    50
0
    41
0.800000011920929
    51
0
    100
AcDbText
    73
0
    0
TEXT
    5
234
    330
228
    100
AcDbEntity
    8
Таблица
    100
AcDbText
    10
14.5160073637153
    20
31.4545812061596
    30
0
    11
14.5160073637153
    21
31.4545812061596
    31
0
    40
2.5
    1
Отметка по линии, м
    50
0
    41
0.800000011920929
    51
0
    100
AcDbText
    73
0
    0
TEXT
    5
235
    330
228
    100
AcDbEntity
    8
Таблица
    100
AcDbText
    10
14.2220073637153
    20
14.9665812061596
    30
0
    11
14.2220073637153
    21
14.9665812061596
    31
0
    40
2.5
    1
Отметка земли, м
    50
0
    41
0.800000011920929
    51
0
    100
AcDbText
    73
0
    0
TEXT
    5
236
    330
228
    100
AcDbEntity
    8
Таблица
    100
AcDbText
    10
14.2220073637153
    20
3.18958120615964
    30
0
    11
14.2220073637153
    21
3.18958120615964
    31
0
    40
2.5
    1
Расстояние, м
    50
0
    41
0.800000011920929
    51
0
    100
AcDbText
    73
0
    0
TEXT
    5
237
    330
228
    100
AcDbEntity
    8
Таблица
    100
AcDbText
    10
4.45300736371534
    20
2.13158120615964
    30
0
    11
4.45300736371534
    21
2.13158120615964
    31
0
    40
2.5
    1
Фактические
    50
90.0000025044782
    41
0.800000011920929
    51
0
    100
AcDbText
    73
0
    0
TEXT
    5
238
    330
228
    100
AcDbEntity
    8
Таблица
    100
AcDbText
    10
7.95900736371534
    20
4.83658120615964
    30
0
    11
7.95900736371534
    21
4.83658120615964
    31
0
    40
2.5
    1
данные
    50
90.0000025044782
    41
0.800000011920929
    51
0
    100
AcDbText
    73
0
    0
TEXT
    5
239
    330
228
    100
AcDbEntity
    8
Таблица
    100
AcDbText
    10
4.45300736371534
    20
28.3915812061596
    30
0
    11
4.45300736371534
    21
28.3915812061596
    31
0
    40
2.5
    1
Проектные
    50
90.0000025044782
    41
0.800000011920929
    51
0
    100
AcDbText
    73
0
    0
TEXT
    5
23A
    330
228
    100
AcDbEntity
    8
Таблица
    100
AcDbText
    10
7.95900736371534
    20
30.7785812061596
    30
0
    11
7.95900736371534
    21
30.7785812061596
    31
0
    40
2.5
    1
данные
    50
90.0000025044782
    41
0.800000011920929
    51
0
    100
AcDbText
    73
0
    0
LWPOLYLINE
    5
23B
    330
228
    100
AcDbEntity
    8
Таблица
    6
Continuous
    100
AcDbPolyline
    90
2
    70
128
    10
75.0000073637153
    20
-0.00141879384036044
    10
75.0000073637153
    20
49.9985812061596
    0
LWPOLYLINE
    5
23C
    330
228
    100
AcDbEntity
    8
Таблица
    6
Continuous
    100
AcDbPolyline
    90
2
    70
128
    10
75.0000073637153
    20
49.9985812061596
    10
7.363715337938E-06
    20
49.9985812061596
    0
LWPOLYLINE
    5
23D
    330
228
    100
AcDbEntity
    8
Таблица
    6
Continuous
    100
AcDbPolyline
    90
2
    70
128
    10
10.0000073637153
    20
39.9985812061596
    10
75.0000073637153
    20
39.9985812061596
    0
LWPOLYLINE
    5
23E
    330
228
    100
AcDbEntity
    8
Таблица
    6
Continuous
    100
AcDbPolyline
    90
2
    70
128
    10
7.363715337938E-06
    20
24.9985812061596
    10
75.0000073637153
    20
24.9985812061596
    0
LWPOLYLINE
    5
23F
    330
228
    100
AcDbEntity
    8
Таблица
    6
Continuous
    100
AcDbPolyline
    90
2
    70
128
    10
10.0000073637153
    20
9.9985812061596
    10
75.0000073637153
    20
9.9985812061596
    0
LWPOLYLINE
    5
240
    330
228
    100
AcDbEntity
    8
Таблица
    6
Continuous
    100
AcDbPolyline
    90
2
    70
128
    10
7.363715337938E-06
    20
-0.00141879384036044
    10
75.0000073637153
    20
-0.00141879384036044
    0
LWPOLYLINE
    5
241
    330
228
    100
AcDbEntity
    8
Таблица
    6
Continuous
    100
AcDbPolyline
    90
2
    70
128
    10
10.0000073637153
    20
49.9985812061596
    10
10.0000073637153
    20
-0.00141879384036044
    0
LWPOLYLINE
    5
242
    330
228
    100
AcDbEntity
    8
Таблица
    6
Continuous
    100
AcDbPolyline
    90
2
    70
128
    10
7.363715337938E-06
    20
49.9985812061596
    10
7.363715337938E-06
    20
-0.00141879384036044
    0
TEXT
    5
243
    330
228
    100
AcDbEntity
    8
Таблица
    100
AcDbText
    10
80.000007411358
    20
39.9985812061596
    30
0
    11
80.000007411358
    21
39.9985812061596
    31
0
    40
2.5
    1
&L
    50
0
    41
1
    51
0
    100
AcDbText
    73
0
    0
TEXT
    5
244
    330
228
    100
AcDbEntity
    8
0
    100
AcDbText
    10
80.000007411358
    20
39.9985812061596
    30
0
    11
80.000007411358
    21
39.9985812061596
    31
0
    40
2.5
    1
&G -2 10
    50
0
    41
1
    51
0
    100
AcDbText
    73
0
    0
TEXT
    5
245
    330
228
    100
AcDbEntity
    8
Таблица
    100
AcDbText
    10
80.000007411358
    20
39.9985812061596
    30
0
    11
80.000007411358
    21
39.9985812061596
    31
0
    40
2.5
    1
&L
    50
0
    41
1
    51
0
    100
AcDbText
    73
0
    0
TEXT
    5
246
    330
228
    100
AcDbEntity
    8
Таблица
    100
AcDbText
    10
80.000007411358
    20
24.9985812061596
    30
0
    11
80.000007411358
    21
24.9985812061596
    31
0
    40
2.5
    1
&L
    50
0
    41
1
    51
0
    100
AcDbText
    73
0
    0
TEXT
    5
247
    330
228
    100
AcDbEntity
    8
0
    100
AcDbText
    10
81.2500076186984
    20
26.6666665623602
    30
0
    11
80.0000073637153
    21
32.5
    31
0
    40
2.5
    1
&E -2
    50
90.0000025044782
    41
1
    51
0
    72
1
    100
AcDbText
    73
2
    0
TEXT
    5
248
    330
228
    100
AcDbEntity
    8
0
    100
AcDbText
    10
7.363715337938E-06
    20
73.8594344934928
    30
0
    11
7.363715337938E-06
    21
73.8594344934928
    31
0
    40
2.5
    1
&TITLE Сечение (отметки по линии)
    50
0
    41
0.800000011920929
    51
0
    100
AcDbText
    73
0
    0
TEXT
    5
249
    330
228
    100
AcDbEntity
    8
0
    100
AcDbText
    10
71.4583330154419
    20
3.75
    30
0
    11
80
    21
5
    31
0
    40
2.5
    1
&D -1 10
    50
0
    41
1
    51
0
    72
1
    100
AcDbText
    73
2
    0
ENDSEC
    0
SECTION
    2
OBJECTS
    0
DICTIONARY
    5
13
    330
0
    100
AcDbDictionary
    281
1
    3
ACAD_GROUP
    350
14
    3
ACAD_MLINESTYLE
    350
16
    3
ACAD_PLOTSETTINGS
    350
17
    3
ACAD_IMAGE_DICT
    350
14D
    3
ACAD_IMAGE_VARS
    350
14E
    3
ACAD_WIPEOUT_VARS
    350
E7
    3
ACAD_PLOTSTYLENAME
    350
18
    3
ACAD_LAYOUT
    350
212
    0
DICTIONARY
    5
14
    330
13
    100
AcDbDictionary
    281
1
    0
DICTIONARY
    5
17
    102
{ACAD_REACTORS
    330
13
    102
}
    330
13
    100
AcDbDictionary
    281
1
    0
ACDBDICTIONARYWDFLT
    5
18
    102
{ACAD_REACTORS
    330
13
    102
}
    330
13
    100
AcDbDictionary
    281
1
    3
Normal
    350
19
    100
AcDbDictionaryWithDefault
    340
19
    0
ACDBPLACEHOLDER
    5
19
    102
{ACAD_REACTORS
    330
18
    102
}
    330
18
    0
DICTIONARY
    5
7E
    102
{ACAD_REACTORS
    330
C
    102
}
    330
C
    100
AcDbDictionary
    281
1
    3
Standard
    350
7F
    0
WIPEOUTVARIABLES
    5
E7
    102
{ACAD_REACTORS
    330
C
    102
}
    330
C
    100
AcDbWipeoutVariables
    70
0
    0
DICTIONARY
    5
1B
    330
1A
    100
AcDbDictionary
    280
1
    281
1
    3
ACLYDICTIONARY
    360
220
    3
ACAD_LAYERSTATES
    360
219
    0
DICTIONARY
    5
219
    102
{ACAD_REACTORS
    330
1B
    102
}
    330
1B
    100
AcDbDictionary
    281
1
    3
ARGON_LAYERP_1
    350
21A
    3
ARGON_LAYERP_2
    350
21B
    3
ARGON_LAYERP_3
    350
21C
    3
ARGON_LAYERP_4
    350
21D
    3
ARGON_LAYERP_5
    350
21E
    0
XRECORD
    5
21A
    102
{ACAD_REACTORS
    330
219
    102
}
    330
219
    100
AcDbXrecord
    280
1
    91
1023
    301

    290
0
    302
0
    8
0
    90
8
    62
7
    370
-3
    6
Continuous
    8
Сечение
    90
8
    62
3
    370
-3
    6
Continuous
    8
0
    90
8
    62
1
    370
-3
    6
Continuous
    8
Коммуникации
    90
8
    62
1
    370
-3
    6
Continuous
    8
Таблица
    90
8
    62
7
    370
-3
    6
Continuous
    8
0
    90
8
    62
1
    370
-3
    6
Continuous
    8
0
    90
8
    62
7
    370
-3
    6
Continuous
    8
0
    90
8
    62
1
    370
-3
    6
осевая2
    8
0
    90
8
    62
7
    370
-3
    6
Continuous
    8
0
    90
8
    62
7
    370
-3
    6
Continuous
    8
Подписи поперечников
    90
8
    62
7
    370
-3
    6
Continuous
    8
0
    90
8
    62
7
    370
-3
    6
Continuous
    8
0
    90
8
    62
8
    370
-3
    6
Continuous
    8
0
    90
8
    62
7
    370
-3
    6
Continuous
    8
0
    90
8
    62
7
    370
-3
    6
Continuous
    8
0
    90
8
    62
7
    370
-3
    6
Continuous
    8
0
    90
8
    62
7
    370
-3
    6
Continuous
    8
0
    90
8
    62
7
    370
-3
    6
Continuous
    8
0
    90
8
    62
7
    370
-3
    6
Continuous
    8
0
    90
8
    62
7
    370
-3
    6
Continuous
    0
XRECORD
    5
21B
    102
{ACAD_REACTORS
    330
219
    102
}
    330
219
    100
AcDbXrecord
    280
1
    91
1023
    301

    290
0
    302
0
    8
0
    90
8
    62
7
    370
-3
    6
Continuous
    8
Сечение
    90
8
    62
3
    370
-3
    6
Continuous
    8
0
    90
8
    62
1
    370
-3
    6
Continuous
    8
Коммуникации
    90
8
    62
1
    370
-3
    6
Continuous
    8
Таблица
    90
8
    62
7
    370
-3
    6
Continuous
    8
0
    90
8
    62
1
    370
-3
    6
Continuous
    8
0
    90
8
    62
7
    370
-3
    6
Continuous
    8
0
    90
8
    62
1
    370
-3
    6
осевая2
    8
0
    90
8
    62
7
    370
-3
    6
Continuous
    8
0
    90
8
    62
7
    370
-3
    6
Continuous
    8
Подписи поперечников
    90
8
    62
7
    370
-3
    6
Continuous
    8
0
    90
8
    62
7
    370
-3
    6
Continuous
    0
XRECORD
    5
21C
    102
{ACAD_REACTORS
    330
219
    102
}
    330
219
    100
AcDbXrecord
    280
1
    91
1023
    301

    290
0
    302
0
    8
0
    90
8
    62
7
    370
-3
    6
Continuous
    8
Сечение
    90
8
    62
3
    370
-3
    6
Continuous
    8
Коммуникации
    90
8
    62
1
    370
-3
    6
Continuous
    8
Таблица
    90
8
    62
7
    370
-3
    6
Continuous
    8
0
    90
8
    62
1
    370
-3
    6
Continuous
    8
0
    90
8
    62
7
    370
-3
    6
Continuous
    8
Подписи поперечников
    90
8
    62
7
    370
-3
    6
Continuous
    0
XRECORD
    5
21D
    102
{ACAD_REACTORS
    330
219
    102
}
    330
219
    100
AcDbXrecord
    280
1
    91
1023
    301

    290
0
    302
0
    8
0
    90
8
    62
7
    370
-3
    6
Continuous
    8
Сечение
    90
8
    62
3
    370
-3
    6
Continuous
    8
Коммуникации
    90
8
    62
1
    370
-3
    6
Continuous
    8
Таблица
    90
8
    62
7
    370
-3
    6
Continuous
    8
0
    90
8
    62
7
    370
-3
    6
Continuous
    8
Подписи поперечников
    90
8
    62
7
    370
-3
    6
Continuous
    0
XRECORD
    5
21E
    102
{ACAD_REACTORS
    330
219
    102
}
    330
219
    100
AcDbXrecord
    280
1
    91
1023
    301

    290
0
    302
0
    8
0
    90
8
    62
7
    370
-3
    6
Continuous
    8
Сечение
    90
8
    62
3
    370
-3
    6
Continuous
    8
Коммуникации
    90
8
    62
7
    370
-3
    6
Continuous
    8
Таблица
    90
8
    62
7
    370
-3
    6
Continuous
    8
0
    90
8
    62
7
    370
-3
    6
Continuous
    8
Подписи поперечников
    90
8
    62
7
    370
-3
    6
Continuous
    0
DICTIONARY
    5
220
    102
{ACAD_REACTORS
    330
1B
    102
}
    330
1B
    100
AcDbDictionary
    281
1
    3
*A1
    350
222
    3
*A2
    350
225
    0
XRECORD
    5
222
    102
{ACAD_REACTORS
    330
220
    102
}
    330
220
    100
AcDbXrecord
    280
1
    1
AcLyLayerFilter
    90
1
    300
Все используемые слои
    301
USED=="TRUE" AND VPOVERRIDES=="FALSE"
    0
XRECORD
    5
225
    102
{ACAD_REACTORS
    330
220
    102
}
    330
220
    100
AcDbXrecord
    280
1
    1
AcLyLayerFilter
    90
1
    300
Все видимые слои
    301
OFF=="FALSE"
    0
DICTIONARY
    5
212
    102
{ACAD_REACTORS
    330
C
    102
}
    330
C
    100
AcDbDictionary
    281
1
    3
Model
    350
213
    0
LAYOUT
    5
213
    100
AcDbPlotSettings
    1

    2
none_device
    4

    6

    40
0
    41
0
    42
0
    43
0
    44
297
    45
210
    46
0
    47
0
    48
0
    49
0
    140
0
    141
0
    142
1
    143
1
    70
4784
    72
1
    73
0
    74
5
    7

    75
0
    147
1
    148
0
    149
0
    100
AcDbLayout
    1
Model
    70
1
    71
0
    330
228
    0
DICTIONARY
    5
E6
    330
10
    100
AcDbDictionary
    280
1
    281
1
    3
ADSK_XREC_LAYER_RECONCILED
    360
155
    0
DICTIONARY
    5
16
    102
{ACAD_REACTORS
    330
C
    102
}
    330
C
    100
AcDbDictionary
    281
1
    3
Standard
    350
210
    0
MLINESTYLE
    5
210
    102
{ACAD_REACTORS
    330
16
    102
}
    330
16
    100
AcDbMlineStyle
    2
Standard
    70
0
    3

    62
256
    51
90.0000025044782
    52
90.0000025044782
    71
2
    49
0.5
    62
256
    6
Continuous
    49
256
    62
256
    6
Continuous
    0
DICTIONARY
    5
14D
    102
{ACAD_REACTORS
    330
C
    102
}
    330
C
    100
AcDbDictionary
    281
1
    0
RASTERVARIABLES
    5
14E
    102
{ACAD_REACTORS
    330
C
    102
}
    330
C
    100
AcDbRasterVariables
    90
0
    70
1
    71
1
    72
5
    0
XRECORD
    5
155
    102
{ACAD_REACTORS
    330
E6
    102
}
    330
E6
    100
AcDbXrecord
    280
1
    290
1
    0
ENDSEC
    0
EOF
