    0
SECTION
    2
HEADER
    9
$ACADVER
    1
AC1015
    9
$DWGCODEPAGE
    3
ANSI_1251
    9
$HANDSEED
    5
25E
    9
$TILEMODE
    70
1
    9
$CECOLOR
    62
256
    9
$CELTSCALE
    40
1
    9
$CELTYPE
    6
ByLayer
    9
$CELWEIGHT
    370
-1
    9
$CLAYER
    8
0
    9
$CMLSTYLE
    2
Standard
    9
$DIMSTYLE
    2
ISO-25
    9
$INSBASE
    10
0
    20
0
    30
0
    9
$PDMODE
    70
0
    9
$PDSIZE
    40
0
    9
$TEXTSTYLE
    7
Standard
    9
$LWDISPLAY
    290
0
    9
$LTSCALE
    40
1
    9
$PSLTSCALE
    70
0
    9
$LIMMIN
    10
-9.80000019073486
    20
-38.0000087980585
    9
$LIMMAX
    10
505.599974606371
    20
39.9999912019415
    9
$MEASUREMENT
    70
1
    0
ENDSEC
    0
SECTION
    2
CLASSES
    0
CLASS
    1
RASTERVARIABLES
    2
AcDbRasterVariables
    3
ISM
    90
0
    280
0
    281
0
    0
CLASS
    1
IMAGEDEF
    2
AcDbRasterImageDef
    3
ISM
    90
0
    280
0
    281
0
    0
CLASS
    1
IMAGEDEF_REACTOR
    2
AcDbRasterImageDefReactor
    3
ISM
    90
1
    280
0
    281
0
    0
CLASS
    1
IMAGE
    2
AcDbRasterImage
    3
ISM
    90
2175
    280
0
    281
1
    0
CLASS
    1
WIPEOUT
    2
AcDbWipeout
    3
"WipeOut|Product Desc: Object Enabler for WipeOut entity^I^I^I^I^I^I|Company: Autodesk, Inc.^I^I^I^I^I^I|WEB Address: www.autodesk.com"
    90
2175
    280
0
    281
1
    0
CLASS
    1
WIPEOUTVARIABLES
    2
AcDbWipeoutVariables
    3
"WipeOut|Product Desc:     WipeOut Dbx Application|Company:          Autodesk, Inc.|WEB Address:      www.autodesk.com"
    90
0
    280
0
    281
0
    0
CLASS
    1
ARC_DIMENSION
    2
AcDbArcDimension
    3
ObjectDBX Classes
    90
1025
    280
0
    281
1
    0
CLASS
    1
LARGE_RADIAL_DIMENSION
    2
AcDbRadialDimensionLarge
    3
ObjectDBX Classes
    90
1025
    280
0
    281
1
    0
CLASS
    1
LAYOUT
    2
AcDbLayout
    3
ObjectDBX Classes
    90
0
    280
0
    281
0
    0
CLASS
    1
FIELD
    2
AcDbField
    3
ObjectDBX Classes
    90
1152
    280
0
    281
0
    0
CLASS
    1
FIELDLIST
    2
AcDbFieldList
    3
ObjectDBX Classes
    90
1152
    280
0
    281
0
    0
ENDSEC
    0
SECTION
    2
TABLES
    0
TABLE
    2
VPORT
    5
1
    100
AcDbSymbolTable
    0
ENDTAB
    0
TABLE
    2
LTYPE
    5
2
    100
AcDbSymbolTable
    0
LTYPE
    5
204
    100
AcDbSymbolTableRecord
    100
AcDbLinetypeTableRecord
    2
ByLayer
    3
По слою
    70
0
    72
65
    73
0
    40
0
    0
LTYPE
    5
205
    100
AcDbSymbolTableRecord
    100
AcDbLinetypeTableRecord
    2
ByBlock
    3
По блоку
    70
0
    72
65
    73
0
    40
0
    0
LTYPE
    5
206
    100
AcDbSymbolTableRecord
    100
AcDbLinetypeTableRecord
    2
Continuous
    3
Сплошная
    70
0
    72
65
    73
0
    40
0
    0
ENDTAB
    0
TABLE
    2
LAYER
    5
1A
    102
{ACAD_XDICTIONARY
    360
1B
    102
}
    330
0
    100
AcDbSymbolTable
    0
LAYER
    5
10
    100
AcDbSymbolTableRecord
    100
AcDbLayerTableRecord
    2
0
    70
0
    62
7
    6
Continuous
    370
-3
    390
19
    0
LAYER
    5
209
    100
AcDbSymbolTableRecord
    100
AcDbLayerTableRecord
    2
Коммуникации
    70
0
    62
7
    6
Continuous
    370
-3
    390
19
    0
ENDTAB
    0
TABLE
    2
STYLE
    5
5
    100
AcDbSymbolTable
    0
STYLE
    5
201
    100
AcDbSymbolTableRecord
    100
AcDbTextStyleTableRecord
    2
Standard
    70
0
    40
2.5
    41
1
    50
0
    71
0
    42
2
    3
SPDS.shx
    4

    0
STYLE
    5
202
    100
AcDbSymbolTableRecord
    100
AcDbTextStyleTableRecord
    2
SPDS.shx
    70
0
    40
2
    41
1
    50
0
    71
0
    42
1
    3
SPDS.shx
    4

    0
ENDTAB
    0
TABLE
    2
VIEW
    5
7
    100
AcDbSymbolTable
    0
ENDTAB
    0
TABLE
    2
UCS
    5
8
    100
AcDbSymbolTable
    0
ENDTAB
    0
TABLE
    2
APPID
    5
9
    100
AcDbSymbolTable
    0
APPID
    5
A
    100
AcDbSymbolTableRecord
    100
AcDbRegAppTableRecord
    2
ACAD
    70
0
    0
APPID
    5
108
    330
9
    100
AcDbSymbolTableRecord
    100
AcDbRegAppTableRecord
    2
AcAecLayerStandard
    70
0
    0
APPID
    5
107
    330
9
    100
AcDbSymbolTableRecord
    100
AcDbRegAppTableRecord
    2
ACAD_MLEADERVER
    70
0
  0
APPID
  5
DF
330
9
100
AcDbSymbolTableRecord
100
AcDbRegAppTableRecord
  2
ACAD_DSTYLE_DIMJAG
 70
     0
  0
APPID
  5
E0
330
9
100
AcDbSymbolTableRecord
100
AcDbRegAppTableRecord
  2
ACAD_DSTYLE_DIMTALN
 70
     0
    0
ENDTAB
    0
TABLE
    2
DIMSTYLE
    5
B
    330
0
    100
AcDbSymbolTable
    70
2
    100
AcDbDimStyleTable
    71
2
    0
DIMSTYLE
    105
210
    330
B
    100
AcDbSymbolTableRecord
    100
AcDbDimStyleTableRecord
    2
Standard
    70
0
    340
201
    0
DIMSTYLE
    105
211
    330
B
    100
AcDbSymbolTableRecord
    100
AcDbDimStyleTableRecord
    2
ISO-25
    70
0
    43
3.75
    42
0.625
    44
1.25
    41
2.5
    141
2.5
    140
2.5
    147
0.625
    77
1
    73
0
    74
0
    172
1
    271
2
    278
44
    78
8
    171
3
    143
0.0393700003623962
    272
2
    283
0
    284
8
    274
3
    340
201
    0
ENDTAB
    0
TABLE
    2
BLOCK_RECORD
    5
C
    100
AcDbSymbolTable
    0
BLOCK_RECORD
    5
21D
    100
AcDbSymbolTableRecord
    100
AcDbBlockTableRecord
    2
*MODEL_SPACE
    0
BLOCK_RECORD
    5
E
    100
AcDbSymbolTableRecord
    100
AcDbBlockTableRecord
    2
*PAPER_SPACE
    0
ENDTAB
    0
ENDSEC
    0
SECTION
    2
BLOCKS
    0
BLOCK
    5
21E
    330
21D
    100
AcDbEntity
    8
0
    100
AcDbBlockBegin
    2
*MODEL_SPACE
    70
0
    10
0
    20
0
    30
0
    3
*MODEL_SPACE
    1

    4

    0
ENDBLK
    5
21F
    100
AcDbEntity
    8
0
    100
AcDbBlockEnd
    0
BLOCK
    5
11
    330
E
    100
AcDbEntity
    8
0
    100
AcDbBlockBegin
    2
*PAPER_SPACE
    70
0
    10
0
    20
0
    30
0
    3
*PAPER_SPACE
    1

    4

    0
ENDBLK
    5
12
    100
AcDbEntity
    8
0
    100
AcDbBlockEnd
    0
ENDSEC
    0
SECTION
    2
ENTITIES
    0
TEXT
    5
220
    330
21D
    100
AcDbEntity
    8
0
    100
AcDbText
    10
11.3764651223962
    20
-37.5959051728304
    30
0
    11
48.050546473254
    21
-36
    31
0
    40
2.5
    1
&ASSAY 2,5 Center True True 1 True 1 Center
    50
0.540303501676034
    41
1
    51
0
    72
1
    100
AcDbText
    73
2
    0
TEXT
    5
221
    330
21D
    100
AcDbEntity
    8
0
    100
AcDbText
    10
0
    20
0
    30
0
    11
0
    21
0
    31
0
    40
2
    1
&TEXT_HEIGHT_SCALE 1
    50
0
    41
1
    51
15.000000417413
    100
AcDbText
    73
0
    0
TEXT
    5
222
    330
21D
    100
AcDbEntity
    8
0
    100
AcDbText
    10
191.562468502855
    20
-37.2500087980585
    30
0
    11
194.999968502855
    21
-36.0000087980585
    31
0
    40
2.5
    1
&L 0
    50
0
    41
1
    51
0
    72
1
    100
AcDbText
    73
2
    0
TEXT
    5
223
    330
21D
    100
AcDbEntity
    8
0
    100
AcDbText
    10
184.5625
    20
-37.25
    30
0
    11
188
    21
-36
    31
0
    40
2.5
    1
&L 0
    50
0
    41
1
    51
0
    72
1
    100
AcDbText
    73
2
    0
TEXT
    5
224
    330
21D
    100
AcDbEntity
    8
0
    100
AcDbText
    10
177.562468502855
    20
-37.2500087980585
    30
0
    11
180.999968502855
    21
-36.0000087980585
    31
0
    40
2.5
    1
&L 0
    50
0
    41
1
    51
0
    72
1
    100
AcDbText
    73
2
    0
TEXT
    5
225
    330
21D
    100
AcDbEntity
    8
0
    100
AcDbText
    10
170.5625
    20
-37.2500087980585
    30
0
    11
174
    21
-36.0000087980585
    31
0
    40
2.5
    1
&L 0
    50
0
    41
1
    51
0
    72
1
    100
AcDbText
    73
2
    0
TEXT
    5
226
    330
21D
    100
AcDbEntity
    8
0
    100
AcDbText
    10
22.5625
    20
-36
    30
0
    11
26
    21
-36
    31
0
    40
2.5
    1
&L 0
    50
0
    41
1
    51
0
    72
1
    100
AcDbText
    73
1
    0
TEXT
    5
227
    330
21D
    100
AcDbEntity
    8
0
    100
AcDbText
    10
15.5625
    20
-36
    30
0
    11
19
    21
-36
    31
0
    40
2.5
    1
&L 0
    50
0
    41
1
    51
0
    72
1
    100
AcDbText
    73
1
    0
TEXT
    5
228
    330
21D
    100
AcDbEntity
    8
0
    100
AcDbText
    10
8.4027274711263
    20
-36.65469386531
    30
0
    11
12.0013791231646
    21
-36.0000087980585
    31
0
    40
2.5
    1
&L 0
    50
350.327669851231
    41
1
    51
0
    72
1
    100
AcDbText
    73
2
    0
TEXT
    5
229
    330
21D
    100
AcDbEntity
    8
0
    100
AcDbText
    10
1.56387912316463
    20
-37.25
    30
0
    11
5.00137912316463
    21
-36
    31
0
    40
2.5
    1
&L 0
    50
0
    41
1
    51
0
    72
1
    100
AcDbText
    73
2
    0
TEXT
    5
22A
    330
21D
    100
AcDbEntity
    8
0
    100
AcDbText
    10
-3.4375314971448
    20
-37.2500087980585
    30
0
    11
-3.1497144804056E-05
    21
-36.0000087980585
    31
0
    40
2.5
    1
&L 0
    50
0
    41
1
    51
0
    72
1
    100
AcDbText
    73
2
    0
TEXT
    5
22B
    330
21D
    100
AcDbEntity
    8
0
    100
AcDbText
    10
164.71875
    20
-36
    30
0
    11
191.5
    21
-36
    31
0
    40
2.5
    1
&EXCAVATION_GROUP 7 1 1 False
    50
0
    41
1
    51
0
    72
1
    100
AcDbText
    73
1
    0
TEXT
    5
22C
    330
21D
    100
AcDbEntity
    8
0
    100
AcDbText
    10
172.75
    20
-37.25
    30
0
    11
184.5
    21
-36
    31
0
    40
2.5
    1
&CR 7 1 1 False
    50
0
    41
1
    51
0
    72
1
    100
AcDbText
    73
2
    0
TEXT
    5
22D
    330
21D
    100
AcDbEntity
    8
0
    100
AcDbText
    10
14.5500001907349
    20
-36
    30
0
    11
29.5
    21
-36
    31
0
    40
2
    1
&E_BOTTOM 7 1 1 False
    50
0
    41
1
    51
0
    72
1
    100
AcDbText
    73
1
    0
TEXT
    5
22E
    330
21D
    100
AcDbEntity
    8
0
    100
AcDbText
    10
4.85000038146973
    20
-36
    30
0
    11
22.5
    21
-36
    31
0
    40
2
    1
&LAYER_HEIGHT 7 1 1 False
    50
0
    41
1
    51
0
    72
1
    100
AcDbText
    73
1
    0
TEXT
    5
22F
    330
21D
    100
AcDbEntity
    8
0
    100
AcDbText
    10
5.92500019073486
    20
-36
    30
0
    11
15.5
    21
-36
    31
0
    40
2
    1
&D 7 1 1 1 False
    50
0
    41
1
    51
0
    72
1
    100
AcDbText
    73
1
    0
TEXT
    5
230
    330
21D
    100
AcDbEntity
    8
0
    100
AcDbText
    10
-9.80000019073486
    20
-37
    30
0
    11
2.5
    21
-36
    31
0
    40
2
    1
&NUMIGE 5 1 1 False
    50
0
    41
1
    51
0
    72
1
    100
AcDbText
    73
2
    0
TEXT
    5
231
    330
21D
    100
AcDbEntity
    8
0
    100
AcDbText
    10
0.326378932429767
    20
-37.0000087980585
    30
0
    11
8.50137912316463
    21
-36.0000087980585
    31
0
    40
2
    1
&G 7 1 1 True
    50
0
    41
1
    51
0
    72
1
    100
AcDbText
    73
2
    0
TEXT
    5
232
    330
21D
    100
AcDbEntity
    8
0
    100
AcDbText
    10
171.574999809265
    20
-38.0000087980585
    30
0
    11
177.5
    21
-36.0000087980585
    31
0
    40
2
    1
&WLD 7 0
    50
0
    41
1
    51
0
    7
SPDS.shx
    72
1
    100
AcDbText
    73
3
    0
TEXT
    5
233
    330
21D
    100
AcDbEntity
    8
0
    100
AcDbText
    10
2
    20
20.75
    30
0
    11
2
    21
20.75
    31
0
    40
2.20000004768372
    1
&PROJECT_NAME
    50
0
    41
1
    51
0
    7
SPDS.shx
    100
AcDbText
    73
0
    0
TEXT
    5
234
    330
21D
    100
AcDbEntity
    8
0
    100
AcDbText
    10
150.999968502855
    20
9.99999120194149
    30
0
    11
150.999968502855
    21
9.99999120194149
    31
0
    40
2
    1
&BORING_DATE 1
    50
0
    41
1
    51
0
    7
SPDS.shx
    100
AcDbText
    73
0
    0
TEXT
    5
235
    330
21D
    100
AcDbEntity
    8
0
    100
AcDbText
    10
150.999968502855
    20
13.9999912019415
    30
0
    11
150.999968502855
    21
13.9999912019415
    31
0
    40
2
    1
&COMMON_DEPTH
    50
0
    41
1
    51
0
    7
SPDS.shx
    100
AcDbText
    73
0
    0
TEXT
    5
236
    330
21D
    100
AcDbEntity
    8
0
    100
AcDbText
    10
150.999968502855
    20
17.9999912019415
    30
0
    11
150.999968502855
    21
17.9999912019415
    31
0
    40
2
    1
&HEADER_E
    50
0
    41
1
    51
0
    7
SPDS.shx
    100
AcDbText
    73
0
    0
TEXT
    5
237
    330
21D
    100
AcDbEntity
    8
0
    100
AcDbText
    10
150.999968502855
    20
21.9999912019415
    30
0
    11
150.999968502855
    21
21.9999912019415
    31
0
    40
2
    1
&BORING_TITLE "ПК %Piket% (%Offset%)" закопушка "зондировочная скважина" расчистка Скв. шурф шурф-скважина "влево %Offset% м" "вправо %Offset% м"
    50
0
    41
1
    51
0
    7
SPDS.shx
    100
AcDbText
    73
0
    0
TEXT
    5
238
    330
21D
    100
AcDbEntity
    8
0
    100
AcDbText
    10
150.999968502855
    20
26.9999912019415
    30
0
    11
150.999968502855
    21
26.9999912019415
    31
0
    40
4
    1
&BORING_TITLE "%Title% %Number%" закопушка "зондировочная скважина" расчистка Скв. шурф шурф-скважина %Offset% %Offset%
    50
0
    41
1
    51
0
    7
SPDS.shx
    100
AcDbText
    73
0
    0
LINE
    5
239
    330
21D
    100
AcDbEntity
    8
0
    100
AcDbLine
    10
4.99996850285522
    20
-8.79805852724985E-06
    30
0
    11
4.99996850285522
    21
-36.0000087980585
    31
0
    0
LINE
    5
23A
    330
21D
    100
AcDbEntity
    8
0
    100
AcDbLine
    10
11.9999685028552
    20
-8.79805852724985E-06
    30
0
    11
11.9999685028552
    21
-36.0000087980585
    31
0
    0
LINE
    5
23B
    330
21D
    100
AcDbEntity
    8
0
    100
AcDbLine
    10
18.9999685028552
    20
-8.79805852724985E-06
    30
0
    11
18.9999685028552
    21
-36.0000087980585
    31
0
    0
LINE
    5
23C
    330
21D
    100
AcDbEntity
    8
0
    100
AcDbLine
    10
25.9999685028552
    20
-8.79805852724985E-06
    30
0
    11
25.9999685028552
    21
-36.0000087980585
    31
0
    0
LINE
    5
23D
    330
21D
    100
AcDbEntity
    8
0
    100
AcDbLine
    10
32.9999685028552
    20
-8.79805852724985E-06
    30
0
    11
32.9999685028552
    21
-36.0000087980585
    31
0
    0
LINE
    5
23E
    330
21D
    100
AcDbEntity
    8
0
    100
AcDbLine
    10
62.9999685028552
    20
-8.79805852724985E-06
    30
0
    11
62.9999685028552
    21
-36.0000087980585
    31
0
    0
LINE
    5
23F
    330
21D
    100
AcDbEntity
    8
0
    100
AcDbLine
    10
173.999968502855
    20
-8.79805852724985E-06
    30
0
    11
173.999968502855
    21
-36.0000087980585
    31
0
    0
LINE
    5
240
    330
21D
    100
AcDbEntity
    8
0
    100
AcDbLine
    10
180.999968502855
    20
-8.79805852724985E-06
    30
0
    11
180.999968502855
    21
-36.0000087980585
    31
0
    0
LINE
    5
241
    330
21D
    100
AcDbEntity
    8
0
    100
AcDbLine
    10
187.999968502855
    20
-8.79805852724985E-06
    30
0
    11
187.999968502855
    21
-36.0000087980585
    31
0
    0
LINE
    5
242
    330
21D
    100
AcDbEntity
    8
0
    100
AcDbLine
    10
194.999968502855
    20
-8.79805852724985E-06
    30
0
    11
194.999968502855
    21
-36.0000087980585
    31
0
    0
LINE
    5
243
    330
21D
    100
AcDbEntity
    8
0
    100
AcDbLine
    10
-3.1497144804056E-05
    20
-8.79805852724985E-06
    30
0
    11
-3.1497144804056E-05
    21
-36.0000087980585
    31
0
    0
LINE
    5
244
    330
21D
    100
AcDbEntity
    8
0
    100
AcDbLine
    10
-3.1497144804056E-05
    20
-36.0000087980585
    30
0
    11
184.999968502855
    21
-36.0000087980585
    31
0
    0
LINE
    5
245
    330
21D
    100
AcDbEntity
    8
0
    100
AcDbLine
    10
-3.1497144804056E-05
    20
-8.79805852724985E-06
    30
0
    11
195
    21
-8.79805852724985E-06
    31
0
    0
TEXT
    5
246
    330
21D
    100
AcDbEntity
    8
0
    100
AcDbText
    10
115.999968502855
    20
5.99999120194147
    30
0
    11
115.999968502855
    21
5.99999120194147
    31
0
    40
2
    1
Вид сооружения:
    50
0
    41
1
    51
0
    7
SPDS.shx
    100
AcDbText
    73
0
    0
TEXT
    5
247
    330
21D
    100
AcDbEntity
    8
0
    100
AcDbText
    10
150.999968502855
    20
5.99999120194147
    30
0
    11
150.999968502855
    21
5.99999120194147
    31
0
    40
2
    1
-
    50
0
    41
1
    51
0
    7
SPDS.shx
    100
AcDbText
    73
0
    0
TEXT
    5
248
    330
21D
    100
AcDbEntity
    8
0
    100
AcDbText
    10
115.999968502855
    20
9.99999120194149
    30
0
    11
115.999968502855
    21
9.99999120194149
    31
0
    40
2
    1
Дата (нач./оконч.бур.):
    50
0
    41
1
    51
0
    7
SPDS.shx
    100
AcDbText
    73
0
    0
TEXT
    5
249
    330
21D
    100
AcDbEntity
    8
0
    100
AcDbText
    10
115.999968502855
    20
13.9999912019415
    30
0
    11
115.999968502855
    21
13.9999912019415
    31
0
    40
2
    1
Общая глубина:
    50
0
    41
1
    51
0
    7
SPDS.shx
    100
AcDbText
    73
0
    0
TEXT
    5
24A
    330
21D
    100
AcDbEntity
    8
0
    100
AcDbText
    10
115.999968502855
    20
17.9999912019415
    30
0
    11
115.999968502855
    21
17.9999912019415
    31
0
    40
2
    1
Абс. отм. устья:
    50
0
    41
1
    51
0
    7
SPDS.shx
    100
AcDbText
    73
0
    0
TEXT
    5
24B
    330
21D
    100
AcDbEntity
    8
0
    100
AcDbText
    10
115.999968502855
    20
21.9999912019415
    30
0
    11
115.999968502855
    21
21.9999912019415
    31
0
    40
2
    1
Местоположение:
    50
0
    41
1
    51
0
    7
SPDS.shx
    100
AcDbText
    73
0
    0
LINE
    5
24C
    330
21D
    100
AcDbEntity
    8
0
    370
50
    100
AcDbLine
    10
112.319968502855
    20
25.9999912019415
    30
0
    11
187.123968502855
    21
25.9999912019415
    31
0
    0
TEXT
    5
24D
    330
21D
    100
AcDbEntity
    8
0
    100
AcDbText
    10
115.999968502855
    20
26.9999912019415
    30
0
    11
115.999968502855
    21
26.9999912019415
    31
0
    40
2.5
    1
Наименование:
    50
0
    41
1
    51
0
    7
SPDS.shx
    100
AcDbText
    73
0
    0
TEXT
    5
24E
    330
21D
    100
AcDbEntity
    8
0
    100
AcDbText
    10
1.9999685028552
    20
26.9999912019415
    30
0
    11
1.9999685028552
    21
26.9999912019415
    31
0
    40
2.5
    1
Титул:
    50
0
    41
1
    51
0
    7
SPDS.shx
    100
AcDbText
    73
0
    0
TEXT
    5
24F
    330
21D
    100
AcDbEntity
    8
0
    100
AcDbText
    10
1.9999685028552
    20
35.9999912019415
    30
0
    11
1.9999685028552
    21
35.9999912019415
    31
0
    40
4
    1
Описание
    50
0
    41
1
    51
0
    7
SPDS.shx
    100
AcDbText
    73
0
    0
MTEXT
    5
250
    330
21D
    100
AcDbEntity
    8
0
    100
AcDbMText
    10
2.4999685028552
    20
-18.0000087980585
    30
0
    40
1.79999995231628
    41
0
    71
5
    72
1
    1
Номер ИГЭ
    7
SPDS.shx
    42
0
    43
1.79999995231628
    50
90.0000025044782
    44
1
    90
0
    0
MTEXT
    5
251
    330
21D
    100
AcDbEntity
    8
0
    100
AcDbMText
    10
8.49996850285517
    20
-18.0000087980585
    30
0
    40
1.79999995231628
    41
0
    71
5
    72
1
    1
Геологический индекс
    7
SPDS.shx
    42
0
    43
1.79999995231628
    50
90.0000025044782
    44
1
    90
0
    0
MTEXT
    5
252
    330
21D
    100
AcDbEntity
    8
0
    100
AcDbMText
    10
15.4999685028552
    20
-18.0000087980585
    30
0
    40
1.79999995231628
    41
0
    71
5
    72
1
    1
Глубина залегания слоя, м
    7
SPDS.shx
    42
0
    43
1.79999995231628
    50
90.0000025044782
    44
1
    90
0
    0
MTEXT
    5
253
    330
21D
    100
AcDbEntity
    8
0
    100
AcDbMText
    10
22.4999685028552
    20
-18.0000087980585
    30
0
    40
1.79999995231628
    41
0
    71
5
    72
1
    1
Мощность слоя, м
    7
SPDS.shx
    42
0
    43
1.79999995231628
    50
90.0000025044782
    44
1
    90
0
    0
MTEXT
    5
254
    330
21D
    100
AcDbEntity
    8
0
    100
AcDbMText
    10
29.4999685028552
    20
-18.0000087980585
    30
0
    40
1.79999995231628
    41
0
    71
5
    72
1
    1
Абсолютная отметка\Pподошвы слоя, м
    7
SPDS.shx
    42
0
    43
4.80000019073486
    50
90.0000025044782
    44
1
    90
0
    0
MTEXT
    5
255
    330
21D
    100
AcDbEntity
    8
0
    100
AcDbMText
    10
48
    20
-18.0000087980585
    30
0
    40
1.79999995231628
    41
0
    71
5
    72
1
    1
Литологическая\Pколонка\PМ  1 : 100
    7
SPDS.shx
    42
0
    43
7.80000019073486
    50
0
    44
1
    90
0
    0
MTEXT
    5
256
    330
21D
    100
AcDbEntity
    8
0
    100
AcDbMText
    10
118.499968502855
    20
-18.0000087980585
    30
0
    40
1.79999995231628
    41
0
    71
5
    72
1
    1
Описание грунтов
    7
SPDS.shx
    42
0
    43
1.79999995231628
    50
0
    44
1
    90
0
    0
MTEXT
    5
257
    330
21D
    100
AcDbEntity
    8
0
    100
AcDbMText
    10
177.499968502855
    20
-18.0000087980585
    30
0
    40
1.79999995231628
    41
0
    71
5
    72
1
    1
\LПоявление воды\P\lУстановившийся уровень, м
    7
SPDS.shx
    42
0
    43
4.80000019073486
    50
90.0000025044782
    44
1
    90
0
    0
MTEXT
    5
258
    330
21D
    100
AcDbEntity
    8
0
    100
AcDbMText
    10
184.499968502855
    20
-18.0000087980585
    30
0
    40
1.79999995231628
    41
0
    71
5
    72
1
    1
Расчетное сопротивление Ro\PкПа, СП 22.13330.2011
    7
SPDS.shx
    42
0
    43
4.80000019073486
    50
90.0000025044782
    44
1
    90
0
    0
MTEXT
    5
259
    330
21D
    100
AcDbEntity
    8
0
    100
AcDbMText
    10
191.499968502855
    20
-18.0000087980585
    30
0
    40
1.79999995231628
    41
0
    71
5
    72
1
    1
Номер грунта по\PФЕР-2001-01
    7
SPDS.shx
    42
0
    43
4.80000019073486
    50
90.0000025044782
    44
1
    90
0
    0
TEXT
    5
25A
    330
21D
    100
AcDbEntity
    8
Коммуникации
    100
AcDbText
    10
37.2595173750369
    20
36.2622467224343
    30
0
    11
37.2595173750369
    21
36.2622467224343
    31
0
    40
2.5
    1
&TITLE Тип 3
    50
0
    41
1
    51
0
    100
AcDbText
    73
0
    0
TEXT
    5
25B
    330
21D
    100
AcDbEntity
    8
0
    100
AcDbText
    10
99.3500003814697
    20
-36
    30
0
    11
118.5
    21
-36
    31
0
    40
2
    1
&DESCRIPTION_GROUND 111 0 1
    50
0
    41
1
    51
0
    7
SPDS.shx
    72
1
    100
AcDbText
    73
0
    0
TEXT
    5
25C
    330
21D
    100
AcDbEntity
    8
0
    100
AcDbText
    10
33
    20
-36
    30
0
    11
33
    21
-36
    31
0
    40
2
    1
&BOREHOLE 30
    50
0
    41
1
    51
0
    7
SPDS.shx
    100
AcDbText
    73
0
    0
TEXT
    5
25D
    330
21D
    100
AcDbEntity
    8
0
    100
AcDbText
    10
203
    20
-35
    30
0
    11
203
    21
-35
    31
0
    40
2.5
    1
&SOUNDING true 0.5 0.005 0.5 0.4
    50
0
    41
1
    51
0
    100
AcDbText
    73
0
    0
ENDSEC
    0
SECTION
    2
OBJECTS
    0
DICTIONARY
    5
13
    330
0
    100
AcDbDictionary
    281
1
    3
ACAD_GROUP
    350
14
    3
ACAD_MLINESTYLE
    350
16
    3
ACAD_PLOTSETTINGS
    350
17
    3
ACAD_IMAGE_DICT
    350
14D
    3
ACAD_IMAGE_VARS
    350
14E
    3
ACAD_WIPEOUT_VARS
    350
E7
    3
ACAD_PLOTSTYLENAME
    350
18
    3
ACAD_LAYOUT
    350
20D
    0
DICTIONARY
    5
14
    330
13
    100
AcDbDictionary
    281
1
    0
DICTIONARY
    5
17
    102
{ACAD_REACTORS
    330
13
    102
}
    330
13
    100
AcDbDictionary
    281
1
    0
ACDBDICTIONARYWDFLT
    5
18
    102
{ACAD_REACTORS
    330
13
    102
}
    330
13
    100
AcDbDictionary
    281
1
    3
Normal
    350
19
    100
AcDbDictionaryWithDefault
    340
19
    0
ACDBPLACEHOLDER
    5
19
    102
{ACAD_REACTORS
    330
18
    102
}
    330
18
    0
DICTIONARY
    5
7E
    102
{ACAD_REACTORS
    330
C
    102
}
    330
C
    100
AcDbDictionary
    281
1
    3
Standard
    350
7F
    0
WIPEOUTVARIABLES
    5
E7
    102
{ACAD_REACTORS
    330
C
    102
}
    330
C
    100
AcDbWipeoutVariables
    70
0
    0
DICTIONARY
    5
1B
    330
1A
    100
AcDbDictionary
    280
1
    281
1
    3
ACLYDICTIONARY
    360
215
    3
ACAD_LAYERSTATES
    360
213
    0
DICTIONARY
    5
213
    102
{ACAD_REACTORS
    330
1B
    102
}
    330
1B
    100
AcDbDictionary
    281
1
    0
DICTIONARY
    5
215
    102
{ACAD_REACTORS
    330
1B
    102
}
    330
1B
    100
AcDbDictionary
    281
1
    3
*A1
    350
217
    3
*A2
    350
21A
    0
XRECORD
    5
217
    102
{ACAD_REACTORS
    330
215
    102
}
    330
215
    100
AcDbXrecord
    280
1
    1
AcLyLayerFilter
    90
1
    300
Все используемые слои
    301
USED=="TRUE" AND VPOVERRIDES=="FALSE"
    0
XRECORD
    5
21A
    102
{ACAD_REACTORS
    330
215
    102
}
    330
215
    100
AcDbXrecord
    280
1
    1
AcLyLayerFilter
    90
1
    300
Все видимые слои
    301
OFF=="FALSE"
    0
DICTIONARY
    5
20D
    102
{ACAD_REACTORS
    330
C
    102
}
    330
C
    100
AcDbDictionary
    281
1
    3
Model
    350
20E
    0
LAYOUT
    5
20E
    100
AcDbPlotSettings
    1

    2
none_device
    4

    6

    40
0
    41
0
    42
0
    43
0
    44
297
    45
210
    46
0
    47
0
    48
0
    49
0
    140
0
    141
0
    142
1
    143
1
    70
4784
    72
1
    73
0
    74
5
    7

    75
0
    147
1
    148
0
    149
0
    100
AcDbLayout
    1
Model
    70
1
    71
0
    330
21D
    0
DICTIONARY
    5
E6
    330
10
    100
AcDbDictionary
    280
1
    281
1
    3
ADSK_XREC_LAYER_RECONCILED
    360
155
    0
DICTIONARY
    5
16
    102
{ACAD_REACTORS
    330
C
    102
}
    330
C
    100
AcDbDictionary
    281
1
    3
Standard
    350
20B
    0
MLINESTYLE
    5
20B
    102
{ACAD_REACTORS
    330
16
    102
}
    330
16
    100
AcDbMlineStyle
    2
Standard
    70
0
    3

    62
256
    51
90.0000025044782
    52
90.0000025044782
    71
2
    49
0.5
    62
256
    49
-0.5
    62
256
    0
DICTIONARY
    5
14D
    102
{ACAD_REACTORS
    330
C
    102
}
    330
C
    100
AcDbDictionary
    281
1
    0
RASTERVARIABLES
    5
14E
    102
{ACAD_REACTORS
    330
C
    102
}
    330
C
    100
AcDbRasterVariables
    90
0
    70
1
    71
1
    72
5
    0
XRECORD
    5
155
    102
{ACAD_REACTORS
    330
E6
    102
}
    330
E6
    100
AcDbXrecord
    280
1
    290
1
    0
ENDSEC
    0
EOF
