    0
SECTION
    2
HEADER
    9
$ACADVER
    1
AC1015
    9
$DWGCODEPAGE
    3
ANSI_1251
    9
$HANDSEED
    5
269
    9
$TILEMODE
    70
1
    9
$CECOLOR
    62
256
    9
$CELTSCALE
    40
1
    9
$CELTYPE
    6
ByLayer
    9
$CELWEIGHT
    370
-1
    9
$CLAYER
    8
0
    9
$CMLSTYLE
    2
Standard
    9
$DIMSTYLE
    2
ISO-25
    9
$INSBASE
    10
0
    20
0
    30
0
    9
$PDMODE
    70
0
    9
$PDSIZE
    40
0
    9
$TEXTSTYLE
    7
Standard
    9
$LWDISPLAY
    290
0
    9
$LTSCALE
    40
1
    9
$PSLTSCALE
    70
0
    9
$LIMMIN
    10
-4.1875
    20
-37.499978133982
    9
$LIMMAX
    10
199.050000190735
    20
38.6273419407977
    9
$MEASUREMENT
    70
1
    0
ENDSEC
    0
SECTION
    2
CLASSES
    0
CLASS
    1
RASTERVARIABLES
    2
AcDbRasterVariables
    3
ISM
    90
0
    280
0
    281
0
    0
CLASS
    1
IMAGEDEF
    2
AcDbRasterImageDef
    3
ISM
    90
0
    280
0
    281
0
    0
CLASS
    1
IMAGEDEF_REACTOR
    2
AcDbRasterImageDefReactor
    3
ISM
    90
1
    280
0
    281
0
    0
CLASS
    1
IMAGE
    2
AcDbRasterImage
    3
ISM
    90
2175
    280
0
    281
1
    0
CLASS
    1
WIPEOUT
    2
AcDbWipeout
    3
"WipeOut|Product Desc: Object Enabler for WipeOut entity^I^I^I^I^I^I|Company: Autodesk, Inc.^I^I^I^I^I^I|WEB Address: www.autodesk.com"
    90
2175
    280
0
    281
1
    0
CLASS
    1
WIPEOUTVARIABLES
    2
AcDbWipeoutVariables
    3
"WipeOut|Product Desc:     WipeOut Dbx Application|Company:          Autodesk, Inc.|WEB Address:      www.autodesk.com"
    90
0
    280
0
    281
0
    0
CLASS
    1
ARC_DIMENSION
    2
AcDbArcDimension
    3
ObjectDBX Classes
    90
1025
    280
0
    281
1
    0
CLASS
    1
LARGE_RADIAL_DIMENSION
    2
AcDbRadialDimensionLarge
    3
ObjectDBX Classes
    90
1025
    280
0
    281
1
    0
CLASS
    1
LAYOUT
    2
AcDbLayout
    3
ObjectDBX Classes
    90
0
    280
0
    281
0
    0
CLASS
    1
FIELD
    2
AcDbField
    3
ObjectDBX Classes
    90
1152
    280
0
    281
0
    0
CLASS
    1
FIELDLIST
    2
AcDbFieldList
    3
ObjectDBX Classes
    90
1152
    280
0
    281
0
    0
ENDSEC
    0
SECTION
    2
TABLES
    0
TABLE
    2
VPORT
    5
1
    100
AcDbSymbolTable
    0
ENDTAB
    0
TABLE
    2
LTYPE
    5
2
    100
AcDbSymbolTable
    0
LTYPE
    5
204
    100
AcDbSymbolTableRecord
    100
AcDbLinetypeTableRecord
    2
ByLayer
    3
По слою
    70
0
    72
65
    73
0
    40
0
    0
LTYPE
    5
205
    100
AcDbSymbolTableRecord
    100
AcDbLinetypeTableRecord
    2
ByBlock
    3
По блоку
    70
0
    72
65
    73
0
    40
0
    0
LTYPE
    5
206
    100
AcDbSymbolTableRecord
    100
AcDbLinetypeTableRecord
    2
Continuous
    3
Сплошная
    70
0
    72
65
    73
0
    40
0
    0
ENDTAB
    0
TABLE
    2
LAYER
    5
1A
    102
{ACAD_XDICTIONARY
    360
1B
    102
}
    330
0
    100
AcDbSymbolTable
    0
LAYER
    5
10
    100
AcDbSymbolTableRecord
    100
AcDbLayerTableRecord
    2
0
    70
0
    62
7
    6
Continuous
    370
-3
    390
19
    0
LAYER
    5
209
    100
AcDbSymbolTableRecord
    100
AcDbLayerTableRecord
    2
Коммуникации
    70
0
    62
7
    6
Continuous
    370
-3
    390
19
    0
ENDTAB
    0
TABLE
    2
STYLE
    5
5
    100
AcDbSymbolTable
    0
STYLE
    5
201
    100
AcDbSymbolTableRecord
    100
AcDbTextStyleTableRecord
    2
Standard
    70
0
    40
0
    41
1
    50
0
    71
0
    42
2.5
    3
txt
    4

    0
STYLE
    5
202
    100
AcDbSymbolTableRecord
    100
AcDbTextStyleTableRecord
    2
SPDS.shx
    70
0
    40
2.5
    41
1
    50
0
    71
0
    42
1
    3
SPDS.shx
    4

    0
ENDTAB
    0
TABLE
    2
VIEW
    5
7
    100
AcDbSymbolTable
    0
ENDTAB
    0
TABLE
    2
UCS
    5
8
    100
AcDbSymbolTable
    0
ENDTAB
    0
TABLE
    2
APPID
    5
9
    100
AcDbSymbolTable
    0
APPID
    5
A
    100
AcDbSymbolTableRecord
    100
AcDbRegAppTableRecord
    2
ACAD
    70
0
    0
APPID
    5
108
    330
9
    100
AcDbSymbolTableRecord
    100
AcDbRegAppTableRecord
    2
AcAecLayerStandard
    70
0
    0
APPID
    5
107
    330
9
    100
AcDbSymbolTableRecord
    100
AcDbRegAppTableRecord
    2
ACAD_MLEADERVER
    70
0
  0
APPID
  5
DF
330
9
100
AcDbSymbolTableRecord
100
AcDbRegAppTableRecord
  2
ACAD_DSTYLE_DIMJAG
 70
     0
  0
APPID
  5
E0
330
9
100
AcDbSymbolTableRecord
100
AcDbRegAppTableRecord
  2
ACAD_DSTYLE_DIMTALN
 70
     0
    0
ENDTAB
    0
TABLE
    2
DIMSTYLE
    5
B
    330
0
    100
AcDbSymbolTable
    70
2
    100
AcDbDimStyleTable
    71
2
    0
DIMSTYLE
    105
210
    330
B
    100
AcDbSymbolTableRecord
    100
AcDbDimStyleTableRecord
    2
Standard
    70
0
    340
201
    0
DIMSTYLE
    105
211
    330
B
    100
AcDbSymbolTableRecord
    100
AcDbDimStyleTableRecord
    2
ISO-25
    70
0
    43
3.75
    42
0.625
    44
1.25
    41
2.5
    141
2.5
    140
2.5
    147
0.625
    77
1
    73
0
    74
0
    172
1
    271
2
    278
44
    78
8
    171
3
    143
0.0393700003623962
    272
2
    283
0
    284
8
    274
3
    340
201
    0
ENDTAB
    0
TABLE
    2
BLOCK_RECORD
    5
C
    100
AcDbSymbolTable
    0
BLOCK_RECORD
    5
21D
    100
AcDbSymbolTableRecord
    100
AcDbBlockTableRecord
    2
*MODEL_SPACE
    0
BLOCK_RECORD
    5
E
    100
AcDbSymbolTableRecord
    100
AcDbBlockTableRecord
    2
*PAPER_SPACE
    0
ENDTAB
    0
ENDSEC
    0
SECTION
    2
BLOCKS
    0
BLOCK
    5
21E
    330
21D
    100
AcDbEntity
    8
0
    100
AcDbBlockBegin
    2
*MODEL_SPACE
    70
0
    10
0
    20
0
    30
0
    3
*MODEL_SPACE
    1

    4

    0
ENDBLK
    5
21F
    100
AcDbEntity
    8
0
    100
AcDbBlockEnd
    0
BLOCK
    5
11
    330
E
    100
AcDbEntity
    8
0
    100
AcDbBlockBegin
    2
*PAPER_SPACE
    70
0
    10
0
    20
0
    30
0
    3
*PAPER_SPACE
    1

    4

    0
ENDBLK
    5
12
    100
AcDbEntity
    8
0
    100
AcDbBlockEnd
    0
ENDSEC
    0
SECTION
    2
ENTITIES
    0
TEXT
    5
220
    330
21D
    100
AcDbEntity
    8
0
    100
AcDbText
    10
127
    20
-35
    30
0
    11
127
    21
-35
    31
0
    40
2.5
    1
&ASSAY
    50
0
    41
1
    51
0
    7
SPDS.shx
    100
AcDbText
    73
0
    0
TEXT
    5
221
    330
21D
    100
AcDbEntity
    8
Коммуникации
    100
AcDbText
    10
112.000009549234
    20
-34.999978133982
    30
0
    11
112.000009549234
    21
-34.999978133982
    31
0
    40
2.5
    1
&BOREHOLE 30
    50
0
    41
1
    51
0
    7
SPDS.shx
    100
AcDbText
    73
0
    0
TEXT
    5
222
    330
21D
    100
AcDbEntity
    8
Коммуникации
    100
AcDbText
    10
69.4860938191414
    20
36.1273419407977
    30
0
    11
69.4860938191414
    21
36.1273419407977
    31
0
    40
2.5
    1
&TITLE Тип 1
    50
0
    41
1
    51
0
    100
AcDbText
    73
0
    0
LINE
    5
223
    330
21D
    100
AcDbEntity
    8
0
    100
AcDbLine
    10
9.54923380935141E-06
    20
2.18660180664187E-05
    30
0
    11
167.000009549234
    21
2.18660180664187E-05
    31
0
    0
LINE
    5
224
    330
21D
    100
AcDbEntity
    8
0
    100
AcDbLine
    10
15.0000095492338
    20
2.18660180664187E-05
    30
0
    11
15.0000095492338
    21
-34.999978133982
    31
0
    0
LINE
    5
225
    330
21D
    100
AcDbEntity
    8
0
    100
AcDbLine
    10
30.0000095492338
    20
2.18660180664187E-05
    30
0
    11
30.0000095492338
    21
-34.999978133982
    31
0
    0
LINE
    5
226
    330
21D
    100
AcDbEntity
    8
0
    100
AcDbLine
    10
50.0000095492338
    20
2.18660180664187E-05
    30
0
    11
50.0000095492338
    21
-34.999978133982
    31
0
    0
LINE
    5
227
    330
21D
    100
AcDbEntity
    8
0
    100
AcDbLine
    10
60.0000095492338
    20
2.18660180664187E-05
    30
0
    11
60.0000095492338
    21
-34.999978133982
    31
0
    0
LINE
    5
228
    330
21D
    100
AcDbEntity
    8
0
    100
AcDbLine
    10
112.000009549234
    20
2.18660180664187E-05
    30
0
    11
112.000009549234
    21
-34.999978133982
    31
0
    0
LINE
    5
229
    330
21D
    100
AcDbEntity
    8
0
    100
AcDbLine
    10
142.000009549234
    20
2.18660180664187E-05
    30
0
    11
142.000009549234
    21
-34.999978133982
    31
0
    0
LINE
    5
22A
    330
21D
    100
AcDbEntity
    8
0
    100
AcDbLine
    10
152.000009549234
    20
2.18660180664187E-05
    30
0
    11
152.000009549234
    21
-34.999978133982
    31
0
    0
LINE
    5
22B
    330
21D
    100
AcDbEntity
    8
0
    100
AcDbLine
    10
167.000009549234
    20
2.18660180664187E-05
    30
0
    11
167.000009549234
    21
-34.999978133982
    31
0
    0
LINE
    5
22C
    330
21D
    100
AcDbEntity
    8
0
    100
AcDbLine
    10
9.54923380935141E-06
    20
2.18660180664187E-05
    30
0
    11
9.54923380935141E-06
    21
-34.999978133982
    31
0
    0
LINE
    5
22D
    330
21D
    100
AcDbEntity
    8
0
    100
AcDbLine
    10
9.54923380935141E-06
    20
-34.999978133982
    30
0
    11
167.000009549234
    21
-34.999978133982
    31
0
    0
LINE
    5
22E
    330
21D
    100
AcDbEntity
    8
0
    100
AcDbLine
    10
30.0000095492338
    20
-19.9999781339819
    30
0
    11
50.0000095492338
    21
-19.9999781339819
    31
0
    0
LINE
    5
22F
    330
21D
    100
AcDbEntity
    8
0
    100
AcDbLine
    10
40.0000095492338
    20
-19.9999781339819
    30
0
    11
40.0000095492338
    21
-34.999978133982
    31
0
    0
LINE
    5
230
    330
21D
    100
AcDbEntity
    8
0
    100
AcDbLine
    10
152.000009549234
    20
-19.9999781339819
    30
0
    11
167.000009549234
    21
-19.9999781339819
    31
0
    0
TEXT
    5
231
    330
21D
    100
AcDbEntity
    8
0
    100
AcDbText
    10
4.00000954923381
    20
-33.999978133982
    30
0
    11
4.00000954923381
    21
-33.999978133982
    31
0
    40
2.5
    1
Номер инженер-
    50
90.0000025044782
    41
1
    51
0
    7
SPDS.shx
    100
AcDbText
    73
0
    0
TEXT
    5
232
    330
21D
    100
AcDbEntity
    8
0
    100
AcDbText
    10
9.00000954923378
    20
-33.999978133982
    30
0
    11
9.00000954923378
    21
-33.999978133982
    31
0
    40
2.5
    1
но-геологичес-
    50
90.0000025044782
    41
1
    51
0
    7
SPDS.shx
    100
AcDbText
    73
0
    0
TEXT
    5
233
    330
21D
    100
AcDbEntity
    8
0
    100
AcDbText
    10
14.0000095492338
    20
-33.999978133982
    30
0
    11
14.0000095492338
    21
-33.999978133982
    31
0
    40
2.5
    1
кого элемента
    50
90.0000025044782
    41
1
    51
0
    7
SPDS.shx
    100
AcDbText
    73
0
    0
TEXT
    5
234
    330
21D
    100
AcDbEntity
    8
0
    100
AcDbText
    10
22.0000095492338
    20
-33.999978133982
    30
0
    11
22.0000095492338
    21
-33.999978133982
    31
0
    40
2.5
    1
Геологический
    50
90.0000025044782
    41
1
    51
0
    7
SPDS.shx
    100
AcDbText
    73
0
    0
TEXT
    5
235
    330
21D
    100
AcDbEntity
    8
0
    100
AcDbText
    10
27.0000095492338
    20
-23.9999781339819
    30
0
    11
27.0000095492338
    21
-23.9999781339819
    31
0
    40
2.5
    1
индекс
    50
90.0000025044782
    41
1
    51
0
    7
SPDS.shx
    100
AcDbText
    73
0
    0
TEXT
    5
236
    330
21D
    100
AcDbEntity
    8
0
    100
AcDbText
    10
31.0000095492338
    20
-3.99997813398194
    30
0
    11
31.0000095492338
    21
-3.99997813398194
    31
0
    40
2.5
    1
Глубина
    50
0
    41
1
    51
0
    7
SPDS.shx
    100
AcDbText
    73
0
    0
TEXT
    5
237
    330
21D
    100
AcDbEntity
    8
0
    100
AcDbText
    10
33.0000095492338
    20
-8.99997813398204
    30
0
    11
33.0000095492338
    21
-8.99997813398204
    31
0
    40
2.5
    1
залега-
    50
0
    41
1
    51
0
    7
SPDS.shx
    100
AcDbText
    73
0
    0
TEXT
    5
238
    330
21D
    100
AcDbEntity
    8
0
    100
AcDbText
    10
31.0000095492338
    20
-13.999978133982
    30
0
    11
31.0000095492338
    21
-13.999978133982
    31
0
    40
2.5
    1
ния слоя,
    50
0
    41
1
    51
0
    7
SPDS.shx
    100
AcDbText
    73
0
    0
TEXT
    5
239
    330
21D
    100
AcDbEntity
    8
0
    100
AcDbText
    10
41.0000095492338
    20
-18.9999781339819
    30
0
    11
41.0000095492338
    21
-18.9999781339819
    31
0
    40
2.5
    1
м
    50
0
    41
1
    51
0
    7
SPDS.shx
    100
AcDbText
    73
0
    0
TEXT
    5
23A
    330
21D
    100
AcDbEntity
    8
0
    100
AcDbText
    10
33.0625095492338
    20
-29.999978133982
    30
0
    11
35.0000095492338
    21
-29.999978133982
    31
0
    40
2.5
    1
от
    50
0
    41
1
    51
0
    7
SPDS.shx
    72
1
    100
AcDbText
    73
0
    0
TEXT
    5
23B
    330
21D
    100
AcDbEntity
    8
0
    100
AcDbText
    10
43.3125095492338
    20
-29.999978133982
    30
0
    11
45.0000095492338
    21
-29.999978133982
    31
0
    40
2.5
    1
до
    50
0
    41
1
    51
0
    7
SPDS.shx
    72
1
    100
AcDbText
    73
0
    0
TEXT
    5
23C
    330
21D
    100
AcDbEntity
    8
0
    100
AcDbText
    10
54.0000098989249
    20
-25.499978133982
    30
0
    11
54.0000095492338
    21
-17.499978133982
    31
0
    40
2.5
    1
Мощность
    50
90.0000025044782
    41
1
    51
0
    7
SPDS.shx
    72
1
    100
AcDbText
    73
0
    0
TEXT
    5
23D
    330
21D
    100
AcDbEntity
    8
0
    100
AcDbText
    10
59.0000097896464
    20
-22.999978133982
    30
0
    11
59.0000095492338
    21
-17.499978133982
    31
0
    40
2.5
    1
слоя, м
    50
90.0000025044782
    41
1
    51
0
    7
SPDS.shx
    72
1
    100
AcDbText
    73
0
    0
TEXT
    5
23E
    330
21D
    100
AcDbEntity
    8
0
    100
AcDbText
    10
77.1125097399688
    20
-14.9999781339819
    30
0
    11
86.0000095492339
    21
-14.9999781339819
    31
0
    40
3
    1
Описание
    50
0
    41
1
    51
0
    7
SPDS.shx
    72
1
    100
AcDbText
    73
0
    0
TEXT
    5
23F
    330
21D
    100
AcDbEntity
    8
0
    100
AcDbText
    10
79.137509358499
    20
-24.9999781339819
    30
0
    11
86.0000095492339
    21
-24.9999781339819
    31
0
    40
3
    1
грунта
    50
0
    41
1
    51
0
    7
SPDS.shx
    72
1
    100
AcDbText
    73
0
    0
TEXT
    5
240
    330
21D
    100
AcDbEntity
    8
0
    100
AcDbText
    10
120.362509739969
    20
-9.99997813398194
    30
0
    11
127.000009549234
    21
-9.99997813398194
    31
0
    40
3
    1
Разрез
    50
0
    41
1
    51
0
    7
SPDS.shx
    72
1
    100
AcDbText
    73
0
    0
TEXT
    5
241
    330
21D
    100
AcDbEntity
    8
0
    100
AcDbText
    10
116.350009930704
    20
-17.999978133982
    30
0
    11
127.000009549234
    21
-17.999978133982
    31
0
    40
3
    1
выработки
    50
0
    41
1
    51
0
    7
SPDS.shx
    72
1
    100
AcDbText
    73
0
    0
TEXT
    5
242
    330
21D
    100
AcDbEntity
    8
0
    100
AcDbText
    10
120.437509549234
    20
-29.999978133982
    30
0
    11
127.000009549234
    21
-29.999978133982
    31
0
    40
2.5
    1
М  1 : 100
    50
0
    41
1
    51
0
    7
SPDS.shx
    72
1
    100
AcDbText
    73
0
    0
TEXT
    5
243
    330
21D
    100
AcDbEntity
    8
0
    100
AcDbText
    10
146.000010071039
    20
-29.437478133982
    30
0
    11
146.000009549234
    21
-17.499978133982
    31
0
    40
2.5
    1
Группа грунта
    50
90.0000025044782
    41
1
    51
0
    7
SPDS.shx
    72
1
    100
AcDbText
    73
0
    0
TEXT
    5
244
    330
21D
    100
AcDbEntity
    8
0
    100
AcDbText
    10
151.000010069673
    20
-29.406228133982
    30
0
    11
151.000009549234
    21
-17.499978133982
    31
0
    40
2.5
    1
по разработке
    50
90.0000025044782
    41
1
    51
0
    7
SPDS.shx
    72
1
    100
AcDbText
    73
0
    0
TEXT
    5
245
    330
21D
    100
AcDbEntity
    8
0
    100
AcDbText
    10
153.000009549234
    20
-3.99997813398194
    30
0
    11
153.000009549234
    21
-3.99997813398194
    31
0
    40
2.5
    1
Глуби-
    50
0
    41
1
    51
0
    7
SPDS.shx
    100
AcDbText
    73
0
    0
TEXT
    5
246
    330
21D
    100
AcDbEntity
    8
0
    100
AcDbText
    10
153.000009549234
    20
-8.99997813398204
    30
0
    11
153.000009549234
    21
-8.99997813398204
    31
0
    40
2.29999995231628
    1
на
    50
0
    41
1
    51
0
    7
SPDS.shx
    100
AcDbText
    73
0
    0
TEXT
    5
247
    330
21D
    100
AcDbEntity
    8
0
    100
AcDbText
    10
158.000009549234
    20
-8.99997813398204
    30
0
    11
158.000009549234
    21
-8.99997813398204
    31
0
    40
2.29999995231628
    1
под-
    50
0
    41
1
    51
0
    7
SPDS.shx
    100
AcDbText
    73
0
    0
TEXT
    5
248
    330
21D
    100
AcDbEntity
    8
0
    100
AcDbText
    10
153.000009549234
    20
-13.999978133982
    30
0
    11
153.000009549234
    21
-13.999978133982
    31
0
    40
2.5
    1
земных
    50
0
    41
1
    51
0
    7
SPDS.shx
    100
AcDbText
    73
0
    0
TEXT
    5
249
    330
21D
    100
AcDbEntity
    8
0
    100
AcDbText
    10
157.000009549234
    20
-18.9999781339819
    30
0
    11
157.000009549234
    21
-18.9999781339819
    31
0
    40
2.5
    1
вод
    50
0
    41
1
    51
0
    7
SPDS.shx
    100
AcDbText
    73
0
    0
TEXT
    5
24A
    330
21D
    100
AcDbEntity
    8
0
    100
AcDbText
    10
155.000009549234
    20
-25.999978133982
    30
0
    11
155.000009549234
    21
-25.999978133982
    31
0
    40
2.5
    1
Дата
    50
0
    41
1
    51
0
    7
SPDS.shx
    100
AcDbText
    73
0
    0
TEXT
    5
24B
    330
21D
    100
AcDbEntity
    8
0
    100
AcDbText
    10
153.000009549234
    20
-30.999978133982
    30
0
    11
153.000009549234
    21
-30.999978133982
    31
0
    40
2.5
    1
замера
    50
0
    41
1
    51
0
    7
SPDS.shx
    100
AcDbText
    73
0
    0
TEXT
    5
24C
    330
21D
    100
AcDbEntity
    8
Коммуникации
    100
AcDbText
    10
86
    20
-37.499978133982
    30
0
    11
86
    21
-34.999978133982
    31
0
    40
2.5
    1
&DESCRIPTION_GROUND 52 0 1
    50
0
    41
1
    51
0
    7
SPDS.shx
    100
AcDbText
    73
3
    0
TEXT
    5
24D
    330
21D
    100
AcDbEntity
    8
Коммуникации
    100
AcDbText
    10
15.40625
    20
-37.499978133982
    30
0
    11
22.5
    21
-34.999978133982
    31
0
    40
2.5
    1
&G 15 0 0
    50
0
    41
1
    51
0
    7
SPDS.shx
    72
1
    100
AcDbText
    73
3
    0
TEXT
    5
24E
    330
21D
    100
AcDbEntity
    8
Коммуникации
    100
AcDbText
    10
-4.1875
    20
-37.499978133982
    30
0
    11
7.5
    21
-34.999978133982
    31
0
    40
2.5
    1
&NUMIGE 15 0 0
    50
0
    41
1
    51
0
    7
SPDS.shx
    72
1
    100
AcDbText
    73
3
    0
TEXT
    5
24F
    330
21D
    100
AcDbEntity
    8
Коммуникации
    100
AcDbText
    10
26.46875
    20
-37.499978133982
    30
0
    11
35
    21
-34.999978133982
    31
0
    40
2.5
    1
&D 10 0 0 0
    50
0
    41
1
    51
0
    7
SPDS.shx
    72
1
    100
AcDbText
    73
3
    0
TEXT
    5
250
    330
21D
    100
AcDbEntity
    8
Коммуникации
    100
AcDbText
    10
36.71875
    20
-37.499978133982
    30
0
    11
45
    21
-34.999978133982
    31
0
    40
2.5
    1
&D 10 0 0 1
    50
0
    41
1
    51
0
    7
SPDS.shx
    72
1
    100
AcDbText
    73
3
    0
TEXT
    5
251
    330
21D
    100
AcDbEntity
    8
Коммуникации
    100
AcDbText
    10
36.65625
    20
-37.499978133982
    30
0
    11
55
    21
-34.999978133982
    31
0
    40
2.5
    1
&LAYER_HEIGHT 10 0 0
    50
0
    41
1
    51
0
    7
SPDS.shx
    72
1
    100
AcDbText
    73
3
    0
TEXT
    5
252
    330
21D
    100
AcDbEntity
    8
Коммуникации
    100
AcDbText
    10
9.54923380935835E-06
    20
-34.999978133982
    30
0
    11
9.54923380935835E-06
    21
-34.999978133982
    31
0
    40
2.5
    1
&L 0
    50
0
    41
1
    51
0
    7
SPDS.shx
    100
AcDbText
    73
0
    0
TEXT
    5
253
    330
21D
    100
AcDbEntity
    8
Коммуникации
    100
AcDbText
    10
15.0000095492338
    20
-34.999978133982
    30
0
    11
15.0000095492338
    21
-34.999978133982
    31
0
    40
2.5
    1
&L 0
    50
0
    41
1
    51
0
    7
SPDS.shx
    100
AcDbText
    73
0
    0
TEXT
    5
254
    330
21D
    100
AcDbEntity
    8
Коммуникации
    100
AcDbText
    10
30.0000095492338
    20
-34.999978133982
    30
0
    11
30.0000095492338
    21
-34.999978133982
    31
0
    40
2.5
    1
&L 0
    50
0
    41
1
    51
0
    7
SPDS.shx
    100
AcDbText
    73
0
    0
TEXT
    5
255
    330
21D
    100
AcDbEntity
    8
Коммуникации
    100
AcDbText
    10
40.0000095492338
    20
-34.999978133982
    30
0
    11
40.0000095492338
    21
-34.999978133982
    31
0
    40
2.5
    1
&L 0
    50
0
    41
1
    51
0
    7
SPDS.shx
    100
AcDbText
    73
0
    0
TEXT
    5
256
    330
21D
    100
AcDbEntity
    8
Коммуникации
    100
AcDbText
    10
50.0000095492338
    20
-34.999978133982
    30
0
    11
50.0000095492338
    21
-34.999978133982
    31
0
    40
2.5
    1
&L 0
    50
0
    41
1
    51
0
    7
SPDS.shx
    100
AcDbText
    73
0
    0
TEXT
    5
257
    330
21D
    100
AcDbEntity
    8
Коммуникации
    100
AcDbText
    10
60.0000095492338
    20
-34.999978133982
    30
0
    11
60.0000095492338
    21
-34.999978133982
    31
0
    40
2.5
    1
&L 0
    50
0
    41
1
    51
0
    7
SPDS.shx
    100
AcDbText
    73
0
    0
TEXT
    5
258
    330
21D
    100
AcDbEntity
    8
Коммуникации
    100
AcDbText
    10
152.000009549234
    20
-34.999978133982
    30
0
    11
152.000009549234
    21
-34.999978133982
    31
0
    40
2.5
    1
&L 1
    50
0
    41
1
    51
0
    7
SPDS.shx
    100
AcDbText
    73
0
    0
TEXT
    5
259
    330
21D
    100
AcDbEntity
    8
Коммуникации
    100
AcDbText
    10
167.000009549234
    20
-34.999978133982
    30
0
    11
167.000009549234
    21
-34.999978133982
    31
0
    40
2.5
    1
&L 1
    50
0
    41
1
    51
0
    7
SPDS.shx
    100
AcDbText
    73
0
    0
TEXT
    5
25A
    330
21D
    100
AcDbEntity
    8
Коммуникации
    100
AcDbText
    10
142.000009549234
    20
-34.999978133982
    30
0
    11
142.000009549234
    21
-34.999978133982
    31
0
    40
2.5
    1
&R 1 5 0.2
    50
0
    41
1
    51
0
    7
SPDS.shx
    100
AcDbText
    73
0
    0
TEXT
    5
25B
    330
21D
    100
AcDbEntity
    8
Коммуникации
    100
AcDbText
    10
112.000009549234
    20
-34.999978133982
    30
0
    11
112.000009549234
    21
-34.999978133982
    31
0
    40
2.5
    1
&L 1
    50
0
    41
1
    51
0
    7
SPDS.shx
    100
AcDbText
    73
0
    0
TEXT
    5
25C
    330
21D
    100
AcDbEntity
    8
Коммуникации
    100
AcDbText
    10
128.77499961853
    20
-36.999978133982
    30
0
    11
147
    21
-34.999978133982
    31
0
    40
2
    1
&EXCAVATION_GROUP 10 1 2
    50
0
    41
1
    51
0
    7
SPDS.shx
    72
1
    100
AcDbText
    73
3
    0
TEXT
    5
25D
    330
21D
    100
AcDbEntity
    8
0
    100
AcDbText
    10
3.00000954923381
    20
2.00002186601807
    30
0
    11
3.00000954923381
    21
2.00002186601807
    31
0
    40
2.5
    1
Абс. отметка устья, м:
    50
0
    41
1
    51
0
    7
SPDS.shx
    100
AcDbText
    73
0
    0
TEXT
    5
25E
    330
21D
    100
AcDbEntity
    8
0
    100
AcDbText
    10
83.0000095492338
    20
2.00002186601807
    30
0
    11
83.0000095492338
    21
2.00002186601807
    31
0
    40
2.5
    1
Дата бурения: 
    50
0
    41
1
    51
0
    7
SPDS.shx
    100
AcDbText
    73
0
    0
TEXT
    5
25F
    330
21D
    100
AcDbEntity
    8
0
    100
AcDbText
    10
3.00000954923381
    20
10.0000218660181
    30
0
    11
3.00000954923381
    21
10.0000218660181
    31
0
    40
2.5
    1
&DESCRIPTION
    50
0
    41
1
    51
0
    7
SPDS.shx
    100
AcDbText
    73
0
    0
TEXT
    5
260
    330
21D
    100
AcDbEntity
    8
0
    100
AcDbText
    10
32
    20
18
    30
0
    11
32
    21
18
    31
0
    40
2.5
    1
&BORING_TITLE %Offset%       %Offset% %Offset%
    50
0
    41
1
    51
0
    7
SPDS.shx
    100
AcDbText
    73
0
    0
TEXT
    5
261
    330
21D
    100
AcDbEntity
    8
0
    100
AcDbText
    10
25.5000095492338
    20
26.0000218660181
    30
0
    11
83.0000095492338
    21
26.0000218660181
    31
0
    40
4
    1
&BORING_TITLE "\U+2116 %Number% (пк %Piket%)"
    50
0
    41
1
    51
0
    7
SPDS.shx
    72
1
    100
AcDbText
    73
0
    0
TEXT
    5
262
    330
21D
    100
AcDbEntity
    8
0
    100
AcDbText
    10
3.00000954923381
    20
18.0000218660182
    30
0
    11
3.00000954923381
    21
18.0000218660182
    31
0
    40
2.5
    1
Смещение от оси:
    50
0
    41
1
    51
0
    7
SPDS.shx
    100
AcDbText
    73
0
    0
TEXT
    5
263
    330
21D
    100
AcDbEntity
    8
0
    100
AcDbText
    10
41
    20
1.99999999999996
    30
0
    11
41
    21
1.99999999999996
    31
0
    40
2.5
    1
&HEADER_E
    50
0
    41
1
    51
0
    7
SPDS.shx
    100
AcDbText
    73
0
    0
TEXT
    5
264
    330
21D
    100
AcDbEntity
    8
0
    100
AcDbText
    10
107
    20
1.99999999999996
    30
0
    11
107
    21
1.99999999999996
    31
0
    40
2.5
    1
&BORING_DATE 0
    50
0
    41
1
    51
0
    7
SPDS.shx
    100
AcDbText
    73
0
    0
TEXT
    5
265
    330
21D
    100
AcDbEntity
    8
Коммуникации
    100
AcDbText
    10
153
    20
-37
    30
0
    11
159.5
    21
-35
    31
0
    40
2
    1
&WL 15 1 2
    50
0
    41
1
    51
0
    7
SPDS.shx
    72
1
    100
AcDbText
    73
3
    0
TEXT
    5
266
    330
21D
    100
AcDbEntity
    8
Коммуникации
    100
AcDbText
    10
142.000009549234
    20
-34.999978133982
    30
0
    11
142.000009549234
    21
-34.999978133982
    31
0
    40
2.5
    1
&L 1
    50
0
    41
1
    51
0
    7
SPDS.shx
    100
AcDbText
    73
0
    0
TEXT
    5
267
    330
21D
    100
AcDbEntity
    8
0
    100
AcDbText
    10
185
    20
-35
    30
0
    11
185
    21
-35
    31
0
    40
2
    1
&SOUNDING
    50
0
    41
1
    51
0
    7
SPDS.shx
    100
AcDbText
    73
0
    0
TEXT
    5
268
    330
21D
    100
AcDbEntity
    8
0
    100
AcDbText
    10
0
    20
0
    30
0
    11
0
    21
0
    31
0
    40
2.5
    1
&TEXT_HEIGHT_SCALE 1
    50
0
    41
1
    51
0
    100
AcDbText
    73
0
    0
ENDSEC
    0
SECTION
    2
OBJECTS
    0
DICTIONARY
    5
13
    330
0
    100
AcDbDictionary
    281
1
    3
ACAD_GROUP
    350
14
    3
ACAD_MLINESTYLE
    350
16
    3
ACAD_PLOTSETTINGS
    350
17
    3
ACAD_IMAGE_DICT
    350
14D
    3
ACAD_IMAGE_VARS
    350
14E
    3
ACAD_WIPEOUT_VARS
    350
E7
    3
ACAD_PLOTSTYLENAME
    350
18
    3
ACAD_LAYOUT
    350
20D
    0
DICTIONARY
    5
14
    330
13
    100
AcDbDictionary
    281
1
    0
DICTIONARY
    5
17
    102
{ACAD_REACTORS
    330
13
    102
}
    330
13
    100
AcDbDictionary
    281
1
    0
ACDBDICTIONARYWDFLT
    5
18
    102
{ACAD_REACTORS
    330
13
    102
}
    330
13
    100
AcDbDictionary
    281
1
    3
Normal
    350
19
    100
AcDbDictionaryWithDefault
    340
19
    0
ACDBPLACEHOLDER
    5
19
    102
{ACAD_REACTORS
    330
18
    102
}
    330
18
    0
DICTIONARY
    5
7E
    102
{ACAD_REACTORS
    330
C
    102
}
    330
C
    100
AcDbDictionary
    281
1
    3
Standard
    350
7F
    0
WIPEOUTVARIABLES
    5
E7
    102
{ACAD_REACTORS
    330
C
    102
}
    330
C
    100
AcDbWipeoutVariables
    70
0
    0
DICTIONARY
    5
1B
    330
1A
    100
AcDbDictionary
    280
1
    281
1
    3
ACLYDICTIONARY
    360
215
    3
ACAD_LAYERSTATES
    360
213
    0
DICTIONARY
    5
213
    102
{ACAD_REACTORS
    330
1B
    102
}
    330
1B
    100
AcDbDictionary
    281
1
    0
DICTIONARY
    5
215
    102
{ACAD_REACTORS
    330
1B
    102
}
    330
1B
    100
AcDbDictionary
    281
1
    3
*A1
    350
217
    3
*A2
    350
21A
    0
XRECORD
    5
217
    102
{ACAD_REACTORS
    330
215
    102
}
    330
215
    100
AcDbXrecord
    280
1
    1
AcLyLayerFilter
    90
1
    300
Все используемые слои
    301
USED=="TRUE" AND VPOVERRIDES=="FALSE"
    0
XRECORD
    5
21A
    102
{ACAD_REACTORS
    330
215
    102
}
    330
215
    100
AcDbXrecord
    280
1
    1
AcLyLayerFilter
    90
1
    300
Все видимые слои
    301
OFF=="FALSE"
    0
DICTIONARY
    5
20D
    102
{ACAD_REACTORS
    330
C
    102
}
    330
C
    100
AcDbDictionary
    281
1
    3
Model
    350
20E
    0
LAYOUT
    5
20E
    100
AcDbPlotSettings
    1

    2
none_device
    4

    6

    40
0
    41
0
    42
0
    43
0
    44
297
    45
210
    46
0
    47
0
    48
0
    49
0
    140
0
    141
0
    142
1
    143
1
    70
4784
    72
1
    73
0
    74
5
    7

    75
0
    147
1
    148
0
    149
0
    100
AcDbLayout
    1
Model
    70
1
    71
0
    330
21D
    0
DICTIONARY
    5
E6
    330
10
    100
AcDbDictionary
    280
1
    281
1
    3
ADSK_XREC_LAYER_RECONCILED
    360
155
    0
DICTIONARY
    5
16
    102
{ACAD_REACTORS
    330
C
    102
}
    330
C
    100
AcDbDictionary
    281
1
    3
Standard
    350
20B
    0
MLINESTYLE
    5
20B
    102
{ACAD_REACTORS
    330
16
    102
}
    330
16
    100
AcDbMlineStyle
    2
Standard
    70
0
    3

    62
256
    51
90.0000025044782
    52
90.0000025044782
    71
2
    49
0.5
    62
256
    6
Continuous
    49
256
    62
256
    6
Continuous
    0
DICTIONARY
    5
14D
    102
{ACAD_REACTORS
    330
C
    102
}
    330
C
    100
AcDbDictionary
    281
1
    0
RASTERVARIABLES
    5
14E
    102
{ACAD_REACTORS
    330
C
    102
}
    330
C
    100
AcDbRasterVariables
    90
0
    70
1
    71
1
    72
5
    0
XRECORD
    5
155
    102
{ACAD_REACTORS
    330
E6
    102
}
    330
E6
    100
AcDbXrecord
    280
1
    290
1
    0
ENDSEC
    0
EOF
