    0
SECTION
    2
HEADER
    9
$ACADVER
    1
AC1015
    9
$DWGCODEPAGE
    3
ANSI_1251
    9
$HANDSEED
    5
26B
    9
$TILEMODE
    70
1
    9
$CECOLOR
    62
256
    9
$CELTSCALE
    40
1
    9
$CELTYPE
    6
ByLayer
    9
$CELWEIGHT
    370
-1
    9
$CLAYER
    8
0
    9
$CMLSTYLE
    2
Standard
    9
$DIMSTYLE
    2
ISO-25
    9
$INSBASE
    10
0
    20
0
    30
0
    9
$PDMODE
    70
0
    9
$PDSIZE
    40
0
    9
$TEXTSTYLE
    7
Standard
    9
$LWDISPLAY
    290
1
    9
$LTSCALE
    40
1
    9
$PSLTSCALE
    70
0
    9
$LIMMIN
    10
5
    20
4.99999824310083
    9
$LIMMAX
    10
125
    20
142.5
    9
$MEASUREMENT
    70
1
    0
ENDSEC
    0
SECTION
    2
CLASSES
    0
CLASS
    1
RASTERVARIABLES
    2
AcDbRasterVariables
    3
ISM
    90
0
    280
0
    281
0
    0
CLASS
    1
IMAGEDEF
    2
AcDbRasterImageDef
    3
ISM
    90
0
    280
0
    281
0
    0
CLASS
    1
IMAGEDEF_REACTOR
    2
AcDbRasterImageDefReactor
    3
ISM
    90
1
    280
0
    281
0
    0
CLASS
    1
IMAGE
    2
AcDbRasterImage
    3
ISM
    90
2175
    280
0
    281
1
    0
CLASS
    1
WIPEOUT
    2
AcDbWipeout
    3
"WipeOut|Product Desc: Object Enabler for WipeOut entity^I^I^I^I^I^I|Company: Autodesk, Inc.^I^I^I^I^I^I|WEB Address: www.autodesk.com"
    90
2175
    280
0
    281
1
    0
CLASS
    1
WIPEOUTVARIABLES
    2
AcDbWipeoutVariables
    3
"WipeOut|Product Desc:     WipeOut Dbx Application|Company:          Autodesk, Inc.|WEB Address:      www.autodesk.com"
    90
0
    280
0
    281
0
    0
CLASS
    1
ARC_DIMENSION
    2
AcDbArcDimension
    3
ObjectDBX Classes
    90
1025
    280
0
    281
1
    0
CLASS
    1
LARGE_RADIAL_DIMENSION
    2
AcDbRadialDimensionLarge
    3
ObjectDBX Classes
    90
1025
    280
0
    281
1
    0
CLASS
    1
LAYOUT
    2
AcDbLayout
    3
ObjectDBX Classes
    90
0
    280
0
    281
0
    0
ENDSEC
    0
SECTION
    2
TABLES
    0
TABLE
    2
VPORT
    5
1
    100
AcDbSymbolTable
    0
ENDTAB
    0
TABLE
    2
LTYPE
    5
2
    100
AcDbSymbolTable
    0
LTYPE
    5
204
    100
AcDbSymbolTableRecord
    100
AcDbLinetypeTableRecord
    2
ByLayer
    3
По слою
    70
0
    72
65
    73
0
    40
0
    0
LTYPE
    5
205
    100
AcDbSymbolTableRecord
    100
AcDbLinetypeTableRecord
    2
ByBlock
    3
По блоку
    70
0
    72
65
    73
0
    40
0
    0
LTYPE
    5
206
    100
AcDbSymbolTableRecord
    100
AcDbLinetypeTableRecord
    2
Continuous
    3
Сплошная
    70
0
    72
65
    73
0
    40
0
    0
ENDTAB
    0
TABLE
    2
LAYER
    5
1A
    102
{ACAD_XDICTIONARY
    360
1B
    102
}
    330
0
    100
AcDbSymbolTable
    0
LAYER
    5
10
    100
AcDbSymbolTableRecord
    100
AcDbLayerTableRecord
    2
0
    70
0
    62
7
    6
Continuous
    370
-3
    390
19
    0
LAYER
    5
209
    100
AcDbSymbolTableRecord
    100
AcDbLayerTableRecord
    2
Коммуникации
    70
0
    62
7
    6
Continuous
    370
-3
    390
19
    0
LAYER
    5
20A
    100
AcDbSymbolTableRecord
    100
AcDbLayerTableRecord
    2
Таблица
    70
0
    62
7
    6
Continuous
    370
-3
    390
19
    0
LAYER
    5
20B
    100
AcDbSymbolTableRecord
    100
AcDbLayerTableRecord
    2
Красный профиль
    70
0
    62
1
    6
Continuous
    370
30
    390
19
    0
LAYER
    5
20C
    100
AcDbSymbolTableRecord
    100
AcDbLayerTableRecord
    2
Черный профиль
    70
0
    62
3
    6
Continuous
    370
-3
    390
19
    0
LAYER
    5
20D
    100
AcDbSymbolTableRecord
    100
AcDbLayerTableRecord
    2
Пикеты
    70
0
    62
7
    6
Continuous
    370
-3
    390
19
    0
LAYER
    5
20E
    100
AcDbSymbolTableRecord
    100
AcDbLayerTableRecord
    2
Красные отметки
    70
0
    62
1
    6
Continuous
    370
-3
    390
19
    0
LAYER
    5
20F
    100
AcDbSymbolTableRecord
    100
AcDbLayerTableRecord
    2
Черные отметки
    70
0
    62
3
    6
Continuous
    370
-3
    390
19
    0
LAYER
    5
210
    100
AcDbSymbolTableRecord
    100
AcDbLayerTableRecord
    2
Километры
    70
0
    62
7
    6
Continuous
    370
-3
    390
19
    0
LAYER
    5
211
    100
AcDbSymbolTableRecord
    100
AcDbLayerTableRecord
    2
Рабочие отметки
    70
0
    62
7
    6
Continuous
    370
-3
    390
19
    0
LAYER
    5
212
    100
AcDbSymbolTableRecord
    100
AcDbLayerTableRecord
    2
Таблица отметок
    70
0
    62
7
    6
Continuous
    370
-3
    390
19
    0
LAYER
    5
213
    100
AcDbSymbolTableRecord
    100
AcDbLayerTableRecord
    2
Ссылочные профили
    70
0
    62
144
    6
Continuous
    370
-3
    390
19
    0
ENDTAB
    0
TABLE
    2
STYLE
    5
5
    100
AcDbSymbolTable
    0
STYLE
    5
201
    100
AcDbSymbolTableRecord
    100
AcDbTextStyleTableRecord
    2
Standard
    70
0
    40
0
    41
1
    50
0
    71
0
    42
5.22032260894775
    3
txt
    4

    0
STYLE
    5
202
    100
AcDbSymbolTableRecord
    100
AcDbTextStyleTableRecord
    2
ANNOTATIVE
    70
0
    40
0
    41
1
    50
0
    71
0
    42
0.200000002980232
    3
txt
    4

    0
ENDTAB
    0
TABLE
    2
VIEW
    5
7
    100
AcDbSymbolTable
    0
ENDTAB
    0
TABLE
    2
UCS
    5
8
    100
AcDbSymbolTable
    0
ENDTAB
    0
TABLE
    2
APPID
    2
9
    100
AcDbSymbolTable
    0
APPID
    5
A
    100
AcDbSymbolTableRecord
    100
AcDbRegAppTableRecord
    2
ACAD
    70
0
    0
APPID
    5
108
    330
9
    100
AcDbSymbolTableRecord
    100
AcDbRegAppTableRecord
    2
AcAecLayerStandard
    70
0
    0
APPID
    5
107
    330
9
    100
AcDbSymbolTableRecord
    100
AcDbRegAppTableRecord
    2
ACAD_MLEADERVER
    70
0
  0
APPID
  5
DF
330
9
100
AcDbSymbolTableRecord
100
AcDbRegAppTableRecord
  2
ACAD_DSTYLE_DIMJAG
 70
     0
  0
APPID
  5
E0
330
9
100
AcDbSymbolTableRecord
100
AcDbRegAppTableRecord
  2
ACAD_DSTYLE_DIMTALN
 70
     0
    0
ENDTAB
    0
TABLE
    2
DIMSTYLE
    5
B
    330
0
    100
AcDbSymbolTable
    70
2
    100
AcDbDimStyleTable
    71
2
    0
DIMSTYLE
    105
21A
    330
B
    100
AcDbSymbolTableRecord
    100
AcDbDimStyleTableRecord
    2
Standard
    70
0
    340
201
    0
DIMSTYLE
    105
21B
    330
B
    100
AcDbSymbolTableRecord
    100
AcDbDimStyleTableRecord
    2
ISO-25
    70
0
    43
3.75
    42
0.625
    44
1.25
    41
2.5
    141
2.5
    140
2.5
    147
0.625
    77
1
    73
0
    74
0
    172
1
    271
2
    278
44
    78
8
    171
3
    143
0.0393700003623962
    272
2
    283
0
    284
8
    274
3
    340
201
    0
ENDTAB
    0
TABLE
    2
BLOCK_RECORD
    5
C
    100
AcDbSymbolTable
    0
BLOCK_RECORD
    5
227
    100
AcDbSymbolTableRecord
    100
AcDbBlockTableRecord
    2
*MODEL_SPACE
    0
BLOCK_RECORD
    5
E
    100
AcDbSymbolTableRecord
    100
AcDbBlockTableRecord
    2
*PAPER_SPACE
    0
ENDTAB
    0
ENDSEC
    0
SECTION
    2
BLOCKS
    0
BLOCK
    5
228
    330
227
    100
AcDbEntity
    8
0
    100
AcDbBlockBegin
    2
*MODEL_SPACE
    70
0
    10
0
    20
0
    30
0
    3
*MODEL_SPACE
    1

    4

    0
ENDBLK
    5
229
    100
AcDbEntity
    8
0
    100
AcDbBlockEnd
    0
BLOCK
    5
11
    330
E
    100
AcDbEntity
    8
0
    100
AcDbBlockBegin
    2
*PAPER_SPACE
    70
0
    10
0
    20
0
    30
0
    3
*PAPER_SPACE
    1

    4

    0
ENDBLK
    5
12
    100
AcDbEntity
    8
0
    100
AcDbBlockEnd
    0
ENDSEC
    0
SECTION
    2
ENTITIES
    0
TEXT
    5
22A
    330
227
    100
AcDbEntity
    8
0
    100
AcDbText
    10
8
    20
140
    30
0
    11
8
    21
140
    31
0
    40
2.5
    1
&Title Профиль по водоотводу (по бровке)
    50
0
    41
0.800000011920929
    51
0
    100
AcDbText
    73
0
    0
LINE
    5
22B
    330
227
    100
AcDbEntity
    8
0
    100
AcDbLine
    10
5
    20
5
    30
0
    11
5
    21
115
    31
0
    0
LINE
    5
22C
    330
227
    100
AcDbEntity
    8
0
    100
AcDbLine
    10
80
    20
115
    30
0
    11
80
    21
5
    31
0
    0
LINE
    5
22D
    330
227
    100
AcDbEntity
    8
0
    100
AcDbLine
    10
15
    20
90
    30
0
    11
15
    21
25
    31
0
    0
LINE
    5
22E
    330
227
    100
AcDbEntity
    8
0
    100
AcDbLine
    10
5
    20
50
    30
0
    11
80
    21
50
    31
0
    0
LINE
    5
22F
    330
227
    100
AcDbEntity
    8
0
    100
AcDbLine
    10
80
    20
5
    30
0
    11
5
    21
5
    31
0
    0
LINE
    5
230
    330
227
    100
AcDbEntity
    8
0
    100
AcDbLine
    10
80
    20
34.9999985463896
    30
0
    11
15
    21
35
    31
0
    0
LINE
    5
231
    330
227
    100
AcDbEntity
    8
0
    100
AcDbLine
    10
5
    20
90
    30
0
    11
80
    21
90
    31
0
    0
LINE
    5
232
    330
227
    100
AcDbEntity
    8
0
    100
AcDbLine
    10
80
    20
75
    30
0
    11
15
    21
75
    31
0
    0
LINE
    5
233
    330
227
    100
AcDbEntity
    8
0
    100
AcDbLine
    10
80
    20
95
    30
0
    11
5
    21
95
    31
0
    0
LINE
    5
234
    330
227
    100
AcDbEntity
    8
0
    100
AcDbLine
    10
15
    20
60
    30
0
    11
80
    21
50
    31
0
    0
TEXT
    5
235
    330
227
    100
AcDbEntity
    8
0
    100
AcDbText
    10
8
    20
130
    30
0
    11
8
    21
130
    31
0
    40
2
    1
&SH 5000
    50
0
    41
1
    51
0
    100
AcDbText
    73
0
    0
TEXT
    5
236
    330
227
    100
AcDbEntity
    8
0
    100
AcDbText
    10
8
    20
125
    30
0
    11
8
    21
125
    31
0
    40
2
    1
&SV 200
    50
0
    41
1
    51
0
    100
AcDbText
    73
0
    0
TEXT
    5
237
    330
227
    100
AcDbEntity
    8
0
    100
AcDbText
    10
56.924642218502
    20
81.384663128172
    30
0
    11
56.924642218502
    21
81.384663128172
    31
0
    40
2
    1
дна
    50
0
    41
1
    51
0
    100
AcDbText
    73
0
    0
TEXT
    5
238
    330
227
    100
AcDbEntity
    8
0
    100
AcDbText
    10
90.0000006702413
    20
89.6666669845581
    30
0
    11
90
    21
105
    31
0
    40
2
    1
&DRAINAGE_SCHEME
    50
90.0000025044782
    41
1
    51
0
    72
1
    100
AcDbText
    73
1
    0
TEXT
    5
239
    330
227
    100
AcDbEntity
    8
0
    100
AcDbText
    10
23
    20
10
    30
0
    11
23
    21
10
    31
0
    40
2
    1
Указатель километров
    50
0
    41
1
    51
0
    100
AcDbText
    73
0
    0
TEXT
    5
23A
    330
227
    100
AcDbEntity
    8
0
    100
AcDbText
    10
37
    20
17.5
    30
0
    11
37
    21
17.5
    31
0
    40
2
    1
Пикет
    50
0
    41
1
    51
0
    100
AcDbText
    73
0
    0
TEXT
    5
23B
    330
227
    100
AcDbEntity
    8
0
    100
AcDbText
    10
32
    20
29
    30
0
    11
32
    21
29
    31
0
    40
2
    1
Расстояние, М
    50
0
    41
1
    51
0
    100
AcDbText
    73
0
    0
TEXT
    5
23C
    330
227
    100
AcDbEntity
    8
0
    100
AcDbText
    10
28
    20
41
    30
0
    11
28
    21
41
    31
0
    40
2
    1
Отметка земли, М
    50
0
    41
1
    51
0
    100
AcDbText
    73
0
    0
TEXT
    5
23D
    330
227
    100
AcDbEntity
    8
0
    100
AcDbText
    10
20
    20
52
    30
0
    11
20
    21
52
    31
0
    40
2
    1
Длина, М
    50
0
    41
1
    51
0
    100
AcDbText
    73
0
    0
TEXT
    5
23E
    330
227
    100
AcDbEntity
    8
0
    100
AcDbText
    10
60
    20
56
    30
0
    11
60
    21
56
    31
0
    40
2
    1
Уклон, %%%.
    50
0
    41
1
    51
0
    100
AcDbText
    73
0
    0
TEXT
    5
23F
    330
227
    100
AcDbEntity
    8
0
    100
AcDbText
    10
20
    20
85
    30
0
    11
20
    21
85
    31
0
    40
2
    1
Тип
    50
0
    41
1
    51
0
    100
AcDbText
    73
0
    0
TEXT
    5
240
    330
227
    100
AcDbEntity
    8
0
    100
AcDbText
    10
23.4659683196855
    20
76.6045721601633
    30
0
    11
23.4659683196855
    21
76.6045721601633
    31
0
    40
2
    1
Ширина канавы по дну, м
    50
0
    41
1
    51
0
    100
AcDbText
    73
0
    0
TEXT
    5
241
    330
227
    100
AcDbEntity
    8
0
    100
AcDbText
    10
20
    20
91
    30
0
    11
20
    21
91
    31
0
    40
2
    1
Грунт
    50
0
    41
1
    51
0
    100
AcDbText
    73
0
    0
TEXT
    5
242
    330
227
    100
AcDbEntity
    8
0
    100
AcDbText
    10
56.7821477464918
    20
86.3105106697031
    30
0
    11
56.7821477464918
    21
86.3105106697031
    31
0
    40
2
    1
откоса
    50
0
    41
1
    51
0
    100
AcDbText
    73
0
    0
TEXT
    5
243
    330
227
    100
AcDbEntity
    8
0
    100
AcDbText
    10
20
    20
82.3182114836886
    30
0
    11
20
    21
82.3182114836886
    31
0
    40
2
    1
укрепления
    50
0
    41
1
    51
0
    100
AcDbText
    73
0
    0
TEXT
    5
244
    330
227
    100
AcDbEntity
    8
0
    100
AcDbText
    10
25.667664367209
    20
66.2903530791405
    30
0
    11
25.667664367209
    21
66.2903530791405
    31
0
    40
2
    1
Отметка дна канавы, м
    50
0
    41
1
    51
0
    100
AcDbText
    73
0
    0
TEXT
    5
245
    330
227
    100
AcDbEntity
    8
0
    100
AcDbText
    10
10.7115611243428
    20
109.765850968724
    30
0
    11
10.7115611243428
    21
109.765850968724
    31
0
    40
2
    1
Схема водотводных и нагорных
    50
0
    41
1
    51
0
    100
AcDbText
    73
0
    0
TEXT
    5
246
    330
227
    100
AcDbEntity
    8
0
    100
AcDbText
    10
9
    20
27.5
    30
0
    11
9
    21
27.5
    31
0
    40
2
    1
Фактические
    50
90.0000025044782
    41
1
    51
0
    100
AcDbText
    73
0
    0
TEXT
    5
247
    330
227
    100
AcDbEntity
    8
0
    100
AcDbText
    10
13
    20
32
    30
0
    11
13
    21
32
    31
0
    40
2
    1
данные
    50
90.0000025044782
    41
1
    51
0
    100
AcDbText
    73
0
    0
TEXT
    5
248
    330
227
    100
AcDbEntity
    8
0
    100
AcDbText
    10
9
    20
62
    30
0
    11
9
    21
62
    31
0
    40
2
    1
Проектные
    50
90.0000025044782
    41
1
    51
0
    100
AcDbText
    73
0
    0
TEXT
    5
249
    330
227
    100
AcDbEntity
    8
0
    100
AcDbText
    10
13
    20
65
    30
0
    11
13
    21
65
    31
0
    40
2
    1
данные
    50
90.0000025044782
    41
1
    51
0
    100
AcDbText
    73
0
    0
LINE
    5
24A
    330
227
    100
AcDbEntity
    8
0
    100
AcDbLine
    10
5
    20
25
    30
0
    11
80
    21
25
    31
0
    0
LINE
    5
24B
    330
227
    100
AcDbEntity
    8
0
    100
AcDbLine
    10
15
    20
60
    30
0
    11
80
    21
60
    31
0
    0
LINE
    5
24C
    330
227
    100
AcDbEntity
    8
0
    100
AcDbLine
    10
15
    20
80
    30
0
    11
80
    21
80
    31
0
    0
LINE
    5
24D
    330
227
    100
AcDbEntity
    8
0
    100
AcDbLine
    10
55
    20
80
    30
0
    11
55
    21
90
    31
0
    0
LINE
    5
24E
    330
227
    100
AcDbEntity
    8
0
    100
AcDbLine
    10
80
    20
85
    30
0
    11
55
    21
85
    31
0
    0
LINE
    5
24F
    330
227
    100
AcDbEntity
    8
0
    100
AcDbLine
    10
5
    20
115
    30
0
    11
80
    21
115
    31
0
    0
TEXT
    5
250
    330
227
    100
AcDbEntity
    8
0
    100
AcDbText
    10
11.1994091389063
    20
104.72883541958
    30
0
    11
11.1994091389063
    21
104.72883541958
    31
0
    40
2
    1
канав, расстояние от
    50
0
    41
1
    51
0
    100
AcDbText
    73
0
    0
TEXT
    5
251
    330
227
    100
AcDbEntity
    8
0
    100
AcDbText
    10
11.6518734419558
    20
99.0736646452786
    30
0
    11
11.6518734419558
    21
99.0736646452786
    31
0
    40
2
    1
оси пути до оси канавы, м
    50
0
    41
1
    51
0
    100
AcDbText
    73
0
    0
TEXT
    5
252
    330
227
    100
AcDbEntity
    8
Коммуникации
    100
AcDbText
    10
90
    20
115
    30
0
    11
90
    21
115
    31
0
    40
2.5
    1
&COMMUNICATIONS
    50
0
    41
1
    51
0
    100
AcDbText
    73
0
    0
TEXT
    5
253
    330
227
    100
AcDbEntity
    8
Таблица
    100
AcDbText
    10
90
    20
4.99999824310083
    30
0
    11
90
    21
4.99999824310083
    31
0
    40
2
    1
&L
    50
0
    41
1
    51
0
    100
AcDbText
    73
0
    0
TEXT
    5
254
    330
227
    100
AcDbEntity
    8
Таблица
    100
AcDbText
    10
90
    20
115
    30
0
    11
90
    21
115
    31
0
    40
2
    1
&L
    50
0
    41
1
    51
0
    100
AcDbText
    73
0
    0
TEXT
    5
255
    330
227
    100
AcDbEntity
    8
Таблица
    100
AcDbText
    10
90
    20
25
    30
0
    11
90
    21
25
    31
0
    40
2
    1
&L
    50
0
    41
1
    51
0
    100
AcDbText
    73
0
    0
TEXT
    5
256
    330
227
    100
AcDbEntity
    8
Таблица
    100
AcDbText
    10
90
    20
35
    30
0
    11
90
    21
35
    31
0
    40
2
    1
&L
    50
0
    41
1
    51
0
    100
AcDbText
    73
0
    0
TEXT
    5
257
    330
227
    100
AcDbEntity
    8
Таблица
    100
AcDbText
    10
90
    20
50
    30
0
    11
90
    21
50
    31
0
    40
2
    1
&L
    50
0
    41
1
    51
0
    100
AcDbText
    73
0
    0
TEXT
    5
258
    330
227
    100
AcDbEntity
    8
Таблица
    100
AcDbText
    10
90
    20
60
    30
0
    11
90
    21
60
    31
0
    40
2
    1
&L
    50
0
    41
1
    51
0
    100
AcDbText
    73
0
    0
TEXT
    5
259
    330
227
    100
AcDbEntity
    8
Пикеты
    100
AcDbText
    10
86.3333332538605
    20
17.5
    30
0
    11
90
    21
17.5
    31
0
    40
2.5
    1
&PKT
    50
0
    41
0.800000011920929
    51
0
    72
1
    100
AcDbText
    73
1
    0
TEXT
    5
25A
    330
227
    100
AcDbEntity
    8
Красные отметки
    100
AcDbText
    10
91.2500002914093
    20
60.8333330700811
    30
0
    11
90
    21
67.5
    31
0
    40
2.5
    1
&RE PRF
    50
90.0000025044782
    41
0.800000011920929
    51
0
    72
1
    100
AcDbText
    73
2
    0
TEXT
    5
25B
    330
227
    100
AcDbEntity
    8
Красные отметки
    100
AcDbText
    10
90
    20
53.75
    30
0
    11
90
    21
55
    31
0
    40
2.5
    1
&G PRF
    50
0
    41
0.800000011920929
    51
0
    100
AcDbText
    73
2
    0
TEXT
    5
25C
    330
227
    100
AcDbEntity
    8
Черные отметки
    100
AcDbText
    10
91.2500002476979
    20
36.8333330700811
    30
0
    11
90
    21
42.5
    31
0
    40
2.5
    1
&E EDG
    50
90.0000025044782
    41
0.800000011920929
    51
0
    72
1
    100
AcDbText
    73
2
    0
TEXT
    5
25D
    330
227
    100
AcDbEntity
    8
Черные отметки
    100
AcDbText
    10
84.3333330154419
    20
28.75
    30
0
    11
90
    21
30
    31
0
    40
2.5
    1
&D EDG
    50
0
    41
0.800000011920929
    51
0
    72
1
    100
AcDbText
    73
2
    0
TEXT
    5
25E
    330
227
    100
AcDbEntity
    8
Километры
    100
AcDbText
    10
86.3333332538605
    20
10
    30
0
    11
90
    21
10
    31
0
    40
2.5
    1
&K 2
    50
0
    41
0.800000011920929
    51
0
    72
1
    100
AcDbText
    73
1
    0
TEXT
    5
25F
    330
227
    100
AcDbEntity
    8
0
    100
AcDbText
    10
78.6666669845581
    20
115
    30
0
    11
90
    21
115
    31
0
    40
2
    1
&DRAINAGE_CL
    50
0
    41
1
    51
0
    72
1
    100
AcDbText
    73
1
    0
TEXT
    5
260
    330
227
    100
AcDbEntity
    8
Таблица
    100
AcDbText
    10
90
    20
75
    30
0
    11
90
    21
75
    31
0
    40
2
    1
&L
    50
0
    41
1
    51
0
    100
AcDbText
    73
0
    0
TEXT
    5
261
    330
227
    100
AcDbEntity
    8
Таблица
    100
AcDbText
    10
90
    20
80
    30
0
    11
90
    21
80
    31
0
    40
2
    1
&L
    50
0
    41
1
    51
0
    100
AcDbText
    73
0
    0
TEXT
    5
262
    330
227
    100
AcDbEntity
    8
Таблица
    100
AcDbText
    10
90
    20
85
    30
0
    11
90
    21
85
    31
0
    40
2
    1
&L
    50
0
    41
1
    51
0
    100
AcDbText
    73
0
    0
TEXT
    5
263
    330
227
    100
AcDbEntity
    8
Таблица
    100
AcDbText
    10
90
    20
90
    30
0
    11
90
    21
90
    31
0
    40
2
    1
&L
    50
0
    41
1
    51
0
    100
AcDbText
    73
0
    0
TEXT
    5
264
    330
227
    100
AcDbEntity
    8
Таблица
    100
AcDbText
    10
90
    20
95
    30
0
    11
90
    21
95
    31
0
    40
2
    1
&L
    50
0
    41
1
    51
0
    100
AcDbText
    73
0
    0
TEXT
    5
265
    330
227
    100
AcDbEntity
    8
0
    100
AcDbText
    10
90
    20
115
    30
0
    11
90
    21
115
    31
0
    40
2
    1
&DRAINAGE_LINE EDG
    50
0
    41
1
    51
0
    100
AcDbText
    73
0
    0
TEXT
    5
266
    330
227
    100
AcDbEntity
    8
0
    100
AcDbText
    10
8
    20
135
    30
0
    11
8
    21
135
    31
0
    40
2.5
    1
&PROFILE_TYPE 1
    50
0
    41
0.800000011920929
    51
0
    100
AcDbText
    73
0
    0
TEXT
    5
267
    330
227
    100
AcDbEntity
    8
0
    100
AcDbText
    10
68.6666660308838
    20
76.5
    30
0
    11
90
    21
77.5
    31
0
    40
2
    1
&DRAINAGE_BOTTOM_WIDTH
    50
0
    41
1
    51
0
    72
1
    100
AcDbText
    73
2
    0
TEXT
    5
268
    330
227
    100
AcDbEntity
    8
Красный профиль
    100
AcDbText
    10
90
    20
53.75
    30
0
    11
90
    21
55
    31
0
    40
2.5
    1
&RD
    50
0
    41
0.800000011920929
    51
0
    100
AcDbText
    73
2
    0
TEXT
    5
269
    330
227
    100
AcDbEntity
    8
Ссылочные профили
    6
Continuous
    100
AcDbText
    10
85
    20
115
    30
0
    11
85
    21
115
    31
0
    40
2.5
    1
&REFP 1
    50
0
    41
0.800000011920929
    51
0
    100
AcDbText
    73
0
    0
TEXT
    5
26A
    330
227
    100
AcDbEntity
    8
Ссылочные профили
    6
Continuous
    100
AcDbText
    10
85
    20
115
    30
0
    11
85
    21
115
    31
0
    40
2.5
    1
&REFP 0
    50
0
    41
0.800000011920929
    51
0
    100
AcDbText
    73
0
    0
ENDSEC
    0
SECTION
    2
OBJECTS
    0
DICTIONARY
    5
13
    330
0
    100
AcDbDictionary
    281
1
    3
ACAD_GROUP
    350
14
    3
ACAD_MLINESTYLE
    350
16
    3
ACAD_PLOTSETTINGS
    350
17
    3
ACAD_IMAGE_DICT
    350
14D
    3
ACAD_IMAGE_VARS
    350
14E
    3
ACAD_WIPEOUT_VARS
    350
E7
    3
ACAD_PLOTSTYLENAME
    350
18
    3
ACAD_LAYOUT
    350
217
    0
DICTIONARY
    5
14
    330
13
    100
AcDbDictionary
    281
1
    0
DICTIONARY
    5
17
    102
{ACAD_REACTORS
    330
13
    102
}
    330
13
    100
AcDbDictionary
    281
1
    0
ACDBDICTIONARYWDFLT
    5
18
    102
{ACAD_REACTORS
    330
13
    102
}
    330
13
    100
AcDbDictionary
    281
1
    3
Normal
    350
19
    100
AcDbDictionaryWithDefault
    340
19
    0
ACDBPLACEHOLDER
    5
19
    102
{ACAD_REACTORS
    330
18
    102
}
    330
18
    0
DICTIONARY
    5
7E
    102
{ACAD_REACTORS
    330
C
    102
}
    330
C
    100
AcDbDictionary
    281
1
    3
Standard
    350
7F
    0
WIPEOUTVARIABLES
    5
E7
    102
{ACAD_REACTORS
    330
C
    102
}
    330
C
    100
AcDbWipeoutVariables
    70
0
    0
DICTIONARY
    5
1B
    330
1A
    100
AcDbDictionary
    280
1
    281
1
    3
ACLYDICTIONARY
    360
21F
    3
ACAD_LAYERSTATES
    360
21D
    0
DICTIONARY
    5
21D
    102
{ACAD_REACTORS
    330
1B
    102
}
    330
1B
    100
AcDbDictionary
    281
1
    0
DICTIONARY
    5
21F
    102
{ACAD_REACTORS
    330
1B
    102
}
    330
1B
    100
AcDbDictionary
    281
1
    3
*A1
    350
221
    3
*A2
    350
224
    0
XRECORD
    5
221
    102
{ACAD_REACTORS
    330
21F
    102
}
    330
21F
    100
AcDbXrecord
    280
1
    1
AcLyLayerFilter
    90
1
    300
Все используемые слои
    301
USED=="TRUE" AND VPOVERRIDES=="FALSE"
    0
XRECORD
    5
224
    102
{ACAD_REACTORS
    330
21F
    102
}
    330
21F
    100
AcDbXrecord
    280
1
    1
AcLyLayerFilter
    90
1
    300
Все видимые слои
    301
OFF=="FALSE"
    0
DICTIONARY
    5
217
    102
{ACAD_REACTORS
    330
C
    102
}
    330
C
    100
AcDbDictionary
    281
1
    3
Model
    350
218
    0
LAYOUT
    5
218
    100
AcDbPlotSettings
    1

    2
none_device
    4

    6

    40
0
    41
0
    42
0
    43
0
    44
297
    45
210
    46
0
    47
0
    48
0
    49
0
    140
0
    141
0
    142
1
    143
1
    70
4784
    72
1
    73
0
    74
5
    7

    75
0
    147
1
    148
0
    149
0
    100
AcDbLayout
    1
Model
    70
1
    71
0
    330
227
    0
DICTIONARY
    5
E6
    330
10
    100
AcDbDictionary
    280
1
    281
1
    3
ADSK_XREC_LAYER_RECONCILED
    360
155
    0
DICTIONARY
    5
16
    102
{ACAD_REACTORS
    330
C
    102
}
    330
C
    100
AcDbDictionary
    281
1
    3
Standard
    350
215
    0
MLINESTYLE
    5
215
    102
{ACAD_REACTORS
    330
16
    102
}
    330
16
    100
AcDbMlineStyle
    2
Standard
    70
0
    3

    62
256
    51
90.0000025044782
    52
90.0000025044782
    71
2
    49
0.5
    62
256
    49
-0.5
    62
256
    0
DICTIONARY
    5
14D
    102
{ACAD_REACTORS
    330
C
    102
}
    330
C
    100
AcDbDictionary
    281
1
    0
RASTERVARIABLES
    5
14E
    102
{ACAD_REACTORS
    330
C
    102
}
    330
C
    100
AcDbRasterVariables
    90
0
    70
1
    71
1
    72
5
    0
XRECORD
    5
155
    102
{ACAD_REACTORS
    330
E6
    102
}
    330
E6
    100
AcDbXrecord
    280
1
    290
1
    0
ENDSEC
    0
EOF
