    0
SECTION
    2
HEADER
    9
$ACADVER
    1
AC1015
    9
$DWGCODEPAGE
    3
ANSI_1251
    9
$HANDSEED
    5
31E
    9
$TILEMODE
    70
1
    9
$CECOLOR
    62
256
    9
$CELTSCALE
    40
1
    9
$CELTYPE
    6
ByLayer
    9
$CELWEIGHT
    370
-1
    9
$CLAYER
    8
0
    9
$CMLSTYLE
    2
Standard
    9
$DIMSTYLE
    2
ISO-25
    9
$INSBASE
    10
0
    20
0
    30
0
    9
$PDMODE
    70
0
    9
$PDSIZE
    40
0
    9
$TEXTSTYLE
    7
Standard
    9
$LWDISPLAY
    290
0
    9
$LTSCALE
    40
1
    9
$PSLTSCALE
    70
0
    9
$LIMMIN
    10
0
    20
0
    9
$LIMMAX
    10
148.333332061768
    20
422.5
    9
$MEASUREMENT
    70
1
    0
ENDSEC
    0
SECTION
    2
CLASSES
    0
CLASS
    1
RASTERVARIABLES
    2
AcDbRasterVariables
    3
ISM
    90
0
    280
0
    281
0
    0
CLASS
    1
IMAGEDEF
    2
AcDbRasterImageDef
    3
ISM
    90
0
    280
0
    281
0
    0
CLASS
    1
IMAGEDEF_REACTOR
    2
AcDbRasterImageDefReactor
    3
ISM
    90
1
    280
0
    281
0
    0
CLASS
    1
IMAGE
    2
AcDbRasterImage
    3
ISM
    90
2175
    280
0
    281
1
    0
CLASS
    1
WIPEOUT
    2
AcDbWipeout
    3
"WipeOut|Product Desc: Object Enabler for WipeOut entity^I^I^I^I^I^I|Company: Autodesk, Inc.^I^I^I^I^I^I|WEB Address: www.autodesk.com"
    90
2175
    280
0
    281
1
    0
CLASS
    1
WIPEOUTVARIABLES
    2
AcDbWipeoutVariables
    3
"WipeOut|Product Desc:     WipeOut Dbx Application|Company:          Autodesk, Inc.|WEB Address:      www.autodesk.com"
    90
0
    280
0
    281
0
    0
CLASS
    1
ARC_DIMENSION
    2
AcDbArcDimension
    3
ObjectDBX Classes
    90
1025
    280
0
    281
1
    0
CLASS
    1
LARGE_RADIAL_DIMENSION
    2
AcDbRadialDimensionLarge
    3
ObjectDBX Classes
    90
1025
    280
0
    281
1
    0
CLASS
    1
LAYOUT
    2
AcDbLayout
    3
ObjectDBX Classes
    90
0
    280
0
    281
0
    0
ENDSEC
    0
SECTION
    2
TABLES
    0
TABLE
    2
VPORT
    5
1
    100
AcDbSymbolTable
    0
ENDTAB
    0
TABLE
    2
LTYPE
    5
2
    100
AcDbSymbolTable
    0
LTYPE
    5
203
    100
AcDbSymbolTableRecord
    100
AcDbLinetypeTableRecord
    2
ByLayer
    3
По слою
    70
0
    72
65
    73
0
    40
0
    0
LTYPE
    5
204
    100
AcDbSymbolTableRecord
    100
AcDbLinetypeTableRecord
    2
ByBlock
    3
По блоку
    70
0
    72
65
    73
0
    40
0
    0
LTYPE
    5
205
    100
AcDbSymbolTableRecord
    100
AcDbLinetypeTableRecord
    2
Continuous
    3
Сплошная
    70
0
    72
65
    73
0
    40
0
    0
LTYPE
    5
206
    100
AcDbSymbolTableRecord
    100
AcDbLinetypeTableRecord
    2
GeologyDash
    3
Штриховая линия элементов геологии
    70
0
    72
65
    73
2
    40
3.33333325386047
    49
1.66666662693024
    74
0
    49
-1.66666662693024
    74
0
    0
ENDTAB
    0
TABLE
    2
LAYER
    5
1A
    102
{ACAD_XDICTIONARY
    360
1B
    102
}
    330
0
    100
AcDbSymbolTable
    0
LAYER
    5
10
    100
AcDbSymbolTableRecord
    100
AcDbLayerTableRecord
    2
0
    70
0
    62
7
    6
Continuous
    370
-3
    390
19
    0
LAYER
    5
209
    100
AcDbSymbolTableRecord
    100
AcDbLayerTableRecord
    2
Пикеты
    70
0
    62
7
    6
Continuous
    370
-3
    390
19
    0
LAYER
    5
20A
    100
AcDbSymbolTableRecord
    100
AcDbLayerTableRecord
    2
Километры
    70
0
    62
7
    6
Continuous
    370
-3
    390
19
    0
LAYER
    5
20B
    100
AcDbSymbolTableRecord
    100
AcDbLayerTableRecord
    2
Таблица
    70
0
    62
7
    6
Continuous
    370
-3
    390
19
    0
LAYER
    5
20C
    100
AcDbSymbolTableRecord
    100
AcDbLayerTableRecord
    2
Красные отметки
    70
0
    62
1
    6
Continuous
    370
-3
    390
19
    0
LAYER
    5
20D
    100
AcDbSymbolTableRecord
    100
AcDbLayerTableRecord
    2
Прямые и кривые в плане
    70
0
    62
7
    6
Continuous
    370
-3
    390
19
    0
LAYER
    5
20E
    100
AcDbSymbolTableRecord
    100
AcDbLayerTableRecord
    2
Проектные отметки головок рельсов
    70
0
    62
1
    6
Continuous
    370
-3
    390
19
    0
LAYER
    5
20F
    100
AcDbSymbolTableRecord
    100
AcDbLayerTableRecord
    2
Фактические отметки головок рельсов
    70
0
    62
7
    6
Continuous
    370
-3
    390
19
    0
LAYER
    5
210
    100
AcDbSymbolTableRecord
    100
AcDbLayerTableRecord
    2
Красный профиль
    70
0
    62
1
    6
Continuous
    370
-3
    390
19
    0
LAYER
    5
211
    100
AcDbSymbolTableRecord
    100
AcDbLayerTableRecord
    2
Коммуникации
    70
0
    62
7
    6
Continuous
    370
-3
    390
19
    0
LAYER
    5
212
    100
AcDbSymbolTableRecord
    100
AcDbLayerTableRecord
    2
Черный профиль
    70
0
    62
3
    6
Continuous
    370
-3
    390
19
    0
LAYER
    5
213
    100
AcDbSymbolTableRecord
    100
AcDbLayerTableRecord
    2
Геология_список_ИГЭ
    70
0
    62
7
    6
Continuous
    370
-3
    390
19
    0
LAYER
    5
214
    100
AcDbSymbolTableRecord
    100
AcDbLayerTableRecord
    2
Геология_подписи
    70
0
    62
7
    6
Continuous
    370
-3
    390
19
    0
LAYER
    5
215
    100
AcDbSymbolTableRecord
    100
AcDbLayerTableRecord
    2
Геология_вода
    70
0
    62
7
    6
Continuous
    370
-3
    390
19
    0
LAYER
    5
216
    100
AcDbSymbolTableRecord
    100
AcDbLayerTableRecord
    2
Геология_мерзлота
    70
0
    62
7
    6
Continuous
    370
-3
    390
19
    0
LAYER
    5
217
    100
AcDbSymbolTableRecord
    100
AcDbLayerTableRecord
    2
Геология_опробование
    70
0
    62
7
    6
Continuous
    370
-3
    390
19
    0
LAYER
    5
218
    100
AcDbSymbolTableRecord
    100
AcDbLayerTableRecord
    2
Геология_выработки
    70
0
    62
7
    6
Continuous
    370
-3
    390
19
    0
LAYER
    5
219
    100
AcDbSymbolTableRecord
    100
AcDbLayerTableRecord
    2
Геология_контуры
    70
0
    62
7
    6
Continuous
    370
-3
    390
19
    0
LAYER
    5
21A
    100
AcDbSymbolTableRecord
    100
AcDbLayerTableRecord
    2
Геология_штриховки
    70
0
    62
8
    6
Continuous
    370
-3
    390
19
    0
LAYER
    5
21B
    100
AcDbSymbolTableRecord
    100
AcDbLayerTableRecord
    2
Рабочие отметки
    70
0
    62
7
    6
Continuous
    370
-3
    390
19
    0
LAYER
    5
21C
    100
AcDbSymbolTableRecord
    100
AcDbLayerTableRecord
    2
Таблица отметок
    70
0
    62
7
    6
Continuous
    370
-3
    390
19
    0
LAYER
    5
21D
    100
AcDbSymbolTableRecord
    100
AcDbLayerTableRecord
    2
Линейка абсолютных высот
    70
0
    62
7
    6
Continuous
    370
-3
    390
19
    0
LAYER
    5
21E
    100
AcDbSymbolTableRecord
    100
AcDbLayerTableRecord
    2
Резаные пикеты
    70
0
    62
7
    6
Continuous
    370
-3
    390
19
    0
LAYER
    5
21F
    100
AcDbSymbolTableRecord
    100
AcDbLayerTableRecord
    2
Междупутья
    70
0
    62
7
    6
Continuous
    370
-3
    390
19
    0
LAYER
    5
220
    100
AcDbSymbolTableRecord
    100
AcDbLayerTableRecord
    2
Геология_испытания_крыльчаткой
    70
0
    62
7
    6
Continuous
    370
-3
    390
19
    0
LAYER
    5
221
    100
AcDbSymbolTableRecord
    100
AcDbLayerTableRecord
    2
Ссылочные профили
    70
0
    62
144
    6
Continuous
    370
-3
    390
19
    0
LAYER
    5
222
    100
AcDbSymbolTableRecord
    100
AcDbLayerTableRecord
    2
Разность уровней
    70
0
    62
7
    6
Continuous
    370
-3
    390
19
    0
LAYER
    5
223
    100
AcDbSymbolTableRecord
    100
AcDbLayerTableRecord
    2
Подъемка_понижение
    70
0
    62
7
    6
Continuous
    370
-3
    390
19
    0
LAYER
    5
224
    100
AcDbSymbolTableRecord
    100
AcDbLayerTableRecord
    2
УВВ
    70
0
    62
7
    6
Continuous
    370
-3
    390
19
    0
LAYER
    5
225
    100
AcDbSymbolTableRecord
    100
AcDbLayerTableRecord
    2
Бесстыковой путь
    70
0
    62
7
    6
Continuous
    370
-3
    390
19
    0
ENDTAB
    0
TABLE
    2
STYLE
    5
5
    100
AcDbSymbolTable
    0
STYLE
    5
201
    100
AcDbSymbolTableRecord
    100
AcDbTextStyleTableRecord
    2
Standard
    70
0
    40
0
    41
1
    50
0
    71
0
    42
2
    3
txt
    4

    0
ENDTAB
    0
TABLE
    2
VIEW
    5
7
    100
AcDbSymbolTable
    0
ENDTAB
    0
TABLE
    2
UCS
    5
8
    100
AcDbSymbolTable
    0
ENDTAB
    0
TABLE
    2
APPID
    5
9
    100
AcDbSymbolTable
    0
APPID
    5
A
    100
AcDbSymbolTableRecord
    100
AcDbRegAppTableRecord
    2
ACAD
    70
0
    0
APPID
    5
108
    330
9
    100
AcDbSymbolTableRecord
    100
AcDbRegAppTableRecord
    2
AcAecLayerStandard
    70
0
    0
APPID
    5
107
    330
9
    100
AcDbSymbolTableRecord
    100
AcDbRegAppTableRecord
    2
ACAD_MLEADERVER
    70
0
  0
APPID
  5
DF
330
9
100
AcDbSymbolTableRecord
100
AcDbRegAppTableRecord
  2
ACAD_DSTYLE_DIMJAG
 70
     0
  0
APPID
  5
E0
330
9
100
AcDbSymbolTableRecord
100
AcDbRegAppTableRecord
  2
ACAD_DSTYLE_DIMTALN
 70
     0
    0
ENDTAB
    0
TABLE
    2
DIMSTYLE
    5
B
    330
0
    100
AcDbSymbolTable
    70
2
    100
AcDbDimStyleTable
    71
2
    0
DIMSTYLE
    105
22C
    330
B
    100
AcDbSymbolTableRecord
    100
AcDbDimStyleTableRecord
    2
Standard
    70
0
    340
201
    0
DIMSTYLE
    105
22D
    330
B
    100
AcDbSymbolTableRecord
    100
AcDbDimStyleTableRecord
    2
ISO-25
    70
0
    43
3.75
    42
0.625
    44
1.25
    41
2.5
    141
2.5
    140
2.5
    147
0.625
    77
1
    73
0
    74
0
    172
1
    78
8
    171
3
    143
0.0393700785934925
    340
201
    0
ENDTAB
    0
TABLE
    2
BLOCK_RECORD
    5
C
    100
AcDbSymbolTable
    0
BLOCK_RECORD
    5
239
    100
AcDbSymbolTableRecord
    100
AcDbBlockTableRecord
    2
*MODEL_SPACE
    0
BLOCK_RECORD
    5
E
    100
AcDbSymbolTableRecord
    100
AcDbBlockTableRecord
    2
*PAPER_SPACE
    0
ENDTAB
    0
ENDSEC
    0
SECTION
    2
BLOCKS
    0
BLOCK
    5
23A
    330
239
    100
AcDbEntity
    8
0
    100
AcDbBlockBegin
    2
*MODEL_SPACE
    70
0
    10
0
    20
0
    30
0
    3
*MODEL_SPACE
    1

    4

    0
ENDBLK
    5
23B
    100
AcDbEntity
    8
0
    100
AcDbBlockEnd
    0
BLOCK
    5
11
    330
E
    100
AcDbEntity
    8
0
    100
AcDbBlockBegin
    2
*PAPER_SPACE
    70
0
    10
0
    20
0
    30
0
    3
*PAPER_SPACE
    1

    4

    0
ENDBLK
    5
12
    100
AcDbEntity
    8
0
    100
AcDbBlockEnd
    0
ENDSEC
    0
SECTION
    2
ENTITIES
    0
TEXT
    5
23C
    330
239
    100
AcDbEntity
    8
0
    100
AcDbText
    10
8
    20
410
    30
0
    11
8
    21
410
    31
0
    40
2
    1
&SH 10000
    50
0
    41
1
    51
0
    100
AcDbText
    73
0
    0
TEXT
    5
23D
    330
239
    100
AcDbEntity
    8
0
    100
AcDbText
    10
8
    20
405
    30
0
    11
8
    21
405
    31
0
    40
2
    1
&SV 200
    50
0
    41
1
    51
0
    100
AcDbText
    73
0
    0
TEXT
    5
23E
    330
239
    100
AcDbEntity
    8
Фактические отметки головок рельсов
    100
AcDbText
    10
85
    20
385
    30
0
    11
85
    21
385
    31
0
    40
2.5
    1
&PLAN_IMPELLERTESTS
    50
0
    41
0.800000011920929
    51
0
    100
AcDbText
    73
0
    0
TEXT
    5
23F
    330
239
    100
AcDbEntity
    8
Фактические отметки головок рельсов
    100
AcDbText
    10
85
    20
385
    30
0
    11
85
    21
385
    31
0
    40
2.5
    1
&PLAN_BOREHOLES
    50
0
    41
0.800000011920929
    51
0
    100
AcDbText
    73
0
    0
TEXT
    5
240
    330
239
    100
AcDbEntity
    8
Фактические отметки головок рельсов
    100
AcDbText
    10
85
    20
385
    30
0
    11
85
    21
385
    31
0
    40
2.5
    1
&UP
    50
0
    41
0.800000011920929
    51
0
    100
AcDbText
    73
0
    0
TEXT
    5
241
    330
239
    100
AcDbEntity
    8
Коммуникации
    100
AcDbText
    10
85
    20
395
    30
0
    11
85
    21
395
    31
0
    40
2.5
    1
&COMMUNICATIONS
    50
0
    41
1
    51
0
    100
AcDbText
    73
0
    0
TEXT
    5
242
    330
239
    100
AcDbEntity
    8
Черный профиль
    100
AcDbText
    10
85
    20
395
    30
0
    11
85
    21
395
    31
0
    40
2.5
    1
&EP
    50
0
    41
1
    51
0
    100
AcDbText
    73
0
    0
TEXT
    5
243
    330
239
    100
AcDbEntity
    8
Геология_список_ИГЭ
    100
AcDbText
    10
85
    20
395
    30
0
    11
85
    21
395
    31
0
    40
2.5
    1
&GEOLOGY_LEGEND
    50
0
    41
1
    51
0
    100
AcDbText
    73
0
    0
TEXT
    5
244
    330
239
    100
AcDbEntity
    8
Геология_подписи
    100
AcDbText
    10
85
    20
395
    30
0
    11
85
    21
395
    31
0
    40
2.5
    1
&GEOLOGY_NOTES
    50
0
    41
1
    51
0
    100
AcDbText
    73
0
    0
TEXT
    5
245
    330
239
    100
AcDbEntity
    8
Геология_вода
    100
AcDbText
    10
85
    20
395
    30
0
    11
85
    21
395
    31
0
    40
2.5
    1
&GEOLOGY_WATER
    50
0
    41
1
    51
0
    100
AcDbText
    73
0
    0
TEXT
    5
246
    330
239
    100
AcDbEntity
    8
Геология_мерзлота
    100
AcDbText
    10
85
    20
395
    30
0
    11
85
    21
395
    31
0
    40
2.5
    1
&GEOLOGY_FROST
    50
0
    41
1
    51
0
    100
AcDbText
    73
0
    0
TEXT
    5
247
    330
239
    100
AcDbEntity
    8
Геология_опробование
    100
AcDbText
    10
85
    20
395
    30
0
    11
85
    21
395
    31
0
    40
1.25
    1
&GEOLOGY_ASSAYS 2.0
    50
0
    41
1
    51
0
    100
AcDbText
    73
0
    0
TEXT
    5
248
    330
239
    100
AcDbEntity
    8
Геология_испытания_крыльчаткой
    100
AcDbText
    10
85
    20
395
    30
0
    11
85
    21
395
    31
0
    40
2.5
    1
&GEOLOGY_IMPELLERTESTS 1.0
    50
0
    41
1
    51
0
    100
AcDbText
    73
0
    0
TEXT
    5
249
    330
239
    100
AcDbEntity
    8
Геология_выработки
    100
AcDbText
    10
85
    20
395
    30
0
    11
85
    21
395
    31
0
    40
2.5
    1
&GEOLOGY_BOREHOLES 1.0
    50
0
    41
1
    51
0
    100
AcDbText
    73
0
    0
TEXT
    5
24A
    330
239
    100
AcDbEntity
    8
Геология_контуры
    100
AcDbText
    10
85
    20
395
    30
0
    11
85
    21
395
    31
0
    40
2.5
    1
&GEOLOGY_CONTOURS
    50
0
    41
1
    51
0
    100
AcDbText
    73
0
    0
TEXT
    5
24B
    330
239
    100
AcDbEntity
    8
Геология_штриховки
    100
AcDbText
    10
85
    20
395
    30
0
    11
85
    21
395
    31
0
    40
2.5
    1
&GEOLOGY_GROUNDS_HATCHES
    50
0
    41
1
    51
0
    100
AcDbText
    73
0
    0
TEXT
    5
24C
    330
239
    100
AcDbEntity
    8
Таблица
    100
AcDbText
    10
85
    20
395
    30
0
    11
85
    21
395
    31
0
    40
2
    1
&L
    50
0
    41
1
    51
0
    100
AcDbText
    73
0
    0
TEXT
    5
24D
    330
239
    100
AcDbEntity
    8
Рабочие отметки
    100
AcDbText
    10
85
    20
395
    30
0
    11
85
    21
395
    31
0
    40
2.5
    1
&EW
    50
90.0000025044782
    41
1
    51
0
    100
AcDbText
    73
0
    0
TEXT
    5
24E
    330
239
    100
AcDbEntity
    8
Линейка абсолютных высот
    100
AcDbText
    10
85
    20
395
    30
0
    11
85
    21
395
    31
0
    40
2.5
    1
&ABS_ELEVATIONS_RANGE_LINE
    50
0
    41
1
    51
0
    100
AcDbText
    73
0
    0
TEXT
    5
24F
    330
239
    100
AcDbEntity
    8
Красный профиль
    100
AcDbText
    10
85
    20
395
    30
0
    11
85
    21
395
    31
0
    40
2.5
    1
&RPP
    50
0
    41
1
    51
0
    100
AcDbText
    73
0
    0
TEXT
    5
250
    330
239
    100
AcDbEntity
    8
Красный профиль
    100
AcDbText
    10
85
    20
395
    30
0
    11
85
    21
395
    31
0
    40
2.5
    1
&RPC
    50
0
    41
1
    51
0
    100
AcDbText
    73
0
    0
TEXT
    5
251
    330
239
    100
AcDbEntity
    8
0
    100
AcDbText
    10
8
    20
420
    30
0
    11
8
    21
420
    31
0
    40
2.5
    1
&TITLE "Модернизация I главного пути"
    50
0
    41
0.800000011920929
    51
0
    100
AcDbText
    73
0
    0
TEXT
    5
252
    330
239
    100
AcDbEntity
    8
0
    100
AcDbText
    10
8
    20
415
    30
0
    11
8
    21
415
    31
0
    40
2.5
    1
&PROFILE_TYPE 4
    50
0
    41
0.800000011920929
    51
0
    100
AcDbText
    73
0
    0
TEXT
    5
253
    330
239
    100
AcDbEntity
    8
Ссылочные профили
    100
AcDbText
    10
85
    20
395
    30
0
    11
85
    21
395
    31
0
    40
2.5
    1
&REFP 1
    50
0
    41
0.800000011920929
    51
0
    100
AcDbText
    73
0
    0
TEXT
    5
254
    330
239
    100
AcDbEntity
    8
Ссылочные профили
    100
AcDbText
    10
85
    20
395
    30
0
    11
85
    21
395
    31
0
    40
2.5
    1
&REFP 0
    50
0
    41
0.800000011920929
    51
0
    100
AcDbText
    73
0
    0
TEXT
    5
255
    330
239
    100
AcDbEntity
    8
УВВ
    100
AcDbText
    10
85
    20
395
    30
0
    11
85
    21
395
    31
0
    40
2.5
    1
&UVV
    50
0
    41
1
    51
0
    100
AcDbText
    73
0
    0
POINT
    5
256
    330
239
    100
AcDbEntity
    8
0
    100
AcDbPoint
    10
0
    20
0
    30
0
    0
LINE
    5
257
    330
239
    100
AcDbEntity
    8
0
    100
AcDbLine
    10
0
    20
0
    30
0
    11
0
    21
395
    31
0
    0
LINE
    5
258
    330
239
    100
AcDbEntity
    8
0
    100
AcDbLine
    10
0
    20
80
    30
0
    11
75
    21
80
    31
0
    0
LINE
    5
259
    330
239
    100
AcDbEntity
    8
0
    100
AcDbLine
    10
0
    20
95
    30
0
    11
75
    21
95
    31
0
    0
LINE
    5
25A
    330
239
    100
AcDbEntity
    8
0
    100
AcDbLine
    10
0
    20
135
    30
0
    11
75
    21
135
    31
0
    0
LINE
    5
25B
    330
239
    100
AcDbEntity
    8
0
    100
AcDbLine
    10
0
    20
265
    30
0
    11
75
    21
265
    31
0
    0
LINE
    5
25C
    330
239
    100
AcDbEntity
    8
0
    100
AcDbLine
    10
0
    20
285
    30
0
    11
75
    21
285
    31
0
    0
LINE
    5
25D
    330
239
    100
AcDbEntity
    8
0
    100
AcDbLine
    10
0
    20
305
    30
0
    11
75
    21
305
    31
0
    0
LINE
    5
25E
    330
239
    100
AcDbEntity
    8
0
    100
AcDbLine
    10
0
    20
320
    30
0
    11
75
    21
320
    31
0
    0
LINE
    5
25F
    330
239
    100
AcDbEntity
    8
0
    100
AcDbLine
    10
0
    20
365
    30
0
    11
75
    21
365
    31
0
    0
LINE
    5
260
    330
239
    100
AcDbEntity
    8
0
    100
AcDbLine
    10
0
    20
375
    30
0
    11
75
    21
375
    31
0
    0
LINE
    5
261
    330
239
    100
AcDbEntity
    8
0
    100
AcDbLine
    10
0
    20
395
    30
0
    11
75
    21
395
    31
0
    0
LINE
    5
262
    330
239
    100
AcDbEntity
    8
0
    100
AcDbLine
    10
0
    20
0
    30
0
    11
75
    21
0
    31
0
    0
LINE
    5
263
    330
239
    100
AcDbEntity
    8
0
    100
AcDbLine
    10
5
    20
265
    30
0
    11
5
    21
95
    31
0
    0
LINE
    5
264
    330
239
    100
AcDbEntity
    8
0
    100
AcDbLine
    10
15
    20
245
    30
0
    11
15
    21
95
    31
0
    0
LINE
    5
265
    330
239
    100
AcDbEntity
    8
0
    100
AcDbLine
    10
50
    20
375
    30
0
    11
50
    21
305
    31
0
    0
LINE
    5
266
    330
239
    100
AcDbEntity
    8
0
    100
AcDbLine
    10
55
    20
365
    30
0
    11
55
    21
245
    31
0
    0
LINE
    5
267
    330
239
    100
AcDbEntity
    8
0
    100
AcDbLine
    10
75
    20
370
    30
0
    11
50
    21
370
    31
0
    0
LINE
    5
268
    330
239
    100
AcDbEntity
    8
0
    100
AcDbLine
    10
75
    20
350
    30
0
    11
55
    21
350
    31
0
    0
LINE
    5
269
    330
239
    100
AcDbEntity
    8
0
    100
AcDbLine
    10
75
    20
335
    30
0
    11
50
    21
335
    31
0
    0
TEXT
    5
26A
    330
239
    100
AcDbEntity
    8
0
    100
AcDbText
    10
15.0971301395187
    20
384.979093332106
    30
0
    11
15.0971301395187
    21
384.979093332106
    31
0
    40
2
    1
Развернутый план линий
    50
0
    41
0.800000011920929
    51
0
    100
AcDbText
    73
0
    0
TEXT
    5
26B
    330
239
    100
AcDbEntity
    8
0
    100
AcDbText
    10
7.93973649850117
    20
370.643700055416
    30
0
    11
7.93973649850117
    21
370.643700055416
    31
0
    40
2
    1
Пикетажное значение
    50
0
    41
0.800000011920929
    51
0
    100
AcDbText
    73
0
    0
TEXT
    5
26C
    330
239
    100
AcDbEntity
    8
0
    100
AcDbText
    10
52.838409959691
    20
371.660450044459
    30
0
    11
52.838409959691
    21
371.660450044459
    31
0
    40
2
    1
Проектное
    50
0
    41
0.800000011920929
    51
0
    100
AcDbText
    73
0
    0
TEXT
    5
26D
    330
239
    100
AcDbEntity
    8
0
    100
AcDbText
    10
52.6283981187619
    20
366.768539719816
    30
0
    11
52.6283981187619
    21
366.768539719816
    31
0
    40
2
    1
Фактическое
    50
0
    41
0.800000011920929
    51
0
    100
AcDbText
    73
0
    0
TEXT
    5
26E
    330
239
    100
AcDbEntity
    8
0
    100
AcDbText
    10
57.2215582320603
    20
356.869615298184
    30
0
    11
57.2215582320603
    21
356.869615298184
    31
0
    40
2
    1
Проектное
    50
0
    41
0.800000011920929
    51
0
    100
AcDbText
    73
0
    0
TEXT
    5
26F
    330
239
    100
AcDbEntity
    8
0
    100
AcDbText
    10
56.4390252966855
    20
341.215502259324
    30
0
    11
56.4390252966855
    21
341.215502259324
    31
0
    40
2
    1
Фактическое
    50
0
    41
0.800000011920929
    51
0
    100
AcDbText
    73
0
    0
TEXT
    5
270
    330
239
    100
AcDbEntity
    8
0
    100
AcDbText
    10
56.4390252966856
    20
326.482219399221
    30
0
    11
56.4390252966856
    21
326.482219399221
    31
0
    40
2
    1
Фактическое
    50
0
    41
0.800000011920929
    51
0
    100
AcDbText
    73
0
    0
TEXT
    5
271
    330
239
    100
AcDbEntity
    8
0
    100
AcDbText
    10
4.4272946500235
    20
355.991416146222
    30
0
    11
4.4272946500235
    21
355.991416146222
    31
0
    40
2
    1
Положение
    50
0
    41
0.800000011920929
    51
0
    100
AcDbText
    73
0
    0
TEXT
    5
272
    330
239
    100
AcDbEntity
    8
0
    100
AcDbText
    10
4.4272946500235
    20
346.98774328727
    30
0
    11
4.4272946500235
    21
346.98774328727
    31
0
    40
2
    1
плетей
    50
0
    41
0.800000011920929
    51
0
    100
AcDbText
    73
0
    0
TEXT
    5
273
    330
239
    100
AcDbEntity
    8
0
    100
AcDbText
    10
4.4272946500235
    20
338.256908999801
    30
0
    11
4.4272946500235
    21
338.256908999801
    31
0
    40
2
    1
бесстыкового
    50
0
    41
0.800000011920929
    51
0
    100
AcDbText
    73
0
    0
TEXT
    5
274
    330
239
    100
AcDbEntity
    8
0
    100
AcDbText
    10
4.4272946500235
    20
328.161881854916
    30
0
    11
4.4272946500235
    21
328.161881854916
    31
0
    40
2
    1
пути
    50
0
    41
0.800000011920929
    51
0
    100
AcDbText
    73
0
    0
TEXT
    5
275
    330
239
    100
AcDbEntity
    8
0
    100
AcDbText
    10
10.8100449559686
    20
366.603344490988
    30
0
    11
10.8100449559686
    21
366.603344490988
    31
0
    40
2
    1
раскладки шпал
    50
0
    41
0.800000011920929
    51
0
    100
AcDbText
    73
0
    0
TEXT
    5
276
    330
239
    100
AcDbEntity
    8
0
    100
AcDbText
    10
9.04117676134856
    20
315.588571019056
    30
0
    11
9.04117676134856
    21
315.588571019056
    31
0
    40
2
    1
Пикетажное значение
    50
0
    41
0.800000011920929
    51
0
    100
AcDbText
    73
0
    0
TEXT
    5
277
    330
239
    100
AcDbEntity
    8
0
    100
AcDbText
    10
9.66136797909238
    20
309.640930947073
    30
0
    11
9.66136797909238
    21
309.640930947073
    31
0
    40
2
    1
изолирующих стыков
    50
0
    41
0.800000011920929
    51
0
    100
AcDbText
    73
0
    0
LINE
    5
278
    330
239
    100
AcDbEntity
    8
0
    100
AcDbLine
    10
75
    20
315
    30
0
    11
55
    21
315
    31
0
    0
LINE
    5
279
    330
239
    100
AcDbEntity
    8
0
    100
AcDbLine
    10
75
    20
310
    30
0
    11
50
    21
310
    31
0
    0
LINE
    5
27A
    330
239
    100
AcDbEntity
    8
0
    100
AcDbLine
    10
75
    20
295
    30
0
    11
55
    21
295
    31
0
    0
LINE
    5
27B
    330
239
    100
AcDbEntity
    8
0
    100
AcDbLine
    10
75
    20
255
    30
0
    11
5
    21
255
    31
0
    0
LINE
    5
27C
    330
239
    100
AcDbEntity
    8
0
    100
AcDbLine
    10
75
    20
245
    30
0
    11
5
    21
245
    31
0
    0
LINE
    5
27D
    330
239
    100
AcDbEntity
    8
0
    100
AcDbLine
    10
75
    20
240
    30
0
    11
15
    21
240
    31
0
    0
LINE
    5
27E
    330
239
    100
AcDbEntity
    8
0
    100
AcDbLine
    10
75
    20
235
    30
0
    11
15
    21
235
    31
0
    0
LINE
    5
27F
    330
239
    100
AcDbEntity
    8
0
    100
AcDbLine
    10
75
    20
230
    30
0
    11
15
    21
230
    31
0
    0
LINE
    5
280
    330
239
    100
AcDbEntity
    8
0
    100
AcDbLine
    10
75
    20
225
    30
0
    11
15
    21
225
    31
0
    0
LINE
    5
281
    330
239
    100
AcDbEntity
    8
0
    100
AcDbLine
    10
75
    20
220
    30
0
    11
15
    21
220
    31
0
    0
LINE
    5
282
    330
239
    100
AcDbEntity
    8
0
    100
AcDbLine
    10
75
    20
215
    30
0
    11
15
    21
215
    31
0
    0
TEXT
    5
283
    330
239
    100
AcDbEntity
    8
0
    100
AcDbText
    10
57.2215582320603
    20
316.661125091872
    30
0
    11
57.2215582320603
    21
316.661125091872
    31
0
    40
2
    1
Проектное
    50
0
    41
0.800000011920929
    51
0
    100
AcDbText
    73
0
    0
TEXT
    5
284
    330
239
    100
AcDbEntity
    8
0
    100
AcDbText
    10
56.4390252966855
    20
311.336844783328
    30
0
    11
56.4390252966855
    21
311.336844783328
    31
0
    40
2
    1
Фактическое
    50
0
    41
0.800000011920929
    51
0
    100
AcDbText
    73
0
    0
TEXT
    5
285
    330
239
    100
AcDbEntity
    8
0
    100
AcDbText
    10
56.4390252966855
    20
306.777636027317
    30
0
    11
56.4390252966855
    21
306.777636027317
    31
0
    40
2
    1
Фактическое
    50
0
    41
0.800000011920929
    51
0
    100
AcDbText
    73
0
    0
TEXT
    5
286
    330
239
    100
AcDbEntity
    8
0
    100
AcDbText
    10
57.2215582320603
    20
300.129335445324
    30
0
    11
57.2215582320603
    21
300.129335445324
    31
0
    40
2
    1
Проектная
    50
0
    41
0.800000011920929
    51
0
    100
AcDbText
    73
0
    0
TEXT
    5
287
    330
239
    100
AcDbEntity
    8
0
    100
AcDbText
    10
56.4390252966855
    20
289.764109795475
    30
0
    11
56.4390252966855
    21
289.764109795475
    31
0
    40
2
    1
Фактическая
    50
0
    41
0.800000011920929
    51
0
    100
AcDbText
    73
0
    0
LINE
    5
288
    330
239
    100
AcDbEntity
    8
0
    100
AcDbLine
    10
75
    20
275
    30
0
    11
55
    21
275
    31
0
    0
TEXT
    5
289
    330
239
    100
AcDbEntity
    8
0
    100
AcDbText
    10
56.4390252966855
    20
268.76285651287
    30
0
    11
56.4390252966855
    21
268.76285651287
    31
0
    40
2
    1
Фактическое
    50
0
    41
0.800000011920929
    51
0
    100
AcDbText
    73
0
    0
TEXT
    5
28A
    330
239
    100
AcDbEntity
    8
0
    100
AcDbText
    10
57.2215582320603
    20
278.852132704105
    30
0
    11
57.2215582320603
    21
278.852132704105
    31
0
    40
2
    1
Проектное
    50
0
    41
0.800000011920929
    51
0
    100
AcDbText
    73
0
    0
TEXT
    5
28B
    330
239
    100
AcDbEntity
    8
0
    100
AcDbText
    10
9.57276923370041
    20
299.225561802786
    30
0
    11
9.57276923370041
    21
299.225561802786
    31
0
    40
2
    1
Разность уровней I пути
    50
0
    41
0.800000011920929
    51
0
    100
AcDbText
    73
0
    0
TEXT
    5
28C
    330
239
    100
AcDbEntity
    8
0
    100
AcDbText
    10
8.15518930742883
    20
291.555375391082
    30
0
    11
8.15518930742883
    21
291.555375391082
    31
0
    40
2
    1
по отношению в II пути, см
    50
0
    41
0.800000011920929
    51
0
    100
AcDbText
    73
0
    0
TEXT
    5
28D
    330
239
    100
AcDbEntity
    8
0
    100
AcDbText
    10
16.8969321861036
    20
275.296513858711
    30
0
    11
16.8969321861036
    21
275.296513858711
    31
0
    40
2
    1
Междупутье, м
    50
0
    41
0.800000011920929
    51
0
    100
AcDbText
    73
0
    0
TEXT
    5
28E
    330
239
    100
AcDbEntity
    8
0
    100
AcDbText
    10
14.268502739475
    20
261.172735728757
    30
0
    11
14.268502739475
    21
261.172735728757
    31
0
    40
2
    1
Толщина слоя щебня/
    50
0
    41
0.800000011920929
    51
0
    100
AcDbText
    73
0
    0
LINE
    5
28F
    330
239
    100
AcDbEntity
    8
0
    100
AcDbLine
    10
75
    20
260
    30
0
    11
55
    21
260
    31
0
    0
LINE
    5
290
    330
239
    100
AcDbEntity
    8
0
    100
AcDbLine
    10
75
    20
250
    30
0
    11
55
    21
250
    31
0
    0
TEXT
    5
291
    330
239
    100
AcDbEntity
    8
0
    100
AcDbText
    10
57.2215582320603
    20
261.447342367622
    30
0
    11
57.2215582320603
    21
261.447342367622
    31
0
    40
2
    1
Проектная
    50
0
    41
0.800000011920929
    51
0
    100
AcDbText
    73
0
    0
TEXT
    5
292
    330
239
    100
AcDbEntity
    8
0
    100
AcDbText
    10
57.2215582320603
    20
251.306388597572
    30
0
    11
57.2215582320603
    21
251.306388597572
    31
0
    40
2
    1
Проектная
    50
0
    41
0.800000011920929
    51
0
    100
AcDbText
    73
0
    0
TEXT
    5
293
    330
239
    100
AcDbEntity
    8
0
    100
AcDbText
    10
56.4390252966856
    20
256.624710143476
    30
0
    11
56.4390252966856
    21
256.624710143476
    31
0
    40
2
    1
Фактическая
    50
0
    41
0.800000011920929
    51
0
    100
AcDbText
    73
0
    0
TEXT
    5
294
    330
239
    100
AcDbEntity
    8
0
    100
AcDbText
    10
56.4390252966855
    20
247.019100840926
    30
0
    11
56.4390252966855
    21
247.019100840926
    31
0
    40
2
    1
Фактическая
    50
0
    41
0.800000011920929
    51
0
    100
AcDbText
    73
0
    0
TEXT
    5
295
    330
239
    100
AcDbEntity
    8
0
    100
AcDbText
    10
16.7885486948331
    20
251.58363891282
    30
0
    11
16.7885486948331
    21
251.58363891282
    31
0
    40
2
    1
Толщина песчаной
    50
0
    41
0.800000011920929
    51
0
    100
AcDbText
    73
0
    0
TEXT
    5
296
    330
239
    100
AcDbEntity
    8
0
    100
AcDbText
    10
20.3915643407733
    20
247.609910058565
    30
0
    11
20.3915643407733
    21
247.609910058565
    31
0
    40
2
    1
подушки, см
    50
0
    41
0.800000011920929
    51
0
    100
AcDbText
    73
0
    0
TEXT
    5
297
    330
239
    100
AcDbEntity
    8
0
    100
AcDbText
    10
29.068590028884
    20
241.647286811389
    30
0
    11
29.068590028884
    21
241.647286811389
    31
0
    40
2
    1
Укладка геотекстиля
    50
0
    41
0.800000011920929
    51
0
    100
AcDbText
    73
0
    0
TEXT
    5
298
    330
239
    100
AcDbEntity
    8
0
    100
AcDbText
    10
21.3900320949129
    20
236.426365172754
    30
0
    11
21.3900320949129
    21
236.426365172754
    31
0
    40
2
    1
Подъемка (+), понижение (-), см
    50
0
    41
0.800000011920929
    51
0
    100
AcDbText
    73
0
    0
TEXT
    5
299
    330
239
    100
AcDbEntity
    8
0
    100
AcDbText
    10
29.947194254021
    20
231.59364517473
    30
0
    11
29.947194254021
    21
231.59364517473
    31
0
    40
2
    1
Досыпка щебня, см
    50
0
    41
0.800000011920929
    51
0
    100
AcDbText
    73
0
    0
TEXT
    5
29A
    330
239
    100
AcDbEntity
    8
0
    100
AcDbText
    10
23.0832525624039
    20
226.586262459089
    30
0
    11
23.0832525624039
    21
226.586262459089
    31
0
    40
2
    1
Вырезка щебня\слабых пород, см
    50
0
    41
0.800000011920929
    51
0
    100
AcDbText
    73
0
    0
TEXT
    5
29B
    330
239
    100
AcDbEntity
    8
0
    100
AcDbText
    10
23.9692400163237
    20
221.548925945862
    30
0
    11
23.9692400163237
    21
221.548925945862
    31
0
    40
2
    1
Вырезка песчаного балласта, см
    50
0
    41
0.800000011920929
    51
0
    100
AcDbText
    73
0
    0
TEXT
    5
29C
    330
239
    100
AcDbEntity
    8
0
    100
AcDbText
    10
25.2982211972033
    20
216.618870764415
    30
0
    11
25.2982211972033
    21
216.618870764415
    31
0
    40
2
    1
Глубина очистки балласта, см
    50
0
    41
0.800000011920929
    51
0
    100
AcDbText
    73
0
    0
TEXT
    5
29D
    330
239
    100
AcDbEntity
    8
0
    100
AcDbText
    10
53.1794494309865
    20
348.791387833699
    30
0
    11
53.1794494309865
    21
348.791387833699
    31
0
    40
2
    1
I путь
    50
90.0000025044782
    41
0.800000011920929
    51
0
    100
AcDbText
    73
0
    0
TEXT
    5
29E
    330
239
    100
AcDbEntity
    8
0
    100
AcDbText
    10
53.6159041363251
    20
322.31028997329
    30
0
    11
53.6159041363251
    21
322.31028997329
    31
0
    40
2
    1
II путь
    50
90.0000025044782
    41
0.800000011920929
    51
0
    100
AcDbText
    73
0
    0
TEXT
    5
29F
    330
239
    100
AcDbEntity
    8
0
    100
AcDbText
    10
53.1792883927853
    20
311.036406416785
    30
0
    11
53.1792883927853
    21
311.036406416785
    31
0
    40
2
    1
I путь
    50
90.0000025044782
    41
0.800000011920929
    51
0
    100
AcDbText
    73
0
    0
TEXT
    5
2A0
    330
239
    100
AcDbEntity
    8
0
    100
AcDbText
    10
53.6880250239016
    20
306.362002238605
    30
0
    11
53.6880250239016
    21
306.362002238605
    31
0
    40
2
    1
II
    50
90.0000025044782
    41
0.800000011920929
    51
0
    100
AcDbText
    73
0
    0
TEXT
    5
2A1
    330
239
    100
AcDbEntity
    8
0
    100
AcDbText
    10
6.11542815253059
    20
256.457151853669
    30
0
    11
6.11542815253059
    21
256.457151853669
    31
0
    40
2
    1
щебня сл. пород под шпалой, см
    50
0
    41
0.800000011920929
    51
0
    100
AcDbText
    73
0
    0
LINE
    5
2A2
    330
239
    100
AcDbEntity
    8
0
    100
AcDbLine
    10
75
    20
200
    30
0
    11
15
    21
200
    31
0
    0
LINE
    5
2A3
    330
239
    100
AcDbEntity
    8
0
    100
AcDbLine
    10
75
    20
190
    30
0
    11
5
    21
190
    31
0
    0
LINE
    5
2A4
    330
239
    100
AcDbEntity
    8
0
    100
AcDbLine
    10
75
    20
175
    30
0
    11
15
    21
175
    31
0
    0
LINE
    5
2A5
    330
239
    100
AcDbEntity
    8
0
    100
AcDbLine
    10
75
    20
170
    30
0
    11
15
    21
170
    31
0
    0
LINE
    5
2A6
    330
239
    100
AcDbEntity
    8
0
    100
AcDbLine
    10
75
    20
165
    30
0
    11
15
    21
165
    31
0
    0
LINE
    5
2A7
    330
239
    100
AcDbEntity
    8
0
    100
AcDbLine
    10
75
    20
160
    30
0
    11
15
    21
160
    31
0
    0
LINE
    5
2A8
    330
239
    100
AcDbEntity
    8
0
    100
AcDbLine
    10
75
    20
155
    30
0
    11
15
    21
155
    31
0
    0
TEXT
    5
2A9
    330
239
    100
AcDbEntity
    8
0
    100
AcDbText
    10
38.5880330059994
    20
209.702983186255
    30
0
    11
38.5880330059994
    21
209.702983186255
    31
0
    40
2
    1
Отметки
    50
0
    41
0.800000011920929
    51
0
    100
AcDbText
    73
0
    0
TEXT
    5
2AA
    330
239
    100
AcDbEntity
    8
0
    100
AcDbText
    10
32.7995816403904
    20
203.036316519589
    30
0
    11
32.7995816403904
    21
203.036316519589
    31
0
    40
2
    1
головки рельса, м
    50
0
    41
0.800000011920929
    51
0
    100
AcDbText
    73
0
    0
LINE
    5
2AB
    330
239
    100
AcDbEntity
    8
0
    100
AcDbLine
    10
15
    20
190
    30
0
    11
75
    21
200
    31
0
    0
TEXT
    5
2AC
    330
239
    100
AcDbEntity
    8
0
    100
AcDbText
    10
16.9841788027404
    20
195.001792563824
    30
0
    11
16.9841788027404
    21
195.001792563824
    31
0
    40
2
    1
Уклон, %
    50
0
    41
0.800000011920929
    51
0
    100
AcDbText
    73
0
    0
TEXT
    5
2AD
    330
239
    100
AcDbEntity
    8
0
    100
AcDbText
    10
48.7999428431973
    20
191.690399060452
    30
0
    11
48.7999428431973
    21
191.690399060452
    31
0
    40
2
    1
Расстояние, м
    50
0
    41
0.800000011920929
    51
0
    100
AcDbText
    73
0
    0
TEXT
    5
2AE
    330
239
    100
AcDbEntity
    8
0
    100
AcDbText
    10
39.5330862901805
    20
171.62967911104
    30
0
    11
39.5330862901805
    21
171.62967911104
    31
0
    40
2
    1
Уклон, %
    50
0
    41
0.800000011920929
    51
0
    100
AcDbText
    73
0
    0
TEXT
    5
2AF
    330
239
    100
AcDbEntity
    8
0
    100
AcDbText
    10
19.0963090197651
    20
166.236579290311
    30
0
    11
19.0963090197651
    21
166.236579290311
    31
0
    40
2
    1
Загрязненность балластного слоя, %
    50
0
    41
0.800000011920929
    51
0
    100
AcDbText
    73
0
    0
TEXT
    5
2B0
    330
239
    100
AcDbEntity
    8
0
    100
AcDbText
    10
21.3112776545645
    20
161.056484252418
    30
0
    11
21.3112776545645
    21
161.056484252418
    31
0
    40
2
    1
Существующий разделительный слой
    50
0
    41
0.800000011920929
    51
0
    100
AcDbText
    73
0
    0
TEXT
    5
2B1
    330
239
    100
AcDbEntity
    8
0
    100
AcDbText
    10
22.0200676177002
    20
156.488211463094
    30
0
    11
22.0200676177002
    21
156.488211463094
    31
0
    40
2
    1
Пучинистые и неустойчивые места
    50
0
    41
0.800000011920929
    51
0
    100
AcDbText
    73
0
    0
LINE
    5
2B2
    330
239
    100
AcDbEntity
    8
0
    100
AcDbLine
    10
35
    20
155
    30
0
    11
35
    21
135
    31
0
    0
LINE
    5
2B3
    330
239
    100
AcDbEntity
    8
0
    100
AcDbLine
    10
75
    20
150
    30
0
    11
35
    21
150
    31
0
    0
LINE
    5
2B4
    330
239
    100
AcDbEntity
    8
0
    100
AcDbLine
    10
75
    20
120
    30
0
    11
15
    21
120
    31
0
    0
LINE
    5
2B5
    330
239
    100
AcDbEntity
    8
0
    100
AcDbLine
    10
75
    20
115
    30
0
    11
15
    21
115
    31
0
    0
TEXT
    5
2B6
    330
239
    100
AcDbEntity
    8
0
    100
AcDbText
    10
20.5078900726508
    20
150.872632520184
    30
0
    11
20.5078900726508
    21
150.872632520184
    31
0
    40
2
    1
Левая
    50
0
    41
0.800000011920929
    51
0
    100
AcDbText
    73
0
    0
TEXT
    5
2B7
    330
239
    100
AcDbEntity
    8
0
    100
AcDbText
    10
20.66155352169
    20
147.53929918685
    30
0
    11
20.66155352169
    21
147.53929918685
    31
0
    40
2
    1
бровка
    50
0
    41
0.800000011920929
    51
0
    100
AcDbText
    73
0
    0
TEXT
    5
2B8
    330
239
    100
AcDbEntity
    8
0
    100
AcDbText
    10
18.3358364551507
    20
144.205965853517
    30
0
    11
18.3358364551507
    21
144.205965853517
    31
0
    40
2
    1
земляного
    50
0
    41
0.800000011920929
    51
0
    100
AcDbText
    73
0
    0
TEXT
    5
2B9
    330
239
    100
AcDbEntity
    8
0
    100
AcDbText
    10
19.3325723408104
    20
140.872632520184
    30
0
    11
19.3325723408104
    21
140.872632520184
    31
0
    40
2
    1
полотна
    50
0
    41
0.800000011920929
    51
0
    100
AcDbText
    73
0
    0
TEXT
    5
2BA
    330
239
    100
AcDbEntity
    8
0
    100
AcDbText
    10
35.8437651360978
    20
151.430070568881
    30
0
    11
35.8437651360978
    21
151.430070568881
    31
0
    40
2
    1
Расстояние от оси пути, м
    50
0
    41
0.800000011920929
    51
0
    100
AcDbText
    73
0
    0
TEXT
    5
2BB
    330
239
    100
AcDbEntity
    8
0
    100
AcDbText
    10
46.9533081253914
    20
141.783924895129
    30
0
    11
46.9533081253914
    21
141.783924895129
    31
0
    40
2
    1
Отметка, м
    50
0
    41
0.800000011920929
    51
0
    100
AcDbText
    73
0
    0
TEXT
    5
2BC
    330
239
    100
AcDbEntity
    8
0
    100
AcDbText
    10
22.7363177182519
    20
126.701373463712
    30
0
    11
22.7363177182519
    21
126.701373463712
    31
0
    40
2
    1
Отметки головки рельса, м
    50
0
    41
0.800000011920929
    51
0
    100
AcDbText
    73
0
    0
TEXT
    5
2BD
    330
239
    100
AcDbEntity
    8
0
    100
AcDbText
    10
36.6533175928477
    20
116.890060960717
    30
0
    11
36.6533175928477
    21
116.890060960717
    31
0
    40
2
    1
Уклон, %
    50
0
    41
0.800000011920929
    51
0
    100
AcDbText
    73
0
    0
LINE
    5
2BE
    330
239
    100
AcDbEntity
    8
0
    100
AcDbLine
    10
35
    20
115
    30
0
    11
35
    21
95
    31
0
    0
LINE
    5
2BF
    330
239
    100
AcDbEntity
    8
0
    100
AcDbLine
    10
75
    20
110
    30
0
    11
35
    21
110
    31
0
    0
TEXT
    5
2C0
    330
239
    100
AcDbEntity
    8
0
    100
AcDbText
    10
20.5078900726508
    20
110.39016328323
    30
0
    11
20.5078900726508
    21
110.39016328323
    31
0
    40
2
    1
Правая
    50
0
    41
0.800000011920929
    51
0
    100
AcDbText
    73
0
    0
TEXT
    5
2C1
    330
239
    100
AcDbEntity
    8
0
    100
AcDbText
    10
20.66155352169
    20
107.056829949896
    30
0
    11
20.66155352169
    21
107.056829949896
    31
0
    40
2
    1
бровка
    50
0
    41
0.800000011920929
    51
0
    100
AcDbText
    73
0
    0
TEXT
    5
2C2
    330
239
    100
AcDbEntity
    8
0
    100
AcDbText
    10
18.3358364551507
    20
103.723496616563
    30
0
    11
18.3358364551507
    21
103.723496616563
    31
0
    40
2
    1
земляного
    50
0
    41
0.800000011920929
    51
0
    100
AcDbText
    73
0
    0
TEXT
    5
2C3
    330
239
    100
AcDbEntity
    8
0
    100
AcDbText
    10
19.3325723408104
    20
100.39016328323
    30
0
    11
19.3325723408104
    21
100.39016328323
    31
0
    40
2
    1
полотна
    50
0
    41
0.800000011920929
    51
0
    100
AcDbText
    73
0
    0
TEXT
    5
2C4
    330
239
    100
AcDbEntity
    8
0
    100
AcDbText
    10
35.6309701688482
    20
111.250008195349
    30
0
    11
35.6309701688482
    21
111.250008195349
    31
0
    40
2
    1
Расстояние от оси пути, м
    50
0
    41
0.800000011920929
    51
0
    100
AcDbText
    73
0
    0
TEXT
    5
2C5
    330
239
    100
AcDbEntity
    8
0
    100
AcDbText
    10
46.9533081253914
    20
100.736484889365
    30
0
    11
46.9533081253914
    21
100.736484889365
    31
0
    40
2
    1
Отметка, м
    50
0
    41
0.800000011920929
    51
0
    100
AcDbText
    73
0
    0
TEXT
    5
2C6
    330
239
    100
AcDbEntity
    8
0
    100
AcDbText
    10
24.9808192681819
    20
84.7381303884837
    30
0
    11
24.9808192681819
    21
84.7381303884837
    31
0
    40
2
    1
Отметки земли, м
    50
0
    41
0.800000011920929
    51
0
    100
AcDbText
    73
0
    0
TEXT
    5
2C7
    330
239
    100
AcDbEntity
    8
0
    100
AcDbText
    10
8.80101193371404
    20
76.9000172110479
    30
0
    11
8.80101193371404
    21
76.9000172110479
    31
0
    40
2
    1
Пикет, плюсовое значение
    50
0
    41
0.800000011920929
    51
0
    100
AcDbText
    73
0
    0
TEXT
    5
2C8
    330
239
    100
AcDbEntity
    8
0
    100
AcDbText
    10
8.10811757922093
    20
60
    30
0
    11
8.10811757922093
    21
60
    31
0
    40
2
    1
Элементы
    50
0
    41
0.800000011920929
    51
0
    100
AcDbText
    73
0
    0
TEXT
    5
2C9
    330
239
    100
AcDbEntity
    8
0
    100
AcDbText
    10
8.10811709319306
    20
50
    30
0
    11
8.10811709319306
    21
50
    31
0
    40
2
    1
плана
    50
0
    41
0.800000011920929
    51
0
    100
AcDbText
    73
0
    0
TEXT
    5
2CA
    330
239
    100
AcDbEntity
    8
0
    100
AcDbText
    10
8.10811795529295
    20
40
    30
0
    11
8.10811795529295
    21
40
    31
0
    40
2
    1
I пути
    50
0
    41
0.800000011920929
    51
0
    100
AcDbText
    73
0
    0
TEXT
    5
2CB
    330
239
    100
AcDbEntity
    8
0
    100
AcDbText
    10
8.37682506526603
    20
20
    30
0
    11
8.37682506526603
    21
20
    31
0
    40
2
    1
Элементы
    50
0
    41
0.800000011920929
    51
0
    100
AcDbText
    73
0
    0
TEXT
    5
2CC
    330
239
    100
AcDbEntity
    8
0
    100
AcDbText
    10
8.37682506526603
    20
16.5142297151423
    30
0
    11
8.37682506526603
    21
16.5142297151423
    31
0
    40
2
    1
плана
    50
0
    41
0.800000011920929
    51
0
    100
AcDbText
    73
0
    0
TEXT
    5
2CD
    330
239
    100
AcDbEntity
    8
0
    100
AcDbText
    10
8.37682506526603
    20
12.6601842905914
    30
0
    11
8.37682506526603
    21
12.6601842905914
    31
0
    40
2
    1
II пути
    50
0
    41
0.800000011920929
    51
0
    100
AcDbText
    73
0
    0
TEXT
    5
2CE
    330
239
    100
AcDbEntity
    8
0
    100
AcDbText
    10
39.9929249591612
    20
60
    30
0
    11
39.9929249591612
    21
60
    31
0
    40
2
    1
существующие
    50
0
    41
0.800000011920929
    51
0
    100
AcDbText
    73
0
    0
TEXT
    5
2CF
    330
239
    100
AcDbEntity
    8
0
    100
AcDbText
    10
39.9929242986742
    20
40
    30
0
    11
39.9929242986742
    21
40
    31
0
    40
2
    1
проектные
    50
0
    41
0.800000011920929
    51
0
    100
AcDbText
    73
0
    0
TEXT
    5
2D0
    330
239
    100
AcDbEntity
    8
0
    100
AcDbText
    10
39.9929251671439
    20
16.5142297151423
    30
0
    11
39.9929251671439
    21
16.5142297151423
    31
0
    40
2
    1
существующие
    50
0
    41
0.800000011920929
    51
0
    100
AcDbText
    73
0
    0
TEXT
    5
2D1
    330
239
    100
AcDbEntity
    8
0
    100
AcDbText
    10
25.2004219332464
    20
2.53115290324646
    30
0
    11
25.2004219332464
    21
2.53115290324646
    31
0
    40
2
    1
Километры
    50
0
    41
0.800000011920929
    51
0
    100
AcDbText
    73
0
    0
TEXT
    5
2D2
    330
239
    100
AcDbEntity
    8
0
    100
AcDbText
    10
38.5880330059994
    20
185.06085335982
    30
0
    11
38.5880330059994
    21
185.06085335982
    31
0
    40
2
    1
Отметки
    50
0
    41
0.800000011920929
    51
0
    100
AcDbText
    73
0
    0
TEXT
    5
2D3
    330
239
    100
AcDbEntity
    8
0
    100
AcDbText
    10
32.7995816403904
    20
178.394186693153
    30
0
    11
32.7995816403904
    21
178.394186693153
    31
0
    40
2
    1
головки рельса, м
    50
0
    41
0.800000011920929
    51
0
    100
AcDbText
    73
0
    0
LINE
    5
2D4
    330
239
    100
AcDbEntity
    8
0
    100
AcDbLine
    10
75
    20
395
    30
0
    11
75
    21
0
    31
0
    0
TEXT
    5
2D5
    330
239
    100
AcDbEntity
    8
0
    100
AcDbText
    10
8.06277017615556
    20
103.701045119446
    30
0
    11
8.06277017615556
    21
103.701045119446
    31
0
    40
2
    1
Фактические 
    50
90.0000025044782
    41
1
    51
0
    100
AcDbText
    73
0
    0
TEXT
    5
2D6
    330
239
    100
AcDbEntity
    8
0
    100
AcDbText
    10
12.0714684175943
    20
107.875030457912
    30
0
    11
12.0714684175943
    21
107.875030457912
    31
0
    40
2
    1
данные
    50
90.0000025044782
    41
1
    51
0
    100
AcDbText
    73
0
    0
TEXT
    5
2D7
    330
239
    100
AcDbEntity
    8
0
    100
AcDbText
    10
3.54913605791497
    20
107.894620039782
    30
0
    11
3.54913605791497
    21
107.894620039782
    31
0
    40
2
    1
II путь
    50
90.0000025044782
    41
1
    51
0
    100
AcDbText
    73
0
    0
TEXT
    5
2D8
    330
239
    100
AcDbEntity
    8
0
    100
AcDbText
    10
8.74966505321973
    20
150.748815033164
    30
0
    11
8.74966505321973
    21
150.748815033164
    31
0
    40
2
    1
Фактические 
    50
90.0000025044782
    41
1
    51
0
    100
AcDbText
    73
0
    0
TEXT
    5
2D9
    330
239
    100
AcDbEntity
    8
0
    100
AcDbText
    10
12.7583632946585
    20
154.922800371631
    30
0
    11
12.7583632946585
    21
154.922800371631
    31
0
    40
2
    1
данные
    50
90.0000025044782
    41
1
    51
0
    100
AcDbText
    73
0
    0
TEXT
    5
2DA
    330
239
    100
AcDbEntity
    8
0
    100
AcDbText
    10
9.08631564535486
    20
210.416547467597
    30
0
    11
9.08631564535486
    21
210.416547467597
    31
0
    40
2
    1
Проектные
    50
90.0000025044782
    41
1
    51
0
    100
AcDbText
    73
0
    0
TEXT
    5
2DB
    330
239
    100
AcDbEntity
    8
0
    100
AcDbText
    10
13.0950138867936
    20
214.590532806063
    30
0
    11
13.0950138867936
    21
214.590532806063
    31
0
    40
2
    1
данные
    50
90.0000025044782
    41
1
    51
0
    100
AcDbText
    73
0
    0
TEXT
    5
2DC
    330
239
    100
AcDbEntity
    8
0
    100
AcDbText
    10
3.49521798947058
    20
191.651435189306
    30
0
    11
3.49521798947058
    21
191.651435189306
    31
0
    40
2
    1
I путь
    50
90.0000025044782
    41
1
    51
0
    100
AcDbText
    73
0
    0
LINE
    5
2DD
    330
239
    100
AcDbEntity
    8
0
    100
AcDbLine
    10
75
    20
395
    30
0
    11
75
    21
375
    31
0
    0
TEXT
    5
2DE
    330
239
    100
AcDbEntity
    8
0
    100
AcDbText
    10
85
    20
375
    30
0
    11
85
    21
375
    31
0
    40
2.5
    1
&L
    50
0
    41
1
    51
0
    100
AcDbText
    73
0
    0
TEXT
    5
2DF
    330
239
    100
AcDbEntity
    8
0
    100
AcDbText
    10
85
    20
370
    30
0
    11
85
    21
370
    31
0
    40
2.5
    1
&L
    50
0
    41
1
    51
0
    100
AcDbText
    73
0
    0
TEXT
    5
2E0
    330
239
    100
AcDbEntity
    8
0
    100
AcDbText
    10
85
    20
365
    30
0
    11
85
    21
365
    31
0
    40
2.5
    1
&L
    50
0
    41
1
    51
0
    100
AcDbText
    73
0
    0
TEXT
    5
2E1
    330
239
    100
AcDbEntity
    8
0
    100
AcDbText
    10
85
    20
350
    30
0
    11
85
    21
350
    31
0
    40
2.5
    1
&L
    50
0
    41
1
    51
0
    100
AcDbText
    73
0
    0
TEXT
    5
2E2
    330
239
    100
AcDbEntity
    8
0
    100
AcDbText
    10
85
    20
335
    30
0
    11
85
    21
335
    31
0
    40
2.5
    1
&L
    50
0
    41
1
    51
0
    100
AcDbText
    73
0
    0
TEXT
    5
2E3
    330
239
    100
AcDbEntity
    8
0
    100
AcDbText
    10
85
    20
320
    30
0
    11
85
    21
320
    31
0
    40
2.5
    1
&L
    50
0
    41
1
    51
0
    100
AcDbText
    73
0
    0
TEXT
    5
2E4
    330
239
    100
AcDbEntity
    8
0
    100
AcDbText
    10
85
    20
315
    30
0
    11
85
    21
315
    31
0
    40
2.5
    1
&L
    50
0
    41
1
    51
0
    100
AcDbText
    73
0
    0
TEXT
    5
2E5
    330
239
    100
AcDbEntity
    8
0
    100
AcDbText
    10
85
    20
310
    30
0
    11
85
    21
310
    31
0
    40
2.5
    1
&L
    50
0
    41
1
    51
0
    100
AcDbText
    73
0
    0
TEXT
    5
2E6
    330
239
    100
AcDbEntity
    8
0
    100
AcDbText
    10
85
    20
305
    30
0
    11
85
    21
305
    31
0
    40
2.5
    1
&L
    50
0
    41
1
    51
0
    100
AcDbText
    73
0
    0
TEXT
    5
2E7
    330
239
    100
AcDbEntity
    8
0
    100
AcDbText
    10
85
    20
295
    30
0
    11
85
    21
295
    31
0
    40
2.5
    1
&L
    50
0
    41
1
    51
0
    100
AcDbText
    73
0
    0
TEXT
    5
2E8
    330
239
    100
AcDbEntity
    8
0
    100
AcDbText
    10
85
    20
285
    30
0
    11
85
    21
285
    31
0
    40
2.5
    1
&L
    50
0
    41
1
    51
0
    100
AcDbText
    73
0
    0
TEXT
    5
2E9
    330
239
    100
AcDbEntity
    8
0
    100
AcDbText
    10
85
    20
275
    30
0
    11
85
    21
275
    31
0
    40
2.5
    1
&L
    50
0
    41
1
    51
0
    100
AcDbText
    73
0
    0
TEXT
    5
2EA
    330
239
    100
AcDbEntity
    8
0
    100
AcDbText
    10
85
    20
265
    30
0
    11
85
    21
265
    31
0
    40
2.5
    1
&L
    50
0
    41
1
    51
0
    100
AcDbText
    73
0
    0
TEXT
    5
2EB
    330
239
    100
AcDbEntity
    8
0
    100
AcDbText
    10
85
    20
260
    30
0
    11
85
    21
260
    31
0
    40
2.5
    1
&L
    50
0
    41
1
    51
0
    100
AcDbText
    73
0
    0
TEXT
    5
2EC
    330
239
    100
AcDbEntity
    8
0
    100
AcDbText
    10
85
    20
255
    30
0
    11
85
    21
255
    31
0
    40
2.5
    1
&L
    50
0
    41
1
    51
0
    100
AcDbText
    73
0
    0
TEXT
    5
2ED
    330
239
    100
AcDbEntity
    8
0
    100
AcDbText
    10
85
    20
250
    30
0
    11
85
    21
250
    31
0
    40
2.5
    1
&L
    50
0
    41
1
    51
0
    100
AcDbText
    73
0
    0
TEXT
    5
2EE
    330
239
    100
AcDbEntity
    8
0
    100
AcDbText
    10
85
    20
245
    30
0
    11
85
    21
245
    31
0
    40
2.5
    1
&L
    50
0
    41
1
    51
0
    100
AcDbText
    73
0
    0
TEXT
    5
2EF
    330
239
    100
AcDbEntity
    8
0
    100
AcDbText
    10
85
    20
240
    30
0
    11
85
    21
240
    31
0
    40
2.5
    1
&L
    50
0
    41
1
    51
0
    100
AcDbText
    73
0
    0
TEXT
    5
2F0
    330
239
    100
AcDbEntity
    8
0
    100
AcDbText
    10
85
    20
235
    30
0
    11
85
    21
235
    31
0
    40
2.5
    1
&L
    50
0
    41
1
    51
0
    100
AcDbText
    73
0
    0
TEXT
    5
2F1
    330
239
    100
AcDbEntity
    8
0
    100
AcDbText
    10
85
    20
230
    30
0
    11
85
    21
230
    31
0
    40
2.5
    1
&L
    50
0
    41
1
    51
0
    100
AcDbText
    73
0
    0
TEXT
    5
2F2
    330
239
    100
AcDbEntity
    8
0
    100
AcDbText
    10
85
    20
225
    30
0
    11
85
    21
225
    31
0
    40
2.5
    1
&L
    50
0
    41
1
    51
0
    100
AcDbText
    73
0
    0
TEXT
    5
2F3
    330
239
    100
AcDbEntity
    8
0
    100
AcDbText
    10
85
    20
220
    30
0
    11
85
    21
220
    31
0
    40
2.5
    1
&L
    50
0
    41
1
    51
0
    100
AcDbText
    73
0
    0
TEXT
    5
2F4
    330
239
    100
AcDbEntity
    8
0
    100
AcDbText
    10
85
    20
215
    30
0
    11
85
    21
215
    31
0
    40
2.5
    1
&L
    50
0
    41
1
    51
0
    100
AcDbText
    73
0
    0
TEXT
    5
2F5
    330
239
    100
AcDbEntity
    8
0
    100
AcDbText
    10
85
    20
200
    30
0
    11
85
    21
200
    31
0
    40
2.5
    1
&L
    50
0
    41
1
    51
0
    100
AcDbText
    73
0
    0
TEXT
    5
2F6
    330
239
    100
AcDbEntity
    8
0
    100
AcDbText
    10
85
    20
190
    30
0
    11
85
    21
190
    31
0
    40
2.5
    1
&L
    50
0
    41
1
    51
0
    100
AcDbText
    73
0
    0
TEXT
    5
2F7
    330
239
    100
AcDbEntity
    8
0
    100
AcDbText
    10
85
    20
175
    30
0
    11
85
    21
175
    31
0
    40
2.5
    1
&L
    50
0
    41
1
    51
0
    100
AcDbText
    73
0
    0
TEXT
    5
2F8
    330
239
    100
AcDbEntity
    8
0
    100
AcDbText
    10
85
    20
170
    30
0
    11
85
    21
170
    31
0
    40
2.5
    1
&L
    50
0
    41
1
    51
0
    100
AcDbText
    73
0
    0
TEXT
    5
2F9
    330
239
    100
AcDbEntity
    8
0
    100
AcDbText
    10
85
    20
165
    30
0
    11
85
    21
165
    31
0
    40
2.5
    1
&L
    50
0
    41
1
    51
0
    100
AcDbText
    73
0
    0
TEXT
    5
2FA
    330
239
    100
AcDbEntity
    8
0
    100
AcDbText
    10
85
    20
160
    30
0
    11
85
    21
160
    31
0
    40
2.5
    1
&L
    50
0
    41
1
    51
0
    100
AcDbText
    73
0
    0
TEXT
    5
2FB
    330
239
    100
AcDbEntity
    8
0
    100
AcDbText
    10
85
    20
155
    30
0
    11
85
    21
155
    31
0
    40
2.5
    1
&L
    50
0
    41
1
    51
0
    100
AcDbText
    73
0
    0
TEXT
    5
2FC
    330
239
    100
AcDbEntity
    8
0
    100
AcDbText
    10
85
    20
150
    30
0
    11
85
    21
150
    31
0
    40
2.5
    1
&L
    50
0
    41
1
    51
0
    100
AcDbText
    73
0
    0
TEXT
    5
2FD
    330
239
    100
AcDbEntity
    8
0
    100
AcDbText
    10
85
    20
135
    30
0
    11
85
    21
135
    31
0
    40
2.5
    1
&L
    50
0
    41
1
    51
0
    100
AcDbText
    73
0
    0
TEXT
    5
2FE
    330
239
    100
AcDbEntity
    8
0
    100
AcDbText
    10
85
    20
120
    30
0
    11
85
    21
120
    31
0
    40
2.5
    1
&L
    50
0
    41
1
    51
0
    100
AcDbText
    73
0
    0
TEXT
    5
2FF
    330
239
    100
AcDbEntity
    8
0
    100
AcDbText
    10
85
    20
115
    30
0
    11
85
    21
115
    31
0
    40
2.5
    1
&L
    50
0
    41
1
    51
0
    100
AcDbText
    73
0
    0
TEXT
    5
300
    330
239
    100
AcDbEntity
    8
0
    100
AcDbText
    10
85
    20
110
    30
0
    11
85
    21
110
    31
0
    40
2.5
    1
&L
    50
0
    41
1
    51
0
    100
AcDbText
    73
0
    0
TEXT
    5
301
    330
239
    100
AcDbEntity
    8
0
    100
AcDbText
    10
85
    20
95
    30
0
    11
85
    21
95
    31
0
    40
2.5
    1
&L
    50
0
    41
1
    51
0
    100
AcDbText
    73
0
    0
TEXT
    5
302
    330
239
    100
AcDbEntity
    8
0
    100
AcDbText
    10
85
    20
80
    30
0
    11
85
    21
80
    31
0
    40
2.5
    1
&L
    50
0
    41
1
    51
0
    100
AcDbText
    73
0
    0
TEXT
    5
303
    330
239
    100
AcDbEntity
    8
Бесстыковой путь
    62
1
    100
AcDbText
    10
85
    20
352
    30
0
    11
85
    21
352
    31
0
    40
1
    1
&JW 11 0
    50
0
    41
1
    51
0
    100
AcDbText
    73
0
    0
TEXT
    5
304
    330
239
    100
AcDbEntity
    8
Разность уровней
    62
1
    100
AcDbText
    10
86.2500012749155
    20
270.592332999943
    30
0
    11
85
    21
299.758998976187
    31
0
    40
2.5
    1
&E_DIFF 0 PRF 2 CHZ 100 0
    50
90.0000025044782
    41
1
    51
0
    72
1
    100
AcDbText
    73
2
    0
TEXT
    5
305
    330
239
    100
AcDbEntity
    8
Разность уровней
    100
AcDbText
    10
86.2500012749155
    20
260.896466137495
    30
0
    11
85
    21
290.06313211374
    31
0
    40
2.5
    1
&E_DIFF 0 CHZ 2 CHZ 100 0
    50
90.0000025044782
    41
1
    51
0
    72
1
    100
AcDbText
    73
2
    0
TEXT
    5
306
    330
239
    100
AcDbEntity
    8
Междупутья
    62
1
    100
AcDbText
    10
86.25
    20
276.580069792842
    30
0
    11
85
    21
276.580069738202
    31
0
    40
2.5
    1
&ITS_2 2 3
    50
90.0000025044782
    41
1
    51
0
    100
AcDbText
    73
2
    0
TEXT
    5
307
    330
239
    100
AcDbEntity
    8
Междупутья
    100
AcDbText
    10
86.25
    20
266.438139950115
    30
0
    11
85
    21
266.438139895475
    31
0
    40
2.5
    1
&ITS_2 0 3
    50
90.0000025044782
    41
1
    51
0
    100
AcDbText
    73
2
    0
TEXT
    5
308
    330
239
    100
AcDbEntity
    8
Подъемка_понижение
    62
1
    100
AcDbText
    10
56.0416660308838
    20
235.988852098384
    30
0
    11
85
    21
237.238852098384
    31
0
    40
2.5
    1
&E_DIFF 0 PRF 0 CHZ 100 0
    50
0
    41
1
    51
0
    72
1
    100
AcDbText
    73
2
    0
TEXT
    5
309
    330
239
    100
AcDbEntity
    8
Проектные отметки головок рельсов
    100
AcDbText
    10
86.2500004097943
    20
198.371550310544
    30
0
    11
85
    21
207.746550255905
    31
0
    40
2.5
    1
&E PRF 0
    50
90.0000025044782
    41
1
    51
0
    72
1
    100
AcDbText
    73
2
    0
TEXT
    5
30A
    330
239
    100
AcDbEntity
    8
Фактические отметки головок рельсов
    62
4
    100
AcDbText
    10
86.2500004097943
    20
173.109010651993
    30
0
    11
85
    21
182.484010597354
    31
0
    40
2.5
    1
&E CHZ 0
    50
90.0000025044782
    41
1
    51
0
    72
1
    100
AcDbText
    73
2
    0
TEXT
    5
30B
    330
239
    100
AcDbEntity
    8
Фактические отметки головок рельсов
    100
AcDbText
    10
86.2500004189008
    20
118.383592042554
    30
0
    11
85
    21
127.966925003357
    31
0
    40
2.5
    1
&E CHZ 2
    50
90.0000025044782
    41
1
    51
0
    72
1
    100
AcDbText
    73
2
    0
TEXT
    5
30C
    330
239
    100
AcDbEntity
    8
Фактические отметки головок рельсов
    100
AcDbText
    10
86.2500003915812
    20
78.6549810042371
    30
0
    11
85
    21
87.6133139650397
    31
0
    40
2.5
    1
&E CHI 0
    50
90.0000025044782
    41
1
    51
0
    72
1
    100
AcDbText
    73
2
    0
TEXT
    5
30D
    330
239
    100
AcDbEntity
    8
Красные отметки
    100
AcDbText
    10
76.6666669845581
    20
193.75
    30
0
    11
85
    21
195
    31
0
    40
2.5
    1
&RG PRF
    50
0
    41
1
    51
0
    72
1
    100
AcDbText
    73
2
    0
LINE
    5
30E
    330
239
    100
AcDbEntity
    8
0
    100
AcDbLine
    10
75
    20
200
    30
0
    11
75
    21
190
    31
0
    0
TEXT
    5
30F
    330
239
    100
AcDbEntity
    8
Красные отметки
    100
AcDbText
    10
81.6666667461395
    20
193.75
    30
0
    11
85
    21
195
    31
0
    40
2.5
    1
&RD
    50
0
    41
1
    51
0
    72
1
    100
AcDbText
    73
2
    0
TEXT
    5
310
    330
239
    100
AcDbEntity
    8
Фактические отметки головок рельсов
    62
4
    100
AcDbText
    10
71.875
    20
171.25
    30
0
    11
85
    21
172.5
    31
0
    40
2.5
    1
&RG CHZ 0 5
    50
0
    41
1
    51
0
    72
1
    100
AcDbText
    73
2
    0
TEXT
    5
311
    330
239
    100
AcDbEntity
    8
Фактические отметки головок рельсов
    100
AcDbText
    10
71.6666669845581
    20
116.25
    30
0
    11
85
    21
117.5
    31
0
    40
2.5
    1
&RG CHZ 2 5
    50
0
    41
1
    51
0
    72
1
    100
AcDbText
    73
2
    0
TEXT
    5
312
    330
239
    100
AcDbEntity
    8
Пикеты
    100
AcDbText
    10
80.4166665077209
    20
76.9493420536927
    30
0
    11
85
    21
76.9493420536927
    31
0
    40
2.5
    1
&PKT
    50
0
    41
1
    51
0
    72
1
    100
AcDbText
    73
1
    0
TEXT
    5
313
    330
239
    100
AcDbEntity
    8
Километры
    100
AcDbText
    10
72.9166669845581
    20
0
    30
0
    11
85
    21
0
    31
0
    40
2.5
    1
&K 2 2,5 10
    50
0
    41
1
    51
0
    72
1
    100
AcDbText
    73
1
    0
TEXT
    5
314
    330
239
    100
AcDbEntity
    8
Прямые и кривые в плане
    100
AcDbText
    10
85
    20
60
    30
0
    11
85
    21
60
    31
0
    40
2.5
    1
&PLN_RAIL_2 1 0 2 2 5
    50
0
    41
1
    51
0
    100
AcDbText
    73
0
    0
TEXT
    5
315
    330
239
    100
AcDbEntity
    8
0
    100
AcDbText
    10
73.9583330154419
    20
260.914555269878
    30
0
    11
85
    21
262.164555269878
    31
0
    40
2.5
    1
&PBT 0 100
    50
0
    41
1
    51
0
    72
1
    100
AcDbText
    73
2
    0
TEXT
    5
316
    330
239
    100
AcDbEntity
    8
0
    100
AcDbText
    10
80.4166665077209
    20
256.474405309332
    30
0
    11
85
    21
257.724405309332
    31
0
    40
2.5
    1
&EBT
    50
0
    41
1
    51
0
    72
1
    100
AcDbText
    73
2
    0
TEXT
    5
317
    330
239
    100
AcDbEntity
    8
Прямые и кривые в плане
    62
1
    100
AcDbText
    10
85
    20
40
    30
0
    11
85
    21
40
    31
0
    40
2.5
    1
&PLN_RAIL_2 2 0 2 2 5
    50
0
    41
1
    51
0
    100
AcDbText
    73
0
    0
TEXT
    5
318
    330
239
    100
AcDbEntity
    8
Прямые и кривые в плане
    100
AcDbText
    10
85
    20
16.5142297151423
    30
0
    11
85
    21
16.5142297151423
    31
0
    40
2.5
    1
&PLN_RAIL_2 4 0 2 2 5
    50
0
    41
1
    51
0
    100
AcDbText
    73
0
    0
TEXT
    5
319
    330
239
    100
AcDbEntity
    8
0
    100
AcDbText
    10
49.1666679382324
    20
151.361081904278
    30
0
    11
85
    21
152.611081904278
    31
0
    40
2.5
    1
&REF_POINTS 0 104 OFFSET L 5 2
    50
0
    41
1
    51
0
    72
1
    100
AcDbText
    73
2
    0
TEXT
    5
31A
    330
239
    100
AcDbEntity
    8
Фактические отметки головок рельсов
    100
AcDbText
    10
86.2500004006878
    20
133.732565967525
    30
0
    11
85
    21
142.899232897444
    31
0
    40
2.5
    1
&E CHZ 1
    50
90.0000025044782
    41
1
    51
0
    72
1
    100
AcDbText
    73
2
    0
TEXT
    5
31B
    330
239
    100
AcDbEntity
    8
Фактические отметки головок рельсов
    100
AcDbText
    10
86.2500004189008
    20
92.8096398752704
    30
0
    11
85
    21
102.392972836073
    31
0
    40
2.5
    1
&E CHZ 4
    50
90.0000025044782
    41
1
    51
0
    72
1
    100
AcDbText
    73
2
    0
TEXT
    5
31C
    330
239
    100
AcDbEntity
    8
0
    100
AcDbText
    10
48.3333320617676
    20
111.538822423747
    30
0
    11
85
    21
112.788822423747
    31
0
    40
2.5
    1
&REF_POINTS 3 104 OFFSET R 10 2
    50
0
    41
1
    51
0
    72
1
    100
AcDbText
    73
2
    0
TEXT
    5
31D
    330
239
    100
AcDbEntity
    8
0
    62
1
    100
AcDbText
    10
85.0000609474601
    20
40
    30
0
    11
85.0000609474601
    21
40
    31
0
    40
2.5
    1
&VE 2 5
    50
0
    41
1
    51
0
    100
AcDbText
    73
0
    0
ENDSEC
    0
SECTION
    2
OBJECTS
    0
DICTIONARY
    5
13
    330
0
    100
AcDbDictionary
    281
1
    3
ACAD_GROUP
    350
14
    3
ACAD_MLINESTYLE
    350
16
    3
ACAD_PLOTSETTINGS
    350
17
    3
ACAD_IMAGE_DICT
    350
14D
    3
ACAD_IMAGE_VARS
    350
14E
    3
ACAD_WIPEOUT_VARS
    350
E7
    3
ACAD_PLOTSTYLENAME
    350
18
    3
ACAD_LAYOUT
    350
229
    0
DICTIONARY
    5
14
    330
13
    100
AcDbDictionary
    281
1
    0
DICTIONARY
    5
17
    102
{ACAD_REACTORS
    330
13
    102
}
    330
13
    100
AcDbDictionary
    281
1
    0
ACDBDICTIONARYWDFLT
    5
18
    102
{ACAD_REACTORS
    330
13
    102
}
    330
13
    100
AcDbDictionary
    281
1
    3
Normal
    350
19
    100
AcDbDictionaryWithDefault
    340
19
    0
ACDBPLACEHOLDER
    5
19
    102
{ACAD_REACTORS
    330
18
    102
}
    330
18
    0
DICTIONARY
    5
7E
    102
{ACAD_REACTORS
    330
C
    102
}
    330
C
    100
AcDbDictionary
    281
1
    3
Standard
    350
7F
    0
WIPEOUTVARIABLES
    5
E7
    102
{ACAD_REACTORS
    330
C
    102
}
    330
C
    100
AcDbWipeoutVariables
    70
0
    0
DICTIONARY
    5
1B
    330
1A
    100
AcDbDictionary
    280
1
    281
1
    3
ACLYDICTIONARY
    360
231
    3
ACAD_LAYERSTATES
    360
22F
    0
DICTIONARY
    5
22F
    102
{ACAD_REACTORS
    330
1B
    102
}
    330
1B
    100
AcDbDictionary
    281
1
    0
DICTIONARY
    5
231
    102
{ACAD_REACTORS
    330
1B
    102
}
    330
1B
    100
AcDbDictionary
    281
1
    3
*A1
    350
233
    3
*A2
    350
236
    0
XRECORD
    5
233
    102
{ACAD_REACTORS
    330
231
    102
}
    330
231
    100
AcDbXrecord
    280
1
    1
AcLyLayerFilter
    90
1
    300
Все используемые слои
    301
USED=="TRUE" AND VPOVERRIDES=="FALSE"
    0
XRECORD
    5
236
    102
{ACAD_REACTORS
    330
231
    102
}
    330
231
    100
AcDbXrecord
    280
1
    1
AcLyLayerFilter
    90
1
    300
Все видимые слои
    301
OFF=="FALSE"
    0
DICTIONARY
    5
229
    102
{ACAD_REACTORS
    330
C
    102
}
    330
C
    100
AcDbDictionary
    281
1
    3
Model
    350
22A
    0
LAYOUT
    5
22A
    100
AcDbPlotSettings
    1

    2
none_device
    4

    6

    40
0
    41
0
    42
0
    43
0
    44
297
    45
210
    46
0
    47
0
    48
0
    49
0
    140
0
    141
0
    142
1
    143
1
    70
4784
    72
1
    73
0
    74
5
    7

    75
0
    147
1
    148
0
    149
0
    100
AcDbLayout
    1
Model
    70
1
    71
0
    330
239
    0
DICTIONARY
    5
E6
    330
10
    100
AcDbDictionary
    280
1
    281
1
    3
ADSK_XREC_LAYER_RECONCILED
    360
155
    0
DICTIONARY
    5
16
    102
{ACAD_REACTORS
    330
C
    102
}
    330
C
    100
AcDbDictionary
    281
1
    3
Standard
    350
227
    0
MLINESTYLE
    5
227
    102
{ACAD_REACTORS
    330
16
    102
}
    330
16
    100
AcDbMlineStyle
    2
Standard
    70
0
    3

    62
256
    51
90.0000025044782
    52
90.0000025044782
    71
2
    49
0.5
    62
256
    49
-0.5
    62
256
    0
DICTIONARY
    5
14D
    102
{ACAD_REACTORS
    330
C
    102
}
    330
C
    100
AcDbDictionary
    281
1
    0
RASTERVARIABLES
    5
14E
    102
{ACAD_REACTORS
    330
C
    102
}
    330
C
    100
AcDbRasterVariables
    90
0
    70
1
    71
1
    72
5
    0
XRECORD
    5
155
    102
{ACAD_REACTORS
    330
E6
    102
}
    330
E6
    100
AcDbXrecord
    280
1
    290
1
    0
ENDSEC
    0
EOF
