    0
SECTION
    2
HEADER
    9
$ACADVER
    1
AC1015
    9
$DWGCODEPAGE
    3
ANSI_1251
    9
$HANDSEED
    5
2BD
    9
$TILEMODE
    70
1
    9
$CECOLOR
    62
256
    9
$CELTSCALE
    40
1
    9
$CELTYPE
    6
ByLayer
    9
$CELWEIGHT
    370
-1
    9
$CLAYER
    8
0
    9
$CMLSTYLE
    2
Standard
    9
$DIMSTYLE
    2
ISO-25
    9
$INSBASE
    10
0
    20
0
    30
0
    9
$PDMODE
    70
0
    9
$PDSIZE
    40
0
    9
$TEXTSTYLE
    7
Standard
    9
$LWDISPLAY
    290
0
    9
$LTSCALE
    40
1
    9
$PSLTSCALE
    70
0
    9
$LIMMIN
    10
0
    20
143.541667883593
    9
$LIMMAX
    10
148.333332061768
    20
422.5
    9
$MEASUREMENT
    70
1
    0
ENDSEC
    0
SECTION
    2
CLASSES
    0
CLASS
    1
RASTERVARIABLES
    2
AcDbRasterVariables
    3
ISM
    90
0
    280
0
    281
0
    0
CLASS
    1
IMAGEDEF
    2
AcDbRasterImageDef
    3
ISM
    90
0
    280
0
    281
0
    0
CLASS
    1
IMAGEDEF_REACTOR
    2
AcDbRasterImageDefReactor
    3
ISM
    90
1
    280
0
    281
0
    0
CLASS
    1
IMAGE
    2
AcDbRasterImage
    3
ISM
    90
2175
    280
0
    281
1
    0
CLASS
    1
WIPEOUT
    2
AcDbWipeout
    3
"WipeOut|Product Desc: Object Enabler for WipeOut entity^I^I^I^I^I^I|Company: Autodesk, Inc.^I^I^I^I^I^I|WEB Address: www.autodesk.com"
    90
2175
    280
0
    281
1
    0
CLASS
    1
WIPEOUTVARIABLES
    2
AcDbWipeoutVariables
    3
"WipeOut|Product Desc:     WipeOut Dbx Application|Company:          Autodesk, Inc.|WEB Address:      www.autodesk.com"
    90
0
    280
0
    281
0
    0
CLASS
    1
ARC_DIMENSION
    2
AcDbArcDimension
    3
ObjectDBX Classes
    90
1025
    280
0
    281
1
    0
CLASS
    1
LARGE_RADIAL_DIMENSION
    2
AcDbRadialDimensionLarge
    3
ObjectDBX Classes
    90
1025
    280
0
    281
1
    0
CLASS
    1
LAYOUT
    2
AcDbLayout
    3
ObjectDBX Classes
    90
0
    280
0
    281
0
    0
ENDSEC
    0
SECTION
    2
TABLES
    0
TABLE
    2
VPORT
    5
1
    100
AcDbSymbolTable
    0
ENDTAB
    0
TABLE
    2
LTYPE
    5
2
    100
AcDbSymbolTable
    0
LTYPE
    5
203
    100
AcDbSymbolTableRecord
    100
AcDbLinetypeTableRecord
    2
ByLayer
    3
По слою
    70
0
    72
65
    73
0
    40
0
    0
LTYPE
    5
204
    100
AcDbSymbolTableRecord
    100
AcDbLinetypeTableRecord
    2
ByBlock
    3
По блоку
    70
0
    72
65
    73
0
    40
0
    0
LTYPE
    5
205
    100
AcDbSymbolTableRecord
    100
AcDbLinetypeTableRecord
    2
Continuous
    3
Сплошная
    70
0
    72
65
    73
0
    40
0
    0
LTYPE
    5
206
    100
AcDbSymbolTableRecord
    100
AcDbLinetypeTableRecord
    2
GeologyDash
    3
Штриховая линия элементов геологии
    70
0
    72
65
    73
2
    40
3.33333325386047
    49
1.66666662693024
    74
0
    49
-1.66666662693024
    74
0
    0
ENDTAB
    0
TABLE
    2
LAYER
    5
1A
    102
{ACAD_XDICTIONARY
    360
1B
    102
}
    330
0
    100
AcDbSymbolTable
    0
LAYER
    5
10
    100
AcDbSymbolTableRecord
    100
AcDbLayerTableRecord
    2
0
    70
0
    62
7
    6
Continuous
    370
-3
    390
19
    0
LAYER
    5
209
    100
AcDbSymbolTableRecord
    100
AcDbLayerTableRecord
    2
Пикеты
    70
0
    62
7
    6
Continuous
    370
-3
    390
19
    0
LAYER
    5
20A
    100
AcDbSymbolTableRecord
    100
AcDbLayerTableRecord
    2
Километры
    70
0
    62
7
    6
Continuous
    370
-3
    390
19
    0
LAYER
    5
20B
    100
AcDbSymbolTableRecord
    100
AcDbLayerTableRecord
    2
Таблица
    70
0
    62
7
    6
Continuous
    370
-3
    390
19
    0
LAYER
    5
20C
    100
AcDbSymbolTableRecord
    100
AcDbLayerTableRecord
    2
Красные отметки
    70
0
    62
1
    6
Continuous
    370
-3
    390
19
    0
LAYER
    5
20D
    100
AcDbSymbolTableRecord
    100
AcDbLayerTableRecord
    2
Прямые и кривые в плане
    70
0
    62
7
    6
Continuous
    370
-3
    390
19
    0
LAYER
    5
20E
    100
AcDbSymbolTableRecord
    100
AcDbLayerTableRecord
    2
Проектные отметки головок рельсов
    70
0
    62
1
    6
Continuous
    370
-3
    390
19
    0
LAYER
    5
20F
    100
AcDbSymbolTableRecord
    100
AcDbLayerTableRecord
    2
Фактические отметки головок рельсов
    70
0
    62
7
    6
Continuous
    370
-3
    390
19
    0
LAYER
    5
210
    100
AcDbSymbolTableRecord
    100
AcDbLayerTableRecord
    2
Красный профиль
    70
0
    62
1
    6
Continuous
    370
-3
    390
19
    0
LAYER
    5
211
    100
AcDbSymbolTableRecord
    100
AcDbLayerTableRecord
    2
Коммуникации
    70
0
    62
7
    6
Continuous
    370
-3
    390
19
    0
LAYER
    5
212
    100
AcDbSymbolTableRecord
    100
AcDbLayerTableRecord
    2
Черный профиль
    70
0
    62
3
    6
Continuous
    370
-3
    390
19
    0
LAYER
    5
213
    100
AcDbSymbolTableRecord
    100
AcDbLayerTableRecord
    2
Геология_список_ИГЭ
    70
0
    62
7
    6
Continuous
    370
-3
    390
19
    0
LAYER
    5
214
    100
AcDbSymbolTableRecord
    100
AcDbLayerTableRecord
    2
Геология_подписи
    70
0
    62
7
    6
Continuous
    370
-3
    390
19
    0
LAYER
    5
215
    100
AcDbSymbolTableRecord
    100
AcDbLayerTableRecord
    2
Геология_вода
    70
0
    62
7
    6
Continuous
    370
-3
    390
19
    0
LAYER
    5
216
    100
AcDbSymbolTableRecord
    100
AcDbLayerTableRecord
    2
Геология_мерзлота
    70
0
    62
7
    6
Continuous
    370
-3
    390
19
    0
LAYER
    5
217
    100
AcDbSymbolTableRecord
    100
AcDbLayerTableRecord
    2
Геология_опробование
    70
0
    62
7
    6
Continuous
    370
-3
    390
19
    0
LAYER
    5
218
    100
AcDbSymbolTableRecord
    100
AcDbLayerTableRecord
    2
Геология_выработки
    70
0
    62
7
    6
Continuous
    370
-3
    390
19
    0
LAYER
    5
219
    100
AcDbSymbolTableRecord
    100
AcDbLayerTableRecord
    2
Геология_контуры
    70
0
    62
7
    6
Continuous
    370
-3
    390
19
    0
LAYER
    5
21A
    100
AcDbSymbolTableRecord
    100
AcDbLayerTableRecord
    2
Геология_штриховки
    70
0
    62
8
    6
Continuous
    370
-3
    390
19
    0
LAYER
    5
21B
    100
AcDbSymbolTableRecord
    100
AcDbLayerTableRecord
    2
Рабочие отметки
    70
0
    62
7
    6
Continuous
    370
-3
    390
19
    0
LAYER
    5
21C
    100
AcDbSymbolTableRecord
    100
AcDbLayerTableRecord
    2
Таблица отметок
    70
0
    62
7
    6
Continuous
    370
-3
    390
19
    0
LAYER
    5
21D
    100
AcDbSymbolTableRecord
    100
AcDbLayerTableRecord
    2
Линейка абсолютных высот
    70
0
    62
7
    6
Continuous
    370
-3
    390
19
    0
LAYER
    5
21E
    100
AcDbSymbolTableRecord
    100
AcDbLayerTableRecord
    2
Резаные пикеты
    70
0
    62
7
    6
Continuous
    370
-3
    390
19
    0
LAYER
    5
21F
    100
AcDbSymbolTableRecord
    100
AcDbLayerTableRecord
    2
Междупутья
    70
0
    62
7
    6
Continuous
    370
-3
    390
19
    0
LAYER
    5
220
    100
AcDbSymbolTableRecord
    100
AcDbLayerTableRecord
    2
Геология_испытания_крыльчаткой
    70
0
    62
7
    6
Continuous
    370
-3
    390
19
    0
LAYER
    5
221
    100
AcDbSymbolTableRecord
    100
AcDbLayerTableRecord
    2
Ссылочные профили
    70
0
    62
144
    6
Continuous
    370
-3
    390
19
    0
LAYER
    5
222
    100
AcDbSymbolTableRecord
    100
AcDbLayerTableRecord
    2
Разность уровней
    70
0
    62
7
    6
Continuous
    370
-3
    390
19
    0
LAYER
    5
223
    100
AcDbSymbolTableRecord
    100
AcDbLayerTableRecord
    2
Подъемка_понижение
    70
0
    62
7
    6
Continuous
    370
-3
    390
19
    0
LAYER
    5
224
    100
AcDbSymbolTableRecord
    100
AcDbLayerTableRecord
    2
УВВ
    70
0
    62
7
    6
Continuous
    370
-3
    390
19
    0
LAYER
    5
225
    100
AcDbSymbolTableRecord
    100
AcDbLayerTableRecord
    2
Бесстыковой путь
    70
0
    62
7
    6
Continuous
    370
-3
    390
19
    0
ENDTAB
    0
TABLE
    2
STYLE
    5
5
    100
AcDbSymbolTable
    0
STYLE
    5
201
    100
AcDbSymbolTableRecord
    100
AcDbTextStyleTableRecord
    2
Standard
    70
0
    40
0
    41
1
    50
0
    71
0
    42
2
    3
txt
    4

    0
ENDTAB
    0
TABLE
    2
VIEW
    5
7
    100
AcDbSymbolTable
    0
ENDTAB
    0
TABLE
    2
UCS
    5
8
    100
AcDbSymbolTable
    0
ENDTAB
    0
TABLE
    2
APPID
    5
9
    100
AcDbSymbolTable
    0
APPID
    5
A
    100
AcDbSymbolTableRecord
    100
AcDbRegAppTableRecord
    2
ACAD
    70
0
    0
APPID
    5
108
    330
9
    100
AcDbSymbolTableRecord
    100
AcDbRegAppTableRecord
    2
AcAecLayerStandard
    70
0
    0
APPID
    5
107
    330
9
    100
AcDbSymbolTableRecord
    100
AcDbRegAppTableRecord
    2
ACAD_MLEADERVER
    70
0
  0
APPID
  5
DF
330
9
100
AcDbSymbolTableRecord
100
AcDbRegAppTableRecord
  2
ACAD_DSTYLE_DIMJAG
 70
     0
  0
APPID
  5
E0
330
9
100
AcDbSymbolTableRecord
100
AcDbRegAppTableRecord
  2
ACAD_DSTYLE_DIMTALN
 70
     0
    0
ENDTAB
    0
TABLE
    2
DIMSTYLE
    5
B
    330
0
    100
AcDbSymbolTable
    70
2
    100
AcDbDimStyleTable
    71
2
    0
DIMSTYLE
    105
22C
    330
B
    100
AcDbSymbolTableRecord
    100
AcDbDimStyleTableRecord
    2
Standard
    70
0
    340
201
    0
DIMSTYLE
    105
22D
    330
B
    100
AcDbSymbolTableRecord
    100
AcDbDimStyleTableRecord
    2
ISO-25
    70
0
    43
3.75
    42
0.625
    44
1.25
    41
2.5
    141
2.5
    140
2.5
    147
0.625
    77
1
    73
0
    74
0
    172
1
    78
8
    171
3
    143
0.0393700785934925
    340
201
    0
ENDTAB
    0
TABLE
    2
BLOCK_RECORD
    5
C
    100
AcDbSymbolTable
    0
BLOCK_RECORD
    5
239
    100
AcDbSymbolTableRecord
    100
AcDbBlockTableRecord
    2
*MODEL_SPACE
    0
BLOCK_RECORD
    5
E
    100
AcDbSymbolTableRecord
    100
AcDbBlockTableRecord
    2
*PAPER_SPACE
    0
ENDTAB
    0
ENDSEC
    0
SECTION
    2
BLOCKS
    0
BLOCK
    5
23A
    330
239
    100
AcDbEntity
    8
0
    100
AcDbBlockBegin
    2
*MODEL_SPACE
    70
0
    10
0
    20
0
    30
0
    3
*MODEL_SPACE
    1

    4

    0
ENDBLK
    5
23B
    100
AcDbEntity
    8
0
    100
AcDbBlockEnd
    0
BLOCK
    5
11
    330
E
    100
AcDbEntity
    8
0
    100
AcDbBlockBegin
    2
*PAPER_SPACE
    70
0
    10
0
    20
0
    30
0
    3
*PAPER_SPACE
    1

    4

    0
ENDBLK
    5
12
    100
AcDbEntity
    8
0
    100
AcDbBlockEnd
    0
ENDSEC
    0
SECTION
    2
ENTITIES
    0
TEXT
    5
23C
    330
239
    100
AcDbEntity
    8
0
    100
AcDbText
    10
8
    20
410
    30
0
    11
8
    21
410
    31
0
    40
2
    1
&SH 10000
    50
0
    41
1
    51
0
    100
AcDbText
    73
0
    0
TEXT
    5
23D
    330
239
    100
AcDbEntity
    8
0
    100
AcDbText
    10
8
    20
405
    30
0
    11
8
    21
405
    31
0
    40
2
    1
&SV 200
    50
0
    41
1
    51
0
    100
AcDbText
    73
0
    0
TEXT
    5
23E
    330
239
    100
AcDbEntity
    8
Коммуникации
    100
AcDbText
    10
85
    20
395
    30
0
    11
85
    21
395
    31
0
    40
2.5
    1
&COMMUNICATIONS
    50
0
    41
1
    51
0
    100
AcDbText
    73
0
    0
TEXT
    5
23F
    330
239
    100
AcDbEntity
    8
Черный профиль
    100
AcDbText
    10
85
    20
395
    30
0
    11
85
    21
395
    31
0
    40
2.5
    1
&EP
    50
0
    41
1
    51
0
    100
AcDbText
    73
0
    0
TEXT
    5
240
    330
239
    100
AcDbEntity
    8
Геология_список_ИГЭ
    100
AcDbText
    10
85
    20
395
    30
0
    11
85
    21
395
    31
0
    40
2.5
    1
&GEOLOGY_LEGEND
    50
0
    41
1
    51
0
    100
AcDbText
    73
0
    0
TEXT
    5
241
    330
239
    100
AcDbEntity
    8
Геология_подписи
    100
AcDbText
    10
85
    20
395
    30
0
    11
85
    21
395
    31
0
    40
2.5
    1
&GEOLOGY_NOTES
    50
0
    41
1
    51
0
    100
AcDbText
    73
0
    0
TEXT
    5
242
    330
239
    100
AcDbEntity
    8
Геология_вода
    100
AcDbText
    10
85
    20
395
    30
0
    11
85
    21
395
    31
0
    40
2.5
    1
&GEOLOGY_WATER
    50
0
    41
1
    51
0
    100
AcDbText
    73
0
    0
TEXT
    5
243
    330
239
    100
AcDbEntity
    8
Геология_мерзлота
    100
AcDbText
    10
85
    20
395
    30
0
    11
85
    21
395
    31
0
    40
2.5
    1
&GEOLOGY_FROST
    50
0
    41
1
    51
0
    100
AcDbText
    73
0
    0
TEXT
    5
244
    330
239
    100
AcDbEntity
    8
Геология_опробование
    100
AcDbText
    10
85
    20
395
    30
0
    11
85
    21
395
    31
0
    40
1.25
    1
&GEOLOGY_ASSAYS 2.0
    50
0
    41
1
    51
0
    100
AcDbText
    73
0
    0
TEXT
    5
245
    330
239
    100
AcDbEntity
    8
Геология_испытания_крыльчаткой
    100
AcDbText
    10
85
    20
395
    30
0
    11
85
    21
395
    31
0
    40
2.5
    1
&GEOLOGY_IMPELLERTESTS 1.0
    50
0
    41
1
    51
0
    100
AcDbText
    73
0
    0
TEXT
    5
246
    330
239
    100
AcDbEntity
    8
Геология_выработки
    100
AcDbText
    10
85
    20
395
    30
0
    11
85
    21
395
    31
0
    40
2.5
    1
&GEOLOGY_BOREHOLES 1.0
    50
0
    41
1
    51
0
    100
AcDbText
    73
0
    0
TEXT
    5
247
    330
239
    100
AcDbEntity
    8
Геология_контуры
    100
AcDbText
    10
85
    20
395
    30
0
    11
85
    21
395
    31
0
    40
2.5
    1
&GEOLOGY_CONTOURS
    50
0
    41
1
    51
0
    100
AcDbText
    73
0
    0
TEXT
    5
248
    330
239
    100
AcDbEntity
    8
Геология_штриховки
    100
AcDbText
    10
85
    20
395
    30
0
    11
85
    21
395
    31
0
    40
2.5
    1
&GEOLOGY_GROUNDS_HATCHES
    50
0
    41
1
    51
0
    100
AcDbText
    73
0
    0
TEXT
    5
249
    330
239
    100
AcDbEntity
    8
Таблица
    100
AcDbText
    10
85
    20
395
    30
0
    11
85
    21
395
    31
0
    40
2
    1
&L
    50
0
    41
1
    51
0
    100
AcDbText
    73
0
    0
TEXT
    5
24A
    330
239
    100
AcDbEntity
    8
Рабочие отметки
    100
AcDbText
    10
85
    20
395
    30
0
    11
85
    21
395
    31
0
    40
2.5
    1
&EW
    50
90.0000025044782
    41
1
    51
0
    100
AcDbText
    73
0
    0
TEXT
    5
24B
    330
239
    100
AcDbEntity
    8
Линейка абсолютных высот
    100
AcDbText
    10
85
    20
395
    30
0
    11
85
    21
395
    31
0
    40
2.5
    1
&ABS_ELEVATIONS_RANGE_LINE
    50
0
    41
1
    51
0
    100
AcDbText
    73
0
    0
TEXT
    5
24C
    330
239
    100
AcDbEntity
    8
Красный профиль
    100
AcDbText
    10
85
    20
395
    30
0
    11
85
    21
395
    31
0
    40
2.5
    1
&RPP
    50
0
    41
1
    51
0
    100
AcDbText
    73
0
    0
TEXT
    5
24D
    330
239
    100
AcDbEntity
    8
Красный профиль
    100
AcDbText
    10
85
    20
395
    30
0
    11
85
    21
395
    31
0
    40
2.5
    1
&RPC
    50
0
    41
1
    51
0
    100
AcDbText
    73
0
    0
TEXT
    5
24E
    330
239
    100
AcDbEntity
    8
0
    100
AcDbText
    10
8
    20
420
    30
0
    11
8
    21
420
    31
0
    40
2.5
    1
&TITLE "Модернизация железнодорожного пути. Сводные данные"
    50
0
    41
0.800000011920929
    51
0
    100
AcDbText
    73
0
    0
TEXT
    5
24F
    330
239
    100
AcDbEntity
    8
0
    100
AcDbText
    10
8
    20
415
    30
0
    11
8
    21
415
    31
0
    40
2.5
    1
&PROFILE_TYPE 4
    50
0
    41
0.800000011920929
    51
0
    100
AcDbText
    73
0
    0
TEXT
    5
250
    330
239
    100
AcDbEntity
    8
Ссылочные профили
    100
AcDbText
    10
85
    20
395
    30
0
    11
85
    21
395
    31
0
    40
2.5
    1
&REFP 1
    50
0
    41
0.800000011920929
    51
0
    100
AcDbText
    73
0
    0
TEXT
    5
251
    330
239
    100
AcDbEntity
    8
Ссылочные профили
    100
AcDbText
    10
85
    20
395
    30
0
    11
85
    21
395
    31
0
    40
2.5
    1
&REFP 0
    50
0
    41
0.800000011920929
    51
0
    100
AcDbText
    73
0
    0
TEXT
    5
252
    330
239
    100
AcDbEntity
    8
УВВ
    100
AcDbText
    10
85
    20
395
    30
0
    11
85
    21
395
    31
0
    40
2.5
    1
&UVV
    50
0
    41
1
    51
0
    100
AcDbText
    73
0
    0
LINE
    5
253
    330
239
    100
AcDbEntity
    8
0
    100
AcDbLine
    10
0
    20
395
    30
0
    11
75
    21
395
    31
0
    0
LINE
    5
254
    330
239
    100
AcDbEntity
    8
0
    100
AcDbLine
    10
0
    20
345
    30
0
    11
75
    21
345
    31
0
    0
LINE
    5
255
    330
239
    100
AcDbEntity
    8
0
    100
AcDbLine
    10
0
    20
315
    30
0
    11
75
    21
315
    31
0
    0
LINE
    5
256
    330
239
    100
AcDbEntity
    8
0
    100
AcDbLine
    10
0
    20
295
    30
0
    11
75
    21
295
    31
0
    0
LINE
    5
257
    330
239
    100
AcDbEntity
    8
0
    100
AcDbLine
    10
0
    20
275
    30
0
    11
75
    21
275
    31
0
    0
LINE
    5
258
    330
239
    100
AcDbEntity
    8
0
    100
AcDbLine
    10
0
    20
255
    30
0
    11
75
    21
255
    31
0
    0
LINE
    5
259
    330
239
    100
AcDbEntity
    8
0
    100
AcDbLine
    10
0
    20
175
    30
0
    11
75
    21
175
    31
0
    0
LINE
    5
25A
    330
239
    100
AcDbEntity
    8
0
    100
AcDbLine
    10
0
    20
170
    30
0
    11
75
    21
170
    31
0
    0
LINE
    5
25B
    330
239
    100
AcDbEntity
    8
0
    100
AcDbLine
    10
0
    20
165
    30
0
    11
75
    21
165
    31
0
    0
LINE
    5
25C
    330
239
    100
AcDbEntity
    8
0
    100
AcDbLine
    10
75
    20
395
    30
0
    11
75
    21
165
    31
0
    0
LINE
    5
25D
    330
239
    100
AcDbEntity
    8
0
    100
AcDbLine
    10
55
    20
315
    30
0
    11
55
    21
175
    31
0
    0
LINE
    5
25E
    330
239
    100
AcDbEntity
    8
0
    100
AcDbLine
    10
55
    20
255
    30
0
    11
50
    21
255
    31
0
    0
LINE
    5
25F
    330
239
    100
AcDbEntity
    8
0
    100
AcDbLine
    10
50
    20
255
    30
0
    11
50
    21
175
    31
0
    0
LINE
    5
260
    330
239
    100
AcDbEntity
    8
0
    100
AcDbLine
    10
10
    20
215
    30
0
    11
75
    21
215
    31
0
    0
LINE
    5
261
    330
239
    100
AcDbEntity
    8
0
    100
AcDbLine
    10
0
    20
255
    30
0
    11
10
    21
255
    31
0
    0
LINE
    5
262
    330
239
    100
AcDbEntity
    8
0
    100
AcDbLine
    10
10
    20
255
    30
0
    11
10
    21
175
    31
0
    0
LINE
    5
263
    330
239
    100
AcDbEntity
    8
0
    100
AcDbLine
    10
50
    20
235
    30
0
    11
75
    21
235
    31
0
    0
LINE
    5
264
    330
239
    100
AcDbEntity
    8
0
    100
AcDbLine
    10
55
    20
245
    30
0
    11
75
    21
245
    31
0
    0
LINE
    5
265
    330
239
    100
AcDbEntity
    8
0
    100
AcDbLine
    10
55
    20
225
    30
0
    11
75
    21
225
    31
0
    0
TEXT
    5
266
    330
239
    100
AcDbEntity
    8
0
    100
AcDbText
    10
17.4997217858496
    20
368.039927795194
    30
0
    11
17.4997217858496
    21
368.039927795194
    31
0
    40
2
    1
Ситуационный план
    50
0
    41
1
    51
0
    100
AcDbText
    73
0
    0
TEXT
    5
267
    330
239
    100
AcDbEntity
    8
0
    100
AcDbText
    10
11.1346729721708
    20
334.322371917328
    30
0
    11
11.1346729721708
    21
334.322371917328
    31
0
    40
2
    1
Проектный план линии
    50
0
    41
1
    51
0
    100
AcDbText
    73
0
    0
TEXT
    5
268
    330
239
    100
AcDbEntity
    8
0
    100
AcDbText
    10
11.1346729721708
    20
330.989038583995
    30
0
    11
11.1346729721708
    21
330.989038583995
    31
0
    40
2
    1
ремонтируемого пути
    50
0
    41
1
    51
0
    100
AcDbText
    73
0
    0
TEXT
    5
269
    330
239
    100
AcDbEntity
    8
0
    100
AcDbText
    10
58.4424682089728
    20
309.206233355245
    30
0
    11
58.4424682089728
    21
309.206233355245
    31
0
    40
2
    1
лево
    50
0
    41
1
    51
0
    100
AcDbText
    73
0
    0
TEXT
    5
26A
    330
239
    100
AcDbEntity
    8
0
    100
AcDbText
    10
58.4424682089728
    20
299.487975759866
    30
0
    11
58.4424682089728
    21
299.487975759866
    31
0
    40
2
    1
право
    50
0
    41
1
    51
0
    100
AcDbText
    73
0
    0
LINE
    5
26B
    330
239
    100
AcDbEntity
    8
0
    100
AcDbLine
    10
55
    20
305
    30
0
    11
75
    21
305
    31
0
    0
LINE
    5
26C
    330
239
    100
AcDbEntity
    8
0
    100
AcDbLine
    10
55
    20
285
    30
0
    11
75
    21
285
    31
0
    0
LINE
    5
26D
    330
239
    100
AcDbEntity
    8
0
    100
AcDbLine
    10
55
    20
265
    30
0
    11
75
    21
265
    31
0
    0
TEXT
    5
26E
    330
239
    100
AcDbEntity
    8
0
    100
AcDbText
    10
58.4424682089728
    20
289.206233355245
    30
0
    11
58.4424682089728
    21
289.206233355245
    31
0
    40
2
    1
лево
    50
0
    41
1
    51
0
    100
AcDbText
    73
0
    0
TEXT
    5
26F
    330
239
    100
AcDbEntity
    8
0
    100
AcDbText
    10
58.4424682089728
    20
279.487975759866
    30
0
    11
58.4424682089728
    21
279.487975759866
    31
0
    40
2
    1
право
    50
0
    41
1
    51
0
    100
AcDbText
    73
0
    0
TEXT
    5
270
    330
239
    100
AcDbEntity
    8
0
    100
AcDbText
    10
58.4424682089728
    20
269.206233355245
    30
0
    11
58.4424682089728
    21
269.206233355245
    31
0
    40
2
    1
лево
    50
0
    41
1
    51
0
    100
AcDbText
    73
0
    0
TEXT
    5
271
    330
239
    100
AcDbEntity
    8
0
    100
AcDbText
    10
58.4424682089728
    20
259.487975759866
    30
0
    11
58.4424682089728
    21
259.487975759866
    31
0
    40
2
    1
право
    50
0
    41
1
    51
0
    100
AcDbText
    73
0
    0
TEXT
    5
272
    330
239
    100
AcDbEntity
    8
0
    100
AcDbText
    10
4.40473590829903
    20
309.094011738702
    30
0
    11
4.40473590829903
    21
309.094011738702
    31
0
    40
2
    1
Номера опор
    50
0
    41
1
    51
0
    100
AcDbText
    73
0
    0
TEXT
    5
273
    330
239
    100
AcDbEntity
    8
0
    100
AcDbText
    10
4.40473590829903
    20
305.760678405369
    30
0
    11
4.40473590829903
    21
305.760678405369
    31
0
    40
2
    1
контактной сети
    50
0
    41
1
    51
0
    100
AcDbText
    73
0
    0
TEXT
    5
274
    330
239
    100
AcDbEntity
    8
0
    100
AcDbText
    10
4.40473590829903
    20
302.427345072036
    30
0
    11
4.40473590829903
    21
302.427345072036
    31
0
    40
2
    1
и светофоров
    50
0
    41
1
    51
0
    100
AcDbText
    73
0
    0
TEXT
    5
275
    330
239
    100
AcDbEntity
    8
0
    100
AcDbText
    10
4.40473590829903
    20
290.514950336613
    30
0
    11
4.40473590829903
    21
290.514950336613
    31
0
    40
2
    1
Плюсовое значение опор
    50
0
    41
1
    51
0
    100
AcDbText
    73
0
    0
TEXT
    5
276
    330
239
    100
AcDbEntity
    8
0
    100
AcDbText
    10
4.40473590829903
    20
287.18161700328
    30
0
    11
4.40473590829903
    21
287.18161700328
    31
0
    40
2
    1
контактной
    50
0
    41
1
    51
0
    100
AcDbText
    73
0
    0
TEXT
    5
277
    330
239
    100
AcDbEntity
    8
0
    100
AcDbText
    10
4.40473590829903
    20
283.848283669946
    30
0
    11
4.40473590829903
    21
283.848283669946
    31
0
    40
2
    1
сети, светофоров и других
    50
0
    41
1
    51
0
    100
AcDbText
    73
0
    0
TEXT
    5
278
    330
239
    100
AcDbEntity
    8
0
    100
AcDbText
    10
4.40473590829903
    20
280.514950336613
    30
0
    11
4.40473590829903
    21
280.514950336613
    31
0
    40
2
    1
сооружений
    50
0
    41
1
    51
0
    100
AcDbText
    73
0
    0
TEXT
    5
279
    330
239
    100
AcDbEntity
    8
0
    100
AcDbText
    10
4.40473590829903
    20
266.632930309498
    30
0
    11
4.40473590829903
    21
266.632930309498
    31
0
    40
2
    1
Рихтовка пути, м
    50
0
    41
1
    51
0
    100
AcDbText
    73
0
    0
TEXT
    5
27A
    330
239
    100
AcDbEntity
    8
0
    100
AcDbText
    10
6.0330578019796
    20
189.61082217055
    30
0
    11
6.0330578019796
    21
189.61082217055
    31
0
    40
2
    1
Расстояние от оси пути до
    50
90.0000025044782
    41
1
    51
0
    100
AcDbText
    73
0
    0
TEXT
    5
27B
    330
239
    100
AcDbEntity
    8
0
    100
AcDbText
    10
10.9100047212323
    20
242.928857756754
    30
0
    11
10.9100047212323
    21
242.928857756754
    31
0
    40
2
    1
опор контактной
    50
0
    41
1
    51
0
    100
AcDbText
    73
0
    0
TEXT
    5
27C
    330
239
    100
AcDbEntity
    8
0
    100
AcDbText
    10
10.9100047212323
    20
239.595524423421
    30
0
    11
10.9100047212323
    21
239.595524423421
    31
0
    40
2
    1
сети, 
    50
0
    41
1
    51
0
    100
AcDbText
    73
0
    0
TEXT
    5
27D
    330
239
    100
AcDbEntity
    8
0
    100
AcDbText
    10
10.9100047212323
    20
236.262191090088
    30
0
    11
10.9100047212323
    21
236.262191090088
    31
0
    40
2
    1
светофоров, и других
    50
0
    41
1
    51
0
    100
AcDbText
    73
0
    0
TEXT
    5
27E
    330
239
    100
AcDbEntity
    8
0
    100
AcDbText
    10
10.9100047212323
    20
232.928857756754
    30
0
    11
10.9100047212323
    21
232.928857756754
    31
0
    40
2
    1
сооружений, м
    50
0
    41
1
    51
0
    100
AcDbText
    73
0
    0
TEXT
    5
27F
    330
239
    100
AcDbEntity
    8
0
    100
AcDbText
    10
10.9100047212323
    20
203.949947624006
    30
0
    11
10.9100047212323
    21
203.949947624006
    31
0
    40
2
    1
бровки земляного
    50
0
    41
1
    51
0
    100
AcDbText
    73
0
    0
TEXT
    5
280
    330
239
    100
AcDbEntity
    8
0
    100
AcDbText
    10
10.9100047212323
    20
200.616614290672
    30
0
    11
10.9100047212323
    21
200.616614290672
    31
0
    40
2
    1
полотна, м
    50
0
    41
1
    51
0
    100
AcDbText
    73
0
    0
TEXT
    5
281
    330
239
    100
AcDbEntity
    8
0
    100
AcDbText
    10
10.9100047212323
    20
197.283280957339
    30
0
    11
10.9100047212323
    21
197.283280957339
    31
0
    40
2
    1
(до оси соседнего 
    50
0
    41
1
    51
0
    100
AcDbText
    73
0
    0
TEXT
    5
282
    330
239
    100
AcDbEntity
    8
0
    100
AcDbText
    10
10.9100047212323
    20
193.949947624006
    30
0
    11
10.9100047212323
    21
193.949947624006
    31
0
    40
2
    1
пути
    50
0
    41
1
    51
0
    100
AcDbText
    73
0
    0
LINE
    5
283
    330
239
    100
AcDbEntity
    8
0
    100
AcDbLine
    10
50
    20
195
    30
0
    11
75
    21
195
    31
0
    0
LINE
    5
284
    330
239
    100
AcDbEntity
    8
0
    100
AcDbLine
    10
55
    20
205
    30
0
    11
75
    21
205
    31
0
    0
LINE
    5
285
    330
239
    100
AcDbEntity
    8
0
    100
AcDbLine
    10
55
    20
185
    30
0
    11
75
    21
185
    31
0
    0
TEXT
    5
286
    330
239
    100
AcDbEntity
    8
0
    100
AcDbText
    10
52.6880084044513
    20
242.377787460854
    30
0
    11
52.6880084044513
    21
242.377787460854
    31
0
    40
2
    1
лево
    50
90.0000025044782
    41
1
    51
0
    100
AcDbText
    73
0
    0
TEXT
    5
287
    330
239
    100
AcDbEntity
    8
0
    100
AcDbText
    10
52.8513009363056
    20
220.558578875767
    30
0
    11
52.8513009363056
    21
220.558578875767
    31
0
    40
2
    1
право
    50
90.0000025044782
    41
1
    51
0
    100
AcDbText
    73
0
    0
TEXT
    5
288
    330
239
    100
AcDbEntity
    8
0
    100
AcDbText
    10
53.1786419839579
    20
203.08980597985
    30
0
    11
53.1786419839579
    21
203.08980597985
    31
0
    40
2
    1
лево
    50
90.0000025044782
    41
1
    51
0
    100
AcDbText
    73
0
    0
TEXT
    5
289
    330
239
    100
AcDbEntity
    8
0
    100
AcDbText
    10
52.8801228241618
    20
181.270597394763
    30
0
    11
52.8801228241618
    21
181.270597394763
    31
0
    40
2
    1
право
    50
90.0000025044782
    41
1
    51
0
    100
AcDbText
    73
0
    0
TEXT
    5
28A
    330
239
    100
AcDbEntity
    8
0
    100
AcDbText
    10
55.5029815654025
    20
249.336115673961
    30
0
    11
55.5029815654025
    21
249.336115673961
    31
0
    40
2
    1
фактическое
    50
0
    41
1
    51
0
    100
AcDbText
    73
0
    0
TEXT
    5
28B
    330
239
    100
AcDbEntity
    8
0
    100
AcDbText
    10
55.5029815654025
    20
239.583922799329
    30
0
    11
55.5029815654025
    21
239.583922799329
    31
0
    40
2
    1
проектное
    50
0
    41
1
    51
0
    100
AcDbText
    73
0
    0
TEXT
    5
28C
    330
239
    100
AcDbEntity
    8
0
    100
AcDbText
    10
55.5029815654025
    20
229.336115673961
    30
0
    11
55.5029815654025
    21
229.336115673961
    31
0
    40
2
    1
фактическое
    50
0
    41
1
    51
0
    100
AcDbText
    73
0
    0
TEXT
    5
28D
    330
239
    100
AcDbEntity
    8
0
    100
AcDbText
    10
55.5029815654025
    20
219.583922799329
    30
0
    11
55.5029815654025
    21
219.583922799329
    31
0
    40
2
    1
проектное
    50
0
    41
1
    51
0
    100
AcDbText
    73
0
    0
TEXT
    5
28E
    330
239
    100
AcDbEntity
    8
0
    100
AcDbText
    10
55.5029815654025
    20
209.336115673961
    30
0
    11
55.5029815654025
    21
209.336115673961
    31
0
    40
2
    1
фактическое
    50
0
    41
1
    51
0
    100
AcDbText
    73
0
    0
TEXT
    5
28F
    330
239
    100
AcDbEntity
    8
0
    100
AcDbText
    10
55.5029815654025
    20
199.583922799329
    30
0
    11
55.5029815654025
    21
199.583922799329
    31
0
    40
2
    1
проектное
    50
0
    41
1
    51
0
    100
AcDbText
    73
0
    0
TEXT
    5
290
    330
239
    100
AcDbEntity
    8
0
    100
AcDbText
    10
55.5029815654025
    20
189.336115673961
    30
0
    11
55.5029815654025
    21
189.336115673961
    31
0
    40
2
    1
фактическое
    50
0
    41
1
    51
0
    100
AcDbText
    73
0
    0
TEXT
    5
291
    330
239
    100
AcDbEntity
    8
0
    100
AcDbText
    10
55.5029815654025
    20
179.583922799329
    30
0
    11
55.5029815654025
    21
179.583922799329
    31
0
    40
2
    1
проектное
    50
0
    41
1
    51
0
    100
AcDbText
    73
0
    0
TEXT
    5
292
    330
239
    100
AcDbEntity
    8
0
    100
AcDbText
    10
10
    20
171.568775362888
    30
0
    11
10
    21
171.568775362888
    31
0
    40
2
    1
Расстояния
    50
0
    41
1
    51
0
    100
AcDbText
    73
0
    0
TEXT
    5
293
    330
239
    100
AcDbEntity
    8
0
    100
AcDbText
    10
10
    20
167.037407603931
    30
0
    11
10
    21
167.037407603931
    31
0
    40
2
    1
Пикет
    50
0
    41
1
    51
0
    100
AcDbText
    73
0
    0
TEXT
    5
294
    330
239
    100
AcDbEntity
    8
0
    100
AcDbText
    10
10
    20
161.852869717557
    30
0
    11
10
    21
161.852869717557
    31
0
    40
2
    1
Километры
    50
0
    41
1
    51
0
    100
AcDbText
    73
0
    0
LINE
    5
295
    330
239
    100
AcDbEntity
    8
0
    100
AcDbLine
    10
0
    20
395
    30
0
    11
0
    21
165
    31
0
    0
TEXT
    5
296
    330
239
    100
AcDbEntity
    8
0
    100
AcDbText
    10
85
    20
345
    30
0
    11
85
    21
345
    31
0
    40
2.5
    1
&L
    50
0
    41
1
    51
0
    100
AcDbText
    73
0
    0
TEXT
    5
297
    330
239
    100
AcDbEntity
    8
0
    100
AcDbText
    10
85
    20
315
    30
0
    11
85
    21
315
    31
0
    40
2.5
    1
&L
    50
0
    41
1
    51
0
    100
AcDbText
    73
0
    0
TEXT
    5
298
    330
239
    100
AcDbEntity
    8
0
    100
AcDbText
    10
85
    20
305
    30
0
    11
85
    21
305
    31
0
    40
2.5
    1
&L
    50
0
    41
1
    51
0
    100
AcDbText
    73
0
    0
TEXT
    5
299
    330
239
    100
AcDbEntity
    8
0
    100
AcDbText
    10
85
    20
295
    30
0
    11
85
    21
295
    31
0
    40
2.5
    1
&L
    50
0
    41
1
    51
0
    100
AcDbText
    73
0
    0
TEXT
    5
29A
    330
239
    100
AcDbEntity
    8
0
    100
AcDbText
    10
85
    20
285
    30
0
    11
85
    21
285
    31
0
    40
2.5
    1
&L
    50
0
    41
1
    51
0
    100
AcDbText
    73
0
    0
TEXT
    5
29B
    330
239
    100
AcDbEntity
    8
0
    100
AcDbText
    10
85
    20
275
    30
0
    11
85
    21
275
    31
0
    40
2.5
    1
&L
    50
0
    41
1
    51
0
    100
AcDbText
    73
0
    0
TEXT
    5
29C
    330
239
    100
AcDbEntity
    8
0
    100
AcDbText
    10
85
    20
265
    30
0
    11
85
    21
265
    31
0
    40
2.5
    1
&L
    50
0
    41
1
    51
0
    100
AcDbText
    73
0
    0
TEXT
    5
29D
    330
239
    100
AcDbEntity
    8
0
    100
AcDbText
    10
85
    20
255
    30
0
    11
85
    21
255
    31
0
    40
2.5
    1
&L
    50
0
    41
1
    51
0
    100
AcDbText
    73
0
    0
TEXT
    5
29E
    330
239
    100
AcDbEntity
    8
0
    100
AcDbText
    10
85
    20
245
    30
0
    11
85
    21
245
    31
0
    40
2.5
    1
&L
    50
0
    41
1
    51
0
    100
AcDbText
    73
0
    0
TEXT
    5
29F
    330
239
    100
AcDbEntity
    8
0
    100
AcDbText
    10
85
    20
235
    30
0
    11
85
    21
235
    31
0
    40
2.5
    1
&L
    50
0
    41
1
    51
0
    100
AcDbText
    73
0
    0
TEXT
    5
2A0
    330
239
    100
AcDbEntity
    8
0
    100
AcDbText
    10
85
    20
225
    30
0
    11
85
    21
225
    31
0
    40
2.5
    1
&L
    50
0
    41
1
    51
0
    100
AcDbText
    73
0
    0
TEXT
    5
2A1
    330
239
    100
AcDbEntity
    8
0
    100
AcDbText
    10
85
    20
215
    30
0
    11
85
    21
215
    31
0
    40
2.5
    1
&L
    50
0
    41
1
    51
0
    100
AcDbText
    73
0
    0
TEXT
    5
2A2
    330
239
    100
AcDbEntity
    8
0
    100
AcDbText
    10
85
    20
205
    30
0
    11
85
    21
205
    31
0
    40
2.5
    1
&L
    50
0
    41
1
    51
0
    100
AcDbText
    73
0
    0
TEXT
    5
2A3
    330
239
    100
AcDbEntity
    8
0
    100
AcDbText
    10
85
    20
195
    30
0
    11
85
    21
195
    31
0
    40
2.5
    1
&L
    50
0
    41
1
    51
0
    100
AcDbText
    73
0
    0
TEXT
    5
2A4
    330
239
    100
AcDbEntity
    8
0
    100
AcDbText
    10
85
    20
185
    30
0
    11
85
    21
185
    31
0
    40
2.5
    1
&L
    50
0
    41
1
    51
0
    100
AcDbText
    73
0
    0
TEXT
    5
2A5
    330
239
    100
AcDbEntity
    8
0
    100
AcDbText
    10
85
    20
175
    30
0
    11
85
    21
175
    31
0
    40
2.5
    1
&L
    50
0
    41
1
    51
0
    100
AcDbText
    73
0
    0
TEXT
    5
2A6
    330
239
    100
AcDbEntity
    8
0
    100
AcDbText
    10
85
    20
165
    30
0
    11
85
    21
165
    31
0
    40
2.5
    1
&L
    50
0
    41
1
    51
0
    100
AcDbText
    73
0
    0
TEXT
    5
2A7
    330
239
    100
AcDbEntity
    8
0
    100
AcDbText
    10
85
    20
170
    30
0
    11
85
    21
170
    31
0
    40
2.5
    1
&L
    50
0
    41
1
    51
0
    100
AcDbText
    73
0
    0
TEXT
    5
2A8
    330
239
    100
AcDbEntity
    8
Фактические отметки головок рельсов
    100
AcDbText
    10
85
    20
369.289582989361
    30
0
    11
85
    21
369.289582989361
    31
0
    40
2.5
    1
&PLAN_IMPELLERTESTS
    50
0
    41
0.800000011920929
    51
0
    100
AcDbText
    73
0
    0
TEXT
    5
2A9
    330
239
    100
AcDbEntity
    8
Фактические отметки головок рельсов
    100
AcDbText
    10
85
    20
369.289582989361
    30
0
    11
85
    21
369.289582989361
    31
0
    40
2.5
    1
&PLAN_BOREHOLES
    50
0
    41
0.800000011920929
    51
0
    100
AcDbText
    73
0
    0
TEXT
    5
2AA
    330
239
    100
AcDbEntity
    8
Фактические отметки головок рельсов
    100
AcDbText
    10
85
    20
369.289582989361
    30
0
    11
85
    21
369.289582989361
    31
0
    40
2.5
    1
&UP
    50
0
    41
0.800000011920929
    51
0
    100
AcDbText
    73
0
    0
TEXT
    5
2AB
    330
239
    100
AcDbEntity
    8
Прямые и кривые в плане
    62
1
    100
AcDbText
    10
85
    20
327.621539970704
    30
0
    11
85
    21
327.621539970704
    31
0
    40
2.5
    1
&PLN_RAIL_2 0 0 2 2 5
    50
0
    41
1
    51
0
    100
AcDbText
    73
0
    0
TEXT
    5
2AC
    330
239
    100
AcDbEntity
    8
0
    100
AcDbText
    10
86.2500016118575
    20
273.125000054639
    30
0
    11
85
    21
310
    31
0
    40
2.5
    1
&REF_POINTS 1 1010 NUMBER L 10 2
    50
90.0000025044782
    41
1
    51
0
    72
1
    100
AcDbText
    73
2
    0
TEXT
    5
2AD
    330
239
    100
AcDbEntity
    8
0
    100
AcDbText
    10
86.2500018030948
    20
258.750000054639
    30
0
    11
85
    21
300
    31
0
    40
2.5
    1
&REF_POINTS 1 1010 PoleNumber R 10 2
    50
90.0000025044782
    41
1
    51
0
    72
1
    100
AcDbText
    73
2
    0
TEXT
    5
2AE
    330
239
    100
AcDbEntity
    8
0
    100
AcDbText
    10
86.2500016118575
    20
213.125000054639
    30
0
    11
85
    21
250
    31
0
    40
2.5
    1
&REF_POINTS 1 1010 OFFSET L 10 2
    50
90.0000025044782
    41
1
    51
0
    72
1
    100
AcDbText
    73
2
    0
TEXT
    5
2AF
    330
239
    100
AcDbEntity
    8
0
    62
1
    100
AcDbText
    10
86.250001620964
    20
202.916667992872
    30
0
    11
85
    21
240
    31
0
    40
2.5
    1
&REF_POINTS 0 1010 OFFSET L 10 2
    50
90.0000025044782
    41
1
    51
0
    72
1
    100
AcDbText
    73
2
    0
TEXT
    5
2B0
    330
239
    100
AcDbEntity
    8
0
    100
AcDbText
    10
86.2500016118575
    20
193.125000054639
    30
0
    11
85
    21
230
    31
0
    40
2.5
    1
&REF_POINTS 1 1010 OFFSET R 10 2
    50
90.0000025044782
    41
1
    51
0
    72
1
    100
AcDbText
    73
2
    0
TEXT
    5
2B1
    330
239
    100
AcDbEntity
    8
0
    62
1
    100
AcDbText
    10
86.250001620964
    20
182.916667992872
    30
0
    11
85
    21
220
    31
0
    40
2.5
    1
&REF_POINTS 0 1010 OFFSET R 10 2
    50
90.0000025044782
    41
1
    51
0
    72
1
    100
AcDbText
    73
2
    0
TEXT
    5
2B2
    330
239
    100
AcDbEntity
    8
0
    100
AcDbText
    10
86.2500015845379
    20
173.750000054639
    30
0
    11
85
    21
210
    31
0
    40
2.5
    1
&REF_POINTS 1 104 OFFSET L 10 2
    50
90.0000025044782
    41
1
    51
0
    72
1
    100
AcDbText
    73
2
    0
TEXT
    5
2B3
    330
239
    100
AcDbEntity
    8
0
    62
1
    100
AcDbText
    10
86.2500015936444
    20
163.541667992872
    30
0
    11
85
    21
200
    31
0
    40
2.5
    1
&REF_POINTS 0 104 OFFSET L 10 2
    50
90.0000025044782
    41
1
    51
0
    72
1
    100
AcDbText
    73
2
    0
TEXT
    5
2B4
    330
239
    100
AcDbEntity
    8
0
    100
AcDbText
    10
86.2500015845379
    20
153.750000054639
    30
0
    11
85
    21
190
    31
0
    40
2.5
    1
&REF_POINTS 1 104 OFFSET R 10 2
    50
90.0000025044782
    41
1
    51
0
    72
1
    100
AcDbText
    73
2
    0
TEXT
    5
2B5
    330
239
    100
AcDbEntity
    8
0
    62
1
    100
AcDbText
    10
86.2500015936444
    20
143.541667992872
    30
0
    11
85
    21
180
    31
0
    40
2.5
    1
&REF_POINTS 0 104 OFFSET R 10 2
    50
90.0000025044782
    41
1
    51
0
    72
1
    100
AcDbText
    73
2
    0
TEXT
    5
2B6
    330
239
    100
AcDbEntity
    8
0
    100
AcDbText
    10
86.250001502579
    20
255.625000054639
    30
0
    11
85
    21
290
    31
0
    40
2.5
    1
&REF_POINTS 1 1010 PLUS L 10 2
    50
90.0000025044782
    41
1
    51
0
    72
1
    100
AcDbText
    73
2
    0
TEXT
    5
2B7
    330
239
    100
AcDbEntity
    8
0
    100
AcDbText
    10
86.250001502579
    20
245.625000054639
    30
0
    11
85
    21
280
    31
0
    40
2.5
    1
&REF_POINTS 1 1010 PLUS R 10 2
    50
90.0000025044782
    41
1
    51
0
    72
1
    100
AcDbText
    73
2
    0
TEXT
    5
2B8
    330
239
    100
AcDbEntity
    8
0
    100
AcDbText
    10
80.4166665077209
    20
166.470432196411
    30
0
    11
85
    21
166.470432196411
    31
0
    40
2.5
    1
&PKT
    50
0
    41
1
    51
0
    72
1
    100
AcDbText
    73
1
    0
TEXT
    5
2B9
    330
239
    100
AcDbEntity
    8
0
    100
AcDbText
    10
72.9166669845581
    20
157.5
    30
0
    11
85
    21
157.5
    31
0
    40
2.5
    1
&K 2 2,5 10
    50
0
    41
1
    51
0
    72
1
    100
AcDbText
    73
1
    0
TEXT
    5
2BA
    330
239
    100
AcDbEntity
    8
0
    100
AcDbText
    10
86.2500007285231
    20
155.833334023755
    30
0
    11
85
    21
172.5
    31
0
    40
2.5
    1
&PICKET_PLUSES
    50
90.0000025044782
    41
1
    51
0
    72
1
    100
AcDbText
    73
2
    0
TEXT
    5
2BB
    330
239
    100
AcDbEntity
    8
0
    62
1
    100
AcDbText
    10
86.2500014206202
    20
237.503491499667
    30
0
    11
85
    21
270.003491445028
    31
0
    40
2.5
    1
&STR L 1 20 20 0 L 1 20 20 0
    50
90.0000025044782
    41
1
    51
0
    72
1
    100
AcDbText
    73
2
    0
TEXT
    5
2BC
    330
239
    100
AcDbEntity
    8
0
    62
1
    100
AcDbText
    10
86.2500014206202
    20
227.554172749364
    30
0
    11
85
    21
260.054172694725
    31
0
    40
2.5
    1
&STR R 1 20 20 0 R 1 20 20 0
    50
90.0000025044782
    41
1
    51
0
    72
1
    100
AcDbText
    73
2
    0
ENDSEC
    0
SECTION
    2
OBJECTS
    0
DICTIONARY
    5
13
    330
0
    100
AcDbDictionary
    281
1
    3
ACAD_GROUP
    350
14
    3
ACAD_MLINESTYLE
    350
16
    3
ACAD_PLOTSETTINGS
    350
17
    3
ACAD_IMAGE_DICT
    350
14D
    3
ACAD_IMAGE_VARS
    350
14E
    3
ACAD_WIPEOUT_VARS
    350
E7
    3
ACAD_PLOTSTYLENAME
    350
18
    3
ACAD_LAYOUT
    350
229
    0
DICTIONARY
    5
14
    330
13
    100
AcDbDictionary
    281
1
    0
DICTIONARY
    5
17
    102
{ACAD_REACTORS
    330
13
    102
}
    330
13
    100
AcDbDictionary
    281
1
    0
ACDBDICTIONARYWDFLT
    5
18
    102
{ACAD_REACTORS
    330
13
    102
}
    330
13
    100
AcDbDictionary
    281
1
    3
Normal
    350
19
    100
AcDbDictionaryWithDefault
    340
19
    0
ACDBPLACEHOLDER
    5
19
    102
{ACAD_REACTORS
    330
18
    102
}
    330
18
    0
DICTIONARY
    5
7E
    102
{ACAD_REACTORS
    330
C
    102
}
    330
C
    100
AcDbDictionary
    281
1
    3
Standard
    350
7F
    0
WIPEOUTVARIABLES
    5
E7
    102
{ACAD_REACTORS
    330
C
    102
}
    330
C
    100
AcDbWipeoutVariables
    70
0
    0
DICTIONARY
    5
1B
    330
1A
    100
AcDbDictionary
    280
1
    281
1
    3
ACLYDICTIONARY
    360
231
    3
ACAD_LAYERSTATES
    360
22F
    0
DICTIONARY
    5
22F
    102
{ACAD_REACTORS
    330
1B
    102
}
    330
1B
    100
AcDbDictionary
    281
1
    0
DICTIONARY
    5
231
    102
{ACAD_REACTORS
    330
1B
    102
}
    330
1B
    100
AcDbDictionary
    281
1
    3
*A1
    350
233
    3
*A2
    350
236
    0
XRECORD
    5
233
    102
{ACAD_REACTORS
    330
231
    102
}
    330
231
    100
AcDbXrecord
    280
1
    1
AcLyLayerFilter
    90
1
    300
Все используемые слои
    301
USED=="TRUE" AND VPOVERRIDES=="FALSE"
    0
XRECORD
    5
236
    102
{ACAD_REACTORS
    330
231
    102
}
    330
231
    100
AcDbXrecord
    280
1
    1
AcLyLayerFilter
    90
1
    300
Все видимые слои
    301
OFF=="FALSE"
    0
DICTIONARY
    5
229
    102
{ACAD_REACTORS
    330
C
    102
}
    330
C
    100
AcDbDictionary
    281
1
    3
Model
    350
22A
    0
LAYOUT
    5
22A
    100
AcDbPlotSettings
    1

    2
none_device
    4

    6

    40
0
    41
0
    42
0
    43
0
    44
297
    45
210
    46
0
    47
0
    48
0
    49
0
    140
0
    141
0
    142
1
    143
1
    70
4784
    72
1
    73
0
    74
5
    7

    75
0
    147
1
    148
0
    149
0
    100
AcDbLayout
    1
Model
    70
1
    71
0
    330
239
    0
DICTIONARY
    5
E6
    330
10
    100
AcDbDictionary
    280
1
    281
1
    3
ADSK_XREC_LAYER_RECONCILED
    360
155
    0
DICTIONARY
    5
16
    102
{ACAD_REACTORS
    330
C
    102
}
    330
C
    100
AcDbDictionary
    281
1
    3
Standard
    350
227
    0
MLINESTYLE
    5
227
    102
{ACAD_REACTORS
    330
16
    102
}
    330
16
    100
AcDbMlineStyle
    2
Standard
    70
0
    3

    62
256
    51
90.0000025044782
    52
90.0000025044782
    71
2
    49
0.5
    62
256
    49
-0.5
    62
256
    0
DICTIONARY
    5
14D
    102
{ACAD_REACTORS
    330
C
    102
}
    330
C
    100
AcDbDictionary
    281
1
    0
RASTERVARIABLES
    5
14E
    102
{ACAD_REACTORS
    330
C
    102
}
    330
C
    100
AcDbRasterVariables
    90
0
    70
1
    71
1
    72
5
    0
XRECORD
    5
155
    102
{ACAD_REACTORS
    330
E6
    102
}
    330
E6
    100
AcDbXrecord
    280
1
    290
1
    0
ENDSEC
    0
EOF
