    0
SECTION
    2
HEADER
    9
$ACADVER
    1
AC1015
    9
$DWGCODEPAGE
    3
ANSI_1251
    9
$HANDSEED
    5
27B
    9
$TILEMODE
    70
1
    9
$CECOLOR
    62
256
    9
$CELTSCALE
    40
1
    9
$CELTYPE
    6
ByLayer
    9
$CELWEIGHT
    370
-1
    9
$CLAYER
    8
0
    9
$CMLSTYLE
    2
Standard
    9
$DIMSTYLE
    2
ISO-25
    9
$INSBASE
    10
0
    20
0
    30
0
    9
$PDMODE
    70
0
    9
$PDSIZE
    40
0
    9
$TEXTSTYLE
    7
Standard
    9
$LWDISPLAY
    290
0
    9
$LTSCALE
    40
1
    9
$PSLTSCALE
    70
0
    9
$LIMMIN
    10
0
    20
-1.1769149069E-06
    9
$LIMMAX
    10
147.833335876465
    20
122.5
    9
$MEASUREMENT
    70
1
    0
ENDSEC
    0
SECTION
    2
CLASSES
    0
CLASS
    1
RASTERVARIABLES
    2
AcDbRasterVariables
    3
ISM
    90
0
    280
0
    281
0
    0
CLASS
    1
IMAGEDEF
    2
AcDbRasterImageDef
    3
ISM
    90
0
    280
0
    281
0
    0
CLASS
    1
IMAGEDEF_REACTOR
    2
AcDbRasterImageDefReactor
    3
ISM
    90
1
    280
0
    281
0
    0
CLASS
    1
IMAGE
    2
AcDbRasterImage
    3
ISM
    90
2175
    280
0
    281
1
    0
CLASS
    1
WIPEOUT
    2
AcDbWipeout
    3
"WipeOut|Product Desc: Object Enabler for WipeOut entity^I^I^I^I^I^I|Company: Autodesk, Inc.^I^I^I^I^I^I|WEB Address: www.autodesk.com"
    90
2175
    280
0
    281
1
    0
CLASS
    1
WIPEOUTVARIABLES
    2
AcDbWipeoutVariables
    3
"WipeOut|Product Desc:     WipeOut Dbx Application|Company:          Autodesk, Inc.|WEB Address:      www.autodesk.com"
    90
0
    280
0
    281
0
    0
CLASS
    1
ARC_DIMENSION
    2
AcDbArcDimension
    3
ObjectDBX Classes
    90
1025
    280
0
    281
1
    0
CLASS
    1
LARGE_RADIAL_DIMENSION
    2
AcDbRadialDimensionLarge
    3
ObjectDBX Classes
    90
1025
    280
0
    281
1
    0
CLASS
    1
LAYOUT
    2
AcDbLayout
    3
ObjectDBX Classes
    90
0
    280
0
    281
0
    0
CLASS
    1
FIELD
    2
AcDbField
    3
ObjectDBX Classes
    90
1152
    280
0
    281
0
    0
CLASS
    1
FIELDLIST
    2
AcDbFieldList
    3
ObjectDBX Classes
    90
1152
    280
0
    281
0
    0
ENDSEC
    0
SECTION
    2
TABLES
    0
TABLE
    2
VPORT
    5
1
    100
AcDbSymbolTable
    0
ENDTAB
    0
TABLE
    2
LTYPE
    5
2
    100
AcDbSymbolTable
    0
LTYPE
    5
203
    100
AcDbSymbolTableRecord
    100
AcDbLinetypeTableRecord
    2
ByLayer
    3
По слою
    70
0
    72
65
    73
0
    40
0
    0
LTYPE
    5
204
    100
AcDbSymbolTableRecord
    100
AcDbLinetypeTableRecord
    2
ByBlock
    3
По блоку
    70
0
    72
65
    73
0
    40
0
    0
LTYPE
    5
205
    100
AcDbSymbolTableRecord
    100
AcDbLinetypeTableRecord
    2
Continuous
    3
Сплошная
    70
0
    72
65
    73
0
    40
0
    0
LTYPE
    5
206
    100
AcDbSymbolTableRecord
    100
AcDbLinetypeTableRecord
    2
GeologyDash
    3
Штриховая линия элементов геологии
    70
0
    72
65
    73
2
    40
3.33333325386047
    49
1.66666662693024
    74
0
    49
-1.66666662693024
    74
0
    0
ENDTAB
    0
TABLE
    2
LAYER
    5
1A
    102
{ACAD_XDICTIONARY
    360
1B
    102
}
    330
0
    100
AcDbSymbolTable
    0
LAYER
    5
10
    100
AcDbSymbolTableRecord
    100
AcDbLayerTableRecord
    2
0
    70
0
    62
7
    6
Continuous
    370
-3
    390
19
    0
LAYER
    5
209
    100
AcDbSymbolTableRecord
    100
AcDbLayerTableRecord
    2
Красные отметки
    70
0
    62
1
    6
Continuous
    370
-3
    390
19
    0
LAYER
    5
20A
    100
AcDbSymbolTableRecord
    100
AcDbLayerTableRecord
    2
Прямые и кривые в плане
    70
0
    62
7
    6
Continuous
    370
-3
    390
19
    0
LAYER
    5
20B
    100
AcDbSymbolTableRecord
    100
AcDbLayerTableRecord
    2
Черный профиль
    70
0
    62
3
    6
Continuous
    370
-3
    390
19
    0
LAYER
    5
20C
    100
AcDbSymbolTableRecord
    100
AcDbLayerTableRecord
    2
Красный профиль
    70
0
    62
1
    6
Continuous
    370
-3
    390
19
    0
LAYER
    5
20D
    100
AcDbSymbolTableRecord
    100
AcDbLayerTableRecord
    2
Геология_штриховки
    70
0
    62
8
    6
Continuous
    370
-3
    390
19
    0
LAYER
    5
20E
    100
AcDbSymbolTableRecord
    100
AcDbLayerTableRecord
    2
Геология_контуры
    70
0
    62
7
    6
Continuous
    370
-3
    390
19
    0
LAYER
    5
20F
    100
AcDbSymbolTableRecord
    100
AcDbLayerTableRecord
    2
Геология_выработки
    70
0
    62
7
    6
Continuous
    370
-3
    390
19
    0
LAYER
    5
210
    100
AcDbSymbolTableRecord
    100
AcDbLayerTableRecord
    2
Геология_опробование
    70
0
    62
7
    6
Continuous
    370
-3
    390
19
    0
LAYER
    5
211
    100
AcDbSymbolTableRecord
    100
AcDbLayerTableRecord
    2
Геология_мерзлота
    70
0
    62
7
    6
Continuous
    370
-3
    390
19
    0
LAYER
    5
212
    100
AcDbSymbolTableRecord
    100
AcDbLayerTableRecord
    2
Геология_вода
    70
0
    62
7
    6
Continuous
    370
-3
    390
19
    0
LAYER
    5
213
    100
AcDbSymbolTableRecord
    100
AcDbLayerTableRecord
    2
Геология_подписи
    70
0
    62
7
    6
Continuous
    370
-3
    390
19
    0
LAYER
    5
214
    100
AcDbSymbolTableRecord
    100
AcDbLayerTableRecord
    2
Геология_список_ИГЭ
    70
0
    62
7
    6
Continuous
    370
-3
    390
19
    0
LAYER
    5
215
    100
AcDbSymbolTableRecord
    100
AcDbLayerTableRecord
    2
Коммуникации
    70
0
    62
7
    6
Continuous
    370
-3
    390
19
    0
LAYER
    5
216
    100
AcDbSymbolTableRecord
    100
AcDbLayerTableRecord
    2
Таблица
    70
0
    62
7
    6
Continuous
    370
-3
    390
19
    0
LAYER
    5
217
    100
AcDbSymbolTableRecord
    100
AcDbLayerTableRecord
    2
Километры
    70
0
    62
7
    6
Continuous
    370
-3
    390
19
    0
LAYER
    5
218
    100
AcDbSymbolTableRecord
    100
AcDbLayerTableRecord
    2
Радиусы
    70
0
    62
7
    6
Continuous
    370
-3
    390
19
    0
LAYER
    5
219
    100
AcDbSymbolTableRecord
    100
AcDbLayerTableRecord
    2
Углы
    70
0
    62
7
    6
Continuous
    370
-3
    390
19
    0
LAYER
    5
21A
    100
AcDbSymbolTableRecord
    100
AcDbLayerTableRecord
    2
Геология_испытания_крыльчаткой
    70
0
    62
7
    6
Continuous
    370
-3
    390
19
    0
LAYER
    5
21B
    100
AcDbSymbolTableRecord
    100
AcDbLayerTableRecord
    2
Ссылочные профили
    70
0
    62
144
    6
Continuous
    370
-3
    390
19
    0
LAYER
    5
21C
    100
AcDbSymbolTableRecord
    100
AcDbLayerTableRecord
    2
УВВ
    70
0
    62
7
    6
Continuous
    370
-3
    390
19
    0
LAYER
    5
21D
    100
AcDbSymbolTableRecord
    100
AcDbLayerTableRecord
    2
Геология_точки_статического_зондирования
    70
0
    62
7
    6
Continuous
    370
-3
    390
19
    0
ENDTAB
    0
TABLE
    2
STYLE
    5
5
    100
AcDbSymbolTable
    0
STYLE
    5
201
    100
AcDbSymbolTableRecord
    100
AcDbTextStyleTableRecord
    2
Standard
    70
0
    40
0
    41
1
    50
0
    71
0
    42
2.5
    3
txt
    4

    0
ENDTAB
    0
TABLE
    2
VIEW
    5
7
    100
AcDbSymbolTable
    0
ENDTAB
    0
TABLE
    2
UCS
    5
8
    100
AcDbSymbolTable
    0
ENDTAB
    0
TABLE
    2
APPID
    5
9
    100
AcDbSymbolTable
    0
APPID
    5
A
    100
AcDbSymbolTableRecord
    100
AcDbRegAppTableRecord
    2
ACAD
    70
0
    0
APPID
    5
108
    330
9
    100
AcDbSymbolTableRecord
    100
AcDbRegAppTableRecord
    2
AcAecLayerStandard
    70
0
    0
APPID
    5
107
    330
9
    100
AcDbSymbolTableRecord
    100
AcDbRegAppTableRecord
    2
ACAD_MLEADERVER
    70
0
  0
APPID
  5
DF
330
9
100
AcDbSymbolTableRecord
100
AcDbRegAppTableRecord
  2
ACAD_DSTYLE_DIMJAG
 70
     0
  0
APPID
  5
E0
330
9
100
AcDbSymbolTableRecord
100
AcDbRegAppTableRecord
  2
ACAD_DSTYLE_DIMTALN
 70
     0
    0
ENDTAB
    0
TABLE
    2
DIMSTYLE
    5
B
    330
0
    100
AcDbSymbolTable
    70
2
    100
AcDbDimStyleTable
    71
2
    0
DIMSTYLE
    105
224
    330
B
    100
AcDbSymbolTableRecord
    100
AcDbDimStyleTableRecord
    2
Standard
    70
0
    340
201
    0
DIMSTYLE
    105
225
    330
B
    100
AcDbSymbolTableRecord
    100
AcDbDimStyleTableRecord
    2
ISO-25
    70
0
    43
3.75
    42
0.625
    44
1.25
    41
2.5
    141
2.5
    140
2.5
    147
0.625
    77
1
    73
0
    74
0
    172
1
    78
8
    171
3
    143
0.0393700785934925
    340
201
    0
ENDTAB
    0
TABLE
    2
BLOCK_RECORD
    5
C
    100
AcDbSymbolTable
    0
BLOCK_RECORD
    5
231
    100
AcDbSymbolTableRecord
    100
AcDbBlockTableRecord
    2
*MODEL_SPACE
    0
BLOCK_RECORD
    5
E
    100
AcDbSymbolTableRecord
    100
AcDbBlockTableRecord
    2
*PAPER_SPACE
    0
BLOCK_RECORD
    5
277
    100
AcDbSymbolTableRecord
    100
AcDbBlockTableRecord
    2
A$C345B0AE8
    0
ENDTAB
    0
ENDSEC
    0
SECTION
    2
BLOCKS
    0
BLOCK
    5
232
    330
231
    100
AcDbEntity
    8
0
    100
AcDbBlockBegin
    2
*MODEL_SPACE
    70
0
    10
0
    20
0
    30
0
    3
*MODEL_SPACE
    1

    4

    0
ENDBLK
    5
233
    100
AcDbEntity
    8
0
    100
AcDbBlockEnd
    0
BLOCK
    5
11
    330
E
    100
AcDbEntity
    8
0
    100
AcDbBlockBegin
    2
*PAPER_SPACE
    70
0
    10
0
    20
0
    30
0
    3
*PAPER_SPACE
    1

    4

    0
ENDBLK
    5
12
    100
AcDbEntity
    8
0
    100
AcDbBlockEnd
    0
BLOCK
    5
278
    330
277
    100
AcDbEntity
    8
0
    100
AcDbBlockBegin
    2
A$C345B0AE8
    70
0
    10
0
    20
0
    30
0
    3
A$C345B0AE8
    1

    4

    0
TEXT
    5
27A
    330
277
    100
AcDbEntity
    8
0
    100
AcDbText
    10
2
    20
-18
    30
0
    11
2
    21
-18
    31
0
    40
2.5
    1
&K
    50
0
    41
1
    51
0
    100
AcDbText
    73
0
    0
ENDBLK
    5
279
    100
AcDbEntity
    8
0
    100
AcDbBlockEnd
    0
ENDSEC
    0
SECTION
    2
ENTITIES
    0
TEXT
    5
234
    330
231
    100
AcDbEntity
    8
Геология_точки_статического_зондирования
    100
AcDbText
    10
77
    20
97.5
    30
0
    11
77
    21
97.5
    31
0
    40
2.5
    1
&GEOLOGY_CONEPENETRATIONTESTS
    50
0
    41
1
    51
0
    100
AcDbText
    73
0
    0
TEXT
    5
235
    330
231
    100
AcDbEntity
    8
0
    100
AcDbText
    10
5
    20
120
    30
0
    11
5
    21
120
    31
0
    40
2.5
    1
&TITLE Сокращенный профиль
    50
0
    41
0.800000011920929
    51
0
    100
AcDbText
    73
0
    0
TEXT
    5
236
    330
231
    100
AcDbEntity
    8
Радиусы
    100
AcDbText
    10
79.5
    20
58.5000000546392
    30
0
    11
78.25
    21
58.5
    31
0
    40
2.5
    1
&RADIUS 0
    50
90.0000025044782
    41
0.800000011920929
    51
0
    100
AcDbText
    73
2
    0
TEXT
    5
237
    330
231
    100
AcDbEntity
    8
Километры
    100
AcDbText
    10
77
    20
12
    30
0
    11
77
    21
12
    31
0
    40
2.5
    1
&K 0
    50
0
    41
1
    51
0
    100
AcDbText
    73
0
    0
TEXT
    5
238
    330
231
    100
AcDbEntity
    8
Таблица
    100
AcDbText
    10
5
    20
102.5
    30
0
    11
5
    21
102.5
    31
0
    40
2.5
    1
&SV 1000
    50
0
    41
1
    51
0
    100
AcDbText
    73
0
    0
TEXT
    5
239
    330
231
    100
AcDbEntity
    8
Таблица
    100
AcDbText
    10
5
    20
107.5
    30
0
    11
5
    21
107.5
    31
0
    40
2.5
    1
&SH 50000
    50
0
    41
1
    51
0
    100
AcDbText
    73
0
    0
TEXT
    5
23A
    330
231
    100
AcDbEntity
    8
Таблица
    100
AcDbText
    10
77
    20
-1.1769149069E-06
    30
0
    11
77
    21
-1.1769149069E-06
    31
0
    40
2.5
    1
&L
    50
0
    41
1
    51
0
    100
AcDbText
    73
0
    0
LINE
    5
23B
    330
231
    100
AcDbEntity
    8
Таблица
    100
AcDbLine
    10
0
    20
97.5
    30
0
    11
0
    21
0
    31
0
    0
LINE
    5
23C
    330
231
    100
AcDbEntity
    8
Таблица
    100
AcDbLine
    10
75
    20
0
    30
0
    11
75
    21
97.5
    31
0
    0
TEXT
    5
23D
    330
231
    100
AcDbEntity
    8
Таблица
    100
AcDbText
    10
15
    20
43.5
    30
0
    11
15
    21
43.5
    31
0
    40
2
    1
Условный
    50
0
    41
1
    51
0
    100
AcDbText
    73
0
    0
TEXT
    5
23E
    330
231
    100
AcDbEntity
    8
Таблица
    100
AcDbText
    10
15
    20
26
    30
0
    11
15
    21
26
    31
0
    40
2
    1
тыс.куб.м.
    50
0
    41
1
    51
0
    100
AcDbText
    73
0
    0
TEXT
    5
23F
    330
231
    100
AcDbEntity
    8
Таблица
    100
AcDbText
    10
3
    20
31
    30
0
    11
3
    21
31
    31
0
    40
2
    1
Объем земляных pабот
    50
0
    41
1
    51
0
    100
AcDbText
    73
0
    0
LINE
    5
240
    330
231
    100
AcDbEntity
    8
Таблица
    100
AcDbLine
    10
55
    20
25
    30
0
    11
55
    21
35
    31
0
    0
TEXT
    5
241
    330
231
    100
AcDbEntity
    8
Таблица
    100
AcDbText
    10
23
    20
10
    30
0
    11
23
    21
10
    31
0
    40
2
    1
Указатель километров
    50
0
    41
1
    51
0
    100
AcDbText
    73
0
    0
TEXT
    5
242
    330
231
    100
AcDbEntity
    8
Таблица
    100
AcDbText
    10
56
    20
26
    30
0
    11
56
    21
26
    31
0
    40
2
    1
выемки
    50
0
    41
1
    51
0
    100
AcDbText
    73
0
    0
TEXT
    5
243
    330
231
    100
AcDbEntity
    8
Таблица
    100
AcDbText
    10
19
    20
37
    30
0
    11
19
    21
37
    31
0
    40
2
    1
план
    50
0
    41
1
    51
0
    100
AcDbText
    73
0
    0
TEXT
    5
244
    330
231
    100
AcDbEntity
    8
Таблица
    100
AcDbText
    10
56
    20
31
    30
0
    11
56
    21
31
    31
0
    40
2
    1
насыпи
    50
0
    41
1
    51
0
    100
AcDbText
    73
0
    0
TEXT
    5
245
    330
231
    100
AcDbEntity
    8
Таблица
    100
AcDbText
    10
23
    20
48.5
    30
0
    11
23
    21
48.5
    31
0
    40
2
    1
Угол повоpота,гpад.
    50
0
    41
1
    51
0
    100
AcDbText
    73
0
    0
TEXT
    5
246
    330
231
    100
AcDbEntity
    8
Таблица
    100
AcDbText
    10
15
    20
88.5
    30
0
    11
15
    21
88.5
    31
0
    40
2
    1
хаpактеpистика
    50
0
    41
1
    51
0
    100
AcDbText
    73
0
    0
TEXT
    5
247
    330
231
    100
AcDbEntity
    8
Таблица
    100
AcDbText
    10
15
    20
93.5
    30
0
    11
15
    21
93.5
    31
0
    40
2
    1
Инженеpно-геологическая
    50
0
    41
1
    51
0
    100
AcDbText
    73
0
    0
TEXT
    5
248
    330
231
    100
AcDbEntity
    8
Таблица
    100
AcDbText
    10
15
    20
78.5
    30
0
    11
15
    21
78.5
    31
0
    40
2
    1
головки pельса
    50
0
    41
1
    51
0
    100
AcDbText
    73
0
    0
TEXT
    5
249
    330
231
    100
AcDbEntity
    8
Таблица
    100
AcDbText
    10
15
    20
83.5
    30
0
    11
15
    21
83.5
    31
0
    40
2
    1
Пpоектные отметки
    50
0
    41
1
    51
0
    100
AcDbText
    73
0
    0
TEXT
    5
24A
    330
231
    100
AcDbEntity
    8
Таблица
    100
AcDbText
    10
10
    20
68.5
    30
0
    11
10
    21
68.5
    31
0
    40
2
    1
Длина,м
    50
0
    41
1
    51
0
    100
AcDbText
    73
0
    0
LINE
    5
24B
    330
231
    100
AcDbEntity
    8
Таблица
    100
AcDbLine
    10
0
    20
77.5
    30
0
    11
75
    21
67.5
    31
0
    0
TEXT
    5
24C
    330
231
    100
AcDbEntity
    8
Таблица
    100
AcDbText
    10
32
    20
73.5
    30
0
    11
32
    21
73.5
    31
0
    40
2
    1
Пpоектный уклон,%.
    50
0
    41
1
    51
0
    100
AcDbText
    73
0
    0
TEXT
    5
24D
    330
231
    100
AcDbEntity
    8
Таблица
    100
AcDbText
    10
23
    20
58.5
    30
0
    11
23
    21
58.5
    31
0
    40
2
    1
Радиус кpивой,м
    50
0
    41
1
    51
0
    100
AcDbText
    73
0
    0
TEXT
    5
24E
    330
231
    100
AcDbEntity
    8
0
    100
AcDbText
    10
77
    20
30
    30
0
    11
77
    21
30
    31
0
    40
2.5
    1
&PRFVOL
    50
0
    41
1
    51
0
    100
AcDbText
    73
0
    0
LINE
    5
24F
    330
231
    100
AcDbEntity
    8
Таблица
    100
AcDbLine
    10
0
    20
0
    30
0
    11
75
    21
0
    31
0
    0
LINE
    5
250
    330
231
    100
AcDbEntity
    8
Таблица
    100
AcDbLine
    10
55
    20
30
    30
0
    11
75
    21
30
    31
0
    0
LINE
    5
251
    330
231
    100
AcDbEntity
    8
Таблица
    100
AcDbLine
    10
75
    20
35
    30
0
    11
0
    21
35
    31
0
    0
LINE
    5
252
    330
231
    100
AcDbEntity
    8
Таблица
    100
AcDbLine
    10
75
    20
25
    30
0
    11
0
    21
25
    31
0
    0
LINE
    5
253
    330
231
    100
AcDbEntity
    8
Таблица
    100
AcDbLine
    10
0
    20
47.5
    30
0
    11
75
    21
47.5
    31
0
    0
LINE
    5
254
    330
231
    100
AcDbEntity
    8
Таблица
    100
AcDbLine
    10
0
    20
57.5
    30
0
    11
75
    21
57.5
    31
0
    0
LINE
    5
255
    330
231
    100
AcDbEntity
    8
Таблица
    100
AcDbLine
    10
75
    20
67.5
    30
0
    11
0
    21
67.5
    31
0
    0
LINE
    5
256
    330
231
    100
AcDbEntity
    8
Таблица
    100
AcDbLine
    10
0
    20
77.5
    30
0
    11
75
    21
77.5
    31
0
    0
LINE
    5
257
    330
231
    100
AcDbEntity
    8
Таблица
    100
AcDbLine
    10
0
    20
87.5
    30
0
    11
75
    21
87.5
    31
0
    0
LINE
    5
258
    330
231
    100
AcDbEntity
    8
Таблица
    100
AcDbLine
    10
0
    20
97.5
    30
0
    11
75
    21
97.5
    31
0
    0
TEXT
    5
259
    330
231
    100
AcDbEntity
    8
Таблица
    100
AcDbText
    10
77
    20
35
    30
0
    11
77
    21
35
    31
0
    40
2.5
    1
&L
    50
0
    41
1
    51
0
    100
AcDbText
    73
0
    0
TEXT
    5
25A
    330
231
    100
AcDbEntity
    8
Таблица
    100
AcDbText
    10
77
    20
25
    30
0
    11
77
    21
25
    31
0
    40
2.5
    1
&L
    50
0
    41
1
    51
0
    100
AcDbText
    73
0
    0
TEXT
    5
25B
    330
231
    100
AcDbEntity
    8
Углы
    100
AcDbText
    10
79.5
    20
48.5000000546392
    30
0
    11
78.25
    21
48.5
    31
0
    40
2.5
    1
&ANGLE
    50
90.0000025044782
    41
0.800000011920929
    51
0
    100
AcDbText
    73
2
    0
TEXT
    5
25C
    330
231
    100
AcDbEntity
    8
Таблица
    100
AcDbText
    10
77
    20
87.4999997843151
    30
0
    11
77
    21
87.4999997843151
    31
0
    40
2.5
    1
&L
    50
0
    41
1
    51
0
    100
AcDbText
    73
0
    0
TEXT
    5
25D
    330
231
    100
AcDbEntity
    8
Таблица
    100
AcDbText
    10
77
    20
97.4999997843151
    30
0
    11
77
    21
97.4999997843151
    31
0
    40
2.5
    1
&L
    50
0
    41
1
    51
0
    100
AcDbText
    73
0
    0
TEXT
    5
25E
    330
231
    100
AcDbEntity
    8
Таблица
    100
AcDbText
    10
77
    20
77.4999999817824
    30
0
    11
77
    21
77.4999999817824
    31
0
    40
2.5
    1
&L
    50
0
    41
1
    51
0
    100
AcDbText
    73
0
    0
TEXT
    5
25F
    330
231
    100
AcDbEntity
    8
Таблица
    100
AcDbText
    10
77
    20
67.4999999817824
    30
0
    11
77
    21
67.4999999817824
    31
0
    40
2.5
    1
&L
    50
0
    41
1
    51
0
    100
AcDbText
    73
0
    0
TEXT
    5
260
    330
231
    100
AcDbEntity
    8
Таблица
    100
AcDbText
    10
77
    20
47.4999999415733
    30
0
    11
77
    21
47.4999999415733
    31
0
    40
2.5
    1
&L
    50
0
    41
1
    51
0
    100
AcDbText
    73
0
    0
TEXT
    5
261
    330
231
    100
AcDbEntity
    8
Таблица
    100
AcDbText
    10
77
    20
57.4999999415733
    30
0
    11
77
    21
57.4999999415733
    31
0
    40
2.5
    1
&L
    50
0
    41
1
    51
0
    100
AcDbText
    73
0
    0
TEXT
    5
262
    330
231
    100
AcDbEntity
    8
Красные отметки
    100
AcDbText
    10
78.2500002914093
    20
76.5000000910608
    30
0
    11
77
    21
83.1666670209797
    31
0
    40
2.5
    1
&RE PRF
    50
90.0000025044782
    41
0.800000011920929
    51
0
    72
1
    100
AcDbText
    73
2
    0
TEXT
    5
263
    330
231
    100
AcDbEntity
    8
Прямые и кривые в плане
    100
AcDbText
    10
77
    20
41.5
    30
0
    11
77
    21
41.5
    31
0
    40
2.5
    1
&PLN-RAIL 0 0 0
    50
0
    41
0.800000011920929
    51
0
    100
AcDbText
    73
0
    0
TEXT
    5
264
    330
231
    100
AcDbEntity
    8
Черный профиль
    100
AcDbText
    10
77
    20
97.4999997843151
    30
0
    11
77
    21
97.4999997843151
    31
0
    40
2.5
    1
&EP
    50
0
    41
1
    51
0
    100
AcDbText
    73
0
    0
TEXT
    5
265
    330
231
    100
AcDbEntity
    8
Геология_штриховки
    100
AcDbText
    10
77
    20
97.4999997843151
    30
0
    11
77
    21
97.4999997843151
    31
0
    40
2.5
    1
&GEOLOGY_GROUNDS_HATCHES
    50
0
    41
1
    51
0
    100
AcDbText
    73
0
    0
TEXT
    5
266
    330
231
    100
AcDbEntity
    8
Геология_контуры
    100
AcDbText
    10
77
    20
97.4999997843151
    30
0
    11
77
    21
97.4999997843151
    31
0
    40
2.5
    1
&GEOLOGY_CONTOURS
    50
0
    41
1
    51
0
    100
AcDbText
    73
0
    0
TEXT
    5
267
    330
231
    100
AcDbEntity
    8
Геология_испытания_крыльчаткой
    100
AcDbText
    10
77
    20
97.4999997843151
    30
0
    11
77
    21
97.4999997843151
    31
0
    40
2.5
    1
&GEOLOGY_IMPELLERTESTS 1.0
    50
0
    41
1
    51
0
    100
AcDbText
    73
0
    0
TEXT
    5
268
    330
231
    100
AcDbEntity
    8
Геология_выработки
    100
AcDbText
    10
77
    20
97.4999997843151
    30
0
    11
77
    21
97.4999997843151
    31
0
    40
2.5
    1
&GEOLOGY_BOREHOLES 1.0
    50
0
    41
1
    51
0
    100
AcDbText
    73
0
    0
TEXT
    5
269
    330
231
    100
AcDbEntity
    8
Геология_опробование
    100
AcDbText
    10
77
    20
97.4999997843151
    30
0
    11
77
    21
97.4999997843151
    31
0
    40
1.25
    1
&GEOLOGY_ASSAYS 2.0
    50
0
    41
1
    51
0
    100
AcDbText
    73
0
    0
TEXT
    5
26A
    330
231
    100
AcDbEntity
    8
Геология_мерзлота
    100
AcDbText
    10
77
    20
97.4999997843151
    30
0
    11
77
    21
97.4999997843151
    31
0
    40
2.5
    1
&GEOLOGY_FROST
    50
0
    41
1
    51
0
    100
AcDbText
    73
0
    0
TEXT
    5
26B
    330
231
    100
AcDbEntity
    8
Геология_вода
    100
AcDbText
    10
77
    20
97.4999997843151
    30
0
    11
77
    21
97.4999997843151
    31
0
    40
2.5
    1
&GEOLOGY_WATER
    50
0
    41
1
    51
0
    100
AcDbText
    73
0
    0
TEXT
    5
26C
    330
231
    100
AcDbEntity
    8
Геология_подписи
    100
AcDbText
    10
77
    20
97.4999997843151
    30
0
    11
77
    21
97.4999997843151
    31
0
    40
2.5
    1
&GEOLOGY_NOTES
    50
0
    41
1
    51
0
    100
AcDbText
    73
0
    0
TEXT
    5
26D
    330
231
    100
AcDbEntity
    8
Геология_список_ИГЭ
    100
AcDbText
    10
77
    20
97.4999997843151
    30
0
    11
77
    21
97.4999997843151
    31
0
    40
2.5
    1
&GEOLOGY_LEGEND
    50
0
    41
1
    51
0
    100
AcDbText
    73
0
    0
TEXT
    5
26E
    330
231
    100
AcDbEntity
    8
Коммуникации
    100
AcDbText
    10
77
    20
97.4999997843151
    30
0
    11
77
    21
97.4999997843151
    31
0
    40
2.5
    1
&COMMUNICATIONS
    50
0
    41
1
    51
0
    100
AcDbText
    73
0
    0
TEXT
    5
26F
    330
231
    100
AcDbEntity
    8
0
    100
AcDbText
    10
5
    20
112.5
    30
0
    11
5
    21
112.5
    31
0
    40
2.5
    1
&PROFILE_TYPE 2
    50
0
    41
0.800000011920929
    51
0
    100
AcDbText
    73
0
    0
TEXT
    5
270
    330
231
    100
AcDbEntity
    8
Красный профиль
    100
AcDbText
    10
77
    20
97.4999997843151
    30
0
    11
77
    21
97.4999997843151
    31
0
    40
2.5
    1
&RPP
    50
0
    41
1
    51
0
    100
AcDbText
    73
0
    0
TEXT
    5
271
    330
231
    100
AcDbEntity
    8
Красный профиль
    100
AcDbText
    10
77
    20
97.4999997843151
    30
0
    11
77
    21
97.4999997843151
    31
0
    40
2.5
    1
&RPC
    50
0
    41
1
    51
0
    100
AcDbText
    73
0
    0
TEXT
    5
272
    330
231
    100
AcDbEntity
    8
Красные отметки
    100
AcDbText
    10
77
    20
71.25
    30
0
    11
77
    21
72.5
    31
0
    40
2.5
    1
&RG PRF
    50
0
    41
0.800000011920929
    51
0
    100
AcDbText
    73
2
    0
TEXT
    5
273
    330
231
    100
AcDbEntity
    8
Красный профиль
    100
AcDbText
    10
77
    20
71.25
    30
0
    11
77
    21
72.5
    31
0
    40
2.5
    1
&RD
    50
0
    41
0.800000011920929
    51
0
    100
AcDbText
    73
2
    0
TEXT
    5
274
    330
231
    100
AcDbEntity
    8
Ссылочные профили
    100
AcDbText
    10
80
    20
97.5
    30
0
    11
80
    21
97.5
    31
0
    40
2.5
    1
&REFP 1
    50
0
    41
0.800000011920929
    51
0
    100
AcDbText
    73
0
    0
TEXT
    5
275
    330
231
    100
AcDbEntity
    8
Ссылочные профили
    100
AcDbText
    10
80
    20
97.5
    30
0
    11
80
    21
97.5
    31
0
    40
2.5
    1
&REFP 0
    50
0
    41
0.800000011920929
    51
0
    100
AcDbText
    73
0
    0
TEXT
    5
276
    330
231
    100
AcDbEntity
    8
УВВ
    100
AcDbText
    10
80
    20
97.5
    30
0
    11
80
    21
97.5
    31
0
    40
2.5
    1
&UVV
    50
0
    41
1
    51
0
    100
AcDbText
    73
0
    0
ENDSEC
    0
SECTION
    2
OBJECTS
    0
DICTIONARY
    5
13
    330
0
    100
AcDbDictionary
    281
1
    3
ACAD_GROUP
    350
14
    3
ACAD_MLINESTYLE
    350
16
    3
ACAD_PLOTSETTINGS
    350
17
    3
ACAD_IMAGE_DICT
    350
14D
    3
ACAD_IMAGE_VARS
    350
14E
    3
ACAD_WIPEOUT_VARS
    350
E7
    3
ACAD_PLOTSTYLENAME
    350
18
    3
ACAD_LAYOUT
    350
221
    0
DICTIONARY
    5
14
    330
13
    100
AcDbDictionary
    281
1
    0
DICTIONARY
    5
17
    102
{ACAD_REACTORS
    330
13
    102
}
    330
13
    100
AcDbDictionary
    281
1
    0
ACDBDICTIONARYWDFLT
    5
18
    102
{ACAD_REACTORS
    330
13
    102
}
    330
13
    100
AcDbDictionary
    281
1
    3
Normal
    350
19
    100
AcDbDictionaryWithDefault
    340
19
    0
ACDBPLACEHOLDER
    5
19
    102
{ACAD_REACTORS
    330
18
    102
}
    330
18
    0
DICTIONARY
    5
7E
    102
{ACAD_REACTORS
    330
C
    102
}
    330
C
    100
AcDbDictionary
    281
1
    3
Standard
    350
7F
    0
WIPEOUTVARIABLES
    5
E7
    102
{ACAD_REACTORS
    330
C
    102
}
    330
C
    100
AcDbWipeoutVariables
    70
0
    0
DICTIONARY
    5
1B
    330
1A
    100
AcDbDictionary
    280
1
    281
1
    3
ACLYDICTIONARY
    360
229
    3
ACAD_LAYERSTATES
    360
227
    0
DICTIONARY
    5
227
    102
{ACAD_REACTORS
    330
1B
    102
}
    330
1B
    100
AcDbDictionary
    281
1
    0
DICTIONARY
    5
229
    102
{ACAD_REACTORS
    330
1B
    102
}
    330
1B
    100
AcDbDictionary
    281
1
    3
*A1
    350
22B
    3
*A2
    350
22E
    0
XRECORD
    5
22B
    102
{ACAD_REACTORS
    330
229
    102
}
    330
229
    100
AcDbXrecord
    280
1
    1
AcLyLayerFilter
    90
1
    300
Все используемые слои
    301
USED=="TRUE" AND VPOVERRIDES=="FALSE"
    0
XRECORD
    5
22E
    102
{ACAD_REACTORS
    330
229
    102
}
    330
229
    100
AcDbXrecord
    280
1
    1
AcLyLayerFilter
    90
1
    300
Все видимые слои
    301
OFF=="FALSE"
    0
DICTIONARY
    5
221
    102
{ACAD_REACTORS
    330
C
    102
}
    330
C
    100
AcDbDictionary
    281
1
    3
Model
    350
222
    0
LAYOUT
    5
222
    100
AcDbPlotSettings
    1

    2
none_device
    4

    6

    40
0
    41
0
    42
0
    43
0
    44
297
    45
210
    46
0
    47
0
    48
0
    49
0
    140
0
    141
0
    142
1
    143
1
    70
4784
    72
1
    73
0
    74
5
    7

    75
0
    147
1
    148
0
    149
0
    100
AcDbLayout
    1
Model
    70
1
    71
0
    330
231
    0
DICTIONARY
    5
E6
    330
10
    100
AcDbDictionary
    280
1
    281
1
    3
ADSK_XREC_LAYER_RECONCILED
    360
155
    0
DICTIONARY
    5
16
    102
{ACAD_REACTORS
    330
C
    102
}
    330
C
    100
AcDbDictionary
    281
1
    3
Standard
    350
21F
    0
MLINESTYLE
    5
21F
    102
{ACAD_REACTORS
    330
16
    102
}
    330
16
    100
AcDbMlineStyle
    2
Standard
    70
0
    3

    62
256
    51
90.0000025044782
    52
90.0000025044782
    71
2
    49
0.5
    62
256
    49
-0.5
    62
256
    0
DICTIONARY
    5
14D
    102
{ACAD_REACTORS
    330
C
    102
}
    330
C
    100
AcDbDictionary
    281
1
    0
RASTERVARIABLES
    5
14E
    102
{ACAD_REACTORS
    330
C
    102
}
    330
C
    100
AcDbRasterVariables
    90
0
    70
1
    71
1
    72
5
    0
XRECORD
    5
155
    102
{ACAD_REACTORS
    330
E6
    102
}
    330
E6
    100
AcDbXrecord
    280
1
    290
1
    0
ENDSEC
    0
EOF
