    0
SECTION
    2
HEADER
    9
$ACADVER
    1
AC1015
    9
$DWGCODEPAGE
    3
ANSI_1251
    9
$HANDSEED
    5
292
    9
$TILEMODE
    70
1
    9
$CECOLOR
    62
256
    9
$CELTSCALE
    40
1
    9
$CELTYPE
    6
ByLayer
    9
$CELWEIGHT
    370
-1
    9
$CLAYER
    8
0
    9
$CMLSTYLE
    2
Standard
    9
$DIMSTYLE
    2
Standard
    9
$INSBASE
    10
0
    20
0
    30
0
    9
$PDMODE
    70
0
    9
$PDSIZE
    40
0
    9
$TEXTSTYLE
    7
Standard
    9
$LWDISPLAY
    290
0
    9
$LTSCALE
    40
1
    9
$PSLTSCALE
    70
0
    9
$LIMMIN
    10
0
    20
-5
    9
$LIMMAX
    10
157.916899947217
    20
92.7091663905448
    9
$MEASUREMENT
    70
1
    0
ENDSEC
    0
SECTION
    2
CLASSES
    0
CLASS
    1
RASTERVARIABLES
    2
AcDbRasterVariables
    3
ISM
    90
0
    280
0
    281
0
    0
CLASS
    1
IMAGEDEF
    2
AcDbRasterImageDef
    3
ISM
    90
0
    280
0
    281
0
    0
CLASS
    1
IMAGEDEF_REACTOR
    2
AcDbRasterImageDefReactor
    3
ISM
    90
1
    280
0
    281
0
    0
CLASS
    1
IMAGE
    2
AcDbRasterImage
    3
ISM
    90
2175
    280
0
    281
1
    0
CLASS
    1
WIPEOUT
    2
AcDbWipeout
    3
"WipeOut|Product Desc: Object Enabler for WipeOut entity^I^I^I^I^I^I|Company: Autodesk, Inc.^I^I^I^I^I^I|WEB Address: www.autodesk.com"
    90
2175
    280
0
    281
1
    0
CLASS
    1
WIPEOUTVARIABLES
    2
AcDbWipeoutVariables
    3
"WipeOut|Product Desc:     WipeOut Dbx Application|Company:          Autodesk, Inc.|WEB Address:      www.autodesk.com"
    90
0
    280
0
    281
0
    0
CLASS
    1
ARC_DIMENSION
    2
AcDbArcDimension
    3
ObjectDBX Classes
    90
1025
    280
0
    281
1
    0
CLASS
    1
LARGE_RADIAL_DIMENSION
    2
AcDbRadialDimensionLarge
    3
ObjectDBX Classes
    90
1025
    280
0
    281
1
    0
CLASS
    1
LAYOUT
    2
AcDbLayout
    3
ObjectDBX Classes
    90
0
    280
0
    281
0
    0
ENDSEC
    0
SECTION
    2
TABLES
    0
TABLE
    2
VPORT
    5
1
    100
AcDbSymbolTable
    0
ENDTAB
    0
TABLE
    2
LTYPE
    5
2
    100
AcDbSymbolTable
    0
LTYPE
    5
205
    100
AcDbSymbolTableRecord
    100
AcDbLinetypeTableRecord
    2
ByLayer
    3
По слою
    70
0
    72
65
    73
0
    40
0
    0
LTYPE
    5
206
    100
AcDbSymbolTableRecord
    100
AcDbLinetypeTableRecord
    2
ByBlock
    3
По блоку
    70
0
    72
65
    73
0
    40
0
    0
LTYPE
    5
207
    100
AcDbSymbolTableRecord
    100
AcDbLinetypeTableRecord
    2
Continuous
    3
Сплошная
    70
0
    72
65
    73
0
    40
0
    0
LTYPE
    5
208
    100
AcDbSymbolTableRecord
    100
AcDbLinetypeTableRecord
    2
осевая2
    3
Осевая (.5x) ___ _ ___ _ ___ _ ___ _ ___ _ ___
    70
0
    72
65
    73
4
    40
1.125
    49
0.75
    74
0
    49
-0.125
    74
0
    49
0.125
    74
0
    49
-0.125
    74
0
    0
LTYPE
    5
209
    100
AcDbSymbolTableRecord
    100
AcDbLinetypeTableRecord
    2
GeologyDash
    3
Штриховая линия элементов геологии
    70
0
    72
65
    73
2
    40
3.33333325386047
    49
1.66666662693024
    74
0
    49
-1.66666662693024
    74
0
    0
LTYPE
    5
20A
    100
AcDbSymbolTableRecord
    100
AcDbLinetypeTableRecord
    2
штриховая
    3
Штриховая __ __ __ __ __ __ __ __ __ __ __ __ __ _
    70
0
    72
65
    73
2
    40
0.75
    49
0.5
    74
0
    49
-0.25
    74
0
    0
ENDTAB
    0
TABLE
    2
LAYER
    5
1A
    102
{ACAD_XDICTIONARY
    360
1B
    102
}
    330
0
    100
AcDbSymbolTable
    0
LAYER
    5
10
    100
AcDbSymbolTableRecord
    100
AcDbLayerTableRecord
    2
0
    70
0
    62
7
    6
Continuous
    370
-3
    390
19
    0
LAYER
    5
20D
    100
AcDbSymbolTableRecord
    100
AcDbLayerTableRecord
    2
Черный поперечник
    70
0
    62
3
    6
Continuous
    370
-3
    390
19
    0
LAYER
    5
20E
    100
AcDbSymbolTableRecord
    100
AcDbLayerTableRecord
    2
Красный поперечник
    70
0
    62
1
    6
Continuous
    370
-3
    390
19
    0
LAYER
    5
20F
    100
AcDbSymbolTableRecord
    100
AcDbLayerTableRecord
    2
Коммуникации
    70
0
    62
7
    6
Continuous
    370
-3
    390
19
    0
LAYER
    5
210
    100
AcDbSymbolTableRecord
    100
AcDbLayerTableRecord
    2
Таблица
    70
0
    62
7
    6
Continuous
    370
-3
    390
19
    0
LAYER
    5
211
    100
AcDbSymbolTableRecord
    100
AcDbLayerTableRecord
    2
Код_516
    70
0
    62
1
    6
Continuous
    370
-3
    390
19
    0
LAYER
    5
212
    100
AcDbSymbolTableRecord
    100
AcDbLayerTableRecord
    2
Код_510
    70
0
    62
7
    6
Continuous
    370
-3
    390
19
    0
LAYER
    5
213
    100
AcDbSymbolTableRecord
    100
AcDbLayerTableRecord
    2
Объем кюветов
    70
0
    62
7
    6
Continuous
    370
-3
    390
19
    0
LAYER
    5
214
    100
AcDbSymbolTableRecord
    100
AcDbLayerTableRecord
    2
Ось
    70
0
    62
1
    6
осевая2
    370
-3
    390
19
    0
LAYER
    5
215
    100
AcDbSymbolTableRecord
    100
AcDbLayerTableRecord
    2
Рабочие отметки
    70
0
    62
7
    6
Continuous
    370
-3
    390
19
    0
LAYER
    5
216
    100
AcDbSymbolTableRecord
    100
AcDbLayerTableRecord
    2
Отметки покрытия
    70
0
    62
7
    6
Continuous
    370
-3
    390
19
    0
LAYER
    5
217
    100
AcDbSymbolTableRecord
    100
AcDbLayerTableRecord
    2
Подписи поперечников
    70
0
    62
7
    6
Continuous
    370
-3
    390
19
    0
LAYER
    5
218
    100
AcDbSymbolTableRecord
    100
AcDbLayerTableRecord
    2
Откосы
    70
0
    62
7
    6
Continuous
    370
-3
    390
19
    0
LAYER
    5
219
    100
AcDbSymbolTableRecord
    100
AcDbLayerTableRecord
    2
Геология_штриховки
    70
0
    62
8
    6
Continuous
    370
-3
    390
19
    0
LAYER
    5
21A
    100
AcDbSymbolTableRecord
    100
AcDbLayerTableRecord
    2
Геология_точки_статического_зондирования
    70
0
    62
7
    6
Continuous
    370
-3
    390
19
    0
LAYER
    5
21B
    100
AcDbSymbolTableRecord
    100
AcDbLayerTableRecord
    2
Геология_контуры
    70
0
    62
7
    6
Continuous
    370
-3
    390
19
    0
LAYER
    5
21C
    100
AcDbSymbolTableRecord
    100
AcDbLayerTableRecord
    2
Геология_выработки
    70
0
    62
7
    6
Continuous
    370
-3
    390
19
    0
LAYER
    5
21D
    100
AcDbSymbolTableRecord
    100
AcDbLayerTableRecord
    2
Геология_подписи
    70
0
    62
7
    6
Continuous
    370
-3
    390
19
    0
LAYER
    5
21E
    100
AcDbSymbolTableRecord
    100
AcDbLayerTableRecord
    2
Геология_мерзлота
    70
0
    62
7
    6
Continuous
    370
-3
    390
19
    0
LAYER
    5
21F
    100
AcDbSymbolTableRecord
    100
AcDbLayerTableRecord
    2
Геология_вода
    70
0
    62
7
    6
Continuous
    370
-3
    390
19
    0
LAYER
    5
220
    100
AcDbSymbolTableRecord
    100
AcDbLayerTableRecord
    2
Геология_опробование
    70
0
    62
7
    6
Continuous
    370
-3
    390
19
    0
LAYER
    5
221
    100
AcDbSymbolTableRecord
    100
AcDbLayerTableRecord
    2
Геология_список_ИГЭ
    70
0
    62
7
    6
Continuous
    370
-3
    390
19
    0
LAYER
    5
222
    100
AcDbSymbolTableRecord
    100
AcDbLayerTableRecord
    2
Интерполированный поперечник
    70
0
    62
2
    6
Continuous
    370
-3
    390
19
    0
LAYER
    5
223
    100
AcDbSymbolTableRecord
    100
AcDbLayerTableRecord
    2
Слои выравнивания
    70
0
    62
7
    6
Continuous
    370
-3
    390
19
    0
LAYER
    5
224
    100
AcDbSymbolTableRecord
    100
AcDbLayerTableRecord
    2
Векторная подложка
    70
0
    62
7
    6
Continuous
    370
-3
    390
19
    0
LAYER
    5
225
    100
AcDbSymbolTableRecord
    100
AcDbLayerTableRecord
    2
Существующий отвод земель
    70
0
    62
3
    6
Continuous
    370
-3
    390
19
    0
LAYER
    5
226
    100
AcDbSymbolTableRecord
    100
AcDbLayerTableRecord
    2
Проектный отвод земель
    70
0
    62
1
    6
Continuous
    370
-3
    390
19
    0
LAYER
    5
227
    100
AcDbSymbolTableRecord
    100
AcDbLayerTableRecord
    2
Временный отвод земель
    70
0
    62
2
    6
Continuous
    370
-3
    390
19
    0
LAYER
    5
228
    100
AcDbSymbolTableRecord
    100
AcDbLayerTableRecord
    2
Код_514
    70
0
    62
1
    6
Continuous
    370
-3
    390
19
    0
LAYER
    5
229
    100
AcDbSymbolTableRecord
    100
AcDbLayerTableRecord
    2
Объем насыпи
    70
0
    62
7
    6
Continuous
    370
-3
    390
19
    0
LAYER
    5
22A
    100
AcDbSymbolTableRecord
    100
AcDbLayerTableRecord
    2
Объем выемки
    70
0
    62
7
    6
Continuous
    370
-3
    390
19
    0
LAYER
    5
22B
    100
AcDbSymbolTableRecord
    100
AcDbLayerTableRecord
    2
Объем срезки растительного слоя
    70
0
    62
7
    6
Continuous
    370
-3
    390
19
    0
LAYER
    5
22C
    100
AcDbSymbolTableRecord
    100
AcDbLayerTableRecord
    2
Объем присыпных обочин
    70
0
    62
7
    6
Continuous
    370
-3
    390
19
    0
LAYER
    5
22D
    100
AcDbSymbolTableRecord
    100
AcDbLayerTableRecord
    2
Таблица объемов
    70
0
    62
-7
    6
Continuous
    370
-3
    390
19
    0
LAYER
    5
22E
    100
AcDbSymbolTableRecord
    100
AcDbLayerTableRecord
    2
Линейка абсолютных высот
    70
0
    62
7
    6
Continuous
    370
-3
    390
19
    0
LAYER
    5
22F
    100
AcDbSymbolTableRecord
    100
AcDbLayerTableRecord
    2
Геология_испытания_крыльчаткой
    70
0
    62
7
    6
Continuous
    370
-3
    390
19
    0
LAYER
    5
230
    100
AcDbSymbolTableRecord
    100
AcDbLayerTableRecord
    2
УВВ
    70
0
    62
7
    6
Continuous
    370
-3
    390
19
    0
ENDTAB
    0
TABLE
    2
STYLE
    5
5
    100
AcDbSymbolTable
    0
STYLE
    5
201
    100
AcDbSymbolTableRecord
    100
AcDbTextStyleTableRecord
    2
Standard
    70
0
    40
0
    41
1
    50
0
    71
0
    42
2.5
    3
txt
    4

    0
STYLE
    5
202
    100
AcDbSymbolTableRecord
    100
AcDbTextStyleTableRecord
    2
ANNOTATIVE
    70
0
    40
0
    41
1
    50
0
    71
0
    42
0.200000002980232
    3
txt
    4

    0
STYLE
    5
203
    100
AcDbSymbolTableRecord
    100
AcDbTextStyleTableRecord
    2
LEGEND
    70
0
    40
0
    41
1
    50
0
    71
0
    42
0.200000002980232
    3
txt
    4

    0
ENDTAB
    0
TABLE
    2
VIEW
    5
7
    100
AcDbSymbolTable
    0
ENDTAB
    0
TABLE
    2
UCS
    5
8
    100
AcDbSymbolTable
    0
ENDTAB
    0
TABLE
    2
APPID
    2
9
    100
AcDbSymbolTable
    0
APPID
    5
A
    100
AcDbSymbolTableRecord
    100
AcDbRegAppTableRecord
    2
ACAD
    70
0
    0
APPID
    5
108
    330
9
    100
AcDbSymbolTableRecord
    100
AcDbRegAppTableRecord
    2
AcAecLayerStandard
    70
0
    0
APPID
    5
107
    330
9
    100
AcDbSymbolTableRecord
    100
AcDbRegAppTableRecord
    2
ACAD_MLEADERVER
    70
0
  0
APPID
  5
DF
330
9
100
AcDbSymbolTableRecord
100
AcDbRegAppTableRecord
  2
ACAD_DSTYLE_DIMJAG
 70
     0
  0
APPID
  5
E0
330
9
100
AcDbSymbolTableRecord
100
AcDbRegAppTableRecord
  2
ACAD_DSTYLE_DIMTALN
 70
     0
    0
ENDTAB
    0
TABLE
    2
DIMSTYLE
    5
B
    330
0
    100
AcDbSymbolTable
    70
2
    100
AcDbDimStyleTable
    71
2
    0
DIMSTYLE
    105
237
    330
B
    100
AcDbSymbolTableRecord
    100
AcDbDimStyleTableRecord
    2
Standard
    70
0
    340
201
    0
DIMSTYLE
    105
238
    330
B
    100
AcDbSymbolTableRecord
    100
AcDbDimStyleTableRecord
    2
ISO-25
    70
0
    43
3.75
    42
0.625
    44
1.25
    41
2.5
    141
2.5
    140
2.5
    147
0.625
    77
1
    73
0
    74
0
    172
1
    78
8
    171
3
    143
0.0393700003623962
    340
201
    0
DIMSTYLE
    105
239
    330
B
    100
AcDbSymbolTableRecord
    100
AcDbDimStyleTableRecord
    2
ANNOTATIVE
    70
0
    340
201
    0
ENDTAB
    0
TABLE
    2
BLOCK_RECORD
    5
C
    100
AcDbSymbolTable
    0
BLOCK_RECORD
    5
245
    100
AcDbSymbolTableRecord
    100
AcDbBlockTableRecord
    2
*MODEL_SPACE
    0
BLOCK_RECORD
    5
E
    100
AcDbSymbolTableRecord
    100
AcDbBlockTableRecord
    2
*PAPER_SPACE
    0
ENDTAB
    0
ENDSEC
    0
SECTION
    2
BLOCKS
    0
BLOCK
    5
246
    330
245
    100
AcDbEntity
    8
0
    100
AcDbBlockBegin
    2
*MODEL_SPACE
    70
0
    10
0
    20
0
    30
0
    3
*MODEL_SPACE
    1

    4

    0
ENDBLK
    5
247
    100
AcDbEntity
    8
0
    100
AcDbBlockEnd
    0
BLOCK
    5
11
    330
E
    100
AcDbEntity
    8
0
    100
AcDbBlockBegin
    2
*PAPER_SPACE
    70
0
    10
0
    20
0
    30
0
    3
*PAPER_SPACE
    1

    4

    0
ENDBLK
    5
12
    100
AcDbEntity
    8
0
    100
AcDbBlockEnd
    0
ENDSEC
    0
SECTION
    2
ENTITIES
    0
TEXT
    5
248
    330
245
    100
AcDbEntity
    8
Линейка абсолютных высот
    100
AcDbText
    10
80.0002358236819
    20
50
    30
0
    11
80.0002358236819
    21
50
    31
0
    40
2.5
    1
&ABS_ELEVATIONS_RANGE_LINE
    50
0
    41
1
    51
0
    100
AcDbText
    73
0
    0
TEXT
    5
249
    330
245
    100
AcDbEntity
    8
Таблица
    100
AcDbText
    10
80
    20
50
    30
0
    11
80
    21
50
    31
0
    40
2.5
    1
&L
    50
0
    41
1
    51
0
    100
AcDbText
    73
0
    0
TEXT
    5
24A
    330
245
    100
AcDbEntity
    8
Код_516
    100
AcDbText
    10
80
    20
40
    30
0
    11
80
    21
40
    31
0
    40
2.5
    1
&G 516
    50
0
    41
1
    51
0
    100
AcDbText
    73
0
    0
TEXT
    5
24B
    330
245
    100
AcDbEntity
    8
Код_516
    100
AcDbText
    10
81.25
    20
26.0000000546392
    30
0
    11
80
    21
26
    31
0
    40
2.5
    1
&E 516
    50
90.0000025044782
    41
1
    51
0
    100
AcDbText
    73
2
    0
TEXT
    5
24C
    330
245
    100
AcDbEntity
    8
Код_510
    100
AcDbText
    10
81.25
    20
11.0000000546392
    30
0
    11
80
    21
11
    31
0
    40
2.5
    1
&E 510
    50
90.0000025044782
    41
1
    51
0
    100
AcDbText
    73
2
    0
TEXT
    5
24D
    330
245
    100
AcDbEntity
    8
Код_510
    100
AcDbText
    10
70.4166669845581
    20
3.75
    30
0
    11
80
    21
5
    31
0
    40
2.5
    1
&D 510 10
    50
0
    41
1
    51
0
    72
1
    100
AcDbText
    73
2
    0
TEXT
    5
24E
    330
245
    100
AcDbEntity
    8
Таблица
    100
AcDbText
    10
23.8502046680512
    20
43.416
    30
0
    11
23.8502046680512
    21
43.416
    31
0
    40
2.5
    1
Уклон, o/oo; длина, м
    50
0
    41
0.800000011920929
    51
0
    100
AcDbText
    73
0
    0
TEXT
    5
24F
    330
245
    100
AcDbEntity
    8
Таблица
    100
AcDbText
    10
14.516
    20
31.456
    30
0
    11
14.516
    21
31.456
    31
0
    40
2.5
    1
Отметка земляного полотна, м
    50
0
    41
0.800000011920929
    51
0
    100
AcDbText
    73
0
    0
TEXT
    5
250
    330
245
    100
AcDbEntity
    8
Таблица
    100
AcDbText
    10
25.1313763786491
    20
16.6442735872345
    30
0
    11
25.1313763786491
    21
16.6442735872345
    31
0
    40
2.5
    1
Отметка рельефа, м
    50
0
    41
0.800000011920929
    51
0
    100
AcDbText
    73
0
    0
TEXT
    5
251
    330
245
    100
AcDbEntity
    8
Таблица
    100
AcDbText
    10
30.2560632210406
    20
3.191
    30
0
    11
30.2560632210406
    21
3.191
    31
0
    40
2.5
    1
Расстояние, м
    50
0
    41
0.800000011920929
    51
0
    100
AcDbText
    73
0
    0
TEXT
    5
252
    330
245
    100
AcDbEntity
    8
Таблица
    100
AcDbText
    10
4.453
    20
2.133
    30
0
    11
4.453
    21
2.133
    31
0
    40
2.5
    1
Фактические
    50
90.0000025044782
    41
0.800000011920929
    51
0
    100
AcDbText
    73
0
    0
TEXT
    5
253
    330
245
    100
AcDbEntity
    8
Таблица
    100
AcDbText
    10
7.959
    20
4.838
    30
0
    11
7.959
    21
4.838
    31
0
    40
2.5
    1
данные
    50
90.0000025044782
    41
0.800000011920929
    51
0
    100
AcDbText
    73
0
    0
TEXT
    5
254
    330
245
    100
AcDbEntity
    8
Таблица
    100
AcDbText
    10
4.453
    20
28.393
    30
0
    11
4.453
    21
28.393
    31
0
    40
2.5
    1
Проектные
    50
90.0000025044782
    41
0.800000011920929
    51
0
    100
AcDbText
    73
0
    0
TEXT
    5
255
    330
245
    100
AcDbEntity
    8
Таблица
    100
AcDbText
    10
7.959
    20
30.78
    30
0
    11
7.959
    21
30.78
    31
0
    40
2.5
    1
данные
    50
90.0000025044782
    41
0.800000011920929
    51
0
    100
AcDbText
    73
0
    0
TEXT
    5
256
    330
245
    100
AcDbEntity
    8
Таблица
    100
AcDbText
    10
80.0000000158809
    20
0
    30
0
    11
80.0000000158809
    21
0
    31
0
    40
2.5
    1
&L
    50
0
    41
1
    51
0
    100
AcDbText
    73
0
    0
TEXT
    5
257
    330
245
    100
AcDbEntity
    8
Таблица
    100
AcDbText
    10
80.0000000476427
    20
10
    30
0
    11
80.0000000476427
    21
10
    31
0
    40
2.5
    1
&L
    50
0
    41
1
    51
0
    100
AcDbText
    73
0
    0
TEXT
    5
258
    330
245
    100
AcDbEntity
    8
Таблица
    100
AcDbText
    10
80.0000000635236
    20
25.0000000415255
    30
0
    11
80.0000000635236
    21
25.0000000415255
    31
0
    40
2.5
    1
&L
    50
0
    41
1
    51
0
    100
AcDbText
    73
0
    0
TEXT
    5
259
    330
245
    100
AcDbEntity
    8
Таблица
    100
AcDbText
    10
80
    20
40
    30
0
    11
80
    21
40
    31
0
    40
2.5
    1
&L
    50
0
    41
1
    51
0
    100
AcDbText
    73
0
    0
TEXT
    5
25A
    330
245
    100
AcDbEntity
    8
Красный поперечник
    100
AcDbText
    10
80.0002358236819
    20
50
    30
0
    11
80.0002358236819
    21
50
    31
0
    40
2.5
    1
&PG
    50
0
    41
1
    51
0
    100
AcDbText
    73
0
    0
TEXT
    5
25B
    330
245
    100
AcDbEntity
    8
Черный поперечник
    100
AcDbText
    10
80
    20
50
    30
0
    11
80
    21
50
    31
0
    40
2.5
    1
&EG
    50
0
    41
1
    51
0
    100
AcDbText
    73
0
    0
TEXT
    5
25C
    330
245
    100
AcDbEntity
    8
Геология_список_ИГЭ
    100
AcDbText
    10
80.0002358236819
    20
50
    30
0
    11
80.0002358236819
    21
50
    31
0
    40
2.5
    1
&GEOLOGY_LEGEND
    50
0
    41
1
    51
0
    100
AcDbText
    73
0
    0
TEXT
    5
25D
    330
245
    100
AcDbEntity
    8
Геология_подписи
    100
AcDbText
    10
80.0002358236819
    20
50
    30
0
    11
80.0002358236819
    21
50
    31
0
    40
2.5
    1
&GEOLOGY_NOTES
    50
0
    41
1
    51
0
    100
AcDbText
    73
0
    0
TEXT
    5
25E
    330
245
    100
AcDbEntity
    8
Геология_вода
    100
AcDbText
    10
80.0002358236819
    20
50
    30
0
    11
80.0002358236819
    21
50
    31
0
    40
2.5
    1
&GEOLOGY_WATER
    50
0
    41
1
    51
0
    100
AcDbText
    73
0
    0
TEXT
    5
25F
    330
245
    100
AcDbEntity
    8
Геология_мерзлота
    100
AcDbText
    10
80.0002358236819
    20
50
    30
0
    11
80.0002358236819
    21
50
    31
0
    40
2.5
    1
&GEOLOGY_FROST
    50
0
    41
1
    51
0
    100
AcDbText
    73
0
    0
TEXT
    5
260
    330
245
    100
AcDbEntity
    8
Геология_опробование
    100
AcDbText
    10
80.0002358236819
    20
50
    30
0
    11
80.0002358236819
    21
50
    31
0
    40
1.25
    1
&GEOLOGY_ASSAYS 2.0
    50
0
    41
1
    51
0
    100
AcDbText
    73
0
    0
TEXT
    5
261
    330
245
    100
AcDbEntity
    8
Геология_точки_статического_зондирования
    100
AcDbText
    10
80.0002358236819
    20
50
    30
0
    11
80.0002358236819
    21
50
    31
0
    40
2.5
    1
&GEOLOGY_CONEPENETRATIONTESTS 1.0
    50
0
    41
1
    51
0
    100
AcDbText
    73
0
    0
TEXT
    5
262
    330
245
    100
AcDbEntity
    8
Геология_испытания_крыльчаткой
    100
AcDbText
    10
80
    20
50
    30
0
    11
80
    21
50
    31
0
    40
2.5
    1
&GEOLOGY_IMPELLERTESTS 1.0
    50
0
    41
1
    51
0
    100
AcDbText
    73
0
    0
TEXT
    5
263
    330
245
    100
AcDbEntity
    8
Геология_выработки
    100
AcDbText
    10
80.0002358236819
    20
50
    30
0
    11
80.0002358236819
    21
50
    31
0
    40
2.5
    1
&GEOLOGY_BOREHOLES 1.0
    50
0
    41
1
    51
0
    100
AcDbText
    73
0
    0
TEXT
    5
264
    330
245
    100
AcDbEntity
    8
Геология_контуры
    100
AcDbText
    10
80.0002358236819
    20
50
    30
0
    11
80.0002358236819
    21
50
    31
0
    40
2.5
    1
&GEOLOGY_CONTOURS
    50
0
    41
1
    51
0
    100
AcDbText
    73
0
    0
TEXT
    5
265
    330
245
    100
AcDbEntity
    8
Геология_штриховки
    100
AcDbText
    10
80.0002358236819
    20
50
    30
0
    11
80.0002358236819
    21
50
    31
0
    40
2.5
    1
&GEOLOGY_GROUNDS_HATCHES
    50
0
    41
1
    51
0
    100
AcDbText
    73
0
    0
TEXT
    5
266
    330
245
    100
AcDbEntity
    8
Коммуникации
    100
AcDbText
    10
80.0002358236819
    20
50
    30
0
    11
80.0002358236819
    21
50
    31
0
    40
2.5
    1
&COM
    50
0
    41
1
    51
0
    100
AcDbText
    73
0
    0
LWPOLYLINE
    5
267
    330
245
    100
AcDbEntity
    8
Таблица
    6
Continuous
    100
AcDbPolyline
    90
2
    70
128
    10
75
    20
0
    10
75
    20
50
    0
LWPOLYLINE
    5
268
    330
245
    100
AcDbEntity
    8
Таблица
    6
Continuous
    100
AcDbPolyline
    90
2
    70
128
    10
75
    20
50
    10
0
    20
50
    0
LWPOLYLINE
    5
269
    330
245
    100
AcDbEntity
    8
Таблица
    6
Continuous
    100
AcDbPolyline
    90
2
    70
128
    10
10
    20
40
    10
75
    20
40
    0
LWPOLYLINE
    5
26A
    330
245
    100
AcDbEntity
    8
Таблица
    6
Continuous
    100
AcDbPolyline
    90
2
    70
128
    10
0
    20
25
    10
75
    20
25
    0
LWPOLYLINE
    5
26B
    330
245
    100
AcDbEntity
    8
Таблица
    6
Continuous
    100
AcDbPolyline
    90
2
    70
128
    10
10
    20
10
    10
75
    20
10
    0
LWPOLYLINE
    5
26C
    330
245
    100
AcDbEntity
    8
Таблица
    6
Continuous
    100
AcDbPolyline
    90
2
    70
128
    10
0
    20
0
    10
75
    20
0
    0
LWPOLYLINE
    5
26D
    330
245
    100
AcDbEntity
    8
Таблица
    6
Continuous
    100
AcDbPolyline
    90
2
    70
128
    10
10
    20
50
    10
10
    20
0
    0
LWPOLYLINE
    5
26E
    330
245
    100
AcDbEntity
    8
Таблица
    6
Continuous
    100
AcDbPolyline
    90
2
    70
128
    10
0
    20
50
    10
0
    20
0
    0
TEXT
    5
26F
    330
245
    100
AcDbEntity
    8
Ось
    48
15
    100
AcDbText
    10
80.0002358236819
    20
50
    30
0
    11
80.0002358236819
    21
50
    31
0
    40
2.5
    1
&A
    50
0
    41
1
    51
0
    100
AcDbText
    73
0
    0
TEXT
    5
270
    330
245
    100
AcDbEntity
    8
Рабочие отметки
    100
AcDbText
    10
80.0002358236819
    20
50
    30
0
    11
80.0002358236819
    21
50
    31
0
    40
2.5
    1
&EW
    50
90.0000025044782
    41
1
    51
0
    100
AcDbText
    73
0
    0
TEXT
    5
271
    330
245
    100
AcDbEntity
    8
Отметки покрытия
    100
AcDbText
    10
80.0002358236819
    20
50
    30
0
    11
80.0002358236819
    21
50
    31
0
    40
2.5
    1
&EC 400
    50
0
    41
1
    51
0
    100
AcDbText
    73
0
    0
TEXT
    5
272
    330
245
    100
AcDbEntity
    8
Откосы
    100
AcDbText
    10
80.0002358236819
    20
50
    30
0
    11
80.0002358236819
    21
50
    31
0
    40
2.5
    1
&I 514
    50
0
    41
0.699999988079071
    51
0
    100
AcDbText
    73
0
    0
TEXT
    5
273
    330
245
    100
AcDbEntity
    8
Подписи поперечников
    100
AcDbText
    10
75.4166665077209
    20
-5
    30
0
    11
80
    21
-5
    31
0
    40
2.5
    1
&PKT
    50
0
    41
1
    51
0
    72
1
    100
AcDbText
    73
1
    0
TEXT
    5
274
    330
245
    100
AcDbEntity
    8
Интерполированный поперечник
    100
AcDbText
    10
80
    20
50
    30
0
    11
80
    21
50
    31
0
    40
2.5
    1
&AG
    50
0
    41
1
    51
0
    100
AcDbText
    73
0
    0
TEXT
    5
275
    330
245
    100
AcDbEntity
    8
Слои выравнивания
    100
AcDbText
    10
80.0002358236819
    20
50
    30
0
    11
80.0002358236819
    21
50
    31
0
    40
2.5
    1
&RENEW
    50
0
    41
1
    51
0
    100
AcDbText
    73
0
    0
TEXT
    5
276
    330
245
    100
AcDbEntity
    8
Отметки покрытия
    100
AcDbText
    10
80.0002358236819
    20
50
    30
0
    11
80.0002358236819
    21
50
    31
0
    40
2.5
    1
&EC 819
    50
0
    41
1
    51
0
    100
AcDbText
    73
0
    0
TEXT
    5
277
    330
245
    100
AcDbEntity
    8
0
    100
AcDbText
    10
4.42345765238999E-15
    20
90.2091663905448
    30
0
    11
4.42345765238999E-15
    21
90.2091663905448
    31
0
    40
2.5
    1
&TITLE Поперечники (отметки по земполотну)
    50
0
    41
0.800000011920929
    51
0
    100
AcDbText
    73
0
    0
TEXT
    5
278
    330
245
    100
AcDbEntity
    8
Отметки покрытия
    100
AcDbText
    10
80.0002358236819
    20
50
    30
0
    11
80.0002358236819
    21
50
    31
0
    40
2.5
    1
&EC 2560 1
    50
0
    41
1
    51
0
    100
AcDbText
    73
0
    0
TEXT
    5
279
    330
245
    100
AcDbEntity
    8
Отметки покрытия
    100
AcDbText
    10
80.0002358236819
    20
50
    30
0
    11
80.0002358236819
    21
50
    31
0
    40
2.5
    1
&UNDERLAY
    50
0
    41
1
    51
0
    100
AcDbText
    73
0
    0
TEXT
    5
27A
    330
245
    100
AcDbEntity
    8
Существующий отвод земель
    100
AcDbText
    10
80
    20
50
    30
0
    11
80
    21
50
    31
0
    40
2.5
    1
&EXISTENT_LAND_ALLOTMENT
    50
0
    41
1
    51
0
    100
AcDbText
    73
0
    0
TEXT
    5
27B
    330
245
    100
AcDbEntity
    8
Проектный отвод земель
    100
AcDbText
    10
80
    20
50
    30
0
    11
80
    21
50
    31
0
    40
2.5
    1
&DESIGN_LAND_ALLOTMENT
    50
0
    41
1
    51
0
    100
AcDbText
    73
0
    0
TEXT
    5
27C
    330
245
    100
AcDbEntity
    8
Временный отвод земель
    100
AcDbText
    10
80.0002358236819
    20
50
    30
0
    11
80.0002358236819
    21
50
    31
0
    40
2.5
    1
&TEMP_LAND_ALLOTMENT
    50
0
    41
1
    51
0
    100
AcDbText
    73
0
    0
TEXT
    5
27D
    330
245
    100
AcDbEntity
    8
Таблица
    100
AcDbText
    10
0.973153526095564
    20
58.2311501817288
    30
0
    11
0.973153526095564
    21
58.2311501817288
    31
0
    40
2.5
    1
&SV 200
    50
0
    41
1
    51
0
    100
AcDbText
    73
0
    0
TEXT
    5
27E
    330
245
    100
AcDbEntity
    8
Таблица
    100
AcDbText
    10
0.973153526095564
    20
53.2311501817288
    30
0
    11
0.973153526095564
    21
53.2311501817288
    31
0
    40
2.5
    1
&SH 200
    50
0
    41
1
    51
0
    100
AcDbText
    73
0
    0
TEXT
    5
27F
    330
245
    100
AcDbEntity
    8
Объем насыпи
    100
AcDbText
    10
12.7852381604849
    20
84.3697850441036
    30
0
    11
12.7852381604849
    21
84.3697850441036
    31
0
    40
2.5
    1
&VOLUME 2600
    50
0
    41
0.800000011920929
    51
0
    100
AcDbText
    73
0
    0
TEXT
    5
280
    330
245
    100
AcDbEntity
    8
Объем выемки
    100
AcDbText
    10
12.7852381604849
    20
80.1649137888076
    30
0
    11
12.7852381604849
    21
80.1649137888076
    31
0
    40
2.5
    1
&VOLUME 2650
    50
0
    41
0.800000011920929
    51
0
    100
AcDbText
    73
0
    0
TEXT
    5
281
    330
245
    100
AcDbEntity
    8
Объем срезки растительного слоя
    100
AcDbText
    10
12.7852381604849
    20
75.6972380800566
    30
0
    11
12.7852381604849
    21
75.6972380800566
    31
0
    40
2.5
    1
&VOLUME 2570
    50
0
    41
0.800000011920929
    51
0
    100
AcDbText
    73
0
    0
TEXT
    5
282
    330
245
    100
AcDbEntity
    8
Объем насыпи
    100
AcDbText
    10
0.085387021454308
    20
84.3697850441036
    30
0
    11
0.085387021454308
    21
84.3697850441036
    31
0
    40
2.5
    1
Fн
    50
0
    41
0.800000011920929
    51
0
    100
AcDbText
    73
0
    0
TEXT
    5
283
    330
245
    100
AcDbEntity
    8
Объем выемки
    100
AcDbText
    10
0.085387021454308
    20
80.1649137888076
    30
0
    11
0.085387021454308
    21
80.1649137888076
    31
0
    40
2.5
    1
Fв
    50
0
    41
0.800000011920929
    51
0
    100
AcDbText
    73
0
    0
TEXT
    5
284
    330
245
    100
AcDbEntity
    8
Объем срезки растительного слоя
    100
AcDbText
    10
0.085387021454308
    20
75.6972380800566
    30
0
    11
0.085387021454308
    21
75.6972380800566
    31
0
    40
2.5
    1
Fср
    50
0
    41
0.800000011920929
    51
0
    100
AcDbText
    73
0
    0
TEXT
    5
285
    330
245
    100
AcDbEntity
    8
Объем присыпных обочин
    100
AcDbText
    10
12.7852381604849
    20
70.5185607394136
    30
0
    11
12.7852381604849
    21
70.5185607394136
    31
0
    40
2.5
    1
&VOLUME 2563
    50
0
    41
0.800000011920929
    51
0
    100
AcDbText
    73
0
    0
TEXT
    5
286
    330
245
    100
AcDbEntity
    8
Объем присыпных обочин
    100
AcDbText
    10
0.085387021454308
    20
70.5185607394136
    30
0
    11
0.085387021454308
    21
70.5185607394136
    31
0
    40
2.5
    1
Fпр.об
    50
0
    41
0.800000011920929
    51
0
    100
AcDbText
    73
0
    0
TEXT
    5
287
    330
245
    100
AcDbEntity
    8
Таблица объемов
    100
AcDbText
    10
0.08538702145431
    20
103.954031948445
    30
0
    11
0.08538702145431
    21
103.954031948445
    31
0
    40
2.5
    1
&V
    50
0
    41
0.800000011920929
    51
0
    100
AcDbText
    73
0
    0
TEXT
    5
288
    330
245
    100
AcDbEntity
    8
Объем насыпи
    100
AcDbText
    10
29.3079433255876
    20
84.4033474582285
    30
0
    11
29.3079433255876
    21
84.4033474582285
    31
0
    40
2.5
    1
м2
    50
0
    41
0.800000011920929
    51
0
    100
AcDbText
    73
0
    0
TEXT
    5
289
    330
245
    100
AcDbEntity
    8
Объем выемки
    100
AcDbText
    10
29.3079433255876
    20
80.1984762029325
    30
0
    11
29.3079433255876
    21
80.1984762029325
    31
0
    40
2.5
    1
м2
    50
0
    41
0.800000011920929
    51
0
    100
AcDbText
    73
0
    0
TEXT
    5
28A
    330
245
    100
AcDbEntity
    8
Объем срезки растительного слоя
    100
AcDbText
    10
29.3079433255876
    20
75.7308004941815
    30
0
    11
29.3079433255876
    21
75.7308004941815
    31
0
    40
2.5
    1
м2
    50
0
    41
0.800000011920929
    51
0
    100
AcDbText
    73
0
    0
TEXT
    5
28B
    330
245
    100
AcDbEntity
    8
Объем присыпных обочин
    100
AcDbText
    10
29.3079433255876
    20
70.5521231535385
    30
0
    11
29.3079433255876
    21
70.5521231535385
    31
0
    40
2.5
    1
м2
    50
0
    41
0.800000011920929
    51
0
    100
AcDbText
    73
0
    0
TEXT
    5
28C
    330
245
    100
AcDbEntity
    8
Красный поперечник
    100
AcDbText
    10
80
    20
50
    30
0
    11
80
    21
50
    31
0
    40
2.5
    1
&ORD 516
    50
0
    41
1
    51
0
    100
AcDbText
    73
0
    0
TEXT
    5
28D
    330
245
    100
AcDbEntity
    8
Объем кюветов
    100
AcDbText
    10
12.7852381604849
    20
65.3398833987706
    30
0
    11
12.7852381604849
    21
65.3398833987706
    31
0
    40
2.5
    1
&VOLUME 2620
    50
0
    41
0.800000011920929
    51
0
    100
AcDbText
    73
0
    0
TEXT
    5
28E
    330
245
    100
AcDbEntity
    8
Объем кюветов
    100
AcDbText
    10
0.085387021454308
    20
65.3398833987706
    30
0
    11
0.085387021454308
    21
65.3398833987706
    31
0
    40
2.5
    1
Fк
    50
0
    41
0.800000011920929
    51
0
    100
AcDbText
    73
0
    0
TEXT
    5
28F
    330
245
    100
AcDbEntity
    8
Объем кюветов
    100
AcDbText
    10
29.3079433255876
    20
65.3734458128955
    30
0
    11
29.3079433255876
    21
65.3734458128955
    31
0
    40
2.5
    1
м2
    50
0
    41
0.800000011920929
    51
0
    100
AcDbText
    73
0
    0
TEXT
    5
290
    330
245
    100
AcDbEntity
    8
УВВ
    100
AcDbText
    10
80.0002358236819
    20
50
    30
0
    11
80.0002358236819
    21
50
    31
0
    40
2.5
    1
&UVV 0
    50
0
    41
1
    51
0
    100
AcDbText
    73
0
    0
TEXT
    5
291
    330
245
    100
AcDbEntity
    8
УВВ
    6
штриховая
    100
AcDbText
    10
80.0002358236819
    20
50
    30
0
    11
80.0002358236819
    21
50
    31
0
    40
2.5
    1
&UVV 1
    50
0
    41
1
    51
0
    100
AcDbText
    73
0
    0
ENDSEC
    0
SECTION
    2
OBJECTS
    0
DICTIONARY
    5
13
    330
0
    100
AcDbDictionary
    281
1
    3
ACAD_GROUP
    350
14
    3
ACAD_MLINESTYLE
    350
16
    3
ACAD_PLOTSETTINGS
    350
17
    3
ACAD_IMAGE_DICT
    350
14D
    3
ACAD_IMAGE_VARS
    350
14E
    3
ACAD_WIPEOUT_VARS
    350
E7
    3
ACAD_PLOTSTYLENAME
    350
18
    3
ACAD_LAYOUT
    350
234
    0
DICTIONARY
    5
14
    330
13
    100
AcDbDictionary
    281
1
    0
DICTIONARY
    5
17
    102
{ACAD_REACTORS
    330
13
    102
}
    330
13
    100
AcDbDictionary
    281
1
    0
ACDBDICTIONARYWDFLT
    5
18
    102
{ACAD_REACTORS
    330
13
    102
}
    330
13
    100
AcDbDictionary
    281
1
    3
Normal
    350
19
    100
AcDbDictionaryWithDefault
    340
19
    0
ACDBPLACEHOLDER
    5
19
    102
{ACAD_REACTORS
    330
18
    102
}
    330
18
    0
DICTIONARY
    5
7E
    102
{ACAD_REACTORS
    330
C
    102
}
    330
C
    100
AcDbDictionary
    281
1
    3
Standard
    350
7F
    0
WIPEOUTVARIABLES
    5
E7
    102
{ACAD_REACTORS
    330
C
    102
}
    330
C
    100
AcDbWipeoutVariables
    70
0
    0
DICTIONARY
    5
1B
    330
1A
    100
AcDbDictionary
    280
1
    281
1
    3
ACLYDICTIONARY
    360
23D
    3
ACAD_LAYERSTATES
    360
23B
    0
DICTIONARY
    5
23B
    102
{ACAD_REACTORS
    330
1B
    102
}
    330
1B
    100
AcDbDictionary
    281
1
    0
DICTIONARY
    5
23D
    102
{ACAD_REACTORS
    330
1B
    102
}
    330
1B
    100
AcDbDictionary
    281
1
    3
*A1
    350
23F
    3
*A2
    350
242
    0
XRECORD
    5
23F
    102
{ACAD_REACTORS
    330
23D
    102
}
    330
23D
    100
AcDbXrecord
    280
1
    1
AcLyLayerFilter
    90
1
    300
Все используемые слои
    301
USED=="TRUE" AND VPOVERRIDES=="FALSE"
    0
XRECORD
    5
242
    102
{ACAD_REACTORS
    330
23D
    102
}
    330
23D
    100
AcDbXrecord
    280
1
    1
AcLyLayerFilter
    90
1
    300
Все видимые слои
    301
OFF=="FALSE"
    0
DICTIONARY
    5
234
    102
{ACAD_REACTORS
    330
C
    102
}
    330
C
    100
AcDbDictionary
    281
1
    3
Model
    350
235
    0
LAYOUT
    5
235
    100
AcDbPlotSettings
    1

    2
none_device
    4

    6

    40
0
    41
0
    42
0
    43
0
    44
297
    45
210
    46
0
    47
0
    48
0
    49
0
    140
0
    141
0
    142
1
    143
1
    70
4784
    72
1
    73
0
    74
5
    7

    75
0
    147
1
    148
0
    149
0
    100
AcDbLayout
    1
Model
    70
1
    71
0
    330
245
    0
DICTIONARY
    5
E6
    330
10
    100
AcDbDictionary
    280
1
    281
1
    3
ADSK_XREC_LAYER_RECONCILED
    360
155
    0
DICTIONARY
    5
16
    102
{ACAD_REACTORS
    330
C
    102
}
    330
C
    100
AcDbDictionary
    281
1
    3
Standard
    350
232
    0
MLINESTYLE
    5
232
    102
{ACAD_REACTORS
    330
16
    102
}
    330
16
    100
AcDbMlineStyle
    2
Standard
    70
0
    3

    62
256
    51
90.0000025044782
    52
90.0000025044782
    71
2
    49
0.5
    62
256
    49
-0.5
    62
256
    0
DICTIONARY
    5
14D
    102
{ACAD_REACTORS
    330
C
    102
}
    330
C
    100
AcDbDictionary
    281
1
    0
RASTERVARIABLES
    5
14E
    102
{ACAD_REACTORS
    330
C
    102
}
    330
C
    100
AcDbRasterVariables
    90
0
    70
1
    71
1
    72
5
    0
XRECORD
    5
155
    102
{ACAD_REACTORS
    330
E6
    102
}
    330
E6
    100
AcDbXrecord
    280
1
    290
1
    0
ENDSEC
    0
EOF
